<svg width="518" height="279" viewBox="0 0 518 279" fill="none" xmlns="http://www.w3.org/2000/svg">
<path d="M32.8104 233.012L31.1947 241.101C31.0729 241.72 30.9457 242.349 30.8073 242.973C29.4569 242.694 28.0567 242.772 26.7458 243.199C27.7858 244.682 28.7178 246.238 29.5346 247.854C28.5165 250.985 27.0225 253.878 24.5214 255.971C22.8509 257.337 20.8558 258.251 18.7283 258.624C16.6009 258.998 14.413 258.818 12.3755 258.102L12.4475 257.782C9.75823 252.575 11.2191 246.01 14.5612 241.201C16.2659 238.828 18.2856 236.697 20.565 234.867C22.8226 232.99 25.2629 231.306 27.681 229.644C28.2241 229.271 28.8662 229.069 29.5253 229.062C30.1844 229.055 30.8305 229.245 31.3811 229.606C31.9317 229.968 32.3618 230.485 32.6164 231.092C32.871 231.698 32.9385 232.367 32.8104 233.012Z" fill="url(#paint0_linear_322_630)" fill-opacity="0.4"/>
<path d="M12.951 277.565C12.2709 272.622 11.5715 267.615 12.0484 262.619C12.4723 258.182 13.8286 253.848 16.5908 250.294C18.0569 248.412 19.8409 246.799 21.8625 245.528C22.3898 245.196 22.8746 246.03 22.35 246.36C18.8522 248.566 16.1467 251.823 14.6237 255.662C12.9415 259.931 12.6715 264.585 12.9637 269.12C13.1391 271.863 13.5104 274.586 13.885 277.308C13.9152 277.432 13.897 277.562 13.8343 277.672C13.7715 277.782 13.6689 277.864 13.5475 277.901C13.4239 277.935 13.2922 277.918 13.1809 277.855C13.0697 277.792 12.9878 277.688 12.9532 277.565L12.951 277.565Z" fill="url(#paint1_linear_322_630)" fill-opacity="0.4"/>
<path d="M18.7873 29.6141C42.4909 29.2028 66.197 29.1438 89.9058 29.4369C113.611 29.7317 137.308 30.3804 160.998 31.3827C174.291 31.9453 187.579 32.6192 200.861 33.4045C201.928 33.4675 201.924 31.8108 200.861 31.748C177.195 30.3506 153.512 29.305 129.812 28.6112C106.115 27.9192 82.4109 27.5811 58.7002 27.5967C45.3952 27.6055 32.0908 27.7259 18.7873 27.9577C17.7202 27.9762 17.7169 29.6327 18.7873 29.6141V29.6141Z" fill="url(#paint2_linear_322_630)" fill-opacity="0.4"/>
<path d="M183.979 19.2276L194.344 18.4578C195.403 18.3792 195.411 16.7221 194.344 16.8013L183.979 17.5711C182.92 17.6497 182.912 19.3068 183.979 19.2276Z" fill="url(#paint3_linear_322_630)" fill-opacity="0.4"/>
<path d="M183.979 29.1663L194.344 28.3965C195.403 28.3179 195.411 26.6608 194.344 26.7401L183.979 27.5098C182.92 27.5885 182.912 29.2456 183.979 29.1663Z" fill="url(#paint4_linear_322_630)" fill-opacity="0.4"/>
<path d="M183.199 24.6275L197.936 25.9635C199 26.0599 198.993 24.4028 197.936 24.307L183.199 22.9711C182.136 22.8747 182.142 24.5317 183.199 24.6275Z" fill="url(#paint5_linear_322_630)" fill-opacity="0.4"/>
<path d="M24.9213 17.0001C24.2005 16.9956 23.4944 17.203 22.8909 17.5963C22.2874 17.9896 21.8133 18.5514 21.5276 19.2117C21.208 19.858 21.1094 20.591 21.2467 21.2985C21.3841 22.0061 21.7499 22.6492 22.2882 23.1297C22.7943 23.5593 23.4013 23.8539 24.0524 23.9859C24.7036 24.1179 25.3776 24.083 26.0116 23.8845C26.6599 23.6585 27.2221 23.2376 27.6208 22.6797C28.0195 22.1217 28.2351 21.4541 28.2378 20.7689C28.2668 20.0086 28.0604 19.2579 27.6467 18.6188C27.233 17.9797 26.6321 17.4833 25.9257 17.197C25.7134 17.1395 25.487 17.168 25.2958 17.2764C25.1045 17.3847 24.9639 17.5641 24.9047 17.7755C24.8523 17.9871 24.8832 18.2106 24.9911 18.4001C25.0989 18.5897 25.2755 18.7307 25.4844 18.7943C25.629 18.8501 25.3522 18.7233 25.4873 18.7968C25.5428 18.827 25.5994 18.8542 25.654 18.8865C25.7003 18.9139 25.7447 18.9439 25.7898 18.9732C25.9447 19.0741 25.7142 18.8992 25.8132 18.9899C25.8991 19.0685 25.9842 19.1453 26.0622 19.2321C26.0918 19.2649 26.2074 19.3562 26.1175 19.2924C26.0488 19.2436 26.091 19.2551 26.1175 19.2943C26.1376 19.324 26.1589 19.3529 26.1787 19.3828C26.2434 19.4806 26.3023 19.582 26.3549 19.6867C26.3671 19.7109 26.3782 19.7357 26.3907 19.7598C26.4139 19.805 26.4476 19.8168 26.3929 19.7603C26.3407 19.7062 26.374 19.7099 26.3927 19.7619C26.4049 19.7961 26.4183 19.8299 26.4303 19.8642C26.4692 19.9759 26.5019 20.0897 26.5281 20.205C26.5403 20.2584 26.5501 20.312 26.5605 20.3656C26.5976 20.5558 26.5552 20.2474 26.5641 20.3887C26.5716 20.5066 26.5803 20.6233 26.5783 20.7418C26.5773 20.7959 26.575 20.8501 26.5712 20.9041C26.5693 20.9311 26.5662 20.958 26.5645 20.985C26.5559 21.1149 26.5556 20.9375 26.5738 20.9253C26.5359 21.0357 26.5107 21.15 26.4988 21.266C26.4839 21.3175 26.4663 21.3679 26.4497 21.4188C26.392 21.5965 26.504 21.3219 26.4424 21.4434C26.3918 21.5477 26.3351 21.6491 26.2728 21.7469C26.2458 21.7879 26.1438 21.8805 26.2272 21.816C26.3177 21.7461 26.1798 21.8665 26.1503 21.8975C26.1125 21.9373 26.0733 21.9757 26.0326 22.0127C26.0066 22.0381 25.9791 22.0619 25.9503 22.0841C25.945 22.0815 26.089 21.9882 26.0114 22.0375C25.9128 22.1003 25.8194 22.1675 25.7154 22.2221C25.7033 22.2285 25.5705 22.2899 25.571 22.2921C25.5653 22.2697 25.7418 22.23 25.6206 22.2691C25.5952 22.2773 25.5702 22.2872 25.5449 22.2958C25.4345 22.3328 25.3219 22.3628 25.2077 22.3854C25.1816 22.3906 25.1539 22.3932 25.1281 22.3999C25.0423 22.422 25.2101 22.3869 25.2152 22.3898C25.1518 22.387 25.0883 22.3927 25.0263 22.4065C24.9085 22.4132 24.7905 22.4132 24.6727 22.4064C24.6455 22.4049 24.6183 22.4022 24.591 22.4006C24.5278 22.3969 24.4814 22.3514 24.5655 22.4008C24.6305 22.4389 24.6251 22.4111 24.5675 22.4005C24.5406 22.3955 24.5136 22.3913 24.4867 22.3863C24.3701 22.3645 24.2549 22.3364 24.1414 22.3019C24.0804 22.2834 24.0206 22.2618 23.9603 22.2408C23.9341 22.2332 23.9085 22.2234 23.884 22.2114C23.8836 22.2046 24.0392 22.2856 23.9571 22.2414C23.8534 22.1857 23.7462 22.1389 23.6449 22.078C23.5909 22.0455 23.539 22.0101 23.4865 21.9753C23.4634 21.9614 23.4414 21.9457 23.4208 21.9284C23.4225 21.9214 23.5495 22.0388 23.4828 21.9754C23.3986 21.8952 23.3084 21.8235 23.2286 21.7382C23.2103 21.7186 23.1931 21.6982 23.1749 21.6786L23.1573 21.6586C23.1123 21.6037 23.1114 21.604 23.1548 21.6593C23.1987 21.6723 23.1967 21.7205 23.155 21.6579C23.1401 21.6356 23.1243 21.6139 23.1095 21.5916C23.0421 21.4958 22.9846 21.3934 22.9379 21.2859C22.9419 21.2828 23.0098 21.4852 22.9579 21.3325C22.9481 21.3036 22.9371 21.2752 22.9275 21.2463C22.9084 21.1889 22.8916 21.1309 22.8771 21.0722C22.8628 21.0141 22.8554 20.9542 22.8409 20.8963C22.8165 20.7987 22.8552 20.9732 22.8508 20.9689C22.837 20.9553 22.8428 20.8707 22.8418 20.8504C22.8352 20.7205 22.85 20.5943 22.8523 20.4651C22.8541 20.3651 22.844 20.5431 22.8419 20.5379C22.8424 20.5079 22.8478 20.4782 22.8577 20.4499C22.8727 20.3818 22.8867 20.3138 22.9051 20.2464C22.9262 20.1692 22.9504 20.093 22.9778 20.0178C22.9881 19.9896 23.0006 19.9619 23.0101 19.9335C23.045 19.8295 22.9409 20.0591 22.9983 19.9653C23.0773 19.8363 23.1361 19.6967 23.22 19.5692C23.2398 19.539 23.3606 19.3708 23.2965 19.4557C23.2327 19.5403 23.3621 19.3799 23.3866 19.3527C23.4885 19.2396 23.6082 19.1467 23.7136 19.0384C23.776 18.9743 23.67 19.07 23.6638 19.0744C23.6964 19.0512 23.7284 19.027 23.7615 19.0043C23.8191 18.9646 23.8781 18.9272 23.9386 18.8919C24.0067 18.852 24.0837 18.8224 24.1497 18.7802C24.2276 18.7304 24.09 18.8021 24.0876 18.8036C24.1232 18.7859 24.1604 18.7718 24.1988 18.7613C24.263 18.7385 24.5425 18.6182 24.6012 18.6558C24.5985 18.6541 24.3889 18.6727 24.5584 18.6618C24.5984 18.6592 24.6383 18.6553 24.6784 18.6537C24.7595 18.6503 24.8403 18.6524 24.9214 18.6566C25.141 18.6551 25.3513 18.5674 25.5067 18.4124C25.662 18.2574 25.7499 18.0475 25.7514 17.8283C25.7467 17.6101 25.6577 17.4022 25.5031 17.2479C25.3484 17.0935 25.14 17.0048 24.9214 17.0001L24.9213 17.0001Z" fill="url(#paint6_linear_322_630)" fill-opacity="0.4"/>
<path d="M36.5414 17.0001C35.8207 16.9956 35.1145 17.203 34.511 17.5963C33.9075 17.9896 33.4334 18.5514 33.1477 19.2117C32.8281 19.858 32.7295 20.591 32.8669 21.2985C33.0042 22.0061 33.37 22.6492 33.9084 23.1297C34.4144 23.5593 35.0214 23.8539 35.6725 23.9859C36.3237 24.1179 36.9977 24.083 37.6317 23.8845C38.28 23.6585 38.8422 23.2376 39.2409 22.6797C39.6396 22.1217 39.8552 21.4541 39.858 20.7689C39.8869 20.0086 39.6805 19.2579 39.2668 18.6188C38.8531 17.9797 38.2522 17.4833 37.5458 17.197C37.3336 17.1395 37.1071 17.168 36.9159 17.2764C36.7246 17.3847 36.584 17.5641 36.5248 17.7755C36.4724 17.9871 36.5034 18.2106 36.6112 18.4001C36.719 18.5897 36.8956 18.7307 37.1045 18.7943C37.2492 18.8501 36.9724 18.7233 37.1074 18.7968C37.163 18.827 37.2195 18.8542 37.2741 18.8865C37.3204 18.9139 37.3648 18.9439 37.4099 18.9732C37.5649 19.0741 37.3343 18.8992 37.4333 18.9899C37.5192 19.0685 37.6043 19.1453 37.6823 19.2321C37.7119 19.2649 37.8275 19.3562 37.7376 19.2924C37.6689 19.2436 37.7111 19.2551 37.7376 19.2943C37.7577 19.324 37.779 19.3529 37.7988 19.3828C37.8636 19.4806 37.9224 19.582 37.975 19.6867C37.9872 19.7109 37.9984 19.7357 38.0108 19.7598C38.034 19.805 38.0677 19.8168 38.0131 19.7603C37.9608 19.7062 37.9941 19.7099 38.0128 19.7619C38.025 19.7961 38.0385 19.8299 38.0504 19.8642C38.0893 19.9759 38.122 20.0897 38.1483 20.205C38.1604 20.2584 38.1702 20.312 38.1807 20.3656C38.2177 20.5558 38.1753 20.2474 38.1842 20.3887C38.1917 20.5066 38.2004 20.6233 38.1984 20.7418C38.1974 20.7959 38.1951 20.8501 38.1913 20.9041C38.1894 20.9311 38.1864 20.958 38.1846 20.985C38.176 21.1149 38.1757 20.9375 38.1939 20.9253C38.156 21.0357 38.1308 21.15 38.1189 21.266C38.1041 21.3175 38.0864 21.3679 38.0698 21.4188C38.0121 21.5965 38.1241 21.3219 38.0625 21.4434C38.0119 21.5477 37.9552 21.6491 37.893 21.7469C37.8659 21.7879 37.7639 21.8805 37.8473 21.816C37.9378 21.7461 37.7999 21.8665 37.7704 21.8975C37.7326 21.9373 37.6934 21.9757 37.6527 22.0127C37.6267 22.0381 37.5992 22.0619 37.5704 22.0841C37.5651 22.0815 37.7091 21.9882 37.6315 22.0375C37.5329 22.1003 37.4395 22.1675 37.3356 22.2221C37.3235 22.2285 37.1906 22.2899 37.1911 22.2921C37.1854 22.2697 37.362 22.23 37.2408 22.2691C37.2153 22.2773 37.1903 22.2872 37.165 22.2958C37.0546 22.3328 36.942 22.3628 36.8278 22.3854C36.8017 22.3906 36.774 22.3932 36.7483 22.3999C36.6625 22.422 36.8303 22.3869 36.8353 22.3898C36.7719 22.387 36.7084 22.3927 36.6464 22.4065C36.5286 22.4132 36.4106 22.4132 36.2928 22.4064C36.2656 22.4049 36.2384 22.4022 36.2112 22.4006C36.1479 22.3969 36.1015 22.3514 36.1857 22.4008C36.2506 22.4389 36.2452 22.4111 36.1877 22.4005C36.1608 22.3955 36.1337 22.3913 36.1068 22.3863C35.9903 22.3645 35.875 22.3364 35.7615 22.3019C35.7005 22.2834 35.6407 22.2618 35.5805 22.2408C35.5542 22.2332 35.5287 22.2234 35.5041 22.2114C35.5037 22.2046 35.6593 22.2856 35.5772 22.2414C35.4735 22.1857 35.3663 22.1389 35.265 22.078C35.211 22.0455 35.1591 22.0101 35.1066 21.9753C35.0835 21.9614 35.0615 21.9457 35.0409 21.9284C35.0426 21.9214 35.1696 22.0388 35.1029 21.9754C35.0187 21.8952 34.9285 21.8235 34.8487 21.7382C34.8304 21.7186 34.8132 21.6982 34.795 21.6786L34.7774 21.6586C34.7324 21.6037 34.7315 21.604 34.7749 21.6593C34.8189 21.6723 34.8169 21.7205 34.7751 21.6579C34.7602 21.6356 34.7444 21.6139 34.7296 21.5916C34.6622 21.4958 34.6047 21.3934 34.558 21.2859C34.5621 21.2828 34.6299 21.4852 34.578 21.3325C34.5682 21.3036 34.5572 21.2752 34.5476 21.2463C34.5285 21.1889 34.5117 21.1309 34.4972 21.0722C34.4829 21.0141 34.4755 20.9542 34.4611 20.8963C34.4367 20.7987 34.4753 20.9732 34.4709 20.9689C34.4571 20.9553 34.463 20.8707 34.4619 20.8504C34.4553 20.7205 34.4701 20.5943 34.4724 20.4651C34.4742 20.3651 34.4641 20.5431 34.4621 20.5379C34.4626 20.5079 34.4679 20.4782 34.4778 20.4499C34.4928 20.3818 34.5068 20.3138 34.5252 20.2464C34.5463 20.1692 34.5705 20.093 34.5979 20.0178C34.6082 19.9896 34.6207 19.9619 34.6302 19.9335C34.6652 19.8295 34.5611 20.0591 34.6185 19.9653C34.6974 19.8363 34.7562 19.6967 34.8401 19.5692C34.8599 19.539 34.9807 19.3708 34.9166 19.4557C34.8528 19.5403 34.9822 19.3799 35.0068 19.3527C35.1086 19.2396 35.2283 19.1467 35.3337 19.0384C35.3961 18.9743 35.2902 19.07 35.2839 19.0744C35.3166 19.0512 35.3485 19.027 35.3816 19.0043C35.4392 18.9646 35.4982 18.9272 35.5587 18.8919C35.6268 18.852 35.7038 18.8224 35.7698 18.7802C35.8477 18.7304 35.7101 18.8021 35.7077 18.8036C35.7433 18.7859 35.7805 18.7718 35.8189 18.7613C35.8831 18.7385 36.1627 18.6182 36.2213 18.6558C36.2186 18.6541 36.0091 18.6727 36.1785 18.6618C36.2185 18.6592 36.2584 18.6553 36.2985 18.6537C36.3796 18.6503 36.4604 18.6524 36.5415 18.6566C36.7612 18.6551 36.9714 18.5674 37.1268 18.4124C37.2821 18.2574 37.37 18.0475 37.3715 17.8283C37.3668 17.6101 37.2778 17.4022 37.1232 17.2479C36.9685 17.0935 36.7601 17.0048 36.5415 17.0001L36.5414 17.0001Z" fill="url(#paint7_linear_322_630)" fill-opacity="0.4"/>
<path d="M48.1617 17.0001C47.4409 16.9956 46.7348 17.203 46.1313 17.5963C45.5278 17.9896 45.0536 18.5514 44.768 19.2117C44.4484 19.858 44.3497 20.591 44.4871 21.2985C44.6245 22.0061 44.9903 22.6492 45.5286 23.1297C46.0347 23.5593 46.6416 23.8539 47.2928 23.9859C47.9439 24.1179 48.618 24.083 49.2519 23.8845C49.9003 23.6585 50.4625 23.2376 50.8612 22.6797C51.2599 22.1217 51.4754 21.4541 51.4782 20.7689C51.5072 20.0086 51.3008 19.2579 50.8871 18.6188C50.4734 17.9797 49.8725 17.4833 49.166 17.197C48.9538 17.1395 48.7274 17.168 48.5361 17.2764C48.3449 17.3847 48.2043 17.5641 48.145 17.7755C48.0927 17.9871 48.1236 18.2106 48.2314 18.4001C48.3393 18.5897 48.5158 18.7307 48.7247 18.7943C48.8694 18.8501 48.5926 18.7233 48.7277 18.7968C48.7832 18.827 48.8398 18.8542 48.8943 18.8865C48.9407 18.9139 48.9851 18.9439 49.0302 18.9732C49.1851 19.0741 48.9545 18.8992 49.0536 18.9899C49.1394 19.0685 49.2245 19.1453 49.3026 19.2321C49.3321 19.2649 49.4478 19.3562 49.3579 19.2924C49.2891 19.2436 49.3314 19.2551 49.3579 19.2943C49.378 19.324 49.3992 19.3529 49.4191 19.3828C49.4838 19.4806 49.5426 19.582 49.5953 19.6867C49.6075 19.7109 49.6186 19.7357 49.631 19.7598C49.6543 19.805 49.6879 19.8168 49.6333 19.7603C49.5811 19.7062 49.6143 19.7099 49.633 19.7619C49.6453 19.7961 49.6587 19.8299 49.6706 19.8642C49.7096 19.9759 49.7422 20.0897 49.7685 20.205C49.7807 20.2584 49.7905 20.312 49.8009 20.3656C49.838 20.5558 49.7955 20.2474 49.8045 20.3887C49.812 20.5066 49.8207 20.6233 49.8186 20.7418C49.8177 20.7959 49.8153 20.8501 49.8115 20.9041C49.8096 20.9311 49.8066 20.958 49.8048 20.985C49.7962 21.1149 49.7959 20.9375 49.8142 20.9253C49.7762 21.0357 49.7511 21.15 49.7392 21.266C49.7243 21.3175 49.7066 21.3679 49.6901 21.4188C49.6323 21.5965 49.7443 21.3219 49.6828 21.4434C49.6321 21.5477 49.5755 21.6491 49.5132 21.7469C49.4862 21.7879 49.3842 21.8805 49.4676 21.816C49.5581 21.7461 49.4201 21.8665 49.3907 21.8975C49.3529 21.9373 49.3137 21.9757 49.273 22.0127C49.2469 22.0381 49.2195 22.0619 49.1907 22.0841C49.1854 22.0815 49.3293 21.9882 49.2517 22.0375C49.1531 22.1003 49.0597 22.1675 48.9558 22.2221C48.9437 22.2285 48.8108 22.2899 48.8114 22.2921C48.8056 22.2697 48.9822 22.23 48.861 22.2691C48.8356 22.2773 48.8106 22.2872 48.7852 22.2958C48.6749 22.3328 48.5623 22.3628 48.4481 22.3854C48.4219 22.3906 48.3943 22.3932 48.3685 22.3999C48.2827 22.422 48.4505 22.3869 48.4555 22.3898C48.3921 22.387 48.3286 22.3927 48.2667 22.4065C48.1489 22.4132 48.0308 22.4132 47.9131 22.4064C47.8858 22.4049 47.8586 22.4022 47.8314 22.4006C47.7681 22.3969 47.7217 22.3514 47.8059 22.4008C47.8708 22.4389 47.8654 22.4111 47.8079 22.4005C47.781 22.3955 47.754 22.3913 47.7271 22.3863C47.6105 22.3645 47.4952 22.3364 47.3818 22.3019C47.3207 22.2834 47.2609 22.2618 47.2007 22.2408C47.1745 22.2332 47.1489 22.2234 47.1243 22.2114C47.124 22.2046 47.2796 22.2856 47.1974 22.2414C47.0937 22.1857 46.9865 22.1389 46.8853 22.078C46.8313 22.0455 46.7794 22.0101 46.7268 21.9753C46.7037 21.9614 46.6818 21.9457 46.6611 21.9284C46.6629 21.9214 46.7898 22.0388 46.7232 21.9754C46.6389 21.8952 46.5488 21.8235 46.4689 21.7382C46.4507 21.7186 46.4334 21.6982 46.4152 21.6786L46.3976 21.6586C46.3526 21.6037 46.3518 21.604 46.3951 21.6593C46.4391 21.6723 46.4371 21.7205 46.3954 21.6579C46.3805 21.6356 46.3647 21.6139 46.3498 21.5916C46.2824 21.4958 46.2249 21.3934 46.1783 21.2859C46.1823 21.2828 46.2502 21.4852 46.1983 21.3325C46.1885 21.3036 46.1774 21.2752 46.1678 21.2463C46.1488 21.1889 46.132 21.1309 46.1175 21.0722C46.1031 21.0141 46.0958 20.9542 46.0813 20.8963C46.0569 20.7987 46.0956 20.9732 46.0911 20.9689C46.0773 20.9553 46.0832 20.8707 46.0822 20.8504C46.0755 20.7205 46.0904 20.5943 46.0927 20.4651C46.0945 20.3651 46.0844 20.5431 46.0823 20.5379C46.0828 20.5079 46.0881 20.4782 46.098 20.4499C46.1131 20.3818 46.1271 20.3138 46.1454 20.2464C46.1665 20.1692 46.1908 20.093 46.2182 20.0178C46.2284 19.9896 46.2409 19.9619 46.2505 19.9335C46.2854 19.8295 46.1813 20.0591 46.2387 19.9653C46.3177 19.8363 46.3765 19.6967 46.4603 19.5692C46.4802 19.539 46.601 19.3708 46.5369 19.4557C46.473 19.5403 46.6025 19.3799 46.627 19.3527C46.7288 19.2396 46.8485 19.1467 46.9539 19.0384C47.0163 18.9743 46.9104 19.07 46.9041 19.0744C46.9368 19.0512 46.9688 19.027 47.0018 19.0043C47.0594 18.9646 47.1185 18.9272 47.1789 18.8919C47.247 18.852 47.324 18.8224 47.39 18.7802C47.468 18.7304 47.3304 18.8021 47.3279 18.8036C47.3635 18.7859 47.4008 18.7718 47.4391 18.7613C47.5034 18.7385 47.7829 18.6182 47.8415 18.6558C47.8389 18.6541 47.6293 18.6727 47.7987 18.6618C47.8388 18.6592 47.8786 18.6553 47.9187 18.6537C47.9999 18.6503 48.0807 18.6524 48.1617 18.6566C48.3814 18.6551 48.5917 18.5674 48.747 18.4124C48.9024 18.2574 48.9903 18.0475 48.9917 17.8283C48.987 17.6101 48.8981 17.4022 48.7434 17.2479C48.5888 17.0935 48.3804 17.0048 48.1617 17.0001L48.1617 17.0001Z" fill="url(#paint8_linear_322_630)" fill-opacity="0.4"/>
<path d="M216.031 200.431H12.4535C9.87921 200.428 7.41119 199.407 5.59089 197.59C3.7706 195.774 2.74667 193.311 2.74377 190.743V9.68881C2.74666 7.12006 3.77057 4.65735 5.59086 2.84097C7.41115 1.02459 9.87918 0.00288048 12.4535 0H216.031C218.605 0.00288049 221.073 1.02459 222.893 2.84097C224.713 4.65735 225.737 7.12006 225.74 9.68881V190.743C225.737 193.311 224.713 195.774 222.893 197.59C221.073 199.407 218.605 200.428 216.031 200.431ZM12.4535 1.1043C10.1726 1.10689 7.9859 2.01216 6.37308 3.62151C4.76027 5.23085 3.85305 7.41285 3.85046 9.68881V190.743C3.85311 193.018 4.76036 195.2 6.37317 196.81C7.98598 198.419 10.1726 199.324 12.4535 199.327H216.031C218.311 199.324 220.498 198.419 222.111 196.81C223.724 195.2 224.631 193.018 224.634 190.743V9.68881C224.631 7.41285 223.724 5.23085 222.111 3.62151C220.498 2.01216 218.311 1.10689 216.031 1.1043H12.4535Z" fill="url(#paint9_linear_322_630)" fill-opacity="0.4"/>
<path d="M12.1162 123.188L83.707 122.971L154.933 122.755L195.111 122.633C195.326 122.626 195.53 122.535 195.68 122.381C195.829 122.226 195.913 122.02 195.913 121.805C195.913 121.59 195.829 121.384 195.68 121.229C195.53 121.075 195.326 120.984 195.111 120.977L123.52 121.194L52.2947 121.41L12.1162 121.532C11.901 121.539 11.6972 121.63 11.5476 121.784C11.3981 121.939 11.3145 122.145 11.3145 122.36C11.3145 122.575 11.3981 122.781 11.5476 122.936C11.6972 123.09 11.901 123.181 12.1162 123.188Z" fill="url(#paint10_linear_322_630)" fill-opacity="0.4"/>
<path d="M48.2326 121.845L48.6752 95.7634C48.6933 94.6971 47.0333 94.6969 47.0152 95.7634L46.5725 121.845C46.5544 122.912 48.2145 122.912 48.2326 121.845Z" fill="#E6E6E6"/>
<path d="M82.4487 122.128L83.5274 89.3439L83.8357 79.9772C83.8707 78.911 82.2107 78.9122 82.1756 79.9772L81.0968 112.761L80.7886 122.128C80.7535 123.194 82.4136 123.193 82.4487 122.128Z" fill="url(#paint11_linear_322_630)" fill-opacity="0.4"/>
<path d="M116.572 64.4367C115.922 76.0485 114.718 110.298 114.067 121.91C114.007 122.975 115.667 122.972 115.727 121.91C116.378 110.298 117.582 76.0485 118.232 64.4367C118.292 63.3716 116.632 63.375 116.572 64.4367Z" fill="url(#paint12_linear_322_630)" fill-opacity="0.4"/>
<path d="M150.532 110.259L150.328 121.419C150.309 122.486 151.969 122.486 151.988 121.419C152.229 108.238 152.845 108.668 152.913 104.947C152.932 103.881 151.272 103.881 151.253 104.947C151.253 104.947 150.772 97.0771 150.532 110.259Z" fill="url(#paint13_linear_322_630)" fill-opacity="0.4"/>
<path d="M183.794 80.9392L183.982 112.251L184.036 121.217C184.043 121.432 184.134 121.635 184.289 121.784C184.444 121.934 184.65 122.017 184.866 122.017C185.081 122.017 185.288 121.934 185.443 121.784C185.598 121.635 185.688 121.432 185.696 121.217L185.508 89.9051L185.454 80.9392C185.447 80.7245 185.356 80.5211 185.201 80.3718C185.046 80.2226 184.839 80.1392 184.624 80.1392C184.409 80.1392 184.202 80.2226 184.047 80.3718C183.892 80.5211 183.802 80.7245 183.794 80.9392Z" fill="url(#paint14_linear_322_630)" fill-opacity="0.4"/>
<path d="M12.2497 122.256C10.8756 118.489 13.9731 114.865 17.1558 113.236C20.9689 111.285 25.3553 110.843 29.2088 108.962C34.9538 106.159 39.1382 101.127 42.8616 96.0897C46.6939 90.9054 50.2004 85.3413 55.07 81.0338C57.6361 78.7134 60.6668 76.9633 63.9615 75.8993C68.1128 74.6065 72.5155 74.5179 76.805 75.0388C85.6688 76.1154 93.8856 79.7685 102.438 82.0903C110.501 84.2794 119.386 85.5103 127.3 82.1063C131.321 80.3768 134.609 77.4761 138.141 74.966C141.559 72.5113 145.381 70.6717 149.434 69.5303C157.379 67.3258 166.055 67.9144 173.452 71.6412C180.251 75.0228 185.634 80.6924 188.652 87.6494C192.158 96.0082 191.702 105.349 190.556 114.147C190.26 116.421 189.908 118.688 189.552 120.953C189.388 121.996 190.987 122.445 191.153 121.394C192.579 112.321 194.001 102.962 192.226 93.8324C190.692 85.8608 186.299 78.7202 179.869 73.747C173.413 68.7602 165.387 66.2326 157.232 66.6179C152.958 66.8159 148.751 67.7495 144.796 69.3778C140.69 71.0723 137.214 73.5838 133.683 76.2266C130.052 78.9437 126.309 81.1912 121.802 82.0773C117.43 82.9369 112.881 82.6147 108.528 81.8031C99.546 80.1285 91.1739 76.2898 82.2681 74.3229C74.0168 72.5006 65.113 72.3185 57.7244 76.9699C52.0408 80.5478 48.0247 86.1025 44.1704 91.4661C40.3499 96.7827 36.4811 102.468 30.8946 106.1C27.4867 108.315 23.6559 109.133 19.8436 110.378C16.0215 111.628 12.3523 113.735 10.7939 117.642C10.1222 119.252 10.0706 121.052 10.649 122.697C11.0114 123.691 12.6162 123.262 12.2497 122.256V122.256Z" fill="url(#paint15_linear_322_630)" fill-opacity="0.4"/>
<path d="M47.6832 92.157L47.6798 92.1587L47.6867 92.157H47.6832Z" fill="#E6E6E6"/>
<path d="M50.5602 90.6331C50.1766 89.9552 49.5645 89.4349 48.8327 89.1646C48.101 88.8944 47.2969 88.8917 46.5634 89.1571C46.1987 89.2899 45.8645 89.4943 45.5804 89.7582C45.2963 90.0222 45.0681 90.3403 44.9094 90.6938C44.8776 90.7689 44.859 90.8479 44.8331 90.9249C44.7971 90.9829 44.7539 91.0353 44.7217 91.096C44.3776 91.7801 44.2834 92.5625 44.4553 93.3085C44.6271 94.0544 45.0543 94.7172 45.6632 95.1827C46.2721 95.6482 47.0247 95.8873 47.7912 95.8587C48.5577 95.8301 49.2903 95.5357 49.8627 95.0262C50.4643 94.4835 50.8615 93.7517 50.9884 92.9525C51.1154 92.1533 50.9642 91.3348 50.5602 90.6331ZM48.4812 92.0398C48.488 92.0816 48.4855 92.12 48.4812 92.0398V92.0398ZM48.2699 91.5603C48.2617 91.551 48.2627 91.552 48.2699 91.5603V91.5603ZM47.3384 91.9341C47.3259 91.9149 47.3247 91.9117 47.3384 91.9341V91.9341ZM47.5592 92.1208C47.6117 92.1387 47.5909 92.135 47.5592 92.1208V92.1208ZM47.6578 92.1677L47.6796 92.1577C47.6743 92.1582 47.6689 92.1572 47.6641 92.1547L47.6648 92.1546L47.6819 92.1567L47.6851 92.1552L47.6752 92.1529C47.6838 92.1526 47.6848 92.1538 47.6853 92.1552C47.7841 92.11 47.7172 92.1317 47.66 92.1494L47.6562 92.1485C47.6204 92.1304 47.582 92.1181 47.5423 92.1121C47.5387 92.1101 47.5343 92.1086 47.5313 92.1064C47.4995 92.0838 47.3389 91.9586 47.4879 92.0899C47.4555 92.0613 47.4234 92.0332 47.3929 92.0024C47.3749 91.984 47.3586 91.964 47.3442 91.9427C47.3247 91.9092 47.3057 91.8755 47.2873 91.8414L47.2846 91.823C47.2821 91.8078 47.2803 91.8014 47.2783 91.7923C47.2792 91.7828 47.2808 91.7726 47.2822 91.7627C47.2934 91.733 47.3005 91.7018 47.3033 91.6702L47.3097 91.6621C47.3336 91.6289 47.3545 91.5902 47.3772 91.5556C47.2569 91.738 47.4243 91.5355 47.4368 91.5099C47.4389 91.5055 47.4352 91.5079 47.4361 91.5049C47.441 91.5022 47.4395 91.504 47.4453 91.5006C47.4826 91.4787 47.518 91.4542 47.5558 91.4333C47.6009 91.4084 47.7785 91.3581 47.5943 91.4106C47.6362 91.3987 47.6763 91.3836 47.7186 91.3726C47.7263 91.3706 47.7883 91.3619 47.8217 91.3559C47.851 91.3552 47.8795 91.3543 47.8825 91.3544C47.8963 91.3545 47.91 91.3562 47.9238 91.3568C47.8932 91.3609 48.0287 91.3901 48.0689 91.3963C48.0747 91.4008 48.0777 91.4038 48.0856 91.4095C48.1196 91.4343 48.161 91.4564 48.1969 91.4795C48.0364 91.376 48.199 91.4877 48.2297 91.5183C48.248 91.5366 48.2649 91.5562 48.2821 91.5754C48.298 91.5937 48.3123 91.6133 48.3249 91.6339C48.3512 91.682 48.3792 91.7307 48.4069 91.7781L48.4145 91.7902C48.4144 91.7918 48.4143 91.7934 48.4143 91.7949C48.4287 91.8717 48.45 91.9471 48.4779 92.0201C48.4792 92.0263 48.4803 92.0325 48.481 92.0388C48.4836 92.0809 48.4871 92.1228 48.4872 92.1651L48.4868 92.1736C48.359 92.1071 48.2171 92.0719 48.073 92.0709C47.9288 92.0699 47.7865 92.103 47.6577 92.1677H47.6578Z" fill="url(#paint16_linear_322_630)" fill-opacity="0.4"/>
<path d="M47.6874 92.1558C47.6918 92.1571 47.6876 92.1569 47.6866 92.1573L47.6874 92.1558Z" fill="#E6E6E6"/>
<path d="M47.6865 92.1558L47.6876 92.1561L47.6865 92.1558Z" fill="#E6E6E6"/>
<path d="M47.6887 92.1567L47.6842 92.1574C47.6899 92.158 47.6879 92.1571 47.6887 92.1567Z" fill="#E6E6E6"/>
<path d="M47.6853 92.1553L47.6873 92.1563L47.6853 92.1553Z" fill="#E6E6E6"/>
<path d="M83.0971 76.6965L83.0936 76.6982L83.1005 76.6965H83.0971Z" fill="#E6E6E6"/>
<path d="M85.974 75.1729C85.5904 74.495 84.9783 73.9747 84.2465 73.7044C83.5148 73.4342 82.7107 73.4315 81.9772 73.6968C81.6125 73.8297 81.2783 74.0341 80.9942 74.298C80.7101 74.562 80.4819 74.8801 80.3232 75.2336C80.2914 75.3087 80.2728 75.3877 80.2469 75.4646C80.2109 75.5227 80.1677 75.5751 80.1355 75.6358C79.7914 76.3199 79.6972 77.1023 79.8691 77.8483C80.041 78.5942 80.4681 79.257 81.077 79.7225C81.6859 80.188 82.4385 80.427 83.205 80.3985C83.9715 80.3699 84.7041 80.0755 85.2765 79.5659C85.8781 79.0233 86.2753 78.2915 86.4022 77.4923C86.5291 76.6931 86.378 75.8746 85.974 75.1729ZM83.895 76.5796C83.9018 76.6214 83.8993 76.6598 83.895 76.5796V76.5796ZM83.6837 76.1001C83.6755 76.0908 83.6765 76.0918 83.6837 76.1001V76.1001ZM82.7522 76.4738C82.7397 76.4547 82.7385 76.4515 82.7522 76.4738V76.4738ZM82.973 76.6606C83.0255 76.6785 83.0047 76.6748 82.973 76.6606V76.6606ZM83.0716 76.7075L83.0934 76.6975C83.0881 76.698 83.0827 76.697 83.0779 76.6945L83.0785 76.6943L83.0957 76.6965L83.0989 76.695L83.089 76.6927C83.0976 76.6924 83.0985 76.6936 83.0991 76.6949C83.1979 76.6498 83.131 76.6715 83.0737 76.6892L83.0699 76.6883C83.0342 76.6702 82.9958 76.6579 82.9561 76.6519C82.9525 76.6498 82.9481 76.6484 82.9451 76.6462C82.9133 76.6236 82.7526 76.4984 82.9017 76.6297C82.8692 76.6011 82.8372 76.573 82.8067 76.5422C82.7887 76.5238 82.7724 76.5038 82.758 76.4825C82.7384 76.449 82.7195 76.4152 82.7011 76.3812L82.6984 76.3628C82.6959 76.3476 82.6941 76.3412 82.6921 76.3321C82.693 76.3226 82.6945 76.3124 82.696 76.3025C82.7072 76.2727 82.7142 76.2416 82.7171 76.21L82.7235 76.2019C82.7474 76.1687 82.7682 76.1299 82.791 76.0954C82.6707 76.2778 82.838 76.0753 82.8505 76.0497C82.8527 76.0453 82.849 76.0477 82.8499 76.0447C82.8547 76.042 82.8532 76.0438 82.8591 76.0404C82.8964 76.0185 82.9317 75.994 82.9696 75.9731C83.0147 75.9482 83.1923 75.8979 83.0081 75.9504C83.0499 75.9385 83.0901 75.9234 83.1324 75.9124C83.14 75.9104 83.202 75.9017 83.2355 75.8957C83.2648 75.895 83.2932 75.8941 83.2962 75.8941C83.31 75.8943 83.3238 75.896 83.3376 75.8966C83.307 75.9007 83.4425 75.9299 83.4827 75.9361C83.4885 75.9406 83.4915 75.9435 83.4994 75.9493C83.5334 75.9741 83.5748 75.9962 83.6107 76.0193C83.4502 75.9158 83.6128 76.0275 83.6434 76.0581C83.6618 76.0764 83.6787 76.0959 83.6959 76.1152C83.7117 76.1335 83.726 76.1531 83.7387 76.1737C83.765 76.2218 83.793 76.2705 83.8206 76.3179L83.8283 76.33C83.8281 76.3316 83.8281 76.3332 83.8281 76.3347C83.8425 76.4115 83.8638 76.4869 83.8916 76.5599C83.893 76.566 83.8941 76.5723 83.8948 76.5786C83.8973 76.6206 83.9009 76.6626 83.901 76.7049L83.9006 76.7134C83.7728 76.6469 83.6309 76.6117 83.4868 76.6107C83.3426 76.6096 83.2003 76.6428 83.0716 76.7075Z" fill="url(#paint17_linear_322_630)" fill-opacity="0.4"/>
<path d="M83.1025 76.6965L83.098 76.6972C83.1038 76.6978 83.1017 76.6969 83.1025 76.6965Z" fill="#E6E6E6"/>
<path d="M83.0991 76.6951L83.1011 76.6961L83.0991 76.6951Z" fill="#E6E6E6"/>
<path d="M83.1013 76.6956C83.1056 76.6969 83.1014 76.6967 83.1005 76.6971L83.1013 76.6956Z" fill="#E6E6E6"/>
<path d="M83.1003 76.6953L83.1014 76.6956L83.1003 76.6953Z" fill="#E6E6E6"/>
<path d="M117.406 84.425L117.408 84.4261L117.406 84.425Z" fill="#E6E6E6"/>
<path d="M120.281 59.7127C119.897 59.0348 119.285 58.5145 118.554 58.2442C117.822 57.974 117.018 57.9713 116.284 58.2366C115.92 58.3694 115.585 58.5739 115.301 58.8378C115.017 59.1018 114.789 59.4199 114.63 59.7734C114.599 59.8485 114.58 59.9275 114.554 60.0044C114.518 60.0625 114.475 60.1149 114.443 60.1756C114.099 60.8597 114.004 61.6421 114.176 62.3881C114.348 63.134 114.775 63.7968 115.384 64.2623C115.993 64.7278 116.746 64.9669 117.512 64.9383C118.279 64.9097 119.011 64.6153 119.584 64.1058C120.185 63.5631 120.582 62.8313 120.709 62.0321C120.836 61.2329 120.685 60.4144 120.281 59.7127ZM118.202 61.1194C118.209 61.1612 118.206 61.1996 118.202 61.1194V61.1194ZM117.991 60.6399C117.983 60.6306 117.984 60.6316 117.991 60.6399V60.6399ZM117.059 61.0136C117.047 60.9945 117.046 60.9913 117.059 61.0136V61.0136ZM117.28 61.2004C117.333 61.2183 117.312 61.2146 117.28 61.2004V61.2004ZM117.379 61.2473L117.401 61.2373C117.395 61.2378 117.39 61.2368 117.385 61.2343L117.386 61.2342L117.403 61.2363L117.406 61.2348L117.396 61.2325C117.405 61.2322 117.406 61.2334 117.406 61.2347C117.505 61.1896 117.438 61.2113 117.381 61.229L117.377 61.2281C117.341 61.21 117.303 61.1977 117.263 61.1917C117.26 61.1897 117.255 61.1882 117.252 61.186C117.22 61.1634 117.06 61.0382 117.209 61.1695C117.176 61.1409 117.144 61.1128 117.114 61.082C117.096 61.0636 117.08 61.0436 117.065 61.0223C117.046 60.9888 117.027 60.955 117.008 60.921L117.005 60.9026C117.003 60.8874 117.001 60.881 116.999 60.8719C117 60.8624 117.002 60.8522 117.003 60.8423C117.014 60.8125 117.021 60.7814 117.024 60.7498L117.031 60.7417C117.054 60.7085 117.075 60.6697 117.098 60.6352C116.978 60.8176 117.145 60.6151 117.158 60.5895C117.16 60.5851 117.156 60.5875 117.157 60.5845C117.162 60.5818 117.16 60.5836 117.166 60.5802C117.204 60.5583 117.239 60.5338 117.277 60.5129C117.322 60.488 117.499 60.4377 117.315 60.4902C117.357 60.4783 117.397 60.4632 117.44 60.4522C117.447 60.4502 117.509 60.4415 117.543 60.4355C117.572 60.4348 117.6 60.4339 117.603 60.4339C117.617 60.4341 117.631 60.4358 117.645 60.4364C117.614 60.4405 117.75 60.4697 117.79 60.4759C117.796 60.4804 117.799 60.4833 117.807 60.4891C117.841 60.5139 117.882 60.536 117.918 60.5591C117.757 60.4556 117.92 60.5673 117.951 60.5979C117.969 60.6162 117.986 60.6357 118.003 60.655C118.019 60.6733 118.033 60.6929 118.046 60.7135C118.072 60.7616 118.1 60.8103 118.128 60.8577L118.135 60.8698C118.135 60.8714 118.135 60.873 118.135 60.8745C118.15 60.9513 118.171 61.0267 118.199 61.0997C118.2 61.1058 118.201 61.1121 118.202 61.1184C118.204 61.1604 118.208 61.2024 118.208 61.2447L118.208 61.2532C118.08 61.1867 117.938 61.1515 117.794 61.1505C117.65 61.1494 117.507 61.1826 117.379 61.2473Z" fill="url(#paint18_linear_322_630)" fill-opacity="0.4"/>
<path d="M117.404 84.4268L117.401 84.4285L117.408 84.4268H117.404Z" fill="#E6E6E6"/>
<path d="M117.407 84.4255L117.409 84.4259L117.407 84.4255Z" fill="#E6E6E6"/>
<path d="M117.41 84.4265L117.405 84.4272C117.411 84.4278 117.409 84.4268 117.41 84.4265Z" fill="#E6E6E6"/>
<path d="M117.408 84.4258C117.413 84.4271 117.409 84.4269 117.408 84.4273L117.408 84.4258Z" fill="#E6E6E6"/>
<path d="M155.142 102.229C154.758 101.551 154.146 101.03 153.414 100.76C152.682 100.49 151.878 100.487 151.145 100.753C150.78 100.885 150.446 101.09 150.162 101.354C149.878 101.618 149.65 101.936 149.491 102.289C149.459 102.364 149.44 102.443 149.414 102.52C149.379 102.578 149.335 102.631 149.303 102.691C148.959 103.376 148.865 104.158 149.037 104.904C149.209 105.65 149.636 106.313 150.245 106.778C150.854 107.244 151.606 107.483 152.373 107.454C153.139 107.426 153.872 107.131 154.444 106.622C155.046 106.079 155.443 105.347 155.57 104.548C155.697 103.749 155.546 102.93 155.142 102.229ZM153.063 103.635C153.069 103.677 153.067 103.715 153.063 103.635V103.635ZM152.851 103.156C152.843 103.146 152.844 103.147 152.851 103.156V103.156ZM151.92 103.53C151.907 103.51 151.906 103.507 151.92 103.53V103.53ZM152.141 103.716C152.193 103.734 152.172 103.73 152.141 103.716V103.716ZM152.239 103.763L152.261 103.753C152.256 103.754 152.25 103.753 152.245 103.75L152.246 103.75L152.263 103.752L152.266 103.751L152.257 103.748C152.265 103.748 152.266 103.749 152.267 103.751C152.365 103.705 152.299 103.727 152.241 103.745L152.238 103.744C152.202 103.726 152.163 103.714 152.124 103.708C152.12 103.706 152.116 103.704 152.113 103.702C152.081 103.679 151.92 103.554 152.069 103.685C152.037 103.657 152.005 103.629 151.974 103.598C151.956 103.579 151.94 103.559 151.926 103.538C151.906 103.505 151.887 103.471 151.869 103.437L151.866 103.418C151.864 103.403 151.862 103.397 151.86 103.388C151.861 103.378 151.862 103.368 151.864 103.358C151.875 103.328 151.882 103.297 151.885 103.266L151.891 103.258C151.915 103.224 151.936 103.186 151.959 103.151C151.838 103.333 152.006 103.131 152.018 103.105C152.02 103.101 152.017 103.103 152.017 103.1C152.022 103.098 152.021 103.099 152.027 103.096C152.064 103.074 152.099 103.05 152.137 103.029C152.182 103.004 152.36 102.954 152.176 103.006C152.218 102.994 152.258 102.979 152.3 102.968C152.308 102.966 152.37 102.957 152.403 102.951C152.432 102.951 152.461 102.95 152.464 102.95C152.478 102.95 152.491 102.952 152.505 102.952C152.475 102.956 152.61 102.986 152.65 102.992C152.656 102.996 152.659 102.999 152.667 103.005C152.701 103.03 152.742 103.052 152.778 103.075C152.618 102.971 152.78 103.083 152.811 103.114C152.829 103.132 152.846 103.152 152.864 103.171C152.879 103.189 152.894 103.209 152.906 103.229C152.933 103.277 152.961 103.326 152.988 103.374L152.996 103.386C152.996 103.387 152.996 103.389 152.996 103.39C153.01 103.467 153.031 103.543 153.059 103.616C153.061 103.622 153.062 103.628 153.062 103.634C153.065 103.676 153.068 103.718 153.069 103.761L153.068 103.769C152.94 103.703 152.799 103.667 152.654 103.666C152.51 103.665 152.368 103.698 152.239 103.763Z" fill="url(#paint19_linear_322_630)" fill-opacity="0.4"/>
<path d="M152.265 67.3101L152.261 67.3118L152.268 67.3101H152.265Z" fill="#E6E6E6"/>
<path d="M152.268 67.3088L152.269 67.3092L152.268 67.3088Z" fill="#E6E6E6"/>
<path d="M152.27 67.3098L152.266 67.3105C152.271 67.3111 152.269 67.3101 152.27 67.3098Z" fill="#E6E6E6"/>
<path d="M152.269 67.3091C152.273 67.3104 152.269 67.3102 152.268 67.3106L152.269 67.3091Z" fill="#E6E6E6"/>
<path d="M152.267 67.3083L152.269 67.3093L152.267 67.3083Z" fill="#E6E6E6"/>
<path d="M184.915 78.3518L184.916 78.3521L184.915 78.3518Z" fill="#E6E6E6"/>
<path d="M187.789 76.8294C187.405 76.1515 186.793 75.6312 186.061 75.3609C185.33 75.0907 184.526 75.088 183.792 75.3533C183.427 75.4861 183.093 75.6906 182.809 75.9545C182.525 76.2185 182.297 76.5366 182.138 76.8901C182.106 76.9652 182.088 77.0442 182.062 77.1211C182.026 77.1792 181.983 77.2316 181.95 77.2923C181.606 77.9764 181.512 78.7588 181.684 79.5048C181.856 80.2507 182.283 80.9135 182.892 81.379C183.501 81.8445 184.253 82.0836 185.02 82.055C185.786 82.0264 186.519 81.732 187.091 81.2225C187.693 80.6798 188.09 79.948 188.217 79.1488C188.344 78.3496 188.193 77.5311 187.789 76.8294ZM185.71 78.2361C185.717 78.2779 185.714 78.3163 185.71 78.2361V78.2361ZM185.498 77.7566C185.49 77.7473 185.491 77.7483 185.498 77.7566V77.7566ZM184.567 78.1303C184.555 78.1112 184.553 78.108 184.567 78.1303V78.1303ZM184.788 78.3171C184.84 78.335 184.82 78.3313 184.788 78.3171V78.3171ZM184.886 78.364L184.908 78.354C184.903 78.3545 184.897 78.3535 184.893 78.351L184.893 78.3509L184.91 78.353L184.914 78.3515L184.904 78.3492C184.912 78.3489 184.913 78.3501 184.914 78.3514C185.013 78.3063 184.946 78.328 184.889 78.3457L184.885 78.3448C184.849 78.3267 184.811 78.3144 184.771 78.3084C184.767 78.3063 184.763 78.3049 184.76 78.3027C184.728 78.2801 184.567 78.1549 184.716 78.2862C184.684 78.2576 184.652 78.2295 184.622 78.1987C184.604 78.1803 184.587 78.1603 184.573 78.139C184.553 78.1055 184.534 78.0717 184.516 78.0377L184.513 78.0193C184.511 78.0041 184.509 77.9977 184.507 77.9886C184.508 77.9791 184.509 77.9689 184.511 77.959C184.522 77.9292 184.529 77.8981 184.532 77.8665L184.538 77.8584C184.562 77.8252 184.583 77.7864 184.606 77.7519C184.486 77.9343 184.653 77.7318 184.665 77.7062C184.667 77.7018 184.664 77.7042 184.665 77.7012C184.67 77.6985 184.668 77.7003 184.674 77.6969C184.711 77.675 184.747 77.6505 184.784 77.6296C184.83 77.6047 185.007 77.5544 184.823 77.6069C184.865 77.595 184.905 77.5799 184.947 77.5689C184.955 77.5669 185.017 77.5582 185.05 77.5522C185.08 77.5515 185.108 77.5506 185.111 77.5506C185.125 77.5508 185.139 77.5525 185.152 77.5531C185.122 77.5572 185.257 77.5864 185.298 77.5926C185.303 77.5971 185.306 77.6 185.314 77.6058C185.348 77.6306 185.39 77.6527 185.426 77.6758C185.265 77.5723 185.428 77.684 185.458 77.7146C185.477 77.7329 185.493 77.7524 185.511 77.7717C185.527 77.79 185.541 77.8096 185.554 77.8302C185.58 77.8783 185.608 77.927 185.635 77.9744L185.643 77.9865C185.643 77.9881 185.643 77.9897 185.643 77.9912C185.657 78.068 185.679 78.1434 185.706 78.2164C185.708 78.2225 185.709 78.2288 185.71 78.2351C185.712 78.2771 185.716 78.3191 185.716 78.3614L185.715 78.3699C185.588 78.3034 185.446 78.2682 185.302 78.2672C185.157 78.2661 185.015 78.2993 184.886 78.364Z" fill="url(#paint20_linear_322_630)" fill-opacity="0.4"/>
<path d="M184.912 78.353L184.908 78.3547L184.915 78.353H184.912Z" fill="#E6E6E6"/>
<path d="M184.914 78.3513L184.916 78.3523L184.914 78.3513Z" fill="#E6E6E6"/>
<path d="M184.916 78.3521C184.92 78.3534 184.916 78.3532 184.915 78.3535L184.916 78.3521Z" fill="#E6E6E6"/>
<path d="M184.917 78.3528L184.913 78.3535C184.918 78.3541 184.916 78.3531 184.917 78.3528Z" fill="#E6E6E6"/>
<path d="M175.964 103.657L150.236 105.084C150.091 105.092 149.948 105.045 149.837 104.951C149.726 104.857 149.656 104.724 149.64 104.58C149.624 104.436 149.665 104.292 149.753 104.176C149.841 104.061 149.97 103.984 150.113 103.96L176.41 99.6904L175.964 103.657Z" fill="#3F3D56"/>
<path d="M208.662 160.814L218.357 144.537L225.523 147.915C225.523 147.915 213.175 163.304 212.782 163.747C212.95 164.495 212.887 165.276 212.601 165.988C212.315 166.699 211.819 167.307 211.178 167.731C210.538 168.155 209.784 168.375 209.016 168.362C208.248 168.35 207.502 168.104 206.876 167.659C206.251 167.214 205.776 166.59 205.513 165.869C205.251 165.148 205.214 164.365 205.408 163.623C205.601 162.881 206.016 162.215 206.597 161.714C207.178 161.212 207.898 160.898 208.662 160.814Z" fill="#FFB6B6"/>
<path d="M212.695 123.005L228.403 131.183C229.384 131.888 230.208 132.791 230.82 133.832C231.432 134.873 231.82 136.03 231.958 137.23C232.097 138.429 231.983 139.644 231.624 140.797C231.266 141.95 230.67 143.015 229.875 143.925L219.046 156.321L214.328 149.942L217.964 142.356L210.924 140.503L212.695 123.005Z" fill="#2042B8"/>
<path d="M167.931 103.923L166.162 122.775L158.237 122.789C158.237 122.789 162.784 103.604 162.949 103.035C162.475 102.431 162.197 101.699 162.15 100.933C162.103 100.168 162.29 99.4066 162.686 98.7498C163.082 98.0929 163.669 97.5715 164.369 97.2546C165.068 96.9377 165.848 96.8402 166.604 96.975C167.361 97.1098 168.058 97.4705 168.604 98.0095C169.151 98.5485 169.52 99.2403 169.664 99.9934C169.808 100.746 169.719 101.525 169.41 102.227C169.1 102.929 168.585 103.52 167.931 103.923V103.923Z" fill="#FFB6B6"/>
<path d="M183.706 142.475L165.466 139.137C157.785 138.216 154.632 133.173 156.018 128.254L160.479 112.423L167.481 116.169L167.454 124.579L177.255 123.242L183.706 142.475Z" fill="#2042B8"/>
<path d="M176.24 272.758H171.224L168.838 253.454H176.241L176.24 272.758Z" fill="#FFB6B6"/>
<path d="M176.417 277.98L160.993 277.979V277.785C160.993 276.196 161.626 274.672 162.751 273.549C163.877 272.426 165.404 271.794 166.996 271.794H166.997L169.814 269.662L175.07 271.795L176.417 271.795L176.417 277.98Z" fill="#2F2E41"/>
<path d="M211.728 272.758H216.744L219.13 253.454H211.727L211.728 272.758Z" fill="#FFB6B6"/>
<path d="M211.552 277.98L226.975 277.979V277.785C226.975 276.196 226.342 274.672 225.217 273.549C224.091 272.426 222.564 271.794 220.972 271.794H220.971L218.154 269.662L212.898 271.795L211.551 271.795L211.552 277.98Z" fill="#2F2E41"/>
<path d="M168.618 239.268C168.692 238.167 169.281 232.075 169.281 232.075L170.691 219.156L173.178 184.911L175.394 175.909L186.364 180.174L195.266 175.916L205.846 179.291L214.085 182.373C214.085 182.373 214.099 183.693 214.162 185.287C214.247 187.374 214.395 189.933 214.748 190.598C215.337 191.773 215.189 198.083 215.189 198.083C215.189 198.083 215.774 210.921 216.511 212.329C217.248 213.737 217.396 216.668 217.174 217.256C216.952 217.844 217.911 233.261 217.911 233.261C217.911 233.261 220.373 260.545 218.829 264.659C217.284 268.773 211.447 266.078 211.447 266.078C211.447 266.078 211.729 264.98 210.036 264.462C208.343 263.945 203.187 225.258 203.187 225.258C203.187 225.258 202.228 217.326 201.346 215.053C200.464 212.779 199.653 206.392 199.653 206.392C199.653 206.392 194.208 195.82 194.137 193.469C194.137 193.469 193.425 191.27 192.751 193.691C192.078 196.112 190.092 201.912 190.092 201.912L188.156 209.035L185.878 219.677L184.403 228.637C184.403 228.637 182.196 240.528 181.843 241.042C181.49 241.556 181.843 252.42 181.843 252.42C181.843 252.42 180.136 261.672 177.724 263.287C175.311 264.902 168.92 263.313 168.92 263.313C168.92 263.313 168.543 240.37 168.618 239.268Z" fill="#2F2E41"/>
<path d="M176.819 146.945L175.417 165.066L173.311 167.241C173.121 167.437 172.973 167.669 172.875 167.924C172.777 168.179 172.732 168.45 172.742 168.723C172.752 168.995 172.816 169.263 172.933 169.51C173.049 169.757 173.213 169.978 173.417 170.16L172.257 172.145L171.846 178.401C171.729 178.888 171.721 179.394 171.822 179.885C171.924 180.375 172.133 180.837 172.434 181.237C172.736 181.637 173.122 181.966 173.565 182.2C174.009 182.435 174.498 182.568 174.999 182.592L211.316 184.294C211.815 184.318 212.312 184.232 212.773 184.042C213.235 183.853 213.649 183.564 213.986 183.198C214.324 182.831 214.576 182.395 214.726 181.92C214.876 181.445 214.92 180.943 214.854 180.45L211.766 157.252V155.517L210.384 152.168L211.094 140.946L212.747 123.134L203.14 120.658L197.93 117.081L188.881 117.225L183.39 121.725L176.068 122.869L170.531 123.968L169.826 125.497L171.236 125.191L176.349 145.092L176.819 146.945Z" fill="#2042B8"/>
<path d="M193.203 114.653C199.091 114.653 203.864 109.89 203.864 104.015C203.864 98.1404 199.091 93.3777 193.203 93.3777C187.316 93.3777 182.543 98.1404 182.543 104.015C182.543 109.89 187.316 114.653 193.203 114.653Z" fill="#FFB6B6"/>
<path d="M190.633 113.967L198.335 113.575C199.322 113.525 200.4 113.438 201.117 112.76C201.503 112.341 201.801 111.849 201.99 111.313C202.703 109.662 203.415 108.012 204.109 106.353C205.068 104.06 206.011 101.638 205.766 99.1646C205.708 98.035 205.234 96.9667 204.433 96.1659C204.025 95.78 203.5 95.54 202.94 95.4834C202.38 95.4269 201.818 95.5569 201.34 95.8532C201.221 95.0708 200.926 94.3256 200.476 93.674C200.026 93.0223 199.434 92.4812 198.744 92.0916C197.35 91.3232 195.758 90.9865 194.172 91.1244C191.87 91.2725 189.672 92.1368 187.888 93.5958C187.386 94.0577 186.85 94.4815 186.285 94.8634C186.001 95.0531 185.68 95.183 185.344 95.2451C185.008 95.3072 184.662 95.3002 184.328 95.2246C183.998 95.1365 183.711 94.932 183.52 94.6489C183.329 94.3658 183.247 94.0232 183.289 93.6846C182.747 94.0893 182.375 94.6811 182.246 95.3447C182.117 96.0082 182.24 96.6958 182.592 97.2734C182.192 97.4406 181.756 97.5017 181.325 97.4509C180.895 97.4001 180.485 97.239 180.135 96.9834C179.761 97.1689 179.429 97.4304 179.161 97.7513C178.894 98.0721 178.696 98.4451 178.582 98.8465C178.467 99.2478 178.438 99.6687 178.495 100.082C178.553 100.495 178.697 100.892 178.917 101.247C179.137 101.602 179.429 101.907 179.775 102.142C180.12 102.378 180.511 102.539 180.922 102.615C181.333 102.691 181.756 102.681 182.163 102.585C182.57 102.489 182.952 102.309 183.285 102.057C183.753 102.71 183.579 103.598 183.518 104.398C183.457 105.199 183.672 106.194 184.445 106.415C185.491 106.714 186.338 105.309 187.425 105.324C187.693 105.346 187.952 105.434 188.178 105.579C188.405 105.725 188.591 105.924 188.722 106.158C188.978 106.63 189.154 107.141 189.241 107.671L190.633 113.923" fill="#2F2E41"/>
<path d="M490.956 209.617C490.956 207.97 490.402 206.633 489.721 206.63H304.161C303.477 206.633 302.926 207.97 302.923 209.617V277.427C302.923 277.58 302.866 277.727 302.763 277.84C302.66 277.954 302.518 278.025 302.366 278.039C301.868 278.087 301.37 278.132 300.871 278.173C300.859 278.173 300.847 278.176 300.834 278.176C300.563 278.2 300.292 278.219 300.021 278.24H300.018C299.879 277.983 299.741 277.724 299.605 277.462C299.559 277.374 299.535 277.276 299.535 277.176V205.742C299.535 205.287 299.553 204.829 299.584 204.377C299.628 203.757 299.705 203.139 299.815 202.527C300.336 199.672 301.512 197.739 302.849 197.733H491.03C491.225 197.734 491.418 197.775 491.596 197.853C491.859 197.969 492.097 198.135 492.296 198.341C492.566 198.622 492.797 198.937 492.982 199.279C493.749 200.804 494.191 202.471 494.279 204.174C494.279 204.193 494.282 204.211 494.282 204.23C494.325 204.728 494.347 205.235 494.344 205.742L494.387 212.328L494.415 216.255L494.498 228.579L494.529 232.956L494.664 277.887C494.664 278.05 494.599 278.206 494.484 278.321C494.368 278.437 494.211 278.501 494.048 278.501H491.572C491.409 278.501 491.252 278.437 491.136 278.321C491.021 278.206 490.956 278.05 490.956 277.887V209.617Z" fill="url(#paint21_linear_322_630)"/>
<path d="M440.533 166.916H420.539C420.256 166.916 419.985 167.028 419.785 167.228C419.585 167.428 419.473 167.699 419.474 167.981V199.499H441.601V167.981C441.601 167.841 441.574 167.703 441.52 167.573C441.466 167.444 441.388 167.326 441.289 167.227C441.189 167.129 441.072 167.05 440.942 166.996C440.812 166.943 440.673 166.915 440.533 166.916ZM430.603 184.823C429.978 184.82 429.379 184.571 428.937 184.13C428.495 183.689 428.245 183.091 428.242 182.467V178.832C428.242 178.207 428.491 177.608 428.934 177.166C429.377 176.724 429.977 176.476 430.603 176.476C431.229 176.476 431.83 176.724 432.273 177.166C432.716 177.608 432.964 178.207 432.964 178.832V182.467C432.961 183.091 432.712 183.689 432.27 184.13C431.827 184.571 431.229 184.82 430.603 184.823Z" fill="#CCCCCC"/>
<path d="M419.405 198.49V201.531C419.405 201.689 419.468 201.84 419.58 201.951C419.692 202.063 419.843 202.125 420.001 202.126H441.074C441.232 202.125 441.383 202.062 441.494 201.951C441.606 201.839 441.669 201.689 441.67 201.531V198.49H419.405Z" fill="#3F3D56"/>
<path d="M473.642 117.729H388.174C387.44 117.73 386.736 118.022 386.216 118.54C385.697 119.058 385.405 119.76 385.404 120.493V178.044C385.405 178.776 385.697 179.479 386.216 179.997C386.735 180.515 387.439 180.807 388.174 180.808H473.642C474.377 180.807 475.081 180.515 475.6 179.997C476.119 179.479 476.412 178.776 476.412 178.044V120.493C476.411 119.76 476.119 119.058 475.6 118.54C475.08 118.022 474.377 117.73 473.642 117.729Z" fill="url(#paint22_linear_322_630)" fill-opacity="0.4"/>
<path d="M472.929 119.725H388.888C388.495 119.726 388.118 119.883 387.84 120.16C387.563 120.438 387.407 120.814 387.406 121.207V177.331C387.407 177.722 387.563 178.098 387.841 178.375C388.119 178.652 388.495 178.808 388.888 178.809H472.929C473.321 178.808 473.698 178.652 473.975 178.375C474.253 178.098 474.409 177.722 474.41 177.331V121.207C474.41 120.814 474.254 120.438 473.976 120.16C473.699 119.883 473.322 119.726 472.929 119.725Z" fill="white"/>
<path d="M456.559 203.184H406.559C406.423 203.184 406.287 203.153 406.164 203.095C406.04 203.036 405.931 202.95 405.845 202.844C405.759 202.738 405.698 202.614 405.665 202.482C405.633 202.349 405.631 202.211 405.659 202.077L406.435 198.4C406.479 198.194 406.593 198.01 406.756 197.877C406.92 197.745 407.124 197.672 407.335 197.671H455.783C455.994 197.672 456.198 197.745 456.362 197.877C456.526 198.01 456.639 198.194 456.683 198.4L457.459 202.077C457.487 202.211 457.485 202.349 457.453 202.482C457.421 202.614 457.36 202.738 457.273 202.844C457.187 202.95 457.078 203.036 456.955 203.095C456.831 203.153 456.696 203.184 456.559 203.184Z" fill="#CCCCCC"/>
<path d="M408.96 198.333H407.96C407.811 198.333 407.69 198.454 407.69 198.603V198.986C407.69 199.135 407.811 199.255 407.96 199.255H408.96C409.109 199.255 409.23 199.135 409.23 198.986V198.603C409.23 198.454 409.109 198.333 408.96 198.333Z" fill="#E6E6E6"/>
<path d="M412.04 198.333H411.04C410.891 198.333 410.77 198.454 410.77 198.603V198.986C410.77 199.135 410.891 199.255 411.04 199.255H412.04C412.189 199.255 412.31 199.135 412.31 198.986V198.603C412.31 198.454 412.189 198.333 412.04 198.333Z" fill="#E6E6E6"/>
<path d="M415.12 198.333H414.12C413.971 198.333 413.85 198.454 413.85 198.603V198.986C413.85 199.135 413.971 199.255 414.12 199.255H415.12C415.269 199.255 415.39 199.135 415.39 198.986V198.603C415.39 198.454 415.269 198.333 415.12 198.333Z" fill="#E6E6E6"/>
<path d="M418.199 198.333H417.2C417.051 198.333 416.93 198.454 416.93 198.603V198.986C416.93 199.135 417.051 199.255 417.2 199.255H418.199C418.349 199.255 418.47 199.135 418.47 198.986V198.603C418.47 198.454 418.349 198.333 418.199 198.333Z" fill="#E6E6E6"/>
<path d="M421.279 198.333H420.28C420.13 198.333 420.01 198.454 420.01 198.603V198.986C420.01 199.135 420.13 199.255 420.28 199.255H421.279C421.429 199.255 421.549 199.135 421.549 198.986V198.603C421.549 198.454 421.429 198.333 421.279 198.333Z" fill="#E6E6E6"/>
<path d="M424.359 198.333H423.36C423.211 198.333 423.09 198.454 423.09 198.603V198.986C423.09 199.135 423.211 199.255 423.36 199.255H424.359C424.509 199.255 424.629 199.135 424.629 198.986V198.603C424.629 198.454 424.509 198.333 424.359 198.333Z" fill="#E6E6E6"/>
<path d="M427.439 198.333H426.44C426.29 198.333 426.169 198.454 426.169 198.603V198.986C426.169 199.135 426.29 199.255 426.44 199.255H427.439C427.588 199.255 427.709 199.135 427.709 198.986V198.603C427.709 198.454 427.588 198.333 427.439 198.333Z" fill="#E6E6E6"/>
<path d="M430.519 198.333H429.52C429.37 198.333 429.25 198.454 429.25 198.603V198.986C429.25 199.135 429.37 199.255 429.52 199.255H430.519C430.668 199.255 430.789 199.135 430.789 198.986V198.603C430.789 198.454 430.668 198.333 430.519 198.333Z" fill="#E6E6E6"/>
<path d="M433.599 198.333H432.599C432.45 198.333 432.329 198.454 432.329 198.603V198.986C432.329 199.135 432.45 199.255 432.599 199.255H433.599C433.748 199.255 433.869 199.135 433.869 198.986V198.603C433.869 198.454 433.748 198.333 433.599 198.333Z" fill="#E6E6E6"/>
<path d="M436.679 198.333H435.679C435.53 198.333 435.409 198.454 435.409 198.603V198.986C435.409 199.135 435.53 199.255 435.679 199.255H436.679C436.828 199.255 436.949 199.135 436.949 198.986V198.603C436.949 198.454 436.828 198.333 436.679 198.333Z" fill="#E6E6E6"/>
<path d="M439.759 198.333H438.759C438.61 198.333 438.489 198.454 438.489 198.603V198.986C438.489 199.135 438.61 199.255 438.759 199.255H439.759C439.908 199.255 440.029 199.135 440.029 198.986V198.603C440.029 198.454 439.908 198.333 439.759 198.333Z" fill="#E6E6E6"/>
<path d="M442.839 198.333H441.839C441.69 198.333 441.569 198.454 441.569 198.603V198.986C441.569 199.135 441.69 199.255 441.839 199.255H442.839C442.988 199.255 443.109 199.135 443.109 198.986V198.603C443.109 198.454 442.988 198.333 442.839 198.333Z" fill="#E6E6E6"/>
<path d="M445.918 198.333H444.919C444.77 198.333 444.649 198.454 444.649 198.603V198.986C444.649 199.135 444.77 199.255 444.919 199.255H445.918C446.068 199.255 446.189 199.135 446.189 198.986V198.603C446.189 198.454 446.068 198.333 445.918 198.333Z" fill="#E6E6E6"/>
<path d="M448.998 198.333H447.999C447.849 198.333 447.729 198.454 447.729 198.603V198.986C447.729 199.135 447.849 199.255 447.999 199.255H448.998C449.148 199.255 449.269 199.135 449.269 198.986V198.603C449.269 198.454 449.148 198.333 448.998 198.333Z" fill="#E6E6E6"/>
<path d="M452.078 198.333H451.079C450.93 198.333 450.809 198.454 450.809 198.603V198.986C450.809 199.135 450.93 199.255 451.079 199.255H452.078C452.228 199.255 452.348 199.135 452.348 198.986V198.603C452.348 198.454 452.228 198.333 452.078 198.333Z" fill="#E6E6E6"/>
<path d="M455.158 198.333H454.159C454.009 198.333 453.888 198.454 453.888 198.603V198.986C453.888 199.135 454.009 199.255 454.159 199.255H455.158C455.307 199.255 455.428 199.135 455.428 198.986V198.603C455.428 198.454 455.307 198.333 455.158 198.333Z" fill="#E6E6E6"/>
<path d="M408.924 199.87H407.924C407.775 199.87 407.654 199.991 407.654 200.14V200.523C407.654 200.671 407.775 200.792 407.924 200.792H408.924C409.073 200.792 409.194 200.671 409.194 200.523V200.14C409.194 199.991 409.073 199.87 408.924 199.87Z" fill="#E6E6E6"/>
<path d="M412.003 199.87H411.004C410.855 199.87 410.734 199.991 410.734 200.14V200.523C410.734 200.671 410.855 200.792 411.004 200.792H412.003C412.153 200.792 412.274 200.671 412.274 200.523V200.14C412.274 199.991 412.153 199.87 412.003 199.87Z" fill="#E6E6E6"/>
<path d="M415.083 199.87H414.084C413.934 199.87 413.813 199.991 413.813 200.14V200.523C413.813 200.671 413.934 200.792 414.084 200.792H415.083C415.232 200.792 415.353 200.671 415.353 200.523V200.14C415.353 199.991 415.232 199.87 415.083 199.87Z" fill="#E6E6E6"/>
<path d="M418.163 199.87H417.163C417.014 199.87 416.893 199.991 416.893 200.14V200.523C416.893 200.671 417.014 200.792 417.163 200.792H418.163C418.312 200.792 418.433 200.671 418.433 200.523V200.14C418.433 199.991 418.312 199.87 418.163 199.87Z" fill="#E6E6E6"/>
<path d="M421.243 199.87H420.243C420.094 199.87 419.973 199.991 419.973 200.14V200.523C419.973 200.671 420.094 200.792 420.243 200.792H421.243C421.392 200.792 421.513 200.671 421.513 200.523V200.14C421.513 199.991 421.392 199.87 421.243 199.87Z" fill="#E6E6E6"/>
<path d="M424.323 199.87H423.323C423.174 199.87 423.053 199.991 423.053 200.14V200.523C423.053 200.671 423.174 200.792 423.323 200.792H424.323C424.472 200.792 424.593 200.671 424.593 200.523V200.14C424.593 199.991 424.472 199.87 424.323 199.87Z" fill="#E6E6E6"/>
<path d="M427.403 199.87H426.403C426.254 199.87 426.133 199.991 426.133 200.14V200.523C426.133 200.671 426.254 200.792 426.403 200.792H427.403C427.552 200.792 427.673 200.671 427.673 200.523V200.14C427.673 199.991 427.552 199.87 427.403 199.87Z" fill="#E6E6E6"/>
<path d="M430.483 199.87H429.483C429.334 199.87 429.213 199.991 429.213 200.14V200.523C429.213 200.671 429.334 200.792 429.483 200.792H430.483C430.632 200.792 430.753 200.671 430.753 200.523V200.14C430.753 199.991 430.632 199.87 430.483 199.87Z" fill="#E6E6E6"/>
<path d="M433.563 199.87H432.563C432.414 199.87 432.293 199.991 432.293 200.14V200.523C432.293 200.671 432.414 200.792 432.563 200.792H433.563C433.712 200.792 433.833 200.671 433.833 200.523V200.14C433.833 199.991 433.712 199.87 433.563 199.87Z" fill="#E6E6E6"/>
<path d="M436.642 199.87H435.643C435.494 199.87 435.373 199.991 435.373 200.14V200.523C435.373 200.671 435.494 200.792 435.643 200.792H436.642C436.792 200.792 436.913 200.671 436.913 200.523V200.14C436.913 199.991 436.792 199.87 436.642 199.87Z" fill="#E6E6E6"/>
<path d="M439.722 199.87H438.723C438.574 199.87 438.453 199.991 438.453 200.14V200.523C438.453 200.671 438.574 200.792 438.723 200.792H439.722C439.872 200.792 439.993 200.671 439.993 200.523V200.14C439.993 199.991 439.872 199.87 439.722 199.87Z" fill="#E6E6E6"/>
<path d="M442.802 199.87H441.803C441.653 199.87 441.532 199.991 441.532 200.14V200.523C441.532 200.671 441.653 200.792 441.803 200.792H442.802C442.951 200.792 443.072 200.671 443.072 200.523V200.14C443.072 199.991 442.951 199.87 442.802 199.87Z" fill="#E6E6E6"/>
<path d="M445.882 199.87H444.882C444.733 199.87 444.612 199.991 444.612 200.14V200.523C444.612 200.671 444.733 200.792 444.882 200.792H445.882C446.031 200.792 446.152 200.671 446.152 200.523V200.14C446.152 199.991 446.031 199.87 445.882 199.87Z" fill="#E6E6E6"/>
<path d="M448.962 199.87H447.962C447.813 199.87 447.692 199.991 447.692 200.14V200.523C447.692 200.671 447.813 200.792 447.962 200.792H448.962C449.111 200.792 449.232 200.671 449.232 200.523V200.14C449.232 199.991 449.111 199.87 448.962 199.87Z" fill="#E6E6E6"/>
<path d="M452.042 199.87H451.042C450.893 199.87 450.772 199.991 450.772 200.14V200.523C450.772 200.671 450.893 200.792 451.042 200.792H452.042C452.191 200.792 452.312 200.671 452.312 200.523V200.14C452.312 199.991 452.191 199.87 452.042 199.87Z" fill="#E6E6E6"/>
<path d="M455.122 199.87H454.122C453.973 199.87 453.852 199.991 453.852 200.14V200.523C453.852 200.671 453.973 200.792 454.122 200.792H455.122C455.271 200.792 455.392 200.671 455.392 200.523V200.14C455.392 199.991 455.271 199.87 455.122 199.87Z" fill="#E6E6E6"/>
<path d="M434.486 201.714H422.707C422.558 201.714 422.437 201.835 422.437 201.984V202.367C422.437 202.515 422.558 202.636 422.707 202.636H434.486C434.636 202.636 434.757 202.515 434.757 202.367V201.984C434.757 201.835 434.636 201.714 434.486 201.714Z" fill="#E6E6E6"/>
<path d="M468.704 127.458H390.068C389.986 127.456 389.908 127.423 389.851 127.364C389.794 127.306 389.762 127.228 389.762 127.146C389.762 127.064 389.794 126.986 389.851 126.928C389.908 126.869 389.986 126.836 390.068 126.834H468.704C468.786 126.836 468.864 126.869 468.921 126.928C468.978 126.986 469.01 127.064 469.01 127.146C469.01 127.228 468.978 127.306 468.921 127.364C468.864 127.423 468.786 127.456 468.704 127.458Z" fill="#CACACA"/>
<path d="M395.421 125.241C396.433 125.241 397.253 124.404 397.253 123.371C397.253 122.339 396.433 121.502 395.421 121.502C394.408 121.502 393.588 122.339 393.588 123.371C393.588 124.404 394.408 125.241 395.421 125.241Z" fill="#CCCCCC"/>
<path d="M401.751 125.241C402.764 125.241 403.584 124.404 403.584 123.371C403.584 122.339 402.764 121.502 401.751 121.502C400.739 121.502 399.919 122.339 399.919 123.371C399.919 124.404 400.739 125.241 401.751 125.241Z" fill="#CCCCCC"/>
<path d="M408.082 125.241C409.095 125.241 409.915 124.404 409.915 123.371C409.915 122.339 409.095 121.502 408.082 121.502C407.07 121.502 406.25 122.339 406.25 123.371C406.25 124.404 407.07 125.241 408.082 125.241Z" fill="#CCCCCC"/>
<path d="M464.892 121.965H460.395C460.306 121.967 460.221 122.003 460.159 122.067C460.096 122.13 460.061 122.216 460.061 122.305C460.061 122.394 460.096 122.479 460.159 122.543C460.221 122.606 460.306 122.643 460.395 122.645H464.892C464.981 122.643 465.066 122.606 465.129 122.543C465.191 122.479 465.226 122.394 465.226 122.305C465.226 122.216 465.191 122.13 465.129 122.067C465.066 122.003 464.981 121.967 464.892 121.965H464.892Z" fill="#CCCCCC"/>
<path d="M464.893 123.241H460.395C460.306 123.243 460.221 123.279 460.159 123.343C460.096 123.406 460.062 123.492 460.062 123.581C460.062 123.669 460.096 123.755 460.159 123.818C460.221 123.882 460.306 123.919 460.395 123.92H464.892C464.982 123.919 465.066 123.882 465.129 123.818C465.191 123.755 465.226 123.669 465.226 123.581C465.226 123.492 465.191 123.406 465.129 123.343C465.066 123.279 464.982 123.243 464.892 123.241H464.893Z" fill="#CCCCCC"/>
<path d="M464.892 124.514H460.395C460.306 124.516 460.221 124.553 460.159 124.616C460.096 124.68 460.061 124.765 460.061 124.854C460.061 124.943 460.096 125.029 460.159 125.092C460.221 125.156 460.306 125.192 460.395 125.194H464.892C464.981 125.192 465.066 125.156 465.129 125.092C465.191 125.029 465.226 124.943 465.226 124.854C465.226 124.765 465.191 124.68 465.129 124.616C465.066 124.553 464.981 124.516 464.892 124.514H464.892Z" fill="#CCCCCC"/>
<path d="M435.735 144.459H425.909C425.171 144.459 424.573 145.056 424.573 145.792C424.573 146.529 425.171 147.126 425.909 147.126H435.735C436.473 147.126 437.071 146.529 437.071 145.792C437.071 145.056 436.473 144.459 435.735 144.459Z" fill="url(#paint23_linear_322_630)"/>
<path d="M442.083 149.793H419.561C418.823 149.793 418.225 150.39 418.225 151.126C418.225 151.863 418.823 152.46 419.561 152.46H442.083C442.821 152.46 443.419 151.863 443.419 151.126C443.419 150.39 442.821 149.793 442.083 149.793Z" fill="#E6E6E6"/>
<path d="M442.083 155.127H419.561C418.823 155.127 418.225 155.724 418.225 156.46C418.225 157.197 418.823 157.794 419.561 157.794H442.083C442.821 157.794 443.419 157.197 443.419 156.46C443.419 155.724 442.821 155.127 442.083 155.127Z" fill="#E6E6E6"/>
<path d="M290.353 238.224L285.823 236.062L292.045 217.169L298.731 220.359L290.353 238.224Z" fill="#FFB6B6"/>
<path d="M320.721 235.178C320.392 235.384 320.062 235.587 319.73 235.789C319.067 236.194 318.399 236.593 317.73 236.984C317.394 237.18 317.054 237.376 316.718 237.569V237.579L316.698 237.582L316.692 237.585L316.179 237.711L315.444 235.772L315.105 234.879L314.626 233.614L313.747 231.3L309.122 219.115L316.312 217.346L316.582 218.445H316.585L316.718 218.989L319.23 229.155L319.743 231.234L319.76 231.297L320.069 232.539L320.335 233.614L320.631 234.816L320.721 235.178Z" fill="#FFB6B6"/>
<path d="M363.614 192.388C363.158 193.118 362.692 193.845 362.223 194.566C361.351 195.907 360.456 197.228 359.538 198.53C359.538 198.533 359.535 198.533 359.531 198.537C358.996 199.032 358.404 199.463 357.768 199.821C357.741 199.841 357.711 199.855 357.685 199.871C357.216 200.129 356.718 200.329 356.201 200.465C356.014 200.512 355.825 200.558 355.638 200.605C354.966 200.764 354.301 200.9 353.639 201.02C352.461 201.229 351.296 201.379 350.138 201.471C350.045 201.481 349.952 201.488 349.859 201.495C345.098 201.843 340.463 201.282 335.625 200.363C333.236 199.911 330.797 199.37 328.271 198.809C327.446 198.623 326.618 198.44 325.779 198.258C325.716 198.244 325.65 198.228 325.583 198.214C324.385 197.952 323.167 197.693 321.92 197.438C320.349 197.115 318.729 196.803 317.045 196.508L317.165 198.875C317.265 200.696 317.644 202.491 318.29 204.197C319.008 206.296 319.577 207.956 318.376 211.412L317.797 213.085C318.097 213.916 318.2 214.805 318.098 215.683C317.996 216.56 317.691 217.402 317.208 218.142L317.092 218.318L321.92 230.506L322.232 231.296H319.76L316.719 231.3H311.565L304.129 216.412L303.773 215.702V215.665L304.541 187.055C304.551 186.803 304.571 186.547 304.604 186.295C304.74 185.148 305.103 184.039 305.673 183.034C306.242 182.028 307.007 181.146 307.922 180.438C308.798 179.755 309.803 179.252 310.876 178.959C311.949 178.666 313.07 178.589 314.174 178.732L316.719 179.061L321.92 179.731L325.583 180.206L325.656 180.216L336.46 181.61L337.235 178.456L337.378 178.403L341.927 176.74L357.658 170.986L357.698 170.973L358.733 170.594L358.856 170.793C358.892 170.853 358.929 170.913 358.962 170.973C359.985 172.802 360.818 174.731 361.448 176.73C362.507 179.994 363.379 183.317 364.06 186.68C364.09 186.826 364.116 186.959 364.14 187.079L364.15 187.115C364.159 187.172 364.166 187.208 364.169 187.218C364.481 188.959 364.289 190.752 363.614 192.388Z" fill="#2F2E41"/>
<path d="M364.278 181.844C364.228 181.632 364.165 181.416 364.098 181.207C363.57 179.622 362.955 178.068 362.255 176.552C361.47 174.825 360.528 172.976 359.407 170.974C358.864 170.004 358.281 168.996 357.657 167.949C357.344 167.425 357.019 166.89 356.682 166.346C356.669 166.321 356.654 166.296 356.639 166.273L356.542 166.113L340.977 168.192L335.181 168.965L334.835 171.847L334.752 172.561C334.748 172.561 334.748 172.561 334.752 172.564L334.519 174.51V174.513L334.209 177.083L334.183 177.08L325.582 175.967L316.718 174.822L311.956 174.208C310.853 174.064 309.732 174.141 308.659 174.434C307.585 174.727 306.581 175.23 305.704 175.914C304.79 176.622 304.025 177.504 303.456 178.51C302.886 179.515 302.523 180.624 302.387 181.771C302.357 182.003 302.337 182.243 302.327 182.478L297.835 193.099C295.148 199.451 293.436 206.172 292.758 213.033L289.464 223.542L289.933 223.585L296.914 224.232L298.757 224.405L302.816 218.492C303.279 217.818 303.718 217.124 304.127 216.413C304.801 215.253 305.4 214.051 305.921 212.814L314.701 191.964C315.38 192.08 316.052 192.191 316.718 192.296C319.795 192.794 322.75 193.2 325.582 193.514C334.788 194.54 342.76 194.62 349.857 193.75C351.851 193.508 353.777 193.189 355.637 192.794C356.319 192.651 356.992 192.497 357.657 192.332C357.813 192.296 357.966 192.259 358.119 192.22C359.494 191.866 360.758 191.173 361.796 190.206C362.834 189.238 363.611 188.027 364.058 186.682C364.592 185.123 364.668 183.445 364.278 181.844Z" fill="#2F2E41"/>
<path d="M291.8 235.139L286.898 232.795L286.13 232.426L284.902 235.434L276.331 237.317C275.907 237.41 275.524 237.635 275.238 237.96C274.952 238.286 274.777 238.694 274.74 239.125C274.703 239.557 274.805 239.989 275.031 240.358C275.258 240.727 275.597 241.015 275.998 241.178L284.373 244.588L287.032 242.201L286.379 245.405L289.534 246.69L292.991 235.71L291.8 235.139Z" fill="#2F2E41"/>
<path d="M321.919 230.506L322.233 231.296H321.919V230.506Z" fill="#2F2E41"/>
<path d="M320.213 231.465L315.077 233.241L314.271 233.518L315.52 236.518L310.757 243.873C310.521 244.237 310.408 244.666 310.434 245.098C310.46 245.53 310.624 245.943 310.902 246.275C311.179 246.608 311.557 246.843 311.978 246.947C312.399 247.05 312.843 247.017 313.243 246.851L321.599 243.394L321.804 239.831L323.6 242.565L326.748 241.264L321.462 231.035L320.213 231.465Z" fill="#2F2E41"/>
<path d="M289.043 121.611C289.287 122.084 289.631 122.499 290.053 122.825C290.474 123.151 290.962 123.381 291.482 123.498C292.002 123.616 292.541 123.618 293.063 123.506C293.584 123.393 294.074 123.167 294.498 122.845L305.297 129.998L305.317 123.277L295.059 117.514C294.469 116.839 293.652 116.403 292.761 116.289C291.871 116.175 290.969 116.391 290.228 116.896C289.486 117.401 288.956 118.16 288.738 119.029C288.519 119.898 288.628 120.817 289.043 121.611V121.611Z" fill="#FFB6B6"/>
<path d="M297.111 124.717L302.149 118.998L322.664 131.15L349.858 128.665C351.202 128.542 352.557 128.716 353.826 129.175C355.096 129.633 356.248 130.365 357.202 131.318C358.156 132.271 358.888 133.422 359.346 134.689C359.805 135.955 359.978 137.308 359.853 138.649C359.626 141.071 358.445 143.304 356.569 144.859C354.694 146.413 352.277 147.162 349.849 146.94L319.222 144.111L297.111 124.717Z" fill="#FF6600"/>
<path d="M360.228 124.806L360.181 124.746C356.356 124.37 352.503 125.109 349.089 126.873C345.676 128.638 342.849 131.353 340.951 134.689L338.644 138.746C331.178 147.852 336.603 154.132 336.928 155.066L334.337 166.988L334.917 170.978L335.207 172.163L364.786 187.585C366.47 179.512 364.841 172.632 358.706 167.376L364.642 148.946C365.958 144.871 366.244 140.535 365.474 136.323C364.704 132.111 362.902 128.154 360.228 124.806Z" fill="#FF6600"/>
<path d="M336.71 214.341H327.222C326.701 214.34 326.196 214.152 325.802 213.811C325.409 213.469 325.151 212.997 325.078 212.482C324.492 208.18 324.492 203.819 325.078 199.517C325.15 199.008 325.402 198.541 325.789 198.2C326.175 197.86 326.671 197.668 327.186 197.659C330.171 196.323 333.386 196.324 336.743 197.658C337.055 197.663 337.363 197.735 337.645 197.87C337.927 198.006 338.175 198.201 338.373 198.443C338.579 198.694 338.727 198.988 338.805 199.303C338.883 199.619 338.89 199.948 338.825 200.266C338.063 204.051 338.063 207.949 338.825 211.733C338.89 212.051 338.883 212.38 338.805 212.696C338.727 213.011 338.579 213.305 338.373 213.556C338.172 213.802 337.918 214 337.63 214.136C337.343 214.271 337.028 214.341 336.71 214.341Z" fill="#2042B8"/>
<path d="M335.716 202.601H327.731C327.665 202.602 327.6 202.589 327.539 202.565C327.478 202.54 327.422 202.503 327.375 202.457C327.328 202.411 327.291 202.356 327.266 202.295C327.24 202.234 327.227 202.169 327.227 202.103C327.227 202.037 327.24 201.972 327.266 201.912C327.291 201.851 327.328 201.796 327.375 201.75C327.422 201.703 327.478 201.667 327.539 201.642C327.6 201.617 327.665 201.605 327.731 201.605H335.716C335.782 201.605 335.848 201.617 335.909 201.642C335.97 201.667 336.025 201.703 336.072 201.75C336.119 201.796 336.156 201.851 336.182 201.912C336.207 201.972 336.22 202.037 336.22 202.103C336.22 202.169 336.207 202.234 336.182 202.295C336.156 202.356 336.119 202.411 336.072 202.457C336.025 202.503 335.97 202.54 335.909 202.565C335.848 202.589 335.782 202.602 335.716 202.601Z" fill="white"/>
<path d="M335.716 206.585H327.731C327.665 206.586 327.6 206.574 327.539 206.549C327.478 206.524 327.422 206.487 327.375 206.441C327.328 206.395 327.291 206.34 327.266 206.279C327.24 206.218 327.227 206.153 327.227 206.087C327.227 206.022 327.24 205.956 327.266 205.896C327.291 205.835 327.328 205.78 327.375 205.734C327.422 205.687 327.478 205.651 327.539 205.626C327.6 205.601 327.665 205.589 327.731 205.589H335.716C335.782 205.589 335.848 205.601 335.909 205.626C335.97 205.651 336.025 205.687 336.072 205.734C336.119 205.78 336.156 205.835 336.182 205.896C336.207 205.956 336.22 206.022 336.22 206.087C336.22 206.153 336.207 206.218 336.182 206.279C336.156 206.34 336.119 206.395 336.072 206.441C336.025 206.487 335.97 206.524 335.909 206.549C335.848 206.574 335.782 206.586 335.716 206.585Z" fill="white"/>
<path d="M335.716 210.57H327.731C327.665 210.57 327.6 210.558 327.538 210.533C327.477 210.508 327.422 210.472 327.375 210.425C327.328 210.379 327.291 210.324 327.265 210.263C327.24 210.202 327.227 210.137 327.227 210.072C327.227 210.006 327.24 209.941 327.265 209.88C327.291 209.819 327.328 209.764 327.375 209.718C327.422 209.671 327.477 209.635 327.538 209.61C327.6 209.585 327.665 209.573 327.731 209.574H335.716C335.782 209.573 335.848 209.585 335.909 209.61C335.97 209.635 336.025 209.671 336.072 209.718C336.119 209.764 336.156 209.819 336.182 209.88C336.207 209.941 336.22 210.006 336.22 210.072C336.22 210.137 336.207 210.202 336.182 210.263C336.156 210.324 336.119 210.379 336.072 210.425C336.025 210.472 335.97 210.508 335.909 210.533C335.848 210.558 335.782 210.57 335.716 210.57Z" fill="white"/>
<path d="M290.783 124.892H281.295C280.773 124.892 280.269 124.704 279.875 124.362C279.481 124.021 279.224 123.549 279.151 123.033C278.565 118.732 278.565 114.371 279.151 110.069C279.223 109.56 279.475 109.093 279.861 108.752C280.248 108.411 280.743 108.219 281.259 108.21C284.244 106.875 287.459 106.875 290.815 108.21C291.128 108.214 291.436 108.286 291.718 108.422C291.999 108.557 292.248 108.753 292.446 108.994C292.652 109.246 292.8 109.54 292.878 109.855C292.956 110.17 292.963 110.499 292.898 110.817C292.136 114.602 292.136 118.5 292.898 122.285C292.963 122.603 292.956 122.932 292.878 123.247C292.8 123.562 292.652 123.856 292.446 124.108C292.244 124.353 291.99 124.551 291.703 124.687C291.415 124.823 291.101 124.893 290.783 124.892Z" fill="url(#paint24_linear_322_630)"/>
<path d="M289.789 113.153H281.804C281.738 113.153 281.672 113.141 281.611 113.116C281.55 113.091 281.495 113.055 281.448 113.008C281.401 112.962 281.364 112.907 281.338 112.846C281.313 112.785 281.3 112.72 281.3 112.655C281.3 112.589 281.313 112.524 281.338 112.463C281.364 112.402 281.401 112.347 281.448 112.301C281.495 112.255 281.55 112.218 281.611 112.193C281.672 112.168 281.738 112.156 281.804 112.157H289.789C289.855 112.156 289.92 112.168 289.981 112.193C290.042 112.218 290.098 112.255 290.145 112.301C290.192 112.347 290.229 112.402 290.254 112.463C290.279 112.524 290.293 112.589 290.293 112.655C290.293 112.72 290.279 112.785 290.254 112.846C290.229 112.907 290.192 112.962 290.145 113.008C290.098 113.055 290.042 113.091 289.981 113.116C289.92 113.141 289.855 113.153 289.789 113.153Z" fill="white"/>
<path d="M289.789 117.137H281.804C281.738 117.137 281.672 117.125 281.611 117.1C281.55 117.075 281.495 117.039 281.448 116.992C281.401 116.946 281.364 116.891 281.338 116.83C281.313 116.77 281.3 116.704 281.3 116.639C281.3 116.573 281.313 116.508 281.338 116.447C281.364 116.386 281.401 116.331 281.448 116.285C281.495 116.239 281.55 116.202 281.611 116.177C281.672 116.153 281.738 116.14 281.804 116.141H289.789C289.855 116.14 289.92 116.153 289.981 116.177C290.042 116.202 290.098 116.239 290.145 116.285C290.192 116.331 290.229 116.386 290.254 116.447C290.279 116.508 290.293 116.573 290.293 116.639C290.293 116.704 290.279 116.77 290.254 116.83C290.229 116.891 290.192 116.946 290.145 116.992C290.098 117.039 290.042 117.075 289.981 117.1C289.92 117.125 289.855 117.137 289.789 117.137Z" fill="white"/>
<path d="M289.789 121.121H281.804C281.738 121.121 281.672 121.109 281.611 121.084C281.55 121.06 281.495 121.023 281.448 120.977C281.401 120.93 281.364 120.875 281.338 120.814C281.313 120.754 281.3 120.689 281.3 120.623C281.3 120.557 281.313 120.492 281.338 120.431C281.364 120.37 281.401 120.315 281.448 120.269C281.495 120.223 281.55 120.186 281.611 120.161C281.672 120.137 281.738 120.124 281.804 120.125H289.789C289.855 120.124 289.92 120.137 289.982 120.161C290.043 120.186 290.098 120.223 290.145 120.269C290.192 120.315 290.229 120.37 290.254 120.431C290.28 120.492 290.293 120.557 290.293 120.623C290.293 120.689 290.28 120.754 290.254 120.814C290.229 120.875 290.192 120.93 290.145 120.977C290.098 121.023 290.043 121.06 289.982 121.084C289.92 121.109 289.855 121.121 289.789 121.121Z" fill="white"/>
<path d="M124.227 149.187H114.739C114.218 149.187 113.713 148.998 113.319 148.657C112.926 148.315 112.668 147.843 112.595 147.328C112.009 143.026 112.009 138.665 112.595 134.364C112.667 133.854 112.919 133.387 113.306 133.047C113.692 132.706 114.188 132.514 114.703 132.505C117.688 131.17 120.903 131.17 124.26 132.505C124.572 132.509 124.88 132.581 125.162 132.717C125.444 132.852 125.692 133.048 125.89 133.289C126.096 133.54 126.244 133.834 126.322 134.15C126.4 134.465 126.407 134.794 126.342 135.112C125.58 138.897 125.58 142.795 126.342 146.579C126.407 146.898 126.4 147.226 126.322 147.542C126.244 147.857 126.096 148.151 125.89 148.402C125.689 148.648 125.435 148.846 125.147 148.982C124.86 149.118 124.545 149.188 124.227 149.187Z" fill="url(#paint25_linear_322_630)"/>
<path d="M123.233 137.447H115.248C115.182 137.448 115.117 137.435 115.056 137.411C114.994 137.386 114.939 137.349 114.892 137.303C114.845 137.257 114.808 137.202 114.783 137.141C114.757 137.08 114.744 137.015 114.744 136.949C114.744 136.883 114.757 136.818 114.783 136.758C114.808 136.697 114.845 136.642 114.892 136.595C114.939 136.549 114.994 136.513 115.056 136.488C115.117 136.463 115.182 136.451 115.248 136.451H123.233C123.299 136.451 123.365 136.463 123.426 136.488C123.487 136.513 123.542 136.549 123.589 136.595C123.636 136.642 123.673 136.697 123.698 136.758C123.724 136.818 123.737 136.883 123.737 136.949C123.737 137.015 123.724 137.08 123.698 137.141C123.673 137.202 123.636 137.257 123.589 137.303C123.542 137.349 123.487 137.386 123.426 137.411C123.365 137.435 123.299 137.448 123.233 137.447Z" fill="white"/>
<path d="M123.233 141.431H115.248C115.182 141.432 115.117 141.419 115.056 141.395C114.994 141.37 114.939 141.333 114.892 141.287C114.845 141.241 114.808 141.186 114.783 141.125C114.757 141.064 114.744 140.999 114.744 140.933C114.744 140.868 114.757 140.802 114.783 140.742C114.808 140.681 114.845 140.626 114.892 140.58C114.939 140.533 114.994 140.497 115.056 140.472C115.117 140.447 115.182 140.435 115.248 140.435H123.233C123.299 140.435 123.365 140.447 123.426 140.472C123.487 140.497 123.542 140.533 123.589 140.58C123.636 140.626 123.673 140.681 123.698 140.742C123.724 140.802 123.737 140.868 123.737 140.933C123.737 140.999 123.724 141.064 123.698 141.125C123.673 141.186 123.636 141.241 123.589 141.287C123.542 141.333 123.487 141.37 123.426 141.395C123.365 141.419 123.299 141.432 123.233 141.431Z" fill="white"/>
<path d="M123.233 145.415H115.248C115.182 145.416 115.117 145.404 115.056 145.379C114.994 145.354 114.939 145.318 114.892 145.271C114.845 145.225 114.808 145.17 114.783 145.109C114.757 145.048 114.744 144.983 114.744 144.917C114.744 144.852 114.757 144.787 114.783 144.726C114.808 144.665 114.845 144.61 114.892 144.564C114.939 144.517 114.994 144.481 115.056 144.456C115.117 144.431 115.182 144.419 115.248 144.419H123.233C123.299 144.419 123.365 144.431 123.426 144.456C123.487 144.481 123.543 144.517 123.589 144.564C123.636 144.61 123.673 144.665 123.699 144.726C123.724 144.787 123.737 144.852 123.737 144.917C123.737 144.983 123.724 145.048 123.699 145.109C123.673 145.17 123.636 145.225 123.589 145.271C123.543 145.318 123.487 145.354 123.426 145.379C123.365 145.404 123.299 145.416 123.233 145.415Z" fill="white"/>
<path d="M339.49 202.239C339.949 201.968 340.343 201.6 340.644 201.161C340.946 200.722 341.147 200.223 341.233 199.698C341.32 199.173 341.291 198.635 341.147 198.123C341.003 197.611 340.748 197.136 340.401 196.732L346.916 185.552L340.191 185.93L335.035 196.489C334.394 197.117 334.007 197.957 333.946 198.851C333.885 199.745 334.154 200.63 334.703 201.339C335.252 202.047 336.043 202.53 336.925 202.696C337.807 202.862 338.72 202.699 339.49 202.239V202.239Z" fill="#FFB6B6"/>
<path d="M342.119 194.018L336.098 189.339L347.039 168.184L342.939 141.243C342.737 139.911 342.83 138.551 343.214 137.26C343.597 135.968 344.26 134.777 345.157 133.77C346.054 132.763 347.162 131.966 348.402 131.434C349.642 130.903 350.984 130.65 352.334 130.694C354.77 130.777 357.074 131.821 358.741 133.597C360.407 135.373 361.299 137.736 361.221 140.168L360.209 170.843L342.119 194.018Z" fill="#FF6600"/>
<path d="M51.1206 188.238C51.4998 187.858 51.7909 187.399 51.9732 186.895C52.1556 186.39 52.2248 185.852 52.176 185.317C52.1273 184.783 51.9617 184.266 51.691 183.802C51.4203 183.339 51.051 182.94 50.6092 182.635L56.4647 153.613L49.9984 155.685L45.3114 183.756C44.8459 184.53 44.6814 185.449 44.849 186.336C45.0166 187.224 45.5046 188.019 46.2207 188.572C46.9367 189.124 47.831 189.396 48.7341 189.334C49.6372 189.273 50.4863 188.883 51.1206 188.238H51.1206Z" fill="#9E616A"/>
<path d="M59.7666 126.837L55.7545 123.815C55.7545 123.815 52.2153 123.565 51.5885 129.934C50.9617 136.303 49.6746 148.714 49.6746 148.714L43.5354 177.088L52.0337 178.949L58.6092 148.329L62.5538 139.236L59.7666 126.837Z" fill="#FF6600"/>
<path d="M53.1523 173.167L75.7602 172.791L77.6443 157.376H53.1523V173.167Z" fill="#9E616A"/>
<path d="M73.4992 268.029H78.7183L81.2011 247.941L73.498 247.942L73.4992 268.029Z" fill="#9E616A"/>
<path d="M40.8022 268.512L46.0214 268.475L48.3631 248.371L41.5753 249.924L40.8022 268.512Z" fill="#9E616A"/>
<path d="M57.1259 144.1L55.9434 147.168L56.1796 150.237L79.3242 158.236L78.1761 144.808L75.5742 141.74L57.1259 144.1Z" fill="#FFB6B6"/>
<path d="M67.0551 116.491C71.6205 116.491 75.3215 112.798 75.3215 108.242C75.3215 103.686 71.6205 99.9934 67.0551 99.9934C62.4898 99.9934 58.7888 103.686 58.7888 108.242C58.7888 112.798 62.4898 116.491 67.0551 116.491Z" fill="#9E616A"/>
<path d="M72.2047 265.46L80.4551 264.969V268.496L88.299 273.902C88.6865 274.169 88.9783 274.552 89.1318 274.996C89.2853 275.441 89.2926 275.922 89.1525 276.371C89.0123 276.819 88.7322 277.211 88.353 277.49C87.9737 277.768 87.5152 277.918 87.0444 277.918H77.222L75.5289 274.429L74.8679 277.918H71.1644L72.2047 265.46Z" fill="#2F2E41"/>
<path d="M39.0169 265.955L47.2636 265.406L47.2884 268.933L55.17 274.284C55.5593 274.548 55.8538 274.93 56.0104 275.373C56.167 275.816 56.1777 276.297 56.0407 276.747C55.9037 277.196 55.6264 277.59 55.2491 277.871C54.8718 278.152 54.4143 278.306 53.9435 278.309L44.1214 278.377L42.4039 274.9L41.7673 278.394L38.064 278.42L39.0169 265.955Z" fill="#2F2E41"/>
<path d="M39.1782 253.11L42.9786 222.798L47.5002 190.839C44.1889 184.703 51.645 165.648 51.645 165.648L52.6974 165.698L76.5188 170.183L76.5136 170.16C81.3859 183.42 83.0001 189.971 82.7331 204.092L81.7732 254.854H82.0743C82.574 254.854 83.0532 255.052 83.4065 255.405C83.7598 255.757 83.9583 256.236 83.9583 256.734C83.9583 257.233 83.7598 257.711 83.4065 258.063C83.0532 258.416 82.574 258.614 82.0743 258.614H72.6544C72.4067 258.615 72.1614 258.566 71.9324 258.472C71.7035 258.378 71.4954 258.239 71.3201 258.065C71.1448 257.89 71.0058 257.683 70.9109 257.454C70.816 257.226 70.7672 256.981 70.7672 256.734C70.7672 256.487 70.816 256.242 70.9109 256.014C71.0058 255.786 71.1448 255.578 71.3201 255.404C71.4954 255.229 71.7035 255.091 71.9324 254.996C72.1614 254.902 72.4067 254.854 72.6544 254.854H72.8973L64.2509 194.412L56.9201 219.79L48.6306 252.877C51.645 252.125 51.1769 253.867 51.1769 254.854C51.1769 255.353 50.9784 255.831 50.6251 256.184C50.2718 256.536 49.7926 256.734 49.2929 256.734H39.873C39.4349 256.735 39.0103 256.583 38.6725 256.304C38.3347 256.026 38.1049 255.638 38.0225 255.209C37.9402 254.78 38.0106 254.335 38.2216 253.952C38.4325 253.569 38.7709 253.271 39.1782 253.11H39.1782Z" fill="#2F2E41"/>
<path d="M49.7901 166.635L50.5438 159.115C50.622 158.809 50.7956 158.534 51.0396 158.332C51.2837 158.13 51.5856 158.01 51.9022 157.989C52.2161 154.407 53.5372 138.953 53.6161 138.28L53.6192 138.251L54.22 125.446C54.2418 124.981 54.4345 124.54 54.7614 124.208C55.0882 123.875 55.5263 123.675 55.9919 123.645L59.1648 123.438C59.2083 123.436 59.2496 123.418 59.2798 123.387C59.3101 123.355 59.327 123.314 59.327 123.27C59.327 122.921 59.3961 122.574 59.5301 122.251C59.6642 121.928 59.8608 121.635 60.1085 121.388C60.3563 121.14 60.6505 120.944 60.9742 120.81C61.2979 120.677 61.6449 120.608 61.9953 120.608H71.3893C71.9978 120.608 72.5852 120.83 73.0414 121.232C73.4976 121.633 73.7912 122.187 73.867 122.79C73.8711 122.831 73.8908 122.87 73.9221 122.897C73.9534 122.925 73.994 122.94 74.0358 122.939H74.0369C75.1043 122.917 76.1442 123.277 76.968 123.955C77.7917 124.633 78.3447 125.583 78.5266 126.633C79.8109 134.089 82.3847 151.012 81.1121 160.42C80.6692 163.695 81.6241 161.101 81.7916 163.841C81.8083 164.106 81.7724 164.371 81.686 164.622C81.5997 164.873 81.4645 165.105 81.2884 165.304C81.649 165.434 81.9434 165.702 82.1077 166.048C82.2719 166.394 82.2927 166.791 82.1656 167.152L82.3307 167.111C82.2823 167.303 82.1966 167.483 82.0785 167.641C81.9603 167.8 81.8121 167.933 81.6422 168.035C81.4722 168.136 81.284 168.203 81.0882 168.232C80.8923 168.26 80.6927 168.25 80.5008 168.202L55.9238 171.525C55.1166 171.322 49.5867 167.44 49.7901 166.635Z" fill="#FF6600"/>
<path d="M115.463 136.061C115.309 136.575 115.044 137.049 114.687 137.45C114.329 137.851 113.888 138.169 113.394 138.381C112.901 138.593 112.366 138.695 111.829 138.678C111.291 138.662 110.764 138.529 110.284 138.287L100.783 146.94L99.5211 140.281L108.743 133.107C109.203 132.329 109.933 131.746 110.795 131.47C111.657 131.193 112.59 131.241 113.418 131.605C114.247 131.97 114.912 132.624 115.289 133.446C115.666 134.267 115.728 135.198 115.463 136.061H115.463Z" fill="#9E616A"/>
<path d="M82.3932 129.448C82.3932 129.448 79.0801 121.977 74.8957 123.462C70.7113 124.947 72.8718 132.196 72.8718 132.196L88.5928 155.834C88.5928 155.834 111.268 141.319 108.511 141.217C105.754 141.114 104.929 136.11 104.929 136.11L92.9444 142.085L92.5389 139.958L91.889 140.607L90.2118 139.289L82.3932 129.448Z" fill="#FF6600"/>
<path d="M353.41 121.24C359.783 121.24 364.951 116.084 364.951 109.724C364.951 103.364 359.783 98.208 353.41 98.208C347.036 98.208 341.869 103.364 341.869 109.724C341.869 116.084 347.036 121.24 353.41 121.24Z" fill="#FFB6B6"/>
<path d="M390.448 126.67C389.116 128.553 387.173 129.919 384.947 130.535C384.056 130.8 383.136 130.955 382.208 130.999C382.093 129.952 381.819 128.928 381.394 127.963C381.437 128.99 381.294 130.016 380.971 130.992C379.577 130.913 378.214 130.549 376.967 129.922C375.742 129.307 374.678 128.416 373.859 127.319C373.039 126.222 372.487 124.95 372.246 123.603C371.758 120.453 373.189 117.36 373.706 114.215C374.226 111.07 373.25 107.086 370.165 106.26C367.815 105.63 368.079 105.902 366.125 107.349C368.157 110.347 360.652 121.333 357.581 120.375C355.845 119.833 354.733 118.243 354.375 118.243C351.961 122.393 356.506 129.384 351.925 130.836L352.302 130.459C355.068 127.065 349.288 119.882 352.053 116.488C352.825 115.539 353.646 114.414 353.418 113.213C353.202 112.072 351.386 111.468 350.855 112.405C351.811 110.22 350.399 107.302 348.061 106.74C345.984 106.241 346.022 106.856 343.938 107.124C343.802 106.225 343.548 105.349 343.181 104.517C343.22 105.413 343.115 106.31 342.87 107.174C342.134 107.159 341.423 106.903 340.848 106.444C339.149 105.078 339.493 102.207 341.01 100.642C342.529 99.0765 344.786 98.5128 346.939 98.1481C347.564 93.7996 359.588 93.346 361.182 97.691C361.86 94.4464 365.931 92.7625 369.095 93.7691C372.258 94.7756 374.454 97.7242 375.61 100.831C376.766 103.936 377.088 107.278 377.8 110.513C378.512 113.748 379.716 117.043 382.194 119.248C384.671 121.45 388.709 122.18 391.319 120.133C391.699 121.215 391.818 122.37 391.667 123.505C391.515 124.641 391.098 125.725 390.448 126.67Z" fill="#2F2E41"/>
<path d="M498.724 152.95L497.108 161.039C496.986 161.658 496.859 162.287 496.721 162.911C495.37 162.632 493.97 162.71 492.659 163.137C493.699 164.62 494.631 166.176 495.448 167.792C494.43 170.923 492.936 173.816 490.435 175.909C488.764 177.275 486.769 178.189 484.642 178.562C482.514 178.936 480.326 178.756 478.289 178.04L478.361 177.72C475.672 172.513 477.132 165.948 480.475 161.138C482.179 158.766 484.199 156.635 486.478 154.805C488.736 152.928 491.176 151.244 493.594 149.582C494.137 149.209 494.779 149.007 495.439 149C496.098 148.993 496.744 149.183 497.294 149.544C497.845 149.906 498.275 150.423 498.53 151.03C498.784 151.636 498.852 152.305 498.724 152.95Z" fill="url(#paint26_linear_322_630)" fill-opacity="0.4"/>
<path d="M478.864 197.503C478.184 192.56 477.485 187.553 477.962 182.557C478.386 178.12 479.742 173.786 482.504 170.232C483.97 168.35 485.754 166.737 487.776 165.466C488.303 165.134 488.788 165.967 488.263 166.298C484.765 168.504 482.06 171.761 480.537 175.6C478.855 179.869 478.585 184.523 478.877 189.058C479.052 191.8 479.424 194.524 479.798 197.246C479.828 197.369 479.81 197.5 479.747 197.61C479.685 197.72 479.582 197.802 479.461 197.839C479.337 197.873 479.205 197.856 479.094 197.793C478.983 197.73 478.901 197.625 478.866 197.503L478.864 197.503Z" fill="#F2F2F2"/>
<path d="M517.341 278.83L0.658902 279C0.484494 278.999 0.317405 278.93 0.194258 278.807C0.071111 278.683 0.00195312 278.517 0.00195312 278.343C0.00195312 278.168 0.071111 278.002 0.194258 277.878C0.317405 277.755 0.484494 277.686 0.658902 277.685L517.341 277.515C517.516 277.516 517.683 277.585 517.806 277.709C517.929 277.832 517.998 277.999 517.998 278.173C517.998 278.347 517.929 278.514 517.806 278.637C517.683 278.76 517.516 278.83 517.341 278.83Z" fill="#CACACA"/>
<path d="M57.326 103.191C56.0582 103.798 54.6391 102.885 53.5445 101.98L53.9361 102.317C52.0016 104.195 51.0971 106.897 50.6552 109.557C50.2128 112.214 50.1635 114.932 49.6065 117.57C49.0491 120.205 47.8928 122.853 45.7331 124.467C42.8396 126.629 38.849 126.49 35.2982 125.828C35.2509 125.818 35.2068 125.811 35.1595 125.801C36.1149 123.049 36.5033 120.132 36.3013 117.226C35.3495 120.138 33.7292 122.788 31.5695 124.965C29.2153 124.318 26.9174 123.483 24.6983 122.466C23.2624 121.807 21.7164 120.905 21.3179 119.378C20.9184 117.863 21.8461 116.274 23.0866 115.317C24.3271 114.36 25.8496 113.861 27.2628 113.179C28.6737 112.501 30.0699 111.534 30.6349 110.073C31.9378 106.714 28.2261 102.859 29.6726 99.557C30.3859 97.9332 32.1332 97.0499 33.7754 96.3689C36.2825 95.3321 38.8569 94.4656 41.4811 93.7753C43.7847 93.169 46.1901 92.6978 48.5368 93.0953C50.8836 93.4928 53.1827 94.9171 54.0273 97.1409C55.4366 97.6162 56.9328 98.1519 57.8372 99.3356C58.7412 100.516 58.6683 102.549 57.326 103.191Z" fill="#2F2E41"/>
<path d="M68.6067 99.2986C64.9798 96.4415 62.0474 96.9292 59.7852 98.7043C59.4049 98.2821 57.7864 99.4436 57.2384 99.2767L55.2565 102.989C54.2366 104.785 53.8181 106.619 53.983 107.65C52.1069 112.9 56.5558 116.445 61.8169 118.317C63.9162 119.069 66.2068 119.102 68.327 118.411L68.3917 117.517L68.7901 118.25C68.7901 118.25 73.5998 128.132 74.7363 128.576C74.0467 126.791 72.2278 118.306 71.7201 116.538C71.024 114.132 71.4995 110.309 71.9086 107.965C72.1637 106.52 72.177 105.043 71.9481 103.594L71.938 103.53L73.0633 105.797L75.5882 104.213C74.6232 101.408 74.604 98.0531 68.6067 99.2986Z" fill="#2F2E41"/>
<defs>
<linearGradient id="paint0_linear_322_630" x1="9.16744" y1="229.076" x2="32.212" y2="250.362" gradientUnits="userSpaceOnUse">
<stop stop-color="#FF6600"/>
<stop offset="1" stop-color="#2042B8"/>
</linearGradient>
<linearGradient id="paint1_linear_322_630" x1="10.9694" y1="245.467" x2="28.8136" y2="252.862" gradientUnits="userSpaceOnUse">
<stop stop-color="#FF6600"/>
<stop offset="1" stop-color="#2042B8"/>
</linearGradient>
<linearGradient id="paint2_linear_322_630" x1="2.13442" y1="27.599" x2="2.36106" y2="36.6219" gradientUnits="userSpaceOnUse">
<stop stop-color="#FF6600"/>
<stop offset="1" stop-color="#2042B8"/>
</linearGradient>
<linearGradient id="paint3_linear_322_630" x1="182.15" y1="16.7997" x2="182.744" y2="20.4826" gradientUnits="userSpaceOnUse">
<stop stop-color="#FF6600"/>
<stop offset="1" stop-color="#2042B8"/>
</linearGradient>
<linearGradient id="paint4_linear_322_630" x1="182.15" y1="26.7385" x2="182.744" y2="30.4213" gradientUnits="userSpaceOnUse">
<stop stop-color="#FF6600"/>
<stop offset="1" stop-color="#2042B8"/>
</linearGradient>
<linearGradient id="paint5_linear_322_630" x1="180.995" y1="22.9685" x2="181.661" y2="27.5339" gradientUnits="userSpaceOnUse">
<stop stop-color="#FF6600"/>
<stop offset="1" stop-color="#2042B8"/>
</linearGradient>
<linearGradient id="paint6_linear_322_630" x1="20.5776" y1="17.0034" x2="25.9256" y2="23.7285" gradientUnits="userSpaceOnUse">
<stop stop-color="#FF6600"/>
<stop offset="1" stop-color="#2042B8"/>
</linearGradient>
<linearGradient id="paint7_linear_322_630" x1="32.1977" y1="17.0034" x2="37.5457" y2="23.7285" gradientUnits="userSpaceOnUse">
<stop stop-color="#FF6600"/>
<stop offset="1" stop-color="#2042B8"/>
</linearGradient>
<linearGradient id="paint8_linear_322_630" x1="43.818" y1="17.0034" x2="49.1659" y2="23.7285" gradientUnits="userSpaceOnUse">
<stop stop-color="#FF6600"/>
<stop offset="1" stop-color="#2042B8"/>
</linearGradient>
<linearGradient id="paint9_linear_322_630" x1="-16.5011" y1="0.0956329" x2="130.775" y2="206.447" gradientUnits="userSpaceOnUse">
<stop stop-color="#FF6600"/>
<stop offset="1" stop-color="#2042B8"/>
</linearGradient>
<linearGradient id="paint10_linear_322_630" x1="-4.61661" y1="120.978" x2="-4.58391" y2="124.415" gradientUnits="userSpaceOnUse">
<stop stop-color="#FF6600"/>
<stop offset="1" stop-color="#2042B8"/>
</linearGradient>
<linearGradient id="paint11_linear_322_630" x1="80.525" y1="79.1989" x2="86.4446" y2="79.7182" gradientUnits="userSpaceOnUse">
<stop stop-color="#FF6600"/>
<stop offset="1" stop-color="#2042B8"/>
</linearGradient>
<linearGradient id="paint12_linear_322_630" x1="113.706" y1="63.6673" x2="121.799" y2="64.3867" gradientUnits="userSpaceOnUse">
<stop stop-color="#FF6600"/>
<stop offset="1" stop-color="#2042B8"/>
</linearGradient>
<linearGradient id="paint13_linear_322_630" x1="150.105" y1="102.626" x2="155.028" y2="103.443" gradientUnits="userSpaceOnUse">
<stop stop-color="#FF6600"/>
<stop offset="1" stop-color="#2042B8"/>
</linearGradient>
<linearGradient id="paint14_linear_322_630" x1="183.63" y1="80.1591" x2="187.339" y2="80.3712" gradientUnits="userSpaceOnUse">
<stop stop-color="#FF6600"/>
<stop offset="1" stop-color="#2042B8"/>
</linearGradient>
<linearGradient id="paint15_linear_322_630" x1="-5.52643" y1="66.6066" x2="14.9208" y2="149.653" gradientUnits="userSpaceOnUse">
<stop stop-color="#FF6600"/>
<stop offset="1" stop-color="#2042B8"/>
</linearGradient>
<linearGradient id="paint16_linear_322_630" x1="43.7966" y1="88.9633" x2="49.0581" y2="95.3586" gradientUnits="userSpaceOnUse">
<stop stop-color="#FF6600"/>
<stop offset="1" stop-color="#2042B8"/>
</linearGradient>
<linearGradient id="paint17_linear_322_630" x1="79.2105" y1="73.503" x2="84.472" y2="79.8983" gradientUnits="userSpaceOnUse">
<stop stop-color="#FF6600"/>
<stop offset="1" stop-color="#2042B8"/>
</linearGradient>
<linearGradient id="paint18_linear_322_630" x1="113.518" y1="58.0428" x2="118.779" y2="64.4381" gradientUnits="userSpaceOnUse">
<stop stop-color="#FF6600"/>
<stop offset="1" stop-color="#2042B8"/>
</linearGradient>
<linearGradient id="paint19_linear_322_630" x1="148.378" y1="100.559" x2="153.64" y2="106.954" gradientUnits="userSpaceOnUse">
<stop stop-color="#FF6600"/>
<stop offset="1" stop-color="#2042B8"/>
</linearGradient>
<linearGradient id="paint20_linear_322_630" x1="181.025" y1="75.1595" x2="186.287" y2="81.5548" gradientUnits="userSpaceOnUse">
<stop stop-color="#FF6600"/>
<stop offset="1" stop-color="#2042B8"/>
</linearGradient>
<linearGradient id="paint21_linear_322_630" x1="282.695" y1="197.771" x2="319.927" y2="311.046" gradientUnits="userSpaceOnUse">
<stop stop-color="#FF6600"/>
<stop offset="1" stop-color="#2042B8"/>
</linearGradient>
<linearGradient id="paint22_linear_322_630" x1="377.55" y1="117.759" x2="418.956" y2="192.993" gradientUnits="userSpaceOnUse">
<stop stop-color="#FF6600"/>
<stop offset="1" stop-color="#2042B8"/>
</linearGradient>
<linearGradient id="paint23_linear_322_630" x1="423.494" y1="144.46" x2="424.176" y2="148.489" gradientUnits="userSpaceOnUse">
<stop stop-color="#FF6600"/>
<stop offset="1" stop-color="#2042B8"/>
</linearGradient>
<linearGradient id="paint24_linear_322_630" x1="277.483" y1="107.217" x2="291.222" y2="121.141" gradientUnits="userSpaceOnUse">
<stop stop-color="#FF6600"/>
<stop offset="1" stop-color="#2042B8"/>
</linearGradient>
<linearGradient id="paint25_linear_322_630" x1="110.928" y1="131.512" x2="124.666" y2="145.435" gradientUnits="userSpaceOnUse">
<stop stop-color="#FF6600"/>
<stop offset="1" stop-color="#2042B8"/>
</linearGradient>
<linearGradient id="paint26_linear_322_630" x1="475.081" y1="149.014" x2="498.125" y2="170.3" gradientUnits="userSpaceOnUse">
<stop stop-color="#FF6600"/>
<stop offset="1" stop-color="#2042B8"/>
</linearGradient>
</defs>
</svg>
