<svg width="555" height="477" viewBox="0 0 555 477" fill="none" xmlns="http://www.w3.org/2000/svg">
<g clip-path="url(#clip0_600_261)">
<path d="M149.032 448.228L158.389 451.6L175.426 415.901L161.617 410.923L149.032 448.228Z" fill="#A0616A"/>
<path d="M161.208 453.593L163.42 447.037L160.908 446.305L150.689 443.309L148.322 442.621L139.141 463.941L138.649 465.084L145.293 467.479L145.901 466.386L148.659 461.42L149.357 467.632L149.508 468.998L167.122 475.348C168.172 475.719 169.322 475.646 170.321 475.146C171.32 474.646 172.088 473.759 172.458 472.677C174.412 469.357 162.382 456.318 161.208 453.593Z" fill="#2F2E41"/>
<path d="M82.8617 455.785H92.7704L97.4845 416.278L82.8593 416.278L82.8617 455.785Z" fill="#A0616A"/>
<path d="M96.0678 456.707V449.764L93.4628 449.928L82.8586 450.578L80.4044 450.733L78.5281 473.989L78.4276 475.236H85.4635L85.6897 473.998L86.7116 468.37L89.3501 473.998L89.928 475.236H108.582C109.692 475.228 110.754 474.769 111.538 473.957C112.322 473.145 112.765 472.045 112.77 470.898C113.557 467.097 98.0445 458.881 96.0678 456.707Z" fill="#2F2E41"/>
<path d="M153.578 207.876L169.141 229.196C169.141 229.196 160.546 228.58 169.141 232.442C177.735 236.303 177.979 234.939 177.857 239.619C177.735 244.299 168.974 243.599 173.354 248.391C177.735 253.183 207.078 316.887 207.078 316.887C207.078 316.887 183.034 409.118 179.955 412.88C176.876 416.643 173.438 413.09 176.876 416.643C180.313 420.197 184.611 415.755 180.313 420.197C176.016 424.639 170.122 432.477 170.122 432.477L152.811 429.969C152.811 429.969 133.903 411.313 163.984 380.22C163.984 380.22 171.556 349.113 168.2 349.12C164.843 349.127 164.843 354.142 164.843 344.083V334.025L125.008 256.886C125.008 256.886 99.5859 236.387 99.9851 227.017C100.384 217.648 153.578 207.876 153.578 207.876Z" fill="#2F2E41"/>
<path d="M125.309 229.196C125.309 229.196 143.357 323.364 140.779 326.029C138.2 328.694 138.2 335.382 138.2 335.382L96.9466 429.969L80.617 430.857C80.2314 403.795 80.1252 383.268 94.3683 364.229L101.244 224.755L125.309 229.196Z" fill="#2F2E41"/>
<path d="M148.74 117.416L129.07 101.364L118.745 100.743L103.423 110.889L99.6718 130.672L90.7991 152.95L103.813 213.071C103.813 213.071 105.033 217.385 101.835 217.903C98.6365 218.421 99.02 224.78 99.02 224.78C99.02 224.78 99.6713 230.292 96.5655 230.777C93.4597 231.262 85.178 231.262 92.4249 240.893C99.6718 250.524 156.99 214.098 156.99 214.098L165.315 168.946C165.315 168.946 181.46 146.531 164.073 133.694L148.74 117.416Z" fill="#FF6600"/>
<path d="M62.8709 253.917C62.0042 252.799 61.3851 251.498 61.0574 250.106C60.7296 248.714 60.7011 247.265 60.9739 245.86C61.2466 244.456 61.814 243.13 62.636 241.977C63.4581 240.823 64.5148 239.87 65.7318 239.184L90.4737 153.357L105.945 161.408L79.0002 243.673C79.9789 245.862 80.1467 248.347 79.4716 250.656C78.7966 252.965 77.3256 254.937 75.3375 256.2C73.3494 257.463 70.9822 257.928 68.6845 257.507C66.3869 257.086 64.3183 255.809 62.8709 253.917L62.8709 253.917Z" fill="#A0616A"/>
<path d="M106.976 110.095C106.976 110.095 102.554 107.665 99.5289 118.178C97.1072 126.595 77.4563 176.727 77.2057 188.915C75.5885 189.27 74.1313 190.17 73.0636 191.475C71.996 192.779 71.3785 194.414 71.3086 196.121L95.6051 199.486C99.8508 195.785 100.965 190.786 99.3219 189.302L104.597 174.409L126.605 127.026L110.203 111.792L106.976 110.095Z" fill="#FF6600"/>
<path d="M236.8 225.705C237.114 224.31 237.128 222.86 236.841 221.459C236.554 220.057 235.974 218.738 235.14 217.593C234.307 216.448 233.24 215.507 232.017 214.834C230.793 214.162 229.441 213.775 228.057 213.7L171.3 146.698L159.26 161.547L217.971 223.678C218.005 226.09 218.893 228.405 220.468 230.185C222.042 231.965 224.194 233.087 226.515 233.336C228.836 233.586 231.165 232.947 233.06 231.541C234.956 230.135 236.287 228.058 236.8 225.705Z" fill="#A0616A"/>
<path d="M136.862 115.741C136.862 115.741 139.833 111.574 146.959 119.701C152.664 126.207 191.356 162.626 196.681 173.504C198.287 173.1 199.978 173.261 201.486 173.96C202.995 174.659 204.235 175.856 205.013 177.365L184.513 191.26C179.137 189.82 176.041 185.81 176.901 183.738L165.914 172.668L126.247 139.781L134.662 118.714L136.862 115.741Z" fill="#FF6600"/>
<path d="M144.807 78.1252C149.274 66.2521 143.584 52.884 132.097 48.2667C120.611 43.6494 107.678 49.5314 103.211 61.4045C98.7439 73.2775 104.434 86.6457 115.921 91.263C127.407 95.8803 140.34 89.9983 144.807 78.1252Z" fill="#A0616A"/>
<path d="M150.671 48.6211C149.327 47.1242 147.548 46.1213 145.604 45.7649C143.659 45.4085 141.655 45.7181 139.896 46.6466C140.345 44.0543 140.794 41.462 141.243 38.8697C137.511 38.2793 133.779 37.6888 130.048 37.0984C124.418 36.2076 118.617 35.3227 113.08 36.7037C109.117 37.752 105.505 39.8986 102.635 42.9121C99.7643 45.9256 97.7441 49.6917 96.7918 53.8044C94.3805 52.1146 91.5593 51.1574 88.6482 51.0415C85.7372 50.9256 82.8531 51.6556 80.3232 53.1486C77.7933 54.6417 75.7191 56.838 74.336 59.4882C72.9529 62.1384 72.3164 65.1363 72.4986 68.1417C72.7669 72.5651 74.768 76.6468 76.0063 80.89C80.7118 97.0148 72.9186 116.048 58.4441 123.782C63.106 127.437 67.9204 131.172 73.5658 132.763C79.2113 134.354 85.9599 133.308 89.6777 128.638C91.5798 126.248 92.4978 123.205 93.3733 120.246C96.9132 108.282 100.453 96.3182 103.993 84.3541L109.716 95.0341C111.543 97.6754 110.889 101.372 109.573 104.32C108.256 107.268 106.343 109.998 105.754 113.188C105.165 116.377 106.534 120.33 109.601 121.034C113.744 110.96 117.976 100.224 116.369 89.4032C115.743 85.192 114.245 80.8729 115.422 76.7897C116.332 73.6346 118.74 71.1516 121.415 69.3652C124.216 67.498 127.362 66.253 130.653 65.7093C137.927 64.5135 146.98 66.1194 151.249 59.9165C152.355 58.2254 152.898 56.2072 152.793 54.1685C152.689 52.1298 151.944 50.182 150.671 48.6211Z" fill="#2F2E41"/>
<path d="M136.484 191.486C146.921 191.486 155.382 182.74 155.382 171.951C155.382 161.163 146.921 152.417 136.484 152.417C126.046 152.417 117.585 161.163 117.585 171.951C117.585 182.74 126.046 191.486 136.484 191.486Z" fill="#2042B8"/>
<path d="M140.895 162.121C140.996 162.546 141.146 162.956 141.343 163.343C141.509 163.779 141.788 164.16 142.151 164.442C142.513 164.725 142.944 164.898 143.395 164.943C143.471 164.94 143.546 164.929 143.62 164.91C144.428 164.704 144.921 163.692 144.929 162.429C144.929 161.992 144.878 161.556 144.776 161.132C144.677 160.712 144.529 160.305 144.334 159.923C143.759 158.802 142.864 158.137 142.053 158.343C140.98 158.617 140.463 160.309 140.895 162.121Z" fill="white"/>
<path d="M142.352 163.337C142.505 163.983 142.874 164.552 143.395 164.943C143.471 164.94 143.546 164.928 143.62 164.91C144.428 164.704 144.921 163.692 144.929 162.429C144.929 161.992 144.878 161.556 144.776 161.132C144.677 160.712 144.529 160.305 144.334 159.923C143.634 160.105 143.032 160.567 142.661 161.207C142.29 161.847 142.179 162.613 142.352 163.337Z" fill="#3F3D56"/>
<path d="M132.857 164.171C133.272 165.911 134.413 167.13 135.452 166.984C135.496 166.978 135.539 166.97 135.582 166.959C136.653 166.686 137.17 164.994 136.737 163.181C136.639 162.762 136.491 162.356 136.296 161.974C135.721 160.852 134.825 160.186 134.015 160.393C132.942 160.666 132.425 162.358 132.857 164.171Z" fill="white"/>
<path d="M134.393 165.366C134.548 166.019 134.923 166.593 135.452 166.984C135.496 166.978 135.539 166.97 135.582 166.959C136.652 166.686 137.17 164.994 136.737 163.181C136.639 162.762 136.491 162.356 136.296 161.974C135.615 162.175 135.037 162.64 134.682 163.273C134.327 163.905 134.223 164.656 134.393 165.366Z" fill="#3F3D56"/>
<path d="M148.778 169.897C149.928 174.715 148.106 179.324 144.71 180.189C141.313 181.055 137.628 177.851 136.478 173.032C140.67 174.12 144.773 173.141 148.778 169.897Z" fill="white"/>
<path opacity="0.2" d="M118.136 176.666C117.207 172.772 117.46 168.677 118.86 164.936C120.261 161.195 122.741 157.99 125.964 155.757C122.956 159.328 121.305 163.906 121.319 168.641C121.332 173.375 123.008 177.944 126.036 181.497C129.063 185.05 133.236 187.345 137.778 187.957C142.32 188.568 146.923 187.454 150.729 184.821C148.457 187.517 145.513 189.517 142.217 190.603C138.92 191.688 135.399 191.817 132.037 190.976C128.675 190.135 125.6 188.356 123.149 185.832C120.698 183.309 118.964 180.138 118.136 176.666Z" fill="black"/>
<path d="M547.468 462.582C547.094 462.6 546.723 462.499 546.407 462.291C546.091 462.084 545.843 461.782 545.699 461.425C545.555 461.068 545.52 460.673 545.599 460.295C545.679 459.917 545.869 459.573 546.144 459.31L546.269 458.796C546.253 458.755 546.236 458.714 546.22 458.673C545.843 457.753 545.211 456.968 544.405 456.418C543.598 455.868 542.652 455.576 541.685 455.58C540.719 455.584 539.775 455.883 538.972 456.439C538.169 456.995 537.543 457.785 537.173 458.708C535.694 462.391 533.81 466.081 533.346 469.975C533.142 471.697 533.228 473.442 533.601 475.133C530.126 467.297 528.321 458.781 528.31 450.161C528.309 447.998 528.425 445.837 528.658 443.687C528.85 441.925 529.117 440.175 529.458 438.438C531.321 429.013 535.32 420.178 541.127 412.661C543.938 411.075 546.211 408.638 547.64 405.676C548.157 404.612 548.523 403.475 548.726 402.302C548.409 402.345 547.531 397.354 547.77 397.048C547.328 396.355 546.537 396.01 546.054 395.334C543.654 391.971 540.348 392.558 538.622 397.129C534.934 399.052 534.899 402.243 537.161 405.311C538.601 407.263 538.799 409.905 540.062 411.994C539.932 412.166 539.796 412.333 539.667 412.505C537.291 415.662 535.221 419.052 533.485 422.627C533.907 418.622 533.404 414.571 532.016 410.807C530.609 407.299 527.972 404.345 525.65 401.312C525.036 400.497 524.202 399.889 523.253 399.564C522.305 399.24 521.284 399.213 520.321 399.487C519.358 399.762 518.495 400.325 517.841 401.106C517.188 401.888 516.773 402.852 516.65 403.877C516.645 403.921 516.64 403.966 516.636 404.011C516.981 404.212 517.318 404.425 517.649 404.651C518.064 404.938 518.385 405.347 518.571 405.826C518.757 406.305 518.799 406.83 518.691 407.334C518.583 407.838 518.33 408.296 517.966 408.649C517.602 409.001 517.143 409.232 516.65 409.311L516.599 409.319C516.722 410.604 516.939 411.877 517.249 413.128C514.27 425.036 520.701 429.373 529.885 429.568C530.087 429.676 530.285 429.783 530.487 429.885C528.744 434.993 527.65 440.313 527.234 445.713C526.998 448.898 527.012 452.098 527.275 455.281L527.26 455.168C526.594 451.629 524.768 448.435 522.088 446.126C518.108 442.747 512.485 441.503 508.192 438.786C507.735 438.483 507.205 438.322 506.663 438.32C506.12 438.319 505.589 438.478 505.131 438.779C504.674 439.079 504.308 439.509 504.079 440.017C503.85 440.525 503.766 441.09 503.837 441.645L503.855 441.764C504.495 442.033 505.118 442.344 505.721 442.693C506.066 442.895 506.403 443.108 506.734 443.334C507.149 443.62 507.47 444.03 507.656 444.509C507.842 444.987 507.884 445.513 507.776 446.017C507.668 446.52 507.415 446.979 507.051 447.331C506.687 447.684 506.228 447.915 505.735 447.993L505.684 448.001C505.648 448.007 505.617 448.012 505.58 448.018C506.674 450.717 508.209 453.201 510.118 455.362C511.981 465.757 519.981 466.743 528.538 463.716H528.544C529.482 467.934 530.843 472.039 532.603 475.966H547.104C547.156 475.799 547.203 475.627 547.25 475.461C545.908 475.548 544.56 475.465 543.237 475.214C544.313 473.849 545.389 472.473 546.465 471.109C546.489 471.083 546.512 471.056 546.533 471.028C547.078 470.33 547.629 469.637 548.175 468.938L548.175 468.938C548.204 466.797 547.967 464.661 547.468 462.583L547.468 462.582Z" fill="url(#paint0_linear_600_261)" fill-opacity="0.4"/>
<path d="M4.23853e-06 476.01C-0.000370823 476.14 0.0241491 476.269 0.0721448 476.389C0.12014 476.51 0.190672 476.619 0.279676 476.711C0.368681 476.803 0.474399 476.876 0.590759 476.925C0.707119 476.975 0.831832 477 0.957699 477H554.042C554.296 477 554.54 476.896 554.72 476.71C554.899 476.524 555 476.273 555 476.01C555 475.748 554.899 475.496 554.72 475.31C554.54 475.125 554.296 475.02 554.042 475.02H0.95765C0.831788 475.02 0.707087 475.045 0.590734 475.095C0.474382 475.144 0.368662 475.217 0.279664 475.309C0.190666 475.401 0.120139 475.511 0.0721448 475.631C0.0241506 475.751 -0.00036652 475.88 4.23853e-06 476.01Z" fill="#CCCCCC"/>
<path d="M391.874 462.388L380.2 462.388L374.646 415.842L391.877 415.844L391.874 462.388Z" fill="#FFB6B6"/>
<path d="M392.285 474.977L356.385 474.975V474.506C356.386 470.676 357.858 467.002 360.478 464.294C363.099 461.585 366.653 460.063 370.359 460.063H370.359L376.917 454.921L389.152 460.064L392.286 460.064L392.285 474.977Z" fill="#2F2E41"/>
<path d="M442.798 462.388L431.125 462.388L425.572 415.842L442.801 415.844L442.798 462.388Z" fill="#FFB6B6"/>
<path d="M443.21 474.977L407.31 474.975V474.506C407.31 470.676 408.783 467.002 411.403 464.293C414.024 461.585 417.578 460.063 421.283 460.063H421.284L427.842 454.921L440.077 460.064L443.21 460.064L443.21 474.977Z" fill="#2F2E41"/>
<path d="M362.807 208.779C362.807 208.779 351.574 244.438 353.648 249.131C355.721 253.824 359.258 250.168 355.721 253.824C352.184 257.481 349.096 253.594 352.408 259.803C355.721 266.012 360.739 317.126 362.946 319.601C365.153 322.075 368.188 322.141 365.492 324.546C362.795 326.95 359.258 322.075 362.795 326.95C366.333 331.825 375.719 444.287 375.719 444.287H394.055C394.055 444.287 398.622 438.846 396.037 435.305C393.451 431.763 396.264 430.398 396.037 428.034C395.81 425.67 396.669 420.572 396.829 418.246C396.989 415.92 400.088 360.504 392.643 328.492L406.218 267.539L422.663 341.209C422.663 341.209 415.098 403.003 422.663 422.867C422.663 422.867 416.564 428.117 419.269 431.159C421.974 434.201 424.332 431.763 421.974 434.201C419.615 436.638 425.511 445.17 425.511 445.17L445.555 443.951L456.901 328.492C456.901 328.492 458.813 316.451 456.901 314.388C454.988 312.325 454.988 319.637 454.988 312.325V302.575C454.988 302.575 453.88 242.606 453.732 239.074C453.585 235.543 439.436 209.949 439.436 209.949L362.807 208.779Z" fill="#2F2E41"/>
<path d="M362.974 85.6185V155.932C365.17 162.74 366.303 169.866 366.33 177.043C366.257 188.996 363.714 202.771 363.722 208.793C363.688 209.592 363.773 210.392 363.972 211.164C375.23 244.894 434.804 214.242 440.22 211.372C440.478 211.239 440.614 211.164 440.614 211.164L439.44 173.383L439.641 162.52L441.033 87.9975L439.786 86.9661L428.857 77.9575L427.787 77.0758L424.504 82.0251L395.236 79.9456L384.066 76.7514L380.581 78.2154L364.873 84.82L362.974 85.6185Z" fill="#2042B8"/>
<path d="M345.644 227.089L349.492 205.117L361.941 205.638L357.074 228.719C357.731 229.932 358.047 231.311 357.988 232.7C357.928 234.089 357.495 235.434 356.736 236.582C355.978 237.731 354.925 238.638 353.695 239.202C352.465 239.766 351.108 239.964 349.775 239.774C348.442 239.584 347.187 239.013 346.151 238.127C345.115 237.24 344.339 236.072 343.909 234.754C343.48 233.436 343.415 232.02 343.722 230.666C344.028 229.312 344.694 228.074 345.644 227.089V227.089Z" fill="#FFB6B6"/>
<path d="M364.885 85.4688C371.283 87.1816 374.936 95.7539 377.183 102.178C380.077 110.432 375.385 161.317 369.676 168.74C365.249 174.496 366.301 173.39 367.762 178.158C369.223 182.925 372.599 178.275 369.56 185.367C366.521 192.459 363.934 191.18 365.958 194.204C367.982 197.227 370.345 196.879 367.756 201.413C365.168 205.947 365.393 207.575 364.83 209.319C364.267 211.063 363.589 223.621 363.589 223.621C363.589 223.621 350.428 221.408 343.565 224.081C343.565 224.081 348.293 211.757 346.381 209.547C344.469 207.337 341.994 206.872 344.02 204.082C346.046 201.291 350.095 201.525 345.821 199.663C341.547 197.802 345.153 171.524 345.153 171.524C340.355 154.228 343.698 128.357 348.555 100.892C349.273 96.8302 351.259 93.1235 354.208 90.3383C357.157 87.5532 360.907 85.8428 364.885 85.4688Z" fill="#2042B8"/>
<path d="M447.916 225.63L448.846 203.321L461.25 202.093L459.454 225.643C460.264 226.753 460.759 228.074 460.882 229.459C461.005 230.844 460.752 232.237 460.151 233.481C459.551 234.725 458.626 235.772 457.482 236.503C456.337 237.233 455.018 237.62 453.673 237.618C452.328 237.617 451.009 237.228 449.866 236.494C448.724 235.761 447.801 234.712 447.203 233.467C446.605 232.221 446.355 230.828 446.481 229.444C446.607 228.059 447.104 226.738 447.916 225.63Z" fill="#FFB6B6"/>
<path d="M434.951 85.8264L435.298 85.8687C438.531 86.263 441.623 87.4658 444.305 89.3731C446.987 91.2804 449.179 93.8347 450.69 96.8148C454.64 104.587 467.133 157.227 464.074 164.451C461.221 171.188 461.339 169.532 463.412 174.051C465.485 178.57 468.22 173.489 466.139 180.942C464.059 188.394 461.328 187.489 463.73 190.201C466.132 192.913 468.427 192.237 466.457 197.092C464.487 201.947 464.923 203.529 464.594 205.335C464.265 207.142 465.241 219.679 465.241 219.679C465.241 219.679 451.911 219.331 445.462 222.941C445.462 222.941 448.53 210.068 446.346 208.147C444.162 206.225 441.649 206.11 443.29 203.062C444.931 200.014 448.973 199.678 444.494 198.433C440.016 197.187 440.142 170.647 440.142 170.647L434.951 85.8264Z" fill="#2042B8"/>
<path d="M402.993 57.3951C403.516 57.5199 404.039 57.6281 404.562 57.7112C406.16 57.9825 407.783 58.069 409.399 57.9691C413.609 57.7354 417.675 56.3008 421.145 53.8244C424.615 51.348 427.353 47.9266 429.057 43.9396C430.76 39.9526 431.362 35.5558 430.795 31.2369C430.228 26.918 428.515 22.8457 425.846 19.4717C423.177 16.0976 419.656 13.5537 415.673 12.1221C411.691 10.6904 407.402 10.4269 403.284 11.3609C399.165 12.2948 395.377 14.3897 392.34 17.4132C389.303 20.4366 387.135 24.2705 386.078 28.4896C386.029 28.6809 385.981 28.8639 385.941 29.0553C384.568 35.1506 385.593 41.5602 388.791 46.8745C391.988 52.1889 397.097 55.9732 402.993 57.3951Z" fill="#FFB6B6"/>
<path d="M424.063 54.6105C427.238 52.042 427.546 47.1462 430.256 44.06C434.786 38.9001 436.914 33.3488 434.541 27.2347C432.442 21.827 432.888 15.1796 428.368 11.6987C430.588 10.868 431.11 9.14273 429.151 9.11088C427.83 9.08939 422.906 11.6992 425.275 8.44808C427.645 5.19694 423.159 6.48023 423.456 5.14942C423.753 3.81862 425.655 3.08155 426.494 4.13645C423.815 0.891873 417.965 1.58361 416.064 5.3697C413.394 1.23333 410.56 -1.61288 406.474 1.01206C402.461 3.59013 402.514 6.77699 398.198 6.0111C396.17 5.65107 395.978 9.61286 394.592 11.186C393.206 12.7591 391.18 13.9766 389.158 13.5815C387.135 13.1864 385.588 10.581 386.722 8.80492L381.955 20.0462L380.033 17.6104C376.981 19.6668 377.983 25.0329 381.056 27.0571C384.129 29.0813 389.994 24.4028 391.661 27.7516C394.29 33.0304 400.457 30.3648 404.692 26.6342C409.828 22.11 416.026 35.866 413.553 42.3546C416.119 39.7491 420.868 41.9113 422.198 45.3666C423.527 48.8218 422.552 52.7146 421.567 56.291L424.063 54.6105Z" fill="#2F2E41"/>
<path d="M380.581 78.2154L381.378 79.2635L383.519 82.075L391.441 106.264L428.857 77.9575L427.787 77.0758L422.09 64.557L392.821 62.4775L384.066 76.7514L380.581 78.2154Z" fill="#3F3D56"/>
<path d="M420.412 139.912C418.527 160.844 405.039 176.661 390.286 175.242C375.532 173.822 365.1 155.704 366.985 134.772C382.29 145.15 400.022 147.131 420.412 139.912Z" fill="white"/>
<path d="M385.558 115.019C385.482 116.263 385.26 117.493 384.896 118.682C383.92 121.796 382.028 123.989 379.91 124.244C379.695 124.274 379.478 124.282 379.262 124.267C376.893 124.109 375.016 121.524 374.378 117.979C374.165 116.752 374.098 115.502 374.178 114.258C374.25 113.026 374.469 111.807 374.831 110.631C375.898 107.185 378.09 104.85 380.467 105.009C383.614 105.22 385.891 109.703 385.558 115.019Z" fill="white"/>
<path d="M382.059 119.19C381.944 121.084 381.182 122.875 379.91 124.244C379.695 124.274 379.478 124.282 379.262 124.267C376.893 124.109 375.016 121.524 374.378 117.979C374.165 116.752 374.098 115.502 374.178 114.258C374.25 113.026 374.469 111.807 374.831 110.631C376.885 110.78 378.799 111.764 380.154 113.368C381.508 114.972 382.193 117.065 382.059 119.19Z" fill="#3F3D56"/>
<path d="M409.133 116.594C408.814 121.697 406.205 125.715 403.213 125.846C403.088 125.852 402.962 125.851 402.837 125.842C399.697 125.633 397.42 121.149 397.752 115.834C397.825 114.604 398.044 113.388 398.405 112.214C399.473 108.761 401.665 106.426 404.042 106.585C407.189 106.795 409.466 111.279 409.133 116.594Z" fill="white"/>
<path d="M405.4 120.75C405.284 122.664 404.508 124.472 403.213 125.846C403.088 125.852 402.962 125.851 402.837 125.842C399.696 125.633 397.42 121.149 397.752 115.834C397.825 114.604 398.044 113.388 398.405 112.214C400.414 112.422 402.266 113.429 403.571 115.021C404.875 116.614 405.531 118.667 405.4 120.75Z" fill="#3F3D56"/>
<path d="M210.834 68.1517C216.978 68.1517 221.959 63.0033 221.959 56.6525C221.959 50.3016 216.978 45.1533 210.834 45.1533C204.69 45.1533 199.709 50.3016 199.709 56.6525C199.709 63.0033 204.69 68.1517 210.834 68.1517Z" fill="url(#paint1_linear_600_261)" fill-opacity="0.4"/>
<path d="M212.244 51.8586C212.232 52.1155 212.251 52.3729 212.3 52.6252C212.324 52.9002 212.42 53.1631 212.58 53.3848C212.739 53.6065 212.954 53.7783 213.202 53.8813C213.245 53.8924 213.29 53.899 213.334 53.901C213.824 53.9234 214.265 53.4368 214.472 52.7246C214.543 52.4778 214.583 52.2231 214.594 51.9661C214.606 51.7118 214.587 51.4568 214.539 51.2072C214.394 50.4759 213.996 49.9462 213.505 49.9238C212.855 49.894 212.291 50.7608 212.244 51.8586Z" fill="white"/>
<path d="M212.871 52.795C212.853 53.1862 212.971 53.5711 213.202 53.8813C213.245 53.8924 213.29 53.899 213.334 53.901C213.824 53.9234 214.265 53.4368 214.472 52.7246C214.543 52.4779 214.584 52.2232 214.594 51.9662C214.606 51.7118 214.587 51.4568 214.539 51.2072C214.114 51.1902 213.7 51.3477 213.388 51.6453C213.075 51.9429 212.889 52.3562 212.871 52.795Z" fill="#F2F2F2"/>
<path d="M207.375 51.6357C207.33 52.6896 207.778 53.574 208.388 53.6701C208.414 53.6743 208.44 53.677 208.466 53.6781C209.114 53.7078 209.678 52.841 209.725 51.7433C209.737 51.4894 209.719 51.235 209.67 50.9859C209.526 50.253 209.127 49.7234 208.636 49.7009C207.986 49.6711 207.422 50.5379 207.375 51.6357Z" fill="white"/>
<path d="M208.05 52.5743C208.033 52.9696 208.153 53.3583 208.388 53.67C208.414 53.6742 208.44 53.6769 208.466 53.6781C209.114 53.7078 209.678 52.841 209.725 51.7433C209.737 51.4894 209.719 51.2349 209.67 50.9858C209.253 50.9821 208.852 51.1456 208.55 51.4419C208.248 51.7382 208.069 52.1442 208.05 52.5743Z" fill="#F2F2F2"/>
<path d="M215.446 57.6029C215.321 60.5216 213.552 62.8114 211.495 62.7172C209.437 62.623 207.871 60.1806 207.996 57.2618C209.12 57.9319 210.384 58.3127 211.681 58.3721C212.977 58.4314 214.269 58.1676 215.446 57.6029Z" fill="white"/>
<path d="M269.579 187.101C275.723 187.101 280.704 181.953 280.704 175.602C280.704 169.251 275.723 164.103 269.579 164.103C263.435 164.103 258.455 169.251 258.455 175.602C258.455 181.953 263.435 187.101 269.579 187.101Z" fill="url(#paint2_linear_600_261)" fill-opacity="0.4"/>
<path d="M270.989 170.808C270.978 171.065 270.997 171.322 271.046 171.574C271.069 171.849 271.166 172.112 271.325 172.334C271.484 172.556 271.7 172.728 271.948 172.831C271.991 172.842 272.035 172.848 272.08 172.85C272.569 172.873 273.01 172.386 273.218 171.674C273.288 171.427 273.329 171.172 273.34 170.915C273.351 170.661 273.333 170.406 273.284 170.156C273.14 169.425 272.741 168.896 272.25 168.873C271.6 168.843 271.036 169.71 270.989 170.808Z" fill="white"/>
<path d="M271.616 171.744C271.599 172.135 271.716 172.52 271.948 172.831C271.991 172.842 272.035 172.848 272.08 172.85C272.569 172.873 273.01 172.386 273.218 171.674C273.288 171.427 273.329 171.172 273.34 170.915C273.351 170.661 273.333 170.406 273.284 170.156C272.86 170.139 272.446 170.297 272.133 170.595C271.821 170.892 271.635 171.305 271.616 171.744Z" fill="#F2F2F2"/>
<path d="M266.12 170.585C266.075 171.639 266.523 172.523 267.134 172.619C267.159 172.624 267.185 172.626 267.211 172.627C267.86 172.657 268.424 171.79 268.471 170.693C268.483 170.439 268.464 170.184 268.415 169.935C268.271 169.202 267.872 168.673 267.381 168.65C266.731 168.62 266.167 169.487 266.12 170.585Z" fill="white"/>
<path d="M266.796 171.524C266.778 171.919 266.898 172.308 267.134 172.619C267.159 172.624 267.185 172.626 267.211 172.627C267.86 172.657 268.424 171.79 268.471 170.693C268.483 170.439 268.464 170.184 268.415 169.935C267.999 169.931 267.597 170.095 267.295 170.391C266.993 170.688 266.814 171.094 266.796 171.524Z" fill="#F2F2F2"/>
<path d="M274.191 176.552C274.066 179.471 272.297 181.761 270.24 181.666C268.183 181.572 266.616 179.13 266.741 176.211C267.866 176.881 269.13 177.262 270.426 177.321C271.723 177.381 273.014 177.117 274.191 176.552Z" fill="white"/>
<path d="M483.638 52.3472C489.782 52.3472 494.763 47.1988 494.763 40.848C494.763 34.4971 489.782 29.3488 483.638 29.3488C477.494 29.3488 472.513 34.4971 472.513 40.848C472.513 47.1988 477.494 52.3472 483.638 52.3472Z" fill="url(#paint3_linear_600_261)" fill-opacity="0.4"/>
<path d="M485.048 36.0541C485.037 36.3111 485.056 36.5685 485.104 36.8207C485.128 37.0957 485.225 37.3586 485.384 37.5803C485.543 37.802 485.759 37.9739 486.006 38.0769C486.05 38.088 486.094 38.0946 486.139 38.0965C486.628 38.1189 487.069 37.6323 487.277 36.9202C487.347 36.6734 487.388 36.4187 487.398 36.1617C487.41 35.9073 487.392 35.6524 487.343 35.4027C487.199 34.6714 486.8 34.1418 486.309 34.1193C485.659 34.0896 485.095 34.9564 485.048 36.0541Z" fill="white"/>
<path d="M485.675 36.9905C485.658 37.3817 485.775 37.7666 486.006 38.0768C486.05 38.0879 486.094 38.0945 486.139 38.0965C486.628 38.1189 487.069 37.6323 487.277 36.9201C487.347 36.6734 487.388 36.4186 487.398 36.1617C487.41 35.9073 487.392 35.6523 487.343 35.4027C486.919 35.3857 486.505 35.5432 486.192 35.8408C485.88 36.1383 485.694 36.5517 485.675 36.9905Z" fill="#F2F2F2"/>
<path d="M480.179 35.8312C480.134 36.8852 480.582 37.7696 481.193 37.8656C481.218 37.8698 481.244 37.8725 481.27 37.8737C481.919 37.9034 482.483 37.0366 482.53 35.9389C482.542 35.685 482.523 35.4306 482.474 35.1814C482.33 34.4486 481.931 33.919 481.44 33.8965C480.79 33.8667 480.226 34.7335 480.179 35.8312Z" fill="white"/>
<path d="M480.855 36.7699C480.837 37.1651 480.957 37.5538 481.193 37.8656C481.218 37.8698 481.244 37.8725 481.27 37.8736C481.919 37.9033 482.483 37.0365 482.53 35.9388C482.542 35.6849 482.523 35.4305 482.474 35.1813C482.058 35.1776 481.656 35.3411 481.354 35.6375C481.052 35.9338 480.873 36.3398 480.855 36.7699Z" fill="#F2F2F2"/>
<path d="M488.25 41.7984C488.125 44.7172 486.356 47.0069 484.299 46.9128C482.242 46.8186 480.675 44.3761 480.8 41.4574C481.925 42.1275 483.188 42.5083 484.485 42.5676C485.782 42.627 487.073 42.3632 488.25 41.7984Z" fill="white"/>
<path d="M15.2839 357.623C21.428 357.623 26.4087 352.474 26.4087 346.123C26.4087 339.773 21.428 334.624 15.2839 334.624C9.13982 334.624 4.15906 339.773 4.15906 346.123C4.15906 352.474 9.13982 357.623 15.2839 357.623Z" fill="url(#paint4_linear_600_261)" fill-opacity="0.4"/>
<path d="M16.6937 341.33C16.6823 341.586 16.7012 341.844 16.7502 342.096C16.7738 342.371 16.8705 342.634 17.0297 342.856C17.1889 343.077 17.4043 343.249 17.6521 343.352C17.6955 343.363 17.7398 343.37 17.7844 343.372C18.2738 343.394 18.7147 342.908 18.9223 342.196C18.9926 341.949 19.0335 341.694 19.0441 341.437C19.056 341.183 19.0374 340.928 18.9888 340.678C18.8445 339.947 18.4457 339.417 17.9548 339.395C17.3048 339.365 16.7408 340.232 16.6937 341.33Z" fill="white"/>
<path d="M17.321 342.266C17.3035 342.657 17.4208 343.042 17.6521 343.352C17.6954 343.363 17.7398 343.37 17.7844 343.372C18.2738 343.394 18.7147 342.908 18.9223 342.196C18.9926 341.949 19.0335 341.694 19.0441 341.437C19.056 341.183 19.0374 340.928 18.9888 340.678C18.5642 340.661 18.1504 340.819 17.8378 341.116C17.5253 341.414 17.3395 341.827 17.321 342.266Z" fill="#F2F2F2"/>
<path d="M11.8248 341.107C11.7797 342.161 12.2277 343.045 12.8384 343.141C12.8639 343.145 12.8897 343.148 12.9156 343.149C13.5642 343.179 14.1283 342.312 14.1753 341.214C14.1872 340.96 14.1686 340.706 14.1199 340.457C13.9757 339.724 13.5769 339.194 13.086 339.172C12.4359 339.142 11.8719 340.009 11.8248 341.107Z" fill="white"/>
<path d="M12.5003 342.045C12.4826 342.441 12.6025 342.829 12.8383 343.141C12.8639 343.145 12.8897 343.148 12.9156 343.149C13.5642 343.179 14.1282 342.312 14.1752 341.214C14.1871 340.96 14.1685 340.706 14.1199 340.457C13.7034 340.453 13.3018 340.617 12.9997 340.913C12.6976 341.209 12.5185 341.615 12.5003 342.045Z" fill="#F2F2F2"/>
<path d="M19.896 347.074C19.7709 349.993 18.0018 352.282 15.9445 352.188C13.8872 352.094 12.3208 349.652 12.4459 346.733C13.5703 347.403 14.834 347.784 16.1307 347.843C17.4273 347.902 18.7187 347.639 19.896 347.074Z" fill="white"/>
<path d="M17.6981 175.456C23.8422 175.456 28.8229 170.307 28.8229 163.956C28.8229 157.606 23.8422 152.457 17.6981 152.457C11.554 152.457 6.57324 157.606 6.57324 163.956C6.57324 170.307 11.554 175.456 17.6981 175.456Z" fill="url(#paint5_linear_600_261)" fill-opacity="0.4"/>
<path d="M19.1079 159.162C19.0965 159.419 19.1154 159.677 19.1643 159.929C19.1879 160.204 19.2847 160.467 19.4439 160.689C19.603 160.91 19.8185 161.082 20.0663 161.185C20.1096 161.196 20.154 161.203 20.1986 161.205C20.688 161.227 21.1289 160.741 21.3365 160.028C21.4068 159.782 21.4477 159.527 21.4583 159.27C21.4702 159.016 21.4516 158.761 21.403 158.511C21.2587 157.78 20.8599 157.25 20.369 157.228C19.719 157.198 19.1549 158.065 19.1079 159.162Z" fill="white"/>
<path d="M19.7352 160.099C19.7177 160.49 19.835 160.875 20.0662 161.185C20.1096 161.196 20.154 161.203 20.1986 161.205C20.688 161.227 21.1289 160.741 21.3365 160.028C21.4068 159.782 21.4477 159.527 21.4583 159.27C21.4702 159.016 21.4516 158.761 21.403 158.511C20.9784 158.494 20.5645 158.652 20.252 158.949C19.9395 159.247 19.7536 159.66 19.7352 160.099Z" fill="#F2F2F2"/>
<path d="M14.239 158.94C14.1939 159.993 14.6419 160.878 15.2525 160.974C15.2781 160.978 15.3039 160.981 15.3298 160.982C15.9784 161.012 16.5425 160.145 16.5895 159.047C16.6013 158.793 16.5828 158.539 16.5341 158.29C16.3899 157.557 15.991 157.027 15.5002 157.005C14.8501 156.975 14.2861 157.842 14.239 158.94Z" fill="white"/>
<path d="M14.9146 159.878C14.8969 160.273 15.0168 160.662 15.2526 160.974C15.2781 160.978 15.3039 160.981 15.3298 160.982C15.9784 161.012 16.5425 160.145 16.5895 159.047C16.6014 158.793 16.5828 158.539 16.5341 158.29C16.1177 158.286 15.716 158.449 15.4139 158.746C15.1118 159.042 14.9328 159.448 14.9146 159.878Z" fill="#F2F2F2"/>
<path d="M22.3101 164.907C22.1851 167.826 20.416 170.115 18.3587 170.021C16.3014 169.927 14.735 167.485 14.8601 164.566C15.9845 165.236 17.2482 165.617 18.5448 165.676C19.8414 165.735 21.1329 165.472 22.3101 164.907Z" fill="white"/>
</g>
<defs>
<linearGradient id="paint0_linear_600_261" x1="499.936" y1="393.229" x2="559.855" y2="434.171" gradientUnits="userSpaceOnUse">
<stop stop-color="#FF6600"/>
<stop offset="1" stop-color="#2042B8"/>
</linearGradient>
<linearGradient id="paint1_linear_600_261" x1="197.789" y1="45.1642" x2="215.316" y2="66.5175" gradientUnits="userSpaceOnUse">
<stop stop-color="#FF6600"/>
<stop offset="1" stop-color="#2042B8"/>
</linearGradient>
<linearGradient id="paint2_linear_600_261" x1="256.534" y1="164.114" x2="274.061" y2="185.467" gradientUnits="userSpaceOnUse">
<stop stop-color="#FF6600"/>
<stop offset="1" stop-color="#2042B8"/>
</linearGradient>
<linearGradient id="paint3_linear_600_261" x1="470.593" y1="29.3597" x2="488.12" y2="50.713" gradientUnits="userSpaceOnUse">
<stop stop-color="#FF6600"/>
<stop offset="1" stop-color="#2042B8"/>
</linearGradient>
<linearGradient id="paint4_linear_600_261" x1="2.23888" y1="334.635" x2="19.7655" y2="355.989" gradientUnits="userSpaceOnUse">
<stop stop-color="#FF6600"/>
<stop offset="1" stop-color="#2042B8"/>
</linearGradient>
<linearGradient id="paint5_linear_600_261" x1="4.65307" y1="152.468" x2="22.1797" y2="173.821" gradientUnits="userSpaceOnUse">
<stop stop-color="#FF6600"/>
<stop offset="1" stop-color="#2042B8"/>
</linearGradient>
<clipPath id="clip0_600_261">
<rect width="555" height="477" fill="white"/>
</clipPath>
</defs>
</svg>
