<svg width="415" height="611" viewBox="0 0 415 611" fill="none" xmlns="http://www.w3.org/2000/svg">
<path d="M367.449 151.485C398.037 140.435 429.473 131.511 461.759 124.711C897.898 -1.04076 1121.27 561.637 710.423 747.13C447.683 865.754 367.449 888.833 367.449 888.833C321.611 809.74 358.588 677.861 441.518 639.442L625.004 565.623C698.797 531.706 705.852 444.285 673.163 381.855C643.275 324.777 574.539 300.448 514.039 322.561C465.568 340.278 409.693 358.602 367.449 366.368C274.252 383.5 226.299 232.737 301.654 181.34C327.143 166.891 336.013 162.534 367.449 151.485Z" fill="url(#paint0_linear_261_308)" fill-opacity="0.4"/>
<path d="M560.305 560.736C529.717 571.785 498.281 580.709 465.995 587.509C29.8558 713.261 -193.519 150.583 217.331 -34.9103C480.071 -153.534 560.305 -176.612 560.305 -176.612C606.143 -97.5198 569.166 34.3594 486.236 72.7781L302.75 146.598C228.957 180.515 221.902 267.935 254.591 330.365C284.479 387.444 353.215 411.772 413.715 389.659C462.186 371.943 518.061 353.618 560.305 345.853C653.502 328.72 701.455 479.484 626.1 530.88C600.611 545.329 591.741 549.686 560.305 560.736Z" fill="url(#paint1_linear_261_308)" fill-opacity="0.4"/>
<defs>
<linearGradient id="paint0_linear_261_308" x1="-79.5804" y1="-176.104" x2="744.819" y2="727.115" gradientUnits="userSpaceOnUse">
<stop stop-color="#FF6600"/>
<stop offset="1" stop-color="#2042B8"/>
</linearGradient>
<linearGradient id="paint1_linear_261_308" x1="-79.5804" y1="-176.104" x2="744.819" y2="727.115" gradientUnits="userSpaceOnUse">
<stop stop-color="#FF6600"/>
<stop offset="1" stop-color="#2042B8"/>
</linearGradient>
</defs>
</svg>
