<svg width="479" height="377" viewBox="0 0 479 377" fill="none" xmlns="http://www.w3.org/2000/svg">
<path d="M232.066 67.3759C251.405 60.3922 271.281 54.7516 291.695 50.454C567.453 -29.0273 708.686 326.611 448.918 443.852C282.795 518.827 232.066 533.414 232.066 533.414C203.083 483.424 226.463 400.07 278.897 375.788L394.91 329.13C441.567 307.693 446.028 252.439 425.359 212.981C406.462 176.905 363.002 161.528 324.75 175.504C294.103 186.702 258.775 198.284 232.066 203.192C173.139 214.02 142.82 118.731 190.465 86.246C206.581 77.1136 212.189 74.3595 232.066 67.3759Z" fill="white" fill-opacity="0.2"/>
<path d="M354.002 326.042C334.663 333.025 314.786 338.666 294.373 342.963C18.615 422.445 -122.618 66.806 137.15 -50.4344C303.273 -125.41 354.002 -139.997 354.002 -139.997C382.984 -90.0065 359.605 -6.65269 307.171 17.6297L191.158 64.287C144.501 85.7242 140.04 140.978 160.709 180.437C179.606 216.513 223.065 231.89 261.318 217.913C291.965 206.716 327.293 195.134 354.002 190.225C412.928 179.397 443.248 274.686 395.603 307.171C379.487 316.304 373.879 319.058 354.002 326.042Z" fill="white" fill-opacity="0.2"/>
</svg>
