<svg width="455" height="815" viewBox="0 0 455 815" fill="none" xmlns="http://www.w3.org/2000/svg">
<path d="M384.74 205.911C416.733 194.358 449.614 185.026 483.385 177.917C939.57 46.4313 1173.21 634.763 743.478 828.713C468.661 952.745 384.74 976.876 384.74 976.876C336.795 894.177 375.471 756.285 462.213 716.115L654.132 638.93C731.317 603.467 738.697 512.06 704.505 446.784C673.243 387.103 601.348 361.666 538.067 384.787C487.368 403.311 428.925 422.471 384.74 430.591C287.259 448.504 237.102 290.867 315.92 237.127C342.581 222.02 351.858 217.464 384.74 205.911Z" fill="url(#paint0_linear_195_755)" fill-opacity="0.4"/>
<path d="M586.459 633.82C554.466 645.373 521.585 654.705 487.814 661.814C31.6295 793.3 -202.012 204.968 227.722 11.0176C502.538 -113.014 586.459 -137.145 586.459 -137.145C634.404 -54.4465 595.728 83.4454 508.986 123.616L317.067 200.801C239.882 236.264 232.502 327.67 266.695 392.947C297.956 452.627 369.851 478.065 433.132 454.944C483.831 436.42 542.275 417.26 586.459 409.14C683.94 391.227 734.097 548.864 655.279 602.603C628.618 617.711 619.341 622.267 586.459 633.82Z" fill="url(#paint1_linear_195_755)" fill-opacity="0.4"/>
<defs>
<linearGradient id="paint0_linear_195_755" x1="-82.8367" y1="-136.613" x2="779.121" y2="808.09" gradientUnits="userSpaceOnUse">
<stop stop-color="#FF6600"/>
<stop offset="1" stop-color="#2042B8"/>
</linearGradient>
<linearGradient id="paint1_linear_195_755" x1="-82.8367" y1="-136.613" x2="779.121" y2="808.09" gradientUnits="userSpaceOnUse">
<stop stop-color="#FF6600"/>
<stop offset="1" stop-color="#2042B8"/>
</linearGradient>
</defs>
</svg>
