<svg width="143" height="166" viewBox="0 0 143 166" fill="none" xmlns="http://www.w3.org/2000/svg">
<path d="M58.7044 55.522C62.7632 54.0563 66.9347 52.8725 71.219 51.9705C129.093 35.2895 158.734 109.929 104.216 134.534C69.3511 150.27 58.7044 153.331 58.7044 153.331C52.6218 142.839 57.5285 125.346 68.533 120.249L92.881 110.457C102.673 105.958 103.609 94.3619 99.2715 86.0806C95.3055 78.5091 86.1845 75.2819 78.1563 78.2152C71.7244 80.5653 64.3099 82.9961 58.7044 84.0261C46.3374 86.2987 39.9742 66.3 49.9735 59.4823C53.3558 57.5656 54.5328 56.9876 58.7044 55.522Z" fill="url(#paint0_linear_195_809)"/>
<path d="M84.2956 109.809C80.2368 111.275 76.0653 112.458 71.781 113.36C13.9068 130.041 -15.7344 55.4024 38.7841 30.7967C73.6489 15.0613 84.2956 12 84.2956 12C90.3782 22.4916 85.4715 39.9853 74.467 45.0816L50.119 54.8737C40.3268 59.3728 39.3906 70.9691 43.7285 79.2504C47.6945 86.8218 56.8155 90.049 64.8437 87.1157C71.2756 84.7657 78.6901 82.3349 84.2956 81.3048C96.6626 79.0322 103.026 99.0309 93.0265 105.849C89.6442 107.765 88.4672 108.343 84.2956 109.809Z" fill="url(#paint1_linear_195_809)"/>
<path d="M58.7044 153.331C60.0861 158.136 60.0873 158.136 60.0885 158.136L60.0912 158.135L60.0973 158.133L60.1123 158.129L60.154 158.116L60.1838 158.108C60.212 158.099 60.2457 158.089 60.2852 158.077C60.3943 158.044 60.5474 157.997 60.7477 157.933C61.1482 157.805 61.7386 157.611 62.5449 157.333C64.1571 156.776 66.6384 155.879 70.1994 154.493C77.3195 151.722 88.7803 146.986 106.273 139.092C120.974 132.456 130.351 122.258 134.856 110.727C139.337 99.2569 138.856 86.8266 134.51 75.9191C127.059 57.2194 108.24 42.9466 83.3887 44.7099C86.829 41.152 89.2403 36.5928 90.5894 31.9627C92.7038 24.7056 92.5229 16.222 88.6212 9.49219L86.6641 6.11639L82.9139 7.1947L84.2956 12C82.9139 7.1947 82.9127 7.19505 82.9115 7.19541L82.9088 7.19618L82.9027 7.19794L82.8877 7.20231L82.846 7.21457C82.8129 7.22434 82.7693 7.23737 82.7148 7.25393C82.6057 7.28706 82.4526 7.33439 82.2523 7.3982C81.8518 7.5258 81.2614 7.71962 80.4551 7.99812C78.8429 8.55491 76.3616 9.45206 72.8006 10.8381C65.6805 13.6094 54.2197 18.3446 36.7273 26.2394C22.0255 32.8747 12.6488 43.0732 8.14412 54.6042C3.66333 66.074 4.14432 78.5043 8.49045 89.4118C15.9414 108.112 34.7604 122.384 59.6113 120.621C56.171 124.179 53.7597 128.738 52.4106 133.368C50.2962 140.625 50.4771 149.109 54.3788 155.839L56.3359 159.215L60.0861 158.136L58.7044 153.331Z" stroke="url(#paint2_linear_195_809)" stroke-opacity="0.4" stroke-width="10"/>
<defs>
<linearGradient id="paint0_linear_195_809" x1="-0.615042" y1="12.0674" x2="108.738" y2="131.918" gradientUnits="userSpaceOnUse">
<stop stop-color="#FF6600"/>
<stop offset="1" stop-color="#2042B8"/>
</linearGradient>
<linearGradient id="paint1_linear_195_809" x1="-0.615042" y1="12.0674" x2="108.738" y2="131.918" gradientUnits="userSpaceOnUse">
<stop stop-color="#FF6600"/>
<stop offset="1" stop-color="#2042B8"/>
</linearGradient>
<linearGradient id="paint2_linear_195_809" x1="-0.615042" y1="12.0674" x2="108.738" y2="131.918" gradientUnits="userSpaceOnUse">
<stop stop-color="#FF6600"/>
<stop offset="1" stop-color="#2042B8"/>
</linearGradient>
</defs>
</svg>
