<svg width="494" height="342" viewBox="0 0 494 342" fill="none" xmlns="http://www.w3.org/2000/svg">
<g clip-path="url(#clip0_216_245)">
<path d="M44.6469 149.367C35.5013 156.858 50.4668 222.612 50.4668 222.612C50.4668 222.612 53.7925 322.907 60.8595 327.485C67.9266 332.062 83.7235 327.068 89.9591 326.236C96.1947 325.404 90.7905 263.396 81.645 240.507C72.4994 217.618 79.5665 184.325 79.5665 184.325L129.036 193.896C129.036 193.896 99.1047 219.282 100.352 224.693C101.599 230.103 133.609 248.414 139.429 249.246C145.248 250.078 156.473 215.953 166.45 192.648C176.427 169.343 98.2734 154.361 98.2734 154.361L87.4649 133.969C87.4649 133.969 53.7925 141.876 44.6469 149.367Z" fill="#2F2E41"/>
<path d="M69.4752 329.212C69.4752 329.212 66.4586 339.781 69.4752 339.781C72.4918 339.781 78.0223 342.801 86.5693 341.795C95.1164 340.788 92.6026 330.218 86.5693 328.708C80.5361 327.198 82.0444 315.119 82.0444 315.119C80.0333 311.092 70.4807 316.125 70.4807 316.125L69.4752 329.212Z" fill="#2F2E41"/>
<path d="M112.302 245.161C112.302 245.161 107.127 254.856 110.076 255.493C113.025 256.13 117.795 260.249 126.361 261.07C134.928 261.89 134.698 251.027 129.118 248.278C123.539 245.528 127.558 234.038 127.558 234.038C126.44 229.678 116.042 232.581 116.042 232.581L112.302 245.161Z" fill="#2F2E41"/>
<path d="M50.259 59.2678C51.0904 60.9325 47.349 81.7406 47.349 81.7406L50.6747 87.5669C50.6747 87.5669 69.7973 80.076 66.8873 78.8275C63.9774 77.579 64.3931 62.181 64.3931 62.181C64.3931 62.181 49.4276 57.6032 50.259 59.2678Z" fill="#FFB9B9"/>
<path d="M57.4565 65.6819C71.5335 65.6819 82.9452 54.2578 82.9452 40.1654C82.9452 26.0731 71.5335 14.6489 57.4565 14.6489C43.3795 14.6489 31.9678 26.0731 31.9678 40.1654C31.9678 54.2578 43.3795 65.6819 57.4565 65.6819Z" fill="#2F2E41"/>
<path d="M55.6986 26.8363C61.5236 26.8363 66.2457 22.1091 66.2457 16.2778C66.2457 10.4465 61.5236 5.71924 55.6986 5.71924C49.8737 5.71924 45.1516 10.4465 45.1516 16.2778C45.1516 22.1091 49.8737 26.8363 55.6986 26.8363Z" fill="#2F2E41"/>
<path d="M60.313 21.0601C60.678 21.098 61.0447 21.117 61.4117 21.1171C62.7967 21.1171 64.1682 20.844 65.4478 20.3134C66.7275 19.7828 67.8902 19.0051 68.8695 18.0246C69.8489 17.0441 70.6258 15.8802 71.1558 14.5992C71.6859 13.3181 71.9587 11.9451 71.9587 10.5586C71.9587 9.17199 71.6859 7.799 71.1558 6.51798C70.6258 5.23695 69.8489 4.07299 68.8695 3.09253C67.8902 2.11208 66.7275 1.33434 65.4478 0.803723C64.1682 0.273105 62.7967 -4.1323e-08 61.4117 0C61.0447 9.44768e-05 60.678 0.0191479 60.313 0.0570858C62.9059 0.329046 65.3063 1.5527 67.051 3.49196C68.7958 5.43122 69.7614 7.94865 69.7614 10.5586C69.7614 13.1685 68.7958 15.6859 67.051 17.6252C65.3063 19.5644 62.9059 20.7881 60.313 21.0601Z" fill="#2F2E41"/>
<path d="M58.1575 70.0881C67.8002 70.0881 75.6172 62.2626 75.6172 52.6093C75.6172 42.956 67.8002 35.1304 58.1575 35.1304C48.5147 35.1304 40.6977 42.956 40.6977 52.6093C40.6977 62.2626 48.5147 70.0881 58.1575 70.0881Z" fill="#FFB9B9"/>
<path d="M33.007 79.4517C27.6028 80.7002 18.4572 94.0174 18.4572 94.0174L33.007 108.583C33.007 108.583 43.3997 147.702 44.6469 149.367C52.8172 160.273 89.5434 136.05 89.5434 136.05C89.5434 136.05 88.0884 124.189 88.9199 118.363C89.7195 112.759 85.8021 101.508 85.8021 101.508C85.8021 101.508 99.5205 95.6821 96.6105 89.8558C93.7006 84.0296 75.8251 70.7124 68.3423 75.2901C60.8596 79.8679 45.8941 75.2901 45.8941 75.2901C45.8941 75.2901 38.4113 78.2033 33.007 79.4517Z" fill="#FF6600"/>
<path d="M139.221 163.309C139.221 163.309 162.916 183.701 168.736 179.539C174.556 175.377 146.288 160.812 146.288 160.812L139.221 163.309Z" fill="#FFB9B9"/>
<path d="M32.7992 156.234C36.1249 159.979 51.9218 150.407 49.8966 146.157C47.8714 141.906 35.2934 150.407 35.2934 150.407C35.2934 150.407 29.4735 152.488 32.7992 156.234Z" fill="#FFB9B9"/>
<path d="M33.0071 99.8437L15.5473 132.304C15.5473 132.304 35.5013 148.951 37.9955 149.367C40.4898 149.783 33.007 160.603 33.007 160.603C33.007 160.603 10.5588 144.789 1.82888 136.882C-6.901 128.975 18.4573 94.0174 18.4573 94.0174L25.94 89.4396L33.0071 99.8437Z" fill="#FF6600"/>
<path d="M83.7235 98.5952L104.093 130.224C104.093 130.224 135.271 165.181 139.428 166.846C143.586 168.511 148.574 160.603 148.574 160.603L111.16 115.242L97.0262 89.8558L91.622 87.775L83.7235 98.5952Z" fill="#FF6600"/>
<path d="M57.4565 42.4007C67.1648 42.4007 75.0349 37.6735 75.0349 31.8421C75.0349 26.0108 67.1648 21.2836 57.4565 21.2836C47.7482 21.2836 39.8781 26.0108 39.8781 31.8421C39.8781 37.6735 47.7482 42.4007 57.4565 42.4007Z" fill="#2F2E41"/>
<path d="M106.77 259.655C106.194 259.655 105.641 259.885 105.234 260.293C104.827 260.701 104.597 261.253 104.597 261.83V336.027C104.597 336.604 104.827 337.157 105.234 337.565C105.641 337.972 106.194 338.202 106.77 338.202H359.492C360.068 338.202 360.62 337.972 361.028 337.565C361.435 337.157 361.664 336.604 361.665 336.027V261.83C361.664 261.253 361.435 260.701 361.028 260.293C360.621 259.885 360.068 259.655 359.492 259.655L106.77 259.655Z" fill="url(#paint0_linear_216_245)" fill-opacity="0.4"/>
<path d="M110.042 332.751H356.219V265.106H110.042V332.751Z" fill="white"/>
<path d="M325.146 318.718C324.673 318.717 324.204 318.81 323.767 318.991C323.33 319.172 322.932 319.437 322.598 319.772C322.263 320.106 321.998 320.504 321.816 320.941C321.635 321.379 321.542 321.848 321.542 322.321C321.542 322.795 321.635 323.264 321.816 323.701C321.998 324.139 322.263 324.536 322.598 324.871C322.932 325.206 323.33 325.471 323.767 325.652C324.204 325.833 324.673 325.925 325.146 325.925H339.544C340.499 325.925 341.414 325.545 342.089 324.869C342.764 324.194 343.144 323.277 343.144 322.321C343.144 321.366 342.764 320.449 342.089 319.773C341.414 319.097 340.499 318.718 339.544 318.718H325.146Z" fill="#6C63FF"/>
<path d="M343.144 311.728H176.933V312.676H343.144V311.728Z" fill="#E6E6E6"/>
<path d="M142.189 319.917C153.768 319.917 163.155 310.52 163.155 298.929C163.155 287.337 153.768 277.94 142.189 277.94C130.61 277.94 121.224 287.337 121.224 298.929C121.224 310.52 130.61 319.917 142.189 319.917Z" fill="url(#paint1_linear_216_245)"/>
<path d="M177.195 306.434L176.67 305.645L193.942 294.118L205.786 299.809L222.822 288.913L256.71 303.385L283.697 290.114L309.902 300.749L342.83 271.553L343.458 272.263L310.09 301.849L283.734 291.152L256.737 304.427L222.91 289.982L205.852 300.893L194.018 295.207L177.195 306.434Z" fill="#3F3D56"/>
<path d="M180.011 319.214C179.606 319.213 179.206 319.292 178.832 319.447C178.458 319.602 178.118 319.828 177.832 320.115C177.546 320.401 177.318 320.741 177.164 321.115C177.009 321.489 176.929 321.89 176.929 322.295C176.929 322.7 177.009 323.101 177.164 323.475C177.318 323.849 177.546 324.189 177.832 324.475C178.118 324.761 178.458 324.988 178.832 325.143C179.206 325.297 179.606 325.377 180.011 325.376H212.211C213.027 325.375 213.809 325.05 214.385 324.472C214.961 323.895 215.285 323.111 215.285 322.295C215.285 321.478 214.961 320.695 214.385 320.117C213.809 319.54 213.027 319.215 212.211 319.214H180.011Z" fill="#E6E6E6"/>
<path d="M150.197 289.539H153.473L146.656 296.292C145.465 297.467 143.861 298.126 142.189 298.126C140.517 298.126 138.912 297.467 137.721 296.292L130.905 289.539H134.181L139.359 294.669C140.114 295.414 141.13 295.831 142.189 295.831C143.248 295.831 144.265 295.414 145.019 294.669L150.197 289.539ZM134.14 308.318H130.864L137.722 301.523C138.913 300.348 140.517 299.69 142.19 299.69C143.862 299.69 145.466 300.348 146.657 301.523L153.515 308.318H150.24L145.019 303.146C144.265 302.402 143.248 301.985 142.189 301.985C141.13 301.985 140.114 302.402 139.359 303.146L134.14 308.318Z" fill="white"/>
<path d="M139.679 21.9957C139.102 21.9964 138.55 22.2258 138.143 22.6336C137.735 23.0414 137.506 23.5944 137.505 24.1711V98.3679C137.506 98.9446 137.735 99.4976 138.143 99.9054C138.55 100.313 139.102 100.543 139.679 100.543H392.401C392.977 100.543 393.529 100.313 393.937 99.9054C394.344 99.4976 394.573 98.9446 394.574 98.3679V24.1711C394.573 23.5943 394.344 23.0414 393.937 22.6336C393.529 22.2258 392.977 21.9963 392.401 21.9957L139.679 21.9957Z" fill="url(#paint2_linear_216_245)" fill-opacity="0.4"/>
<path d="M142.951 95.0918H389.128V27.4472H142.951V95.0918Z" fill="white"/>
<path d="M358.055 81.0586C357.1 81.0586 356.184 81.4382 355.509 82.114C354.834 82.7898 354.455 83.7064 354.455 84.6621C354.455 85.6178 354.834 86.5344 355.509 87.2102C356.184 87.886 357.1 88.2656 358.055 88.2656H372.453C373.408 88.2656 374.323 87.886 374.998 87.2102C375.673 86.5344 376.052 85.6178 376.052 84.6621C376.052 83.7064 375.673 82.7898 374.998 82.114C374.323 81.4382 373.408 81.0586 372.453 81.0586H358.055Z" fill="#6C63FF"/>
<path d="M376.052 74.0689H209.842V75.017H376.052V74.0689Z" fill="#E6E6E6"/>
<path d="M175.098 82.258C186.677 82.258 196.064 72.8611 196.064 61.2695C196.064 49.6778 186.677 40.2809 175.098 40.2809C163.519 40.2809 154.133 49.6778 154.133 61.2695C154.133 72.8611 163.519 82.258 175.098 82.258Z" fill="url(#paint3_linear_216_245)"/>
<path d="M210.104 68.7744L209.579 67.9855L226.851 56.4586L238.694 62.15L255.73 51.2542L255.96 51.3521L289.618 65.7258L316.605 52.4546L342.811 63.0901L375.738 33.8933L376.366 34.6031L342.999 64.1895L316.642 53.4926L289.646 66.7684L255.819 52.3227L238.76 63.2332L226.927 57.5468L210.104 68.7744Z" fill="#3F3D56"/>
<path d="M212.92 81.5543C212.104 81.5553 211.322 81.8805 210.746 82.4582C210.169 83.036 209.845 83.8191 209.845 84.6356C209.845 85.4522 210.169 86.2353 210.746 86.8131C211.322 87.3908 212.104 87.7159 212.92 87.717H245.12C245.936 87.717 246.719 87.3923 247.296 86.8145C247.874 86.2366 248.198 85.4529 248.198 84.6356C248.198 83.8184 247.874 83.0347 247.296 82.4568C246.719 81.8789 245.936 81.5543 245.12 81.5543H212.92Z" fill="#E6E6E6"/>
<path d="M183.534 58.8197C183.926 56.1932 181.928 54.7813 179.197 53.8394L180.083 50.2815L177.919 49.7418L177.056 53.2059C176.488 53.064 175.904 52.9302 175.324 52.7976L176.192 49.3106L174.03 48.7709L173.144 52.3275C172.673 52.2202 172.211 52.1141 171.762 52.0025L171.765 51.9914L168.781 51.2456L168.206 53.5587C168.206 53.5587 169.811 53.927 169.777 53.9498C170.076 53.9857 170.35 54.1378 170.538 54.3733C170.727 54.6089 170.815 54.9091 170.785 55.2094L169.776 59.2626C169.852 59.2817 169.927 59.3058 170 59.3348L169.772 59.278L168.357 64.956C168.326 65.0551 168.276 65.1471 168.209 65.2266C168.142 65.3062 168.06 65.3717 167.968 65.4196C167.876 65.4674 167.776 65.4965 167.672 65.5052C167.569 65.5139 167.465 65.5021 167.366 65.4704C167.387 65.5019 165.793 65.0775 165.793 65.0775L164.719 67.5572L167.535 68.2598C168.059 68.3912 168.572 68.5287 169.077 68.6582L168.182 72.2575L170.342 72.7972L171.23 69.2368C171.819 69.3972 172.392 69.5452 172.953 69.6846L172.07 73.2284L174.233 73.7681L175.128 70.1763C178.817 70.8751 181.592 70.5932 182.758 67.2537C183.699 64.5643 182.712 63.013 180.771 62.0007C182.184 61.6732 183.249 60.7424 183.533 58.8197L183.534 58.8197ZM178.59 65.7585C177.921 68.4479 173.399 66.9946 171.932 66.6295L173.119 61.862C174.586 62.2284 179.288 62.9538 178.591 65.7585H178.59ZM179.259 58.7809C178.649 61.2272 174.884 59.9843 173.662 59.6796L174.739 55.3556C175.961 55.6603 179.895 56.229 179.259 58.7809Z" fill="white"/>
<path d="M239.105 140.825C238.529 140.826 237.976 141.055 237.569 141.463C237.161 141.871 236.932 142.424 236.932 143.001V217.197C236.932 217.774 237.161 218.327 237.569 218.735C237.976 219.143 238.529 219.372 239.105 219.373H491.827C492.403 219.372 492.955 219.143 493.363 218.735C493.77 218.327 493.999 217.774 494 217.197V143.001C493.999 142.424 493.77 141.871 493.363 141.463C492.955 141.055 492.403 140.826 491.827 140.825L239.105 140.825Z" fill="url(#paint4_linear_216_245)" fill-opacity="0.4"/>
<path d="M242.377 213.921H488.554V146.277H242.377V213.921Z" fill="white"/>
<path d="M457.481 199.888C456.526 199.888 455.611 200.268 454.935 200.944C454.26 201.619 453.881 202.536 453.881 203.492C453.881 204.447 454.26 205.364 454.935 206.04C455.611 206.716 456.526 207.095 457.481 207.095H471.879C472.834 207.095 473.749 206.716 474.424 206.04C475.099 205.364 475.479 204.447 475.479 203.492C475.479 202.536 475.099 201.619 474.424 200.944C473.749 200.268 472.834 199.888 471.879 199.888H457.481Z" fill="#6C63FF"/>
<path d="M475.479 192.898H309.268V193.847H475.479V192.898Z" fill="#E6E6E6"/>
<path d="M274.524 201.088C286.103 201.088 295.49 191.691 295.49 180.099C295.49 168.507 286.103 159.111 274.524 159.111C262.945 159.111 253.559 168.507 253.559 180.099C253.559 191.691 262.945 201.088 274.524 201.088Z" fill="url(#paint5_linear_216_245)"/>
<path d="M309.53 187.604L309.005 186.815L326.276 175.288L338.121 180.98L355.156 170.084L355.387 170.182L389.044 184.556L416.032 171.284L442.237 181.919L475.165 152.723L475.793 153.433L442.425 183.019L416.069 172.322L389.072 185.598L355.245 171.153L338.186 182.063L326.353 176.377L309.53 187.604Z" fill="#3F3D56"/>
<path d="M312.346 200.384C311.529 200.384 310.747 200.709 310.169 201.286C309.592 201.864 309.268 202.648 309.268 203.465C309.268 204.282 309.592 205.066 310.169 205.644C310.747 206.222 311.529 206.547 312.346 206.547H344.546C345.362 206.547 346.145 206.222 346.723 205.644C347.3 205.066 347.624 204.282 347.624 203.465C347.624 202.648 347.3 201.864 346.723 201.286C346.145 200.709 345.362 200.384 344.546 200.384H312.346Z" fill="#E6E6E6"/>
<path d="M274.522 193.932L283.009 181.966L274.522 186.983L266.04 181.966L274.522 193.932H274.522Z" fill="white"/>
<path d="M274.522 185.375H274.522L283.004 180.356L274.522 166.266H274.522L266.04 180.356L274.522 185.375Z" fill="white"/>
</g>
<defs>
<linearGradient id="paint0_linear_216_245" x1="82.4114" y1="259.692" x2="110.381" y2="374.967" gradientUnits="userSpaceOnUse">
<stop stop-color="#FF6600"/>
<stop offset="1" stop-color="#2042B8"/>
</linearGradient>
<linearGradient id="paint1_linear_216_245" x1="117.605" y1="277.96" x2="149.38" y2="317.932" gradientUnits="userSpaceOnUse">
<stop stop-color="#FF6600"/>
<stop offset="1" stop-color="#2042B8"/>
</linearGradient>
<linearGradient id="paint2_linear_216_245" x1="115.32" y1="22.0331" x2="143.289" y2="137.308" gradientUnits="userSpaceOnUse">
<stop stop-color="#FF6600"/>
<stop offset="1" stop-color="#2042B8"/>
</linearGradient>
<linearGradient id="paint3_linear_216_245" x1="150.514" y1="40.301" x2="182.289" y2="80.2731" gradientUnits="userSpaceOnUse">
<stop stop-color="#FF6600"/>
<stop offset="1" stop-color="#2042B8"/>
</linearGradient>
<linearGradient id="paint4_linear_216_245" x1="214.746" y1="140.863" x2="242.715" y2="256.138" gradientUnits="userSpaceOnUse">
<stop stop-color="#FF6600"/>
<stop offset="1" stop-color="#2042B8"/>
</linearGradient>
<linearGradient id="paint5_linear_216_245" x1="249.94" y1="159.131" x2="281.715" y2="199.103" gradientUnits="userSpaceOnUse">
<stop stop-color="#FF6600"/>
<stop offset="1" stop-color="#2042B8"/>
</linearGradient>
<clipPath id="clip0_216_245">
<rect width="494" height="342" fill="white"/>
</clipPath>
</defs>
</svg>
