<svg width="684" height="669" viewBox="0 0 684 669" fill="none" xmlns="http://www.w3.org/2000/svg">
<path d="M114 27H579V467.675L555.5 491.524L530.5 517H114V27Z" fill="#F8F9FF"/>
<path d="M234.161 335.801C237.758 334.494 241.454 333.439 245.251 332.635C296.538 317.763 322.805 384.306 274.492 406.242C243.596 420.271 234.161 423 234.161 423C228.771 413.646 233.119 398.05 242.871 393.507L264.447 384.777C273.125 380.766 273.955 370.428 270.111 363.045C266.596 356.294 258.513 353.417 251.399 356.032C245.699 358.128 239.128 360.295 234.161 361.213C223.201 363.239 217.562 345.41 226.424 339.332C229.421 337.623 230.464 337.108 234.161 335.801Z" fill="url(#paint0_linear_271_187)" fill-opacity="0.4"/>
<path d="M256.839 384.199C253.242 385.506 249.546 386.561 245.749 387.365C194.462 402.237 168.195 335.694 216.508 313.758C247.404 299.729 256.839 297 256.839 297C262.229 306.354 257.881 321.95 248.129 326.493L226.553 335.223C217.875 339.234 217.045 349.572 220.889 356.955C224.404 363.705 232.487 366.583 239.601 363.967C245.301 361.872 251.872 359.705 256.839 358.787C267.799 356.761 273.438 374.59 264.576 380.668C261.579 382.377 260.536 382.892 256.839 384.199Z" fill="url(#paint1_linear_271_187)" fill-opacity="0.4"/>
<g filter="url(#filter0_dddddd_271_187)">
<rect x="80" y="2" width="311" height="219" rx="10" fill="white"/>
</g>
<path d="M112.26 56V43.04H116.391C116.499 43.04 116.712 43.043 117.03 43.049C117.354 43.055 117.666 43.076 117.966 43.112C118.992 43.244 119.859 43.61 120.567 44.21C121.281 44.804 121.821 45.563 122.187 46.487C122.553 47.411 122.736 48.422 122.736 49.52C122.736 50.618 122.553 51.629 122.187 52.553C121.821 53.477 121.281 54.239 120.567 54.839C119.859 55.433 118.992 55.796 117.966 55.928C117.672 55.964 117.363 55.985 117.039 55.991C116.715 55.997 116.499 56 116.391 56H112.26ZM114.465 53.957H116.391C116.571 53.957 116.799 53.951 117.075 53.939C117.357 53.927 117.606 53.9 117.822 53.858C118.434 53.744 118.932 53.471 119.316 53.039C119.7 52.607 119.982 52.082 120.162 51.464C120.348 50.846 120.441 50.198 120.441 49.52C120.441 48.818 120.348 48.158 120.162 47.54C119.976 46.922 119.688 46.403 119.298 45.983C118.914 45.563 118.422 45.296 117.822 45.182C117.606 45.134 117.357 45.107 117.075 45.101C116.799 45.089 116.571 45.083 116.391 45.083H114.465V53.957ZM127.582 56.27C126.88 56.27 126.286 56.138 125.8 55.874C125.314 55.604 124.945 55.247 124.693 54.803C124.447 54.359 124.324 53.87 124.324 53.336C124.324 52.868 124.402 52.448 124.558 52.076C124.714 51.698 124.954 51.374 125.278 51.104C125.602 50.828 126.022 50.603 126.538 50.429C126.928 50.303 127.384 50.189 127.906 50.087C128.434 49.985 129.004 49.892 129.616 49.808C130.234 49.718 130.879 49.622 131.551 49.52L130.777 49.961C130.783 49.289 130.633 48.794 130.327 48.476C130.021 48.158 129.505 47.999 128.779 47.999C128.341 47.999 127.918 48.101 127.51 48.305C127.102 48.509 126.817 48.86 126.655 49.358L124.675 48.737C124.915 47.915 125.371 47.255 126.043 46.757C126.721 46.259 127.633 46.01 128.779 46.01C129.643 46.01 130.402 46.151 131.056 46.433C131.716 46.715 132.205 47.177 132.523 47.819C132.697 48.161 132.802 48.512 132.838 48.872C132.874 49.226 132.892 49.613 132.892 50.033V56H130.993V53.894L131.308 54.236C130.87 54.938 130.357 55.454 129.769 55.784C129.187 56.108 128.458 56.27 127.582 56.27ZM128.014 54.542C128.506 54.542 128.926 54.455 129.274 54.281C129.622 54.107 129.898 53.894 130.102 53.642C130.312 53.39 130.453 53.153 130.525 52.931C130.639 52.655 130.702 52.34 130.714 51.986C130.732 51.626 130.741 51.335 130.741 51.113L131.407 51.311C130.753 51.413 130.192 51.503 129.724 51.581C129.256 51.659 128.854 51.734 128.518 51.806C128.182 51.872 127.885 51.947 127.627 52.031C127.375 52.121 127.162 52.226 126.988 52.346C126.814 52.466 126.679 52.604 126.583 52.76C126.493 52.916 126.448 53.099 126.448 53.309C126.448 53.549 126.508 53.762 126.628 53.948C126.748 54.128 126.922 54.272 127.15 54.38C127.384 54.488 127.672 54.542 128.014 54.542ZM135.415 44.804V42.815H137.584V44.804H135.415ZM135.415 56V46.28H137.584V56H135.415ZM140.46 56V42.77H142.629V56H140.46ZM146.602 60.32L148.474 55.181L148.51 56.693L144.271 46.28H146.53L149.536 53.984H148.96L151.885 46.28H154.054L148.636 60.32H146.602ZM158.1 56L162.186 43.04H165.363L169.449 56H167.217L163.509 44.372H163.995L160.332 56H158.1ZM160.377 53.192V51.167H167.181V53.192H160.377ZM175.297 56.27C174.295 56.27 173.44 56.048 172.732 55.604C172.024 55.154 171.481 54.542 171.103 53.768C170.731 52.994 170.542 52.118 170.536 51.14C170.542 50.144 170.737 49.262 171.121 48.494C171.511 47.72 172.063 47.114 172.777 46.676C173.491 46.232 174.34 46.01 175.324 46.01C176.428 46.01 177.361 46.289 178.123 46.847C178.891 47.399 179.392 48.155 179.626 49.115L177.466 49.7C177.298 49.178 177.019 48.773 176.629 48.485C176.239 48.191 175.795 48.044 175.297 48.044C174.733 48.044 174.268 48.179 173.902 48.449C173.536 48.713 173.266 49.079 173.092 49.547C172.918 50.015 172.831 50.546 172.831 51.14C172.831 52.064 173.038 52.811 173.452 53.381C173.866 53.951 174.481 54.236 175.297 54.236C175.873 54.236 176.326 54.104 176.656 53.84C176.992 53.576 177.244 53.195 177.412 52.697L179.626 53.192C179.326 54.182 178.801 54.944 178.051 55.478C177.301 56.006 176.383 56.27 175.297 56.27ZM187.127 56C186.485 56.12 185.855 56.171 185.237 56.153C184.625 56.141 184.076 56.03 183.59 55.82C183.104 55.604 182.735 55.265 182.483 54.803C182.261 54.383 182.144 53.954 182.132 53.516C182.12 53.078 182.114 52.583 182.114 52.031V43.58H184.274V51.905C184.274 52.295 184.277 52.637 184.283 52.931C184.295 53.225 184.358 53.465 184.472 53.651C184.688 54.011 185.033 54.212 185.507 54.254C185.981 54.296 186.521 54.272 187.127 54.182V56ZM180.35 47.981V46.28H187.127V47.981H180.35ZM189.397 44.804V42.815H191.566V44.804H189.397ZM189.397 56V46.28H191.566V56H189.397ZM196.89 56L193.362 46.28H195.531L197.979 53.327L200.418 46.28H202.596L199.068 56H196.89ZM204.391 44.804V42.815H206.56V44.804H204.391ZM204.391 56V46.28H206.56V56H204.391ZM214.953 56C214.311 56.12 213.681 56.171 213.063 56.153C212.451 56.141 211.902 56.03 211.416 55.82C210.93 55.604 210.561 55.265 210.309 54.803C210.087 54.383 209.97 53.954 209.958 53.516C209.946 53.078 209.94 52.583 209.94 52.031V43.58H212.1V51.905C212.1 52.295 212.103 52.637 212.109 52.931C212.121 53.225 212.184 53.465 212.298 53.651C212.514 54.011 212.859 54.212 213.333 54.254C213.807 54.296 214.347 54.272 214.953 54.182V56ZM208.176 47.981V46.28H214.953V47.981H208.176ZM217.223 44.804V42.815H219.392V44.804H217.223ZM217.223 56V46.28H219.392V56H217.223ZM226.507 56.27C225.523 56.27 224.659 56.057 223.915 55.631C223.171 55.205 222.589 54.614 222.169 53.858C221.755 53.102 221.548 52.232 221.548 51.248C221.548 50.186 221.752 49.265 222.16 48.485C222.568 47.699 223.135 47.09 223.861 46.658C224.587 46.226 225.427 46.01 226.381 46.01C227.389 46.01 228.244 46.247 228.946 46.721C229.654 47.189 230.179 47.852 230.521 48.71C230.863 49.568 230.992 50.579 230.908 51.743H228.757V50.951C228.751 49.895 228.565 49.124 228.199 48.638C227.833 48.152 227.257 47.909 226.471 47.909C225.583 47.909 224.923 48.185 224.491 48.737C224.059 49.283 223.843 50.084 223.843 51.14C223.843 52.124 224.059 52.886 224.491 53.426C224.923 53.966 225.553 54.236 226.381 54.236C226.915 54.236 227.374 54.119 227.758 53.885C228.148 53.645 228.448 53.3 228.658 52.85L230.8 53.498C230.428 54.374 229.852 55.055 229.072 55.541C228.298 56.027 227.443 56.27 226.507 56.27ZM223.159 51.743V50.105H229.846V51.743H223.159ZM236.669 56.27C235.469 56.27 234.494 56 233.744 55.46C232.994 54.92 232.538 54.161 232.376 53.183L234.59 52.841C234.704 53.321 234.956 53.699 235.346 53.975C235.736 54.251 236.228 54.389 236.822 54.389C237.344 54.389 237.746 54.287 238.028 54.083C238.316 53.873 238.46 53.588 238.46 53.228C238.46 53.006 238.406 52.829 238.298 52.697C238.196 52.559 237.968 52.427 237.614 52.301C237.26 52.175 236.717 52.016 235.985 51.824C235.169 51.608 234.521 51.377 234.041 51.131C233.561 50.879 233.216 50.582 233.006 50.24C232.796 49.898 232.691 49.484 232.691 48.998C232.691 48.392 232.85 47.864 233.168 47.414C233.486 46.964 233.93 46.619 234.5 46.379C235.07 46.133 235.742 46.01 236.516 46.01C237.272 46.01 237.941 46.127 238.523 46.361C239.111 46.595 239.585 46.928 239.945 47.36C240.305 47.792 240.527 48.299 240.611 48.881L238.397 49.277C238.343 48.863 238.154 48.536 237.83 48.296C237.512 48.056 237.086 47.921 236.552 47.891C236.042 47.861 235.631 47.939 235.319 48.125C235.007 48.305 234.851 48.56 234.851 48.89C234.851 49.076 234.914 49.235 235.04 49.367C235.166 49.499 235.418 49.631 235.796 49.763C236.18 49.895 236.75 50.057 237.506 50.249C238.28 50.447 238.898 50.675 239.36 50.933C239.828 51.185 240.164 51.488 240.368 51.842C240.578 52.196 240.683 52.625 240.683 53.129C240.683 54.107 240.326 54.875 239.612 55.433C238.904 55.991 237.923 56.27 236.669 56.27Z" fill="#25282B"/>
<path d="M110.54 196C110.447 196 110.367 195.972 110.302 195.916C110.246 195.851 110.218 195.771 110.218 195.678V186.536C110.218 186.433 110.246 186.354 110.302 186.298C110.367 186.233 110.447 186.2 110.54 186.2H111.24C111.352 186.2 111.436 186.228 111.492 186.284C111.548 186.34 111.581 186.387 111.59 186.424L114.558 192.08L117.54 186.424C117.559 186.387 117.591 186.34 117.638 186.284C117.694 186.228 117.778 186.2 117.89 186.2H118.576C118.679 186.2 118.758 186.233 118.814 186.298C118.879 186.354 118.912 186.433 118.912 186.536V195.678C118.912 195.771 118.879 195.851 118.814 195.916C118.758 195.972 118.679 196 118.576 196H117.89C117.797 196 117.717 195.972 117.652 195.916C117.596 195.851 117.568 195.771 117.568 195.678V188.79L115.23 193.354C115.193 193.447 115.137 193.522 115.062 193.578C114.987 193.625 114.894 193.648 114.782 193.648H114.348C114.227 193.648 114.129 193.625 114.054 193.578C113.989 193.522 113.933 193.447 113.886 193.354L111.548 188.79V195.678C111.548 195.771 111.515 195.851 111.45 195.916C111.394 195.972 111.319 196 111.226 196H110.54ZM124.133 196.14C123.424 196.14 122.831 196.005 122.355 195.734C121.879 195.463 121.515 195.09 121.263 194.614C121.011 194.129 120.871 193.578 120.843 192.962C120.834 192.803 120.829 192.603 120.829 192.36C120.829 192.108 120.834 191.907 120.843 191.758C120.871 191.133 121.011 190.582 121.263 190.106C121.525 189.63 121.893 189.257 122.369 188.986C122.845 188.715 123.433 188.58 124.133 188.58C124.833 188.58 125.421 188.715 125.897 188.986C126.373 189.257 126.737 189.63 126.989 190.106C127.251 190.582 127.395 191.133 127.423 191.758C127.433 191.907 127.437 192.108 127.437 192.36C127.437 192.603 127.433 192.803 127.423 192.962C127.395 193.578 127.255 194.129 127.003 194.614C126.751 195.09 126.387 195.463 125.911 195.734C125.435 196.005 124.843 196.14 124.133 196.14ZM124.133 195.062C124.712 195.062 125.174 194.88 125.519 194.516C125.865 194.143 126.051 193.601 126.079 192.892C126.089 192.752 126.093 192.575 126.093 192.36C126.093 192.145 126.089 191.968 126.079 191.828C126.051 191.119 125.865 190.582 125.519 190.218C125.174 189.845 124.712 189.658 124.133 189.658C123.555 189.658 123.088 189.845 122.733 190.218C122.388 190.582 122.206 191.119 122.187 191.828C122.178 191.968 122.173 192.145 122.173 192.36C122.173 192.575 122.178 192.752 122.187 192.892C122.206 193.601 122.388 194.143 122.733 194.516C123.088 194.88 123.555 195.062 124.133 195.062ZM129.512 196C129.419 196 129.34 195.972 129.274 195.916C129.218 195.851 129.19 195.771 129.19 195.678V189.042C129.19 188.949 129.218 188.874 129.274 188.818C129.34 188.753 129.419 188.72 129.512 188.72H130.17C130.264 188.72 130.338 188.753 130.394 188.818C130.46 188.874 130.492 188.949 130.492 189.042V189.658C130.735 189.341 131.038 189.084 131.402 188.888C131.776 188.683 132.252 188.58 132.83 188.58C133.437 188.58 133.95 188.715 134.37 188.986C134.8 189.247 135.122 189.616 135.336 190.092C135.551 190.559 135.658 191.105 135.658 191.73V195.678C135.658 195.771 135.63 195.851 135.574 195.916C135.518 195.972 135.444 196 135.35 196H134.65C134.557 196 134.478 195.972 134.412 195.916C134.356 195.851 134.328 195.771 134.328 195.678V191.8C134.328 191.147 134.17 190.638 133.852 190.274C133.535 189.901 133.068 189.714 132.452 189.714C131.874 189.714 131.407 189.901 131.052 190.274C130.707 190.638 130.534 191.147 130.534 191.8V195.678C130.534 195.771 130.502 195.851 130.436 195.916C130.38 195.972 130.306 196 130.212 196H129.512Z" fill="#2042B8" fill-opacity="0.21"/>
<rect x="118" y="78" width="12" height="94" rx="6" fill="#2042B8"/>
<rect x="199" y="105" width="12" height="67" rx="6" fill="#2042B8"/>
<path d="M195.335 196C195.214 196 195.116 195.967 195.041 195.902C194.976 195.837 194.929 195.743 194.901 195.622L193.095 186.634C193.086 186.597 193.081 186.564 193.081 186.536C193.081 186.508 193.081 186.489 193.081 186.48C193.081 186.405 193.109 186.34 193.165 186.284C193.221 186.228 193.286 186.2 193.361 186.2H194.089C194.285 186.2 194.397 186.279 194.425 186.438L195.853 193.662L197.365 188.706C197.393 188.622 197.44 188.547 197.505 188.482C197.58 188.407 197.682 188.37 197.813 188.37H198.331C198.471 188.37 198.574 188.407 198.639 188.482C198.704 188.547 198.746 188.622 198.765 188.706L200.291 193.662L201.705 186.438C201.733 186.279 201.85 186.2 202.055 186.2H202.783C202.858 186.2 202.923 186.228 202.979 186.284C203.035 186.34 203.063 186.405 203.063 186.48C203.063 186.489 203.058 186.508 203.049 186.536C203.049 186.564 203.049 186.597 203.049 186.634L201.243 195.622C201.215 195.743 201.164 195.837 201.089 195.902C201.024 195.967 200.93 196 200.809 196H200.263C200.132 196 200.03 195.967 199.955 195.902C199.88 195.837 199.829 195.753 199.801 195.65L198.065 190.316L196.343 195.65C196.306 195.753 196.25 195.837 196.175 195.902C196.11 195.967 196.012 196 195.881 196H195.335ZM207.309 196.14C206.348 196.14 205.582 195.846 205.013 195.258C204.444 194.661 204.131 193.849 204.075 192.822C204.066 192.701 204.061 192.547 204.061 192.36C204.061 192.164 204.066 192.005 204.075 191.884C204.112 191.221 204.266 190.643 204.537 190.148C204.808 189.644 205.176 189.257 205.643 188.986C206.119 188.715 206.674 188.58 207.309 188.58C208.018 188.58 208.611 188.729 209.087 189.028C209.572 189.327 209.941 189.751 210.193 190.302C210.445 190.853 210.571 191.497 210.571 192.234V192.472C210.571 192.575 210.538 192.654 210.473 192.71C210.417 192.766 210.342 192.794 210.249 192.794H205.405C205.405 192.803 205.405 192.822 205.405 192.85C205.405 192.878 205.405 192.901 205.405 192.92C205.424 193.303 205.508 193.662 205.657 193.998C205.806 194.325 206.021 194.591 206.301 194.796C206.581 195.001 206.917 195.104 207.309 195.104C207.645 195.104 207.925 195.053 208.149 194.95C208.373 194.847 208.555 194.735 208.695 194.614C208.835 194.483 208.928 194.385 208.975 194.32C209.059 194.199 209.124 194.129 209.171 194.11C209.218 194.082 209.292 194.068 209.395 194.068H210.067C210.16 194.068 210.235 194.096 210.291 194.152C210.356 194.199 210.384 194.269 210.375 194.362C210.366 194.502 210.291 194.675 210.151 194.88C210.011 195.076 209.81 195.272 209.549 195.468C209.288 195.664 208.97 195.827 208.597 195.958C208.224 196.079 207.794 196.14 207.309 196.14ZM205.405 191.828H209.241V191.786C209.241 191.366 209.162 190.993 209.003 190.666C208.854 190.339 208.634 190.083 208.345 189.896C208.056 189.7 207.71 189.602 207.309 189.602C206.908 189.602 206.562 189.7 206.273 189.896C205.993 190.083 205.778 190.339 205.629 190.666C205.48 190.993 205.405 191.366 205.405 191.786V191.828ZM214.905 196.14C214.392 196.14 213.948 196.051 213.575 195.874C213.202 195.687 212.894 195.44 212.651 195.132C212.418 194.815 212.24 194.455 212.119 194.054C212.007 193.653 211.942 193.228 211.923 192.78C211.914 192.631 211.909 192.491 211.909 192.36C211.909 192.229 211.914 192.089 211.923 191.94C211.942 191.501 212.007 191.081 212.119 190.68C212.24 190.279 212.418 189.919 212.651 189.602C212.894 189.285 213.202 189.037 213.575 188.86C213.948 188.673 214.392 188.58 214.905 188.58C215.456 188.58 215.913 188.678 216.277 188.874C216.641 189.07 216.94 189.313 217.173 189.602V186.382C217.173 186.289 217.201 186.214 217.257 186.158C217.322 186.093 217.402 186.06 217.495 186.06H218.167C218.26 186.06 218.335 186.093 218.391 186.158C218.456 186.214 218.489 186.289 218.489 186.382V195.678C218.489 195.771 218.456 195.851 218.391 195.916C218.335 195.972 218.26 196 218.167 196H217.537C217.434 196 217.355 195.972 217.299 195.916C217.243 195.851 217.215 195.771 217.215 195.678V195.09C216.982 195.389 216.678 195.641 216.305 195.846C215.932 196.042 215.465 196.14 214.905 196.14ZM215.199 195.006C215.666 195.006 216.039 194.899 216.319 194.684C216.599 194.469 216.809 194.199 216.949 193.872C217.089 193.536 217.164 193.195 217.173 192.85C217.182 192.701 217.187 192.523 217.187 192.318C217.187 192.103 217.182 191.921 217.173 191.772C217.164 191.445 217.084 191.123 216.935 190.806C216.795 190.489 216.58 190.227 216.291 190.022C216.011 189.817 215.647 189.714 215.199 189.714C214.723 189.714 214.345 189.821 214.065 190.036C213.785 190.241 213.584 190.517 213.463 190.862C213.342 191.198 213.272 191.562 213.253 191.954C213.244 192.225 213.244 192.495 213.253 192.766C213.272 193.158 213.342 193.527 213.463 193.872C213.584 194.208 213.785 194.483 214.065 194.698C214.345 194.903 214.723 195.006 215.199 195.006Z" fill="#2042B8" fill-opacity="0.21"/>
<rect x="158" y="97" width="12" height="75" rx="6" fill="#FF6600" fill-opacity="0.22"/>
<path d="M157.054 196C156.961 196 156.881 195.972 156.816 195.916C156.76 195.851 156.732 195.771 156.732 195.678V187.446H154.044C153.951 187.446 153.871 187.418 153.806 187.362C153.75 187.297 153.722 187.217 153.722 187.124V186.536C153.722 186.433 153.75 186.354 153.806 186.298C153.871 186.233 153.951 186.2 154.044 186.2H160.792C160.895 186.2 160.974 186.233 161.03 186.298C161.095 186.354 161.128 186.433 161.128 186.536V187.124C161.128 187.217 161.095 187.297 161.03 187.362C160.974 187.418 160.895 187.446 160.792 187.446H158.118V195.678C158.118 195.771 158.085 195.851 158.02 195.916C157.964 195.972 157.885 196 157.782 196H157.054ZM164.124 196.14C163.527 196.14 163.018 196.009 162.598 195.748C162.187 195.477 161.875 195.104 161.66 194.628C161.445 194.152 161.338 193.606 161.338 192.99V189.042C161.338 188.949 161.366 188.874 161.422 188.818C161.487 188.753 161.567 188.72 161.66 188.72H162.36C162.453 188.72 162.528 188.753 162.584 188.818C162.649 188.874 162.682 188.949 162.682 189.042V192.92C162.682 194.311 163.289 195.006 164.502 195.006C165.081 195.006 165.543 194.824 165.888 194.46C166.243 194.087 166.42 193.573 166.42 192.92V189.042C166.42 188.949 166.448 188.874 166.504 188.818C166.569 188.753 166.649 188.72 166.742 188.72H167.428C167.531 188.72 167.61 188.753 167.666 188.818C167.722 188.874 167.75 188.949 167.75 189.042V195.678C167.75 195.771 167.722 195.851 167.666 195.916C167.61 195.972 167.531 196 167.428 196H166.784C166.691 196 166.611 195.972 166.546 195.916C166.49 195.851 166.462 195.771 166.462 195.678V195.062C166.21 195.389 165.902 195.65 165.538 195.846C165.183 196.042 164.712 196.14 164.124 196.14ZM172.728 196.14C171.767 196.14 171.001 195.846 170.432 195.258C169.863 194.661 169.55 193.849 169.494 192.822C169.485 192.701 169.48 192.547 169.48 192.36C169.48 192.164 169.485 192.005 169.494 191.884C169.531 191.221 169.685 190.643 169.956 190.148C170.227 189.644 170.595 189.257 171.062 188.986C171.538 188.715 172.093 188.58 172.728 188.58C173.437 188.58 174.03 188.729 174.506 189.028C174.991 189.327 175.36 189.751 175.612 190.302C175.864 190.853 175.99 191.497 175.99 192.234V192.472C175.99 192.575 175.957 192.654 175.892 192.71C175.836 192.766 175.761 192.794 175.668 192.794H170.824C170.824 192.803 170.824 192.822 170.824 192.85C170.824 192.878 170.824 192.901 170.824 192.92C170.843 193.303 170.927 193.662 171.076 193.998C171.225 194.325 171.44 194.591 171.72 194.796C172 195.001 172.336 195.104 172.728 195.104C173.064 195.104 173.344 195.053 173.568 194.95C173.792 194.847 173.974 194.735 174.114 194.614C174.254 194.483 174.347 194.385 174.394 194.32C174.478 194.199 174.543 194.129 174.59 194.11C174.637 194.082 174.711 194.068 174.814 194.068H175.486C175.579 194.068 175.654 194.096 175.71 194.152C175.775 194.199 175.803 194.269 175.794 194.362C175.785 194.502 175.71 194.675 175.57 194.88C175.43 195.076 175.229 195.272 174.968 195.468C174.707 195.664 174.389 195.827 174.016 195.958C173.643 196.079 173.213 196.14 172.728 196.14ZM170.824 191.828H174.66V191.786C174.66 191.366 174.581 190.993 174.422 190.666C174.273 190.339 174.053 190.083 173.764 189.896C173.475 189.7 173.129 189.602 172.728 189.602C172.327 189.602 171.981 189.7 171.692 189.896C171.412 190.083 171.197 190.339 171.048 190.666C170.899 190.993 170.824 191.366 170.824 191.786V191.828Z" fill="#2042B8" fill-opacity="0.21"/>
<rect x="240" y="86" width="12" height="86" rx="6" fill="#FF6600" fill-opacity="0.22"/>
<path d="M238.795 196C238.702 196 238.623 195.972 238.557 195.916C238.501 195.851 238.473 195.771 238.473 195.678V187.446H235.785C235.692 187.446 235.613 187.418 235.547 187.362C235.491 187.297 235.463 187.217 235.463 187.124V186.536C235.463 186.433 235.491 186.354 235.547 186.298C235.613 186.233 235.692 186.2 235.785 186.2H242.533C242.636 186.2 242.715 186.233 242.771 186.298C242.837 186.354 242.869 186.433 242.869 186.536V187.124C242.869 187.217 242.837 187.297 242.771 187.362C242.715 187.418 242.636 187.446 242.533 187.446H239.859V195.678C239.859 195.771 239.827 195.851 239.761 195.916C239.705 195.972 239.626 196 239.523 196H238.795ZM244.306 196C244.212 196 244.133 195.972 244.068 195.916C244.012 195.851 243.984 195.771 243.984 195.678V186.382C243.984 186.289 244.012 186.214 244.068 186.158C244.133 186.093 244.212 186.06 244.306 186.06H245.006C245.108 186.06 245.188 186.093 245.244 186.158C245.3 186.214 245.328 186.289 245.328 186.382V189.644C245.58 189.327 245.888 189.07 246.252 188.874C246.616 188.678 247.078 188.58 247.638 188.58C248.244 188.58 248.758 188.715 249.178 188.986C249.607 189.247 249.929 189.616 250.144 190.092C250.368 190.559 250.48 191.105 250.48 191.73V195.678C250.48 195.771 250.452 195.851 250.396 195.916C250.34 195.972 250.26 196 250.158 196H249.458C249.364 196 249.285 195.972 249.22 195.916C249.164 195.851 249.136 195.771 249.136 195.678V191.8C249.136 191.147 248.977 190.638 248.66 190.274C248.342 189.901 247.876 189.714 247.26 189.714C246.681 189.714 246.214 189.901 245.86 190.274C245.505 190.638 245.328 191.147 245.328 191.8V195.678C245.328 195.771 245.3 195.851 245.244 195.916C245.188 195.972 245.108 196 245.006 196H244.306ZM255.217 196.14C254.62 196.14 254.111 196.009 253.691 195.748C253.28 195.477 252.968 195.104 252.753 194.628C252.538 194.152 252.431 193.606 252.431 192.99V189.042C252.431 188.949 252.459 188.874 252.515 188.818C252.58 188.753 252.66 188.72 252.753 188.72H253.453C253.546 188.72 253.621 188.753 253.677 188.818C253.742 188.874 253.775 188.949 253.775 189.042V192.92C253.775 194.311 254.382 195.006 255.595 195.006C256.174 195.006 256.636 194.824 256.981 194.46C257.336 194.087 257.513 193.573 257.513 192.92V189.042C257.513 188.949 257.541 188.874 257.597 188.818C257.662 188.753 257.742 188.72 257.835 188.72H258.521C258.624 188.72 258.703 188.753 258.759 188.818C258.815 188.874 258.843 188.949 258.843 189.042V195.678C258.843 195.771 258.815 195.851 258.759 195.916C258.703 195.972 258.624 196 258.521 196H257.877C257.784 196 257.704 195.972 257.639 195.916C257.583 195.851 257.555 195.771 257.555 195.678V195.062C257.303 195.389 256.995 195.65 256.631 195.846C256.276 196.042 255.805 196.14 255.217 196.14Z" fill="#2042B8" fill-opacity="0.21"/>
<g filter="url(#filter1_dddddd_271_187)">
<rect x="258" y="52" width="346" height="437" rx="10" fill="white"/>
</g>
<rect x="285" y="119" width="292" height="149" fill="#FF6600" fill-opacity="0.09"/>
<rect x="305" y="171" width="201" height="19" fill="white"/>
<rect x="305" y="139" width="149" height="19" fill="#2042B8"/>
<rect x="305" y="230" width="92" height="19" fill="white"/>
<path d="M290.992 99.24C289.84 99.24 288.853 98.9893 288.032 98.488C287.211 97.9813 286.579 97.2773 286.136 96.376C285.699 95.4747 285.48 94.4293 285.48 93.24C285.48 92.0507 285.699 91.0053 286.136 90.104C286.579 89.2027 287.211 88.5013 288.032 88C288.853 87.4933 289.84 87.24 290.992 87.24C292.32 87.24 293.427 87.5733 294.312 88.24C295.197 88.9013 295.819 89.7947 296.176 90.92L294.232 91.456C294.008 90.704 293.627 90.1173 293.088 89.696C292.549 89.2693 291.851 89.056 290.992 89.056C290.219 89.056 289.573 89.2293 289.056 89.576C288.544 89.9227 288.157 90.4107 287.896 91.04C287.64 91.664 287.509 92.3973 287.504 93.24C287.504 94.0827 287.632 94.8187 287.888 95.448C288.149 96.072 288.539 96.5573 289.056 96.904C289.573 97.2507 290.219 97.424 290.992 97.424C291.851 97.424 292.549 97.2107 293.088 96.784C293.627 96.3573 294.008 95.7707 294.232 95.024L296.176 95.56C295.819 96.6853 295.197 97.5813 294.312 98.248C293.427 98.9093 292.32 99.24 290.992 99.24ZM297.933 99V90.36H299.637V92.464L299.429 92.192C299.535 91.904 299.677 91.6427 299.853 91.408C300.034 91.168 300.25 90.9707 300.501 90.816C300.714 90.672 300.949 90.56 301.205 90.48C301.466 90.3947 301.733 90.344 302.005 90.328C302.277 90.3067 302.541 90.3173 302.797 90.36V92.16C302.541 92.0853 302.245 92.0613 301.909 92.088C301.578 92.1147 301.279 92.208 301.013 92.368C300.746 92.512 300.527 92.696 300.357 92.92C300.191 93.144 300.069 93.4 299.989 93.688C299.909 93.9707 299.869 94.2773 299.869 94.608V99H297.933ZM308.095 99.24C307.22 99.24 306.452 99.0507 305.791 98.672C305.13 98.2933 304.612 97.768 304.239 97.096C303.871 96.424 303.687 95.6507 303.687 94.776C303.687 93.832 303.868 93.0133 304.231 92.32C304.594 91.6213 305.098 91.08 305.743 90.696C306.388 90.312 307.135 90.12 307.983 90.12C308.879 90.12 309.639 90.3307 310.263 90.752C310.892 91.168 311.359 91.7573 311.663 92.52C311.967 93.2827 312.082 94.1813 312.007 95.216H310.095V94.512C310.09 93.5733 309.924 92.888 309.599 92.456C309.274 92.024 308.762 91.808 308.063 91.808C307.274 91.808 306.687 92.0533 306.303 92.544C305.919 93.0293 305.727 93.7413 305.727 94.68C305.727 95.5547 305.919 96.232 306.303 96.712C306.687 97.192 307.247 97.432 307.983 97.432C308.458 97.432 308.866 97.328 309.207 97.12C309.554 96.9067 309.82 96.6 310.007 96.2L311.911 96.776C311.58 97.5547 311.068 98.16 310.375 98.592C309.687 99.024 308.927 99.24 308.095 99.24ZM305.119 95.216V93.76H311.063V95.216H305.119ZM316.052 99.24C315.428 99.24 314.9 99.1227 314.468 98.888C314.036 98.648 313.708 98.3307 313.484 97.936C313.265 97.5413 313.156 97.1067 313.156 96.632C313.156 96.216 313.225 95.8427 313.364 95.512C313.502 95.176 313.716 94.888 314.004 94.648C314.292 94.4027 314.665 94.2027 315.124 94.048C315.47 93.936 315.876 93.8347 316.34 93.744C316.809 93.6533 317.316 93.5707 317.86 93.496C318.409 93.416 318.982 93.3307 319.58 93.24L318.892 93.632C318.897 93.0347 318.764 92.5947 318.492 92.312C318.22 92.0293 317.761 91.888 317.116 91.888C316.726 91.888 316.35 91.9787 315.988 92.16C315.625 92.3413 315.372 92.6533 315.228 93.096L313.468 92.544C313.681 91.8133 314.086 91.2267 314.684 90.784C315.286 90.3413 316.097 90.12 317.116 90.12C317.884 90.12 318.558 90.2453 319.14 90.496C319.726 90.7467 320.161 91.1573 320.444 91.728C320.598 92.032 320.692 92.344 320.724 92.664C320.756 92.9787 320.772 93.3227 320.772 93.696V99H319.084V97.128L319.364 97.432C318.974 98.056 318.518 98.5147 317.996 98.808C317.478 99.096 316.83 99.24 316.052 99.24ZM316.436 97.704C316.873 97.704 317.246 97.6267 317.556 97.472C317.865 97.3173 318.11 97.128 318.292 96.904C318.478 96.68 318.604 96.4693 318.668 96.272C318.769 96.0267 318.825 95.7467 318.836 95.432C318.852 95.112 318.86 94.8533 318.86 94.656L319.452 94.832C318.87 94.9227 318.372 95.0027 317.956 95.072C317.54 95.1413 317.182 95.208 316.884 95.272C316.585 95.3307 316.321 95.3973 316.092 95.472C315.868 95.552 315.678 95.6453 315.524 95.752C315.369 95.8587 315.249 95.9813 315.164 96.12C315.084 96.2587 315.044 96.4213 315.044 96.608C315.044 96.8213 315.097 97.0107 315.204 97.176C315.31 97.336 315.465 97.464 315.668 97.56C315.876 97.656 316.132 97.704 316.436 97.704ZM327.918 99C327.348 99.1067 326.788 99.152 326.238 99.136C325.694 99.1253 325.206 99.0267 324.774 98.84C324.342 98.648 324.014 98.3467 323.79 97.936C323.593 97.5627 323.489 97.1813 323.478 96.792C323.468 96.4027 323.462 95.9627 323.462 95.472V87.96H325.382V95.36C325.382 95.7067 325.385 96.0107 325.39 96.272C325.401 96.5333 325.457 96.7467 325.558 96.912C325.75 97.232 326.057 97.4107 326.478 97.448C326.9 97.4853 327.38 97.464 327.918 97.384V99ZM321.894 91.872V90.36H327.918V91.872H321.894ZM333.267 99.24C332.392 99.24 331.624 99.0507 330.963 98.672C330.301 98.2933 329.784 97.768 329.411 97.096C329.043 96.424 328.859 95.6507 328.859 94.776C328.859 93.832 329.04 93.0133 329.403 92.32C329.765 91.6213 330.269 91.08 330.915 90.696C331.56 90.312 332.307 90.12 333.155 90.12C334.051 90.12 334.811 90.3307 335.435 90.752C336.064 91.168 336.531 91.7573 336.835 92.52C337.139 93.2827 337.253 94.1813 337.179 95.216H335.267V94.512C335.261 93.5733 335.096 92.888 334.771 92.456C334.445 92.024 333.933 91.808 333.235 91.808C332.445 91.808 331.859 92.0533 331.475 92.544C331.091 93.0293 330.899 93.7413 330.899 94.68C330.899 95.5547 331.091 96.232 331.475 96.712C331.859 97.192 332.419 97.432 333.155 97.432C333.629 97.432 334.037 97.328 334.379 97.12C334.725 96.9067 334.992 96.6 335.179 96.2L337.083 96.776C336.752 97.5547 336.24 98.16 335.547 98.592C334.859 99.024 334.099 99.24 333.267 99.24ZM330.291 95.216V93.76H336.235V95.216H330.291ZM342.327 99V87.48H344.255V99H342.327ZM352.627 99V94.84C352.627 94.568 352.609 94.2667 352.571 93.936C352.534 93.6053 352.446 93.288 352.307 92.984C352.174 92.6747 351.971 92.4213 351.699 92.224C351.433 92.0267 351.07 91.928 350.611 91.928C350.366 91.928 350.123 91.968 349.883 92.048C349.643 92.128 349.425 92.2667 349.227 92.464C349.035 92.656 348.881 92.9227 348.763 93.264C348.646 93.6 348.587 94.032 348.587 94.56L347.443 94.072C347.443 93.336 347.585 92.6693 347.867 92.072C348.155 91.4747 348.577 91 349.131 90.648C349.686 90.2907 350.369 90.112 351.179 90.112C351.819 90.112 352.347 90.2187 352.763 90.432C353.179 90.6453 353.51 90.9173 353.755 91.248C354.001 91.5787 354.182 91.9307 354.299 92.304C354.417 92.6773 354.491 93.032 354.523 93.368C354.561 93.6987 354.579 93.968 354.579 94.176V99H352.627ZM346.635 99V90.36H348.355V93.04H348.587V99H346.635ZM359.003 99L355.867 90.36H357.795L359.971 96.624L362.139 90.36H364.075L360.939 99H359.003ZM369.014 99.24C368.15 99.24 367.395 99.0453 366.75 98.656C366.105 98.2667 365.603 97.7307 365.246 97.048C364.894 96.36 364.718 95.5707 364.718 94.68C364.718 93.7733 364.899 92.9787 365.262 92.296C365.625 91.6133 366.129 91.08 366.774 90.696C367.419 90.312 368.166 90.12 369.014 90.12C369.883 90.12 370.641 90.3147 371.286 90.704C371.931 91.0933 372.433 91.632 372.79 92.32C373.147 93.0027 373.326 93.7893 373.326 94.68C373.326 95.576 373.145 96.368 372.782 97.056C372.425 97.7387 371.923 98.2747 371.278 98.664C370.633 99.048 369.878 99.24 369.014 99.24ZM369.014 97.432C369.782 97.432 370.353 97.176 370.726 96.664C371.099 96.152 371.286 95.4907 371.286 94.68C371.286 93.8427 371.097 93.176 370.718 92.68C370.339 92.1787 369.771 91.928 369.014 91.928C368.497 91.928 368.07 92.0453 367.734 92.28C367.403 92.5093 367.158 92.832 366.998 93.248C366.838 93.6587 366.758 94.136 366.758 94.68C366.758 95.5173 366.947 96.1867 367.326 96.688C367.71 97.184 368.273 97.432 369.014 97.432ZM375.249 89.048V87.28H377.177V89.048H375.249ZM375.249 99V90.36H377.177V99H375.249ZM383.325 99.24C382.434 99.24 381.674 99.0427 381.045 98.648C380.416 98.248 379.933 97.704 379.597 97.016C379.266 96.328 379.098 95.5493 379.093 94.68C379.098 93.7947 379.272 93.0107 379.613 92.328C379.96 91.64 380.45 91.1013 381.085 90.712C381.72 90.3173 382.474 90.12 383.349 90.12C384.33 90.12 385.16 90.368 385.837 90.864C386.52 91.3547 386.965 92.0267 387.173 92.88L385.253 93.4C385.104 92.936 384.856 92.576 384.509 92.32C384.162 92.0587 383.768 91.928 383.325 91.928C382.824 91.928 382.41 92.048 382.085 92.288C381.76 92.5227 381.52 92.848 381.365 93.264C381.21 93.68 381.133 94.152 381.133 94.68C381.133 95.5013 381.317 96.1653 381.685 96.672C382.053 97.1787 382.6 97.432 383.325 97.432C383.837 97.432 384.24 97.3147 384.533 97.08C384.832 96.8453 385.056 96.5067 385.205 96.064L387.173 96.504C386.906 97.384 386.44 98.0613 385.773 98.536C385.106 99.0053 384.29 99.24 383.325 99.24ZM392.47 99.24C391.595 99.24 390.827 99.0507 390.166 98.672C389.505 98.2933 388.987 97.768 388.614 97.096C388.246 96.424 388.062 95.6507 388.062 94.776C388.062 93.832 388.243 93.0133 388.606 92.32C388.969 91.6213 389.473 91.08 390.118 90.696C390.763 90.312 391.51 90.12 392.358 90.12C393.254 90.12 394.014 90.3307 394.638 90.752C395.267 91.168 395.734 91.7573 396.038 92.52C396.342 93.2827 396.457 94.1813 396.382 95.216H394.47V94.512C394.465 93.5733 394.299 92.888 393.974 92.456C393.649 92.024 393.137 91.808 392.438 91.808C391.649 91.808 391.062 92.0533 390.678 92.544C390.294 93.0293 390.102 93.7413 390.102 94.68C390.102 95.5547 390.294 96.232 390.678 96.712C391.062 97.192 391.622 97.432 392.358 97.432C392.833 97.432 393.241 97.328 393.582 97.12C393.929 96.9067 394.195 96.6 394.382 96.2L396.286 96.776C395.955 97.5547 395.443 98.16 394.75 98.592C394.062 99.024 393.302 99.24 392.47 99.24ZM389.494 95.216V93.76H395.438V95.216H389.494Z" fill="black"/>
<path fill-rule="evenodd" clip-rule="evenodd" d="M588.573 77.0008L580.001 68.4287L581.429 67.0001L590.001 75.5722L588.573 77.0008Z" fill="black"/>
<path fill-rule="evenodd" clip-rule="evenodd" d="M590.001 68.4287L581.429 77.0008L580 75.5721L588.572 67L590.001 68.4287Z" fill="black"/>
<rect x="285" y="413" width="292" height="48" rx="4" fill="#2042B8"/>
<path d="M410.12 444V432.48H413.792C413.888 432.48 414.077 432.483 414.36 432.488C414.648 432.493 414.925 432.512 415.192 432.544C416.104 432.661 416.875 432.987 417.504 433.52C418.139 434.048 418.619 434.723 418.944 435.544C419.269 436.365 419.432 437.264 419.432 438.24C419.432 439.216 419.269 440.115 418.944 440.936C418.619 441.757 418.139 442.435 417.504 442.968C416.875 443.496 416.104 443.819 415.192 443.936C414.931 443.968 414.656 443.987 414.368 443.992C414.08 443.997 413.888 444 413.792 444H410.12ZM412.08 442.184H413.792C413.952 442.184 414.155 442.179 414.4 442.168C414.651 442.157 414.872 442.133 415.064 442.096C415.608 441.995 416.051 441.752 416.392 441.368C416.733 440.984 416.984 440.517 417.144 439.968C417.309 439.419 417.392 438.843 417.392 438.24C417.392 437.616 417.309 437.029 417.144 436.48C416.979 435.931 416.723 435.469 416.376 435.096C416.035 434.723 415.597 434.485 415.064 434.384C414.872 434.341 414.651 434.317 414.4 434.312C414.155 434.301 413.952 434.296 413.792 434.296H412.08V442.184ZM426.195 444.24C425.043 444.24 424.056 443.989 423.235 443.488C422.414 442.981 421.782 442.277 421.339 441.376C420.902 440.475 420.683 439.429 420.683 438.24C420.683 437.051 420.902 436.005 421.339 435.104C421.782 434.203 422.414 433.501 423.235 433C424.056 432.493 425.043 432.24 426.195 432.24C427.347 432.24 428.334 432.493 429.155 433C429.982 433.501 430.614 434.203 431.051 435.104C431.494 436.005 431.715 437.051 431.715 438.24C431.715 439.429 431.494 440.475 431.051 441.376C430.614 442.277 429.982 442.981 429.155 443.488C428.334 443.989 427.347 444.24 426.195 444.24ZM426.195 442.424C426.968 442.429 427.611 442.259 428.123 441.912C428.64 441.565 429.027 441.077 429.283 440.448C429.544 439.819 429.675 439.083 429.675 438.24C429.675 437.397 429.544 436.667 429.283 436.048C429.027 435.424 428.64 434.939 428.123 434.592C427.611 434.245 426.968 434.067 426.195 434.056C425.422 434.051 424.779 434.221 424.267 434.568C423.755 434.915 423.368 435.403 423.107 436.032C422.851 436.661 422.723 437.397 422.723 438.24C422.723 439.083 422.851 439.816 423.107 440.44C423.363 441.059 423.747 441.541 424.259 441.888C424.776 442.235 425.422 442.413 426.195 442.424ZM433.308 444V432.48H435.26L440.604 440.6V432.48H442.556V444H440.604L435.26 435.88V444H433.308ZM444.792 444V432.48H452.232V434.288H446.72V437.128H451.272V438.936H446.72V442.192H452.232V444H444.792Z" fill="white"/>
<path d="M292.2 392.3C291.053 392.3 290.043 392.067 289.17 391.6C288.303 391.133 287.623 390.477 287.13 389.63C286.643 388.783 286.4 387.79 286.4 386.65V377.62L288.84 377.6V386.59C288.84 387.13 288.93 387.613 289.11 388.04C289.297 388.467 289.547 388.83 289.86 389.13C290.173 389.423 290.533 389.647 290.94 389.8C291.347 389.953 291.767 390.03 292.2 390.03C292.647 390.03 293.07 389.953 293.47 389.8C293.877 389.64 294.237 389.413 294.55 389.12C294.863 388.82 295.11 388.457 295.29 388.03C295.47 387.603 295.56 387.123 295.56 386.59V377.6H298V386.65C298 387.79 297.753 388.783 297.26 389.63C296.773 390.477 296.093 391.133 295.22 391.6C294.353 392.067 293.347 392.3 292.2 392.3ZM305.519 392.3C304.466 392.3 303.516 392.117 302.669 391.75C301.829 391.383 301.136 390.86 300.589 390.18C300.049 389.493 299.706 388.68 299.559 387.74L302.059 387.36C302.272 388.213 302.709 388.873 303.369 389.34C304.036 389.807 304.802 390.04 305.669 390.04C306.182 390.04 306.666 389.96 307.119 389.8C307.572 389.64 307.939 389.407 308.219 389.1C308.506 388.793 308.649 388.417 308.649 387.97C308.649 387.77 308.616 387.587 308.549 387.42C308.482 387.247 308.382 387.093 308.249 386.96C308.122 386.827 307.956 386.707 307.749 386.6C307.549 386.487 307.316 386.39 307.049 386.31L303.329 385.21C303.009 385.117 302.662 384.993 302.289 384.84C301.922 384.68 301.572 384.463 301.239 384.19C300.912 383.91 300.642 383.557 300.429 383.13C300.222 382.697 300.119 382.163 300.119 381.53C300.119 380.603 300.352 379.827 300.819 379.2C301.292 378.567 301.926 378.093 302.719 377.78C303.519 377.467 304.406 377.313 305.379 377.32C306.366 377.327 307.246 377.497 308.019 377.83C308.792 378.157 309.439 378.633 309.959 379.26C310.479 379.887 310.846 380.643 311.059 381.53L308.469 381.98C308.362 381.473 308.156 381.043 307.849 380.69C307.549 380.33 307.179 380.057 306.739 379.87C306.306 379.683 305.842 379.583 305.349 379.57C304.869 379.563 304.422 379.637 304.009 379.79C303.602 379.937 303.272 380.15 303.019 380.43C302.772 380.71 302.649 381.037 302.649 381.41C302.649 381.763 302.756 382.053 302.969 382.28C303.182 382.5 303.446 382.677 303.759 382.81C304.079 382.937 304.402 383.043 304.729 383.13L307.309 383.85C307.662 383.943 308.059 384.07 308.499 384.23C308.939 384.39 309.362 384.613 309.769 384.9C310.176 385.187 310.509 385.563 310.769 386.03C311.036 386.497 311.169 387.09 311.169 387.81C311.169 388.557 311.012 389.213 310.699 389.78C310.392 390.34 309.976 390.807 309.449 391.18C308.922 391.553 308.319 391.833 307.639 392.02C306.966 392.207 306.259 392.3 305.519 392.3ZM313.334 392V377.6H317.924C318.044 377.6 318.28 377.603 318.634 377.61C318.994 377.617 319.34 377.64 319.674 377.68C320.814 377.827 321.777 378.233 322.564 378.9C323.357 379.56 323.957 380.403 324.364 381.43C324.77 382.457 324.974 383.58 324.974 384.8C324.974 386.02 324.77 387.143 324.364 388.17C323.957 389.197 323.357 390.043 322.564 390.71C321.777 391.37 320.814 391.773 319.674 391.92C319.347 391.96 319.004 391.983 318.644 391.99C318.284 391.997 318.044 392 317.924 392H313.334ZM315.784 389.73H317.924C318.124 389.73 318.377 389.723 318.684 389.71C318.997 389.697 319.274 389.667 319.514 389.62C320.194 389.493 320.747 389.19 321.174 388.71C321.6 388.23 321.914 387.647 322.114 386.96C322.32 386.273 322.424 385.553 322.424 384.8C322.424 384.02 322.32 383.287 322.114 382.6C321.907 381.913 321.587 381.337 321.154 380.87C320.727 380.403 320.18 380.107 319.514 379.98C319.274 379.927 318.997 379.897 318.684 379.89C318.377 379.877 318.124 379.87 317.924 379.87H315.784V389.73ZM330.941 391.98V389.88L337.101 384.39C337.581 383.963 337.915 383.56 338.101 383.18C338.288 382.8 338.381 382.433 338.381 382.08C338.381 381.6 338.278 381.173 338.071 380.8C337.865 380.42 337.578 380.12 337.211 379.9C336.851 379.68 336.435 379.57 335.961 379.57C335.461 379.57 335.018 379.687 334.631 379.92C334.251 380.147 333.955 380.45 333.741 380.83C333.528 381.21 333.428 381.62 333.441 382.06H330.961C330.961 381.1 331.175 380.263 331.601 379.55C332.035 378.837 332.628 378.283 333.381 377.89C334.141 377.497 335.018 377.3 336.011 377.3C336.931 377.3 337.758 377.507 338.491 377.92C339.225 378.327 339.801 378.893 340.221 379.62C340.641 380.34 340.851 381.17 340.851 382.11C340.851 382.797 340.758 383.373 340.571 383.84C340.385 384.307 340.105 384.737 339.731 385.13C339.365 385.523 338.908 385.96 338.361 386.44L333.991 390.31L333.771 389.71H340.851V391.98H330.941ZM348.435 392.3C347.415 392.3 346.515 392.083 345.735 391.65C344.955 391.21 344.345 390.6 343.905 389.82C343.472 389.04 343.255 388.14 343.255 387.12V382.48C343.255 381.46 343.472 380.56 343.905 379.78C344.345 379 344.955 378.393 345.735 377.96C346.515 377.52 347.415 377.3 348.435 377.3C349.455 377.3 350.352 377.52 351.125 377.96C351.905 378.393 352.515 379 352.955 379.78C353.395 380.56 353.615 381.46 353.615 382.48V387.12C353.615 388.14 353.395 389.04 352.955 389.82C352.515 390.6 351.905 391.21 351.125 391.65C350.352 392.083 349.455 392.3 348.435 392.3ZM348.435 390.01C348.942 390.01 349.402 389.89 349.815 389.65C350.229 389.403 350.555 389.077 350.795 388.67C351.035 388.257 351.155 387.797 351.155 387.29V382.3C351.155 381.787 351.035 381.327 350.795 380.92C350.555 380.507 350.229 380.18 349.815 379.94C349.402 379.693 348.942 379.57 348.435 379.57C347.929 379.57 347.469 379.693 347.055 379.94C346.642 380.18 346.315 380.507 346.075 380.92C345.835 381.327 345.715 381.787 345.715 382.3V387.29C345.715 387.797 345.835 388.257 346.075 388.67C346.315 389.077 346.642 389.403 347.055 389.65C347.469 389.89 347.929 390.01 348.435 390.01ZM361.6 392.3C360.58 392.3 359.68 392.083 358.9 391.65C358.12 391.21 357.51 390.6 357.07 389.82C356.636 389.04 356.42 388.14 356.42 387.12V382.48C356.42 381.46 356.636 380.56 357.07 379.78C357.51 379 358.12 378.393 358.9 377.96C359.68 377.52 360.58 377.3 361.6 377.3C362.62 377.3 363.516 377.52 364.29 377.96C365.07 378.393 365.68 379 366.12 379.78C366.56 380.56 366.78 381.46 366.78 382.48V387.12C366.78 388.14 366.56 389.04 366.12 389.82C365.68 390.6 365.07 391.21 364.29 391.65C363.516 392.083 362.62 392.3 361.6 392.3ZM361.6 390.01C362.106 390.01 362.566 389.89 362.98 389.65C363.393 389.403 363.72 389.077 363.96 388.67C364.2 388.257 364.32 387.797 364.32 387.29V382.3C364.32 381.787 364.2 381.327 363.96 380.92C363.72 380.507 363.393 380.18 362.98 379.94C362.566 379.693 362.106 379.57 361.6 379.57C361.093 379.57 360.633 379.693 360.22 379.94C359.806 380.18 359.48 380.507 359.24 380.92C359 381.327 358.88 381.787 358.88 382.3V387.29C358.88 387.797 359 388.257 359.24 388.67C359.48 389.077 359.806 389.403 360.22 389.65C360.633 389.89 361.093 390.01 361.6 390.01ZM374.764 392.3C373.744 392.3 372.844 392.083 372.064 391.65C371.284 391.21 370.674 390.6 370.234 389.82C369.8 389.04 369.584 388.14 369.584 387.12V382.48C369.584 381.46 369.8 380.56 370.234 379.78C370.674 379 371.284 378.393 372.064 377.96C372.844 377.52 373.744 377.3 374.764 377.3C375.784 377.3 376.68 377.52 377.454 377.96C378.234 378.393 378.844 379 379.284 379.78C379.724 380.56 379.944 381.46 379.944 382.48V387.12C379.944 388.14 379.724 389.04 379.284 389.82C378.844 390.6 378.234 391.21 377.454 391.65C376.68 392.083 375.784 392.3 374.764 392.3ZM374.764 390.01C375.27 390.01 375.73 389.89 376.144 389.65C376.557 389.403 376.884 389.077 377.124 388.67C377.364 388.257 377.484 387.797 377.484 387.29V382.3C377.484 381.787 377.364 381.327 377.124 380.92C376.884 380.507 376.557 380.18 376.144 379.94C375.73 379.693 375.27 379.57 374.764 379.57C374.257 379.57 373.797 379.693 373.384 379.94C372.97 380.18 372.644 380.507 372.404 380.92C372.164 381.327 372.044 381.787 372.044 382.3V387.29C372.044 387.797 372.164 388.257 372.404 388.67C372.644 389.077 372.97 389.403 373.384 389.65C373.797 389.89 374.257 390.01 374.764 390.01Z" fill="#25282B"/>
<path d="M286.12 303V291.48H292.736V292.656H287.296V296.656H291.776V297.824H287.296V303H286.12ZM297.556 303.24C296.697 303.24 295.964 303.045 295.356 302.656C294.748 302.267 294.281 301.728 293.956 301.04C293.631 300.352 293.468 299.563 293.468 298.672C293.468 297.765 293.633 296.971 293.964 296.288C294.295 295.605 294.764 295.075 295.372 294.696C295.985 294.312 296.713 294.12 297.556 294.12C298.42 294.12 299.156 294.315 299.764 294.704C300.377 295.088 300.844 295.624 301.164 296.312C301.489 296.995 301.652 297.781 301.652 298.672C301.652 299.579 301.489 300.376 301.164 301.064C300.839 301.747 300.369 302.28 299.756 302.664C299.143 303.048 298.409 303.24 297.556 303.24ZM297.556 302.112C298.516 302.112 299.231 301.795 299.7 301.16C300.169 300.52 300.404 299.691 300.404 298.672C300.404 297.627 300.167 296.795 299.692 296.176C299.223 295.557 298.511 295.248 297.556 295.248C296.911 295.248 296.377 295.395 295.956 295.688C295.54 295.976 295.228 296.379 295.02 296.896C294.817 297.408 294.716 298 294.716 298.672C294.716 299.712 294.956 300.547 295.436 301.176C295.916 301.8 296.623 302.112 297.556 302.112ZM303.417 303V294.36H304.473V296.44L304.265 296.168C304.361 295.912 304.486 295.677 304.641 295.464C304.796 295.245 304.964 295.067 305.145 294.928C305.369 294.731 305.63 294.581 305.929 294.48C306.228 294.373 306.529 294.312 306.833 294.296C307.137 294.275 307.414 294.296 307.665 294.36V295.464C307.35 295.384 307.006 295.365 306.633 295.408C306.26 295.451 305.916 295.6 305.601 295.856C305.313 296.08 305.097 296.349 304.953 296.664C304.809 296.973 304.713 297.304 304.665 297.656C304.617 298.003 304.593 298.347 304.593 298.688V303H303.417ZM317.09 303C316.604 303.101 316.124 303.141 315.65 303.12C315.18 303.099 314.759 302.997 314.386 302.816C314.018 302.635 313.738 302.352 313.546 301.968C313.391 301.648 313.306 301.325 313.29 301C313.279 300.669 313.274 300.293 313.274 299.872V291.96H314.442V299.824C314.442 300.187 314.444 300.491 314.45 300.736C314.46 300.976 314.516 301.189 314.618 301.376C314.81 301.733 315.114 301.947 315.53 302.016C315.951 302.085 316.471 302.069 317.09 301.968V303ZM311.426 295.368V294.36H317.09V295.368H311.426ZM322.087 303.24C321.229 303.24 320.495 303.045 319.887 302.656C319.279 302.267 318.813 301.728 318.487 301.04C318.162 300.352 317.999 299.563 317.999 298.672C317.999 297.765 318.165 296.971 318.495 296.288C318.826 295.605 319.295 295.075 319.903 294.696C320.517 294.312 321.245 294.12 322.087 294.12C322.951 294.12 323.687 294.315 324.295 294.704C324.909 295.088 325.375 295.624 325.695 296.312C326.021 296.995 326.183 297.781 326.183 298.672C326.183 299.579 326.021 300.376 325.695 301.064C325.37 301.747 324.901 302.28 324.287 302.664C323.674 303.048 322.941 303.24 322.087 303.24ZM322.087 302.112C323.047 302.112 323.762 301.795 324.231 301.16C324.701 300.52 324.935 299.691 324.935 298.672C324.935 297.627 324.698 296.795 324.223 296.176C323.754 295.557 323.042 295.248 322.087 295.248C321.442 295.248 320.909 295.395 320.487 295.688C320.071 295.976 319.759 296.379 319.551 296.896C319.349 297.408 319.247 298 319.247 298.672C319.247 299.712 319.487 300.547 319.967 301.176C320.447 301.8 321.154 302.112 322.087 302.112Z" fill="#25282B"/>
<path d="M334.32 344L337.952 332.48H340.776L344.408 344H342.424L339.128 333.664H339.56L336.304 344H334.32ZM336.344 341.504V339.704H342.392V341.504H336.344ZM345.854 344V332.48H350.614C350.726 332.48 350.87 332.485 351.046 332.496C351.222 332.501 351.385 332.517 351.534 332.544C352.201 332.645 352.75 332.867 353.182 333.208C353.62 333.549 353.942 333.981 354.15 334.504C354.364 335.021 354.47 335.597 354.47 336.232C354.47 337.171 354.233 337.979 353.758 338.656C353.284 339.328 352.556 339.744 351.574 339.904L350.75 339.976H347.782V344H345.854ZM352.47 344L350.198 339.312L352.158 338.88L354.654 344H352.47ZM347.782 338.176H350.534C350.641 338.176 350.761 338.171 350.894 338.16C351.028 338.149 351.15 338.128 351.262 338.096C351.582 338.016 351.833 337.875 352.014 337.672C352.201 337.469 352.332 337.24 352.406 336.984C352.486 336.728 352.526 336.477 352.526 336.232C352.526 335.987 352.486 335.736 352.406 335.48C352.332 335.219 352.201 334.987 352.014 334.784C351.833 334.581 351.582 334.44 351.262 334.36C351.15 334.328 351.028 334.309 350.894 334.304C350.761 334.293 350.641 334.288 350.534 334.288H347.782V338.176ZM363.884 344.24C363.041 344.24 362.281 344.093 361.604 343.8C360.932 343.507 360.377 343.088 359.94 342.544C359.508 341.995 359.233 341.344 359.116 340.592L361.116 340.288C361.287 340.971 361.636 341.499 362.164 341.872C362.697 342.245 363.311 342.432 364.004 342.432C364.415 342.432 364.801 342.368 365.164 342.24C365.527 342.112 365.82 341.925 366.044 341.68C366.273 341.435 366.388 341.133 366.388 340.776C366.388 340.616 366.361 340.469 366.308 340.336C366.255 340.197 366.175 340.075 366.068 339.968C365.967 339.861 365.833 339.765 365.668 339.68C365.508 339.589 365.321 339.512 365.108 339.448L362.132 338.568C361.876 338.493 361.599 338.395 361.3 338.272C361.007 338.144 360.727 337.971 360.46 337.752C360.199 337.528 359.983 337.245 359.812 336.904C359.647 336.557 359.564 336.131 359.564 335.624C359.564 334.883 359.751 334.261 360.124 333.76C360.503 333.253 361.009 332.875 361.644 332.624C362.284 332.373 362.993 332.251 363.772 332.256C364.561 332.261 365.265 332.397 365.884 332.664C366.503 332.925 367.02 333.307 367.436 333.808C367.852 334.309 368.145 334.915 368.316 335.624L366.244 335.984C366.159 335.579 365.993 335.235 365.748 334.952C365.508 334.664 365.212 334.445 364.86 334.296C364.513 334.147 364.143 334.067 363.748 334.056C363.364 334.051 363.007 334.109 362.676 334.232C362.351 334.349 362.087 334.52 361.884 334.744C361.687 334.968 361.588 335.229 361.588 335.528C361.588 335.811 361.673 336.043 361.844 336.224C362.015 336.4 362.225 336.541 362.476 336.648C362.732 336.749 362.991 336.835 363.252 336.904L365.316 337.48C365.599 337.555 365.916 337.656 366.268 337.784C366.62 337.912 366.959 338.091 367.284 338.32C367.609 338.549 367.876 338.851 368.084 339.224C368.297 339.597 368.404 340.072 368.404 340.648C368.404 341.245 368.279 341.771 368.028 342.224C367.783 342.672 367.449 343.045 367.028 343.344C366.607 343.643 366.124 343.867 365.58 344.016C365.041 344.165 364.476 344.24 363.884 344.24ZM376.112 344V339.84C376.112 339.568 376.093 339.267 376.056 338.936C376.018 338.605 375.93 338.288 375.792 337.984C375.658 337.675 375.456 337.421 375.184 337.224C374.917 337.027 374.554 336.928 374.096 336.928C373.85 336.928 373.608 336.968 373.368 337.048C373.128 337.128 372.909 337.267 372.712 337.464C372.52 337.656 372.365 337.923 372.248 338.264C372.13 338.6 372.072 339.032 372.072 339.56L370.928 339.072C370.928 338.336 371.069 337.669 371.352 337.072C371.64 336.475 372.061 336 372.616 335.648C373.17 335.291 373.853 335.112 374.664 335.112C375.304 335.112 375.832 335.219 376.248 335.432C376.664 335.645 376.994 335.917 377.24 336.248C377.485 336.579 377.666 336.931 377.784 337.304C377.901 337.677 377.976 338.032 378.008 338.368C378.045 338.699 378.064 338.968 378.064 339.176V344H376.112ZM370.12 344V332.48H371.84V338.544H372.072V344H370.12ZM382.567 344.24C381.943 344.24 381.415 344.123 380.983 343.888C380.551 343.648 380.223 343.331 379.999 342.936C379.781 342.541 379.671 342.107 379.671 341.632C379.671 341.216 379.741 340.843 379.879 340.512C380.018 340.176 380.231 339.888 380.519 339.648C380.807 339.403 381.181 339.203 381.639 339.048C381.986 338.936 382.391 338.835 382.855 338.744C383.325 338.653 383.831 338.571 384.375 338.496C384.925 338.416 385.498 338.331 386.095 338.24L385.407 338.632C385.413 338.035 385.279 337.595 385.007 337.312C384.735 337.029 384.277 336.888 383.631 336.888C383.242 336.888 382.866 336.979 382.503 337.16C382.141 337.341 381.887 337.653 381.743 338.096L379.983 337.544C380.197 336.813 380.602 336.227 381.199 335.784C381.802 335.341 382.613 335.12 383.631 335.12C384.399 335.12 385.074 335.245 385.655 335.496C386.242 335.747 386.677 336.157 386.959 336.728C387.114 337.032 387.207 337.344 387.239 337.664C387.271 337.979 387.287 338.323 387.287 338.696V344H385.599V342.128L385.879 342.432C385.49 343.056 385.034 343.515 384.511 343.808C383.994 344.096 383.346 344.24 382.567 344.24ZM382.951 342.704C383.389 342.704 383.762 342.627 384.071 342.472C384.381 342.317 384.626 342.128 384.807 341.904C384.994 341.68 385.119 341.469 385.183 341.272C385.285 341.027 385.341 340.747 385.351 340.432C385.367 340.112 385.375 339.853 385.375 339.656L385.967 339.832C385.386 339.923 384.887 340.003 384.471 340.072C384.055 340.141 383.698 340.208 383.399 340.272C383.101 340.331 382.837 340.397 382.607 340.472C382.383 340.552 382.194 340.645 382.039 340.752C381.885 340.859 381.765 340.981 381.679 341.12C381.599 341.259 381.559 341.421 381.559 341.608C381.559 341.821 381.613 342.011 381.719 342.176C381.826 342.336 381.981 342.464 382.183 342.56C382.391 342.656 382.647 342.704 382.951 342.704ZM389.354 344L389.37 332.48H391.322V339.52L394.482 335.36H396.89L393.538 339.68L397.178 344H394.626L391.322 339.84V344H389.354ZM398.139 334.048V332.28H400.067V334.048H398.139ZM398.139 344V335.36H400.067V344H398.139ZM402.464 344V335.36H404.168V337.464L403.96 337.192C404.066 336.904 404.208 336.643 404.384 336.408C404.565 336.168 404.781 335.971 405.032 335.816C405.245 335.672 405.48 335.56 405.736 335.48C405.997 335.395 406.264 335.344 406.536 335.328C406.808 335.307 407.072 335.317 407.328 335.36V337.16C407.072 337.085 406.776 337.061 406.44 337.088C406.109 337.115 405.81 337.208 405.544 337.368C405.277 337.512 405.058 337.696 404.888 337.92C404.722 338.144 404.6 338.4 404.52 338.688C404.44 338.971 404.4 339.277 404.4 339.608V344H402.464Z" fill="#25282B"/>
<circle cx="564.5" cy="335.5" r="11.5" stroke="url(#paint2_linear_271_187)" stroke-width="2" stroke-dasharray="3 3"/>
<path fill-rule="evenodd" clip-rule="evenodd" d="M564.286 340.286L564.286 331.715L565.715 331.715L565.715 340.286L564.286 340.286Z" fill="url(#paint3_linear_271_187)"/>
<path fill-rule="evenodd" clip-rule="evenodd" d="M569.286 336.714L560.714 336.714L560.714 335.286L569.286 335.286L569.286 336.714Z" fill="url(#paint4_linear_271_187)"/>
<defs>
<filter id="filter0_dddddd_271_187" x="0" y="0.703704" width="471" height="400.296" filterUnits="userSpaceOnUse" color-interpolation-filters="sRGB">
<feFlood flood-opacity="0" result="BackgroundImageFix"/>
<feColorMatrix in="SourceAlpha" type="matrix" values="0 0 0 0 0 0 0 0 0 0 0 0 0 0 0 0 0 0 127 0" result="hardAlpha"/>
<feOffset dy="1.85185"/>
<feGaussianBlur stdDeviation="1.57407"/>
<feColorMatrix type="matrix" values="0 0 0 0 0 0 0 0 0 0 0 0 0 0 0 0 0 0 0.01 0"/>
<feBlend mode="normal" in2="BackgroundImageFix" result="effect1_dropShadow_271_187"/>
<feColorMatrix in="SourceAlpha" type="matrix" values="0 0 0 0 0 0 0 0 0 0 0 0 0 0 0 0 0 0 127 0" result="hardAlpha"/>
<feOffset dy="8.14815"/>
<feGaussianBlur stdDeviation="3.25926"/>
<feColorMatrix type="matrix" values="0 0 0 0 0 0 0 0 0 0 0 0 0 0 0 0 0 0 0.0117778 0"/>
<feBlend mode="normal" in2="effect1_dropShadow_271_187" result="effect2_dropShadow_271_187"/>
<feColorMatrix in="SourceAlpha" type="matrix" values="0 0 0 0 0 0 0 0 0 0 0 0 0 0 0 0 0 0 127 0" result="hardAlpha"/>
<feOffset dy="20"/>
<feGaussianBlur stdDeviation="6.5"/>
<feColorMatrix type="matrix" values="0 0 0 0 0 0 0 0 0 0 0 0 0 0 0 0 0 0 0.015 0"/>
<feBlend mode="normal" in2="effect2_dropShadow_271_187" result="effect3_dropShadow_271_187"/>
<feColorMatrix in="SourceAlpha" type="matrix" values="0 0 0 0 0 0 0 0 0 0 0 0 0 0 0 0 0 0 127 0" result="hardAlpha"/>
<feOffset dy="38.5185"/>
<feGaussianBlur stdDeviation="12.7407"/>
<feColorMatrix type="matrix" values="0 0 0 0 0 0 0 0 0 0 0 0 0 0 0 0 0 0 0.0182222 0"/>
<feBlend mode="normal" in2="effect3_dropShadow_271_187" result="effect4_dropShadow_271_187"/>
<feColorMatrix in="SourceAlpha" type="matrix" values="0 0 0 0 0 0 0 0 0 0 0 0 0 0 0 0 0 0 127 0" result="hardAlpha"/>
<feOffset dy="64.8148"/>
<feGaussianBlur stdDeviation="23.4259"/>
<feColorMatrix type="matrix" values="0 0 0 0 0 0 0 0 0 0 0 0 0 0 0 0 0 0 0.0227778 0"/>
<feBlend mode="normal" in2="effect4_dropShadow_271_187" result="effect5_dropShadow_271_187"/>
<feColorMatrix in="SourceAlpha" type="matrix" values="0 0 0 0 0 0 0 0 0 0 0 0 0 0 0 0 0 0 127 0" result="hardAlpha"/>
<feOffset dy="100"/>
<feGaussianBlur stdDeviation="40"/>
<feColorMatrix type="matrix" values="0 0 0 0 0 0 0 0 0 0 0 0 0 0 0 0 0 0 0.03 0"/>
<feBlend mode="normal" in2="effect5_dropShadow_271_187" result="effect6_dropShadow_271_187"/>
<feBlend mode="normal" in="SourceGraphic" in2="effect6_dropShadow_271_187" result="shape"/>
</filter>
<filter id="filter1_dddddd_271_187" x="178" y="50.7037" width="506" height="618.296" filterUnits="userSpaceOnUse" color-interpolation-filters="sRGB">
<feFlood flood-opacity="0" result="BackgroundImageFix"/>
<feColorMatrix in="SourceAlpha" type="matrix" values="0 0 0 0 0 0 0 0 0 0 0 0 0 0 0 0 0 0 127 0" result="hardAlpha"/>
<feOffset dy="1.85185"/>
<feGaussianBlur stdDeviation="1.57407"/>
<feColorMatrix type="matrix" values="0 0 0 0 0 0 0 0 0 0 0 0 0 0 0 0 0 0 0.01 0"/>
<feBlend mode="normal" in2="BackgroundImageFix" result="effect1_dropShadow_271_187"/>
<feColorMatrix in="SourceAlpha" type="matrix" values="0 0 0 0 0 0 0 0 0 0 0 0 0 0 0 0 0 0 127 0" result="hardAlpha"/>
<feOffset dy="8.14815"/>
<feGaussianBlur stdDeviation="3.25926"/>
<feColorMatrix type="matrix" values="0 0 0 0 0 0 0 0 0 0 0 0 0 0 0 0 0 0 0.0117778 0"/>
<feBlend mode="normal" in2="effect1_dropShadow_271_187" result="effect2_dropShadow_271_187"/>
<feColorMatrix in="SourceAlpha" type="matrix" values="0 0 0 0 0 0 0 0 0 0 0 0 0 0 0 0 0 0 127 0" result="hardAlpha"/>
<feOffset dy="20"/>
<feGaussianBlur stdDeviation="6.5"/>
<feColorMatrix type="matrix" values="0 0 0 0 0 0 0 0 0 0 0 0 0 0 0 0 0 0 0.015 0"/>
<feBlend mode="normal" in2="effect2_dropShadow_271_187" result="effect3_dropShadow_271_187"/>
<feColorMatrix in="SourceAlpha" type="matrix" values="0 0 0 0 0 0 0 0 0 0 0 0 0 0 0 0 0 0 127 0" result="hardAlpha"/>
<feOffset dy="38.5185"/>
<feGaussianBlur stdDeviation="12.7407"/>
<feColorMatrix type="matrix" values="0 0 0 0 0 0 0 0 0 0 0 0 0 0 0 0 0 0 0.0182222 0"/>
<feBlend mode="normal" in2="effect3_dropShadow_271_187" result="effect4_dropShadow_271_187"/>
<feColorMatrix in="SourceAlpha" type="matrix" values="0 0 0 0 0 0 0 0 0 0 0 0 0 0 0 0 0 0 127 0" result="hardAlpha"/>
<feOffset dy="64.8148"/>
<feGaussianBlur stdDeviation="23.4259"/>
<feColorMatrix type="matrix" values="0 0 0 0 0 0 0 0 0 0 0 0 0 0 0 0 0 0 0.0227778 0"/>
<feBlend mode="normal" in2="effect4_dropShadow_271_187" result="effect5_dropShadow_271_187"/>
<feColorMatrix in="SourceAlpha" type="matrix" values="0 0 0 0 0 0 0 0 0 0 0 0 0 0 0 0 0 0 127 0" result="hardAlpha"/>
<feOffset dy="100"/>
<feGaussianBlur stdDeviation="40"/>
<feColorMatrix type="matrix" values="0 0 0 0 0 0 0 0 0 0 0 0 0 0 0 0 0 0 0.03 0"/>
<feBlend mode="normal" in2="effect5_dropShadow_271_187" result="effect6_dropShadow_271_187"/>
<feBlend mode="normal" in="SourceGraphic" in2="effect6_dropShadow_271_187" result="shape"/>
</filter>
<linearGradient id="paint0_linear_271_187" x1="181.593" y1="297.06" x2="279.136" y2="403.325" gradientUnits="userSpaceOnUse">
<stop stop-color="#FF6600"/>
<stop offset="1" stop-color="#2042B8"/>
</linearGradient>
<linearGradient id="paint1_linear_271_187" x1="181.593" y1="297.06" x2="279.136" y2="403.325" gradientUnits="userSpaceOnUse">
<stop stop-color="#FF6600"/>
<stop offset="1" stop-color="#2042B8"/>
</linearGradient>
<linearGradient id="paint2_linear_271_187" x1="549.842" y1="323.012" x2="568.762" y2="346.838" gradientUnits="userSpaceOnUse">
<stop stop-color="#FF6600"/>
<stop offset="1" stop-color="#2042B8"/>
</linearGradient>
<linearGradient id="paint3_linear_271_187" x1="565.714" y1="330.975" x2="563.532" y2="331.264" gradientUnits="userSpaceOnUse">
<stop stop-color="#FF6600"/>
<stop offset="1" stop-color="#2042B8"/>
</linearGradient>
<linearGradient id="paint4_linear_271_187" x1="559.975" y1="335.287" x2="560.263" y2="337.468" gradientUnits="userSpaceOnUse">
<stop stop-color="#FF6600"/>
<stop offset="1" stop-color="#2042B8"/>
</linearGradient>
</defs>
</svg>
