<svg width="472" height="746" viewBox="0 0 472 746" fill="none" xmlns="http://www.w3.org/2000/svg">
<path d="M367.035 176.097C397.622 165.048 429.059 156.123 461.345 149.324C897.484 23.5714 1120.86 586.249 710.009 771.743C447.268 890.366 367.035 913.445 367.035 913.445C321.197 834.352 358.174 702.473 441.104 664.054L624.589 590.235C698.383 556.318 705.438 468.897 672.748 406.467C642.861 349.389 574.125 325.06 513.625 347.173C465.154 364.89 409.278 383.214 367.035 390.98C273.838 408.112 225.885 257.349 301.239 205.952C326.729 191.503 335.598 187.146 367.035 176.097Z" fill="url(#paint0_linear_271_156)" fill-opacity="0.4"/>
<path d="M559.89 585.348C529.303 596.397 497.867 605.321 465.58 612.121C29.4415 737.873 -193.934 175.195 216.917 -10.2981C479.657 -128.922 559.89 -152 559.89 -152C605.728 -72.9076 568.752 58.9716 485.822 97.3903L302.336 171.21C228.542 205.127 221.487 292.547 254.177 354.977C284.065 412.056 352.801 436.384 413.301 414.271C461.772 396.555 517.647 378.23 559.89 370.465C653.088 353.333 701.041 504.096 625.686 555.492C600.197 569.941 591.327 574.299 559.89 585.348Z" fill="url(#paint1_linear_271_156)" fill-opacity="0.4"/>
<defs>
<linearGradient id="paint0_linear_271_156" x1="-79.9947" y1="-151.492" x2="744.405" y2="751.727" gradientUnits="userSpaceOnUse">
<stop stop-color="#FF6600"/>
<stop offset="1" stop-color="#2042B8"/>
</linearGradient>
<linearGradient id="paint1_linear_271_156" x1="-79.9947" y1="-151.492" x2="744.405" y2="751.727" gradientUnits="userSpaceOnUse">
<stop stop-color="#FF6600"/>
<stop offset="1" stop-color="#2042B8"/>
</linearGradient>
</defs>
</svg>
