<svg width="590" height="499" viewBox="0 0 590 499" fill="none" xmlns="http://www.w3.org/2000/svg">
<g clip-path="url(#clip0_318_256)">
<path d="M315.557 70.0892C335.13 55.6312 362.687 50.0887 384.248 61.3679C359.975 71.9065 340.212 90.6908 328.455 114.397C323.955 123.556 319.902 134.212 310.616 138.445C304.838 141.079 298.018 140.571 292.035 138.444C286.052 136.317 280.729 132.704 275.481 129.129L273.907 128.939C283.247 106.47 295.984 84.5471 315.557 70.0892Z" fill="url(#paint0_linear_318_256)" fill-opacity="0.4"/>
<path d="M384.074 61.8481C363.943 62.4788 344.521 69.4364 328.569 81.7328C325.088 84.3189 322.036 87.4376 319.526 90.974C317.192 94.4979 315.845 98.5824 315.624 102.803C315.339 106.734 315.502 110.789 314.266 114.582C313.605 116.515 312.542 118.285 311.148 119.778C309.754 121.271 308.061 122.453 306.178 123.245C301.539 125.342 296.422 125.647 291.409 125.771C285.842 125.909 280.058 125.964 274.996 128.585C274.382 128.903 273.925 127.932 274.538 127.615C283.346 123.055 293.638 126.03 302.896 123.316C307.215 122.05 311.179 119.474 312.914 115.165C314.43 111.396 314.265 107.215 314.52 103.232C314.675 99.1117 315.837 95.0919 317.904 91.5238C320.226 87.8711 323.153 84.64 326.558 81.9691C334.13 75.8335 342.62 70.9266 351.716 67.4281C362.075 63.3777 373.051 61.1291 384.169 60.7796C384.857 60.7583 384.758 61.8268 384.074 61.8481V61.8481Z" fill="white"/>
<path d="M333.472 77.4711C331.772 74.5147 331.178 71.0504 331.797 67.6969C332.416 64.3433 334.207 61.3189 336.85 59.1637C337.386 58.7294 338.086 59.5423 337.549 59.9772C335.084 61.9795 333.416 64.797 332.847 67.921C332.277 71.045 332.843 74.2697 334.442 77.0132C334.789 77.6099 333.817 78.0642 333.472 77.4711V77.4711Z" fill="white"/>
<path d="M315.505 100.791C322.22 102.667 329.394 101.944 335.599 98.7663C336.214 98.4509 336.671 99.4211 336.057 99.7361C329.594 103.031 322.126 103.768 315.143 101.8C314.478 101.612 314.844 100.604 315.505 100.791Z" fill="white"/>
<path d="M362.024 64.7988C362.444 66.0797 363.175 67.2364 364.152 68.1651C365.128 69.0937 366.321 69.7652 367.621 70.1192C368.289 70.2987 367.922 71.307 367.259 71.1287C365.824 70.7309 364.508 69.9877 363.427 68.9641C362.345 67.9405 361.531 66.6676 361.055 65.2566C360.998 65.1274 360.994 64.9817 361.041 64.8491C361.089 64.7165 361.185 64.607 361.31 64.5428C361.439 64.4828 361.586 64.4761 361.72 64.524C361.854 64.5719 361.963 64.6707 362.024 64.7988H362.024Z" fill="white"/>
<path d="M401.343 141.961C400.923 141.861 400.503 141.76 400.076 141.666C394.423 140.348 388.672 139.491 382.88 139.103C382.433 139.066 381.979 139.035 381.532 139.011C367.568 138.227 353.579 140.042 340.278 144.364C334.987 146.089 329.834 148.214 324.865 150.72C318.003 154.182 310.838 158.481 303.451 159.446C302.681 159.555 301.906 159.617 301.128 159.63L273.797 130.874C273.768 130.777 273.732 130.687 273.702 130.59L272.559 129.491C272.806 129.344 273.065 129.197 273.313 129.05C273.456 128.964 273.605 128.884 273.748 128.798C273.845 128.743 273.943 128.688 274.028 128.633C274.06 128.614 274.092 128.596 274.118 128.584C274.203 128.528 274.287 128.486 274.366 128.436C275.814 127.609 277.271 126.79 278.737 125.98C278.743 125.974 278.743 125.974 278.756 125.974C289.938 119.831 301.731 114.567 313.948 111.261C314.315 111.161 314.689 111.055 315.069 110.969C320.584 109.509 326.209 108.503 331.888 107.959C334.999 107.672 338.122 107.542 341.246 107.57C349.317 107.658 357.325 109.016 364.974 111.592C380.223 116.73 393.658 126.688 400.807 140.872C400.99 141.235 401.167 141.592 401.343 141.961Z" fill="url(#paint1_linear_318_256)" fill-opacity="0.4"/>
<path d="M400.916 142.243C384.462 130.627 364.766 124.49 344.626 124.704C340.289 124.673 335.975 125.326 331.841 126.638C327.856 128.047 324.321 130.497 321.603 133.734C319.008 136.701 316.698 140.037 313.427 142.321C311.735 143.466 309.821 144.24 307.809 144.593C305.797 144.946 303.733 144.87 301.753 144.369C296.786 143.25 292.518 140.413 288.44 137.494C283.912 134.253 279.261 130.815 273.641 129.86C272.96 129.744 273.179 128.694 273.859 128.81C283.637 130.471 290.064 139.043 299.089 142.45C303.301 144.039 308.017 144.369 311.996 141.972C315.476 139.877 317.862 136.439 320.463 133.412C323.068 130.215 326.417 127.705 330.216 126.101C334.269 124.582 338.551 123.764 342.878 123.682C352.618 123.342 362.351 124.535 371.72 127.218C382.43 130.22 392.548 135.033 401.635 141.447C402.197 141.844 401.475 142.638 400.917 142.243L400.916 142.243Z" fill="white"/>
<path d="M351.107 124.253C351.53 120.869 353.142 117.746 355.655 115.441C358.168 113.136 361.419 111.799 364.827 111.669C365.517 111.645 365.586 112.716 364.896 112.74C361.722 112.854 358.694 114.1 356.358 116.251C354.022 118.403 352.532 121.318 352.157 124.471C352.075 125.157 351.025 124.934 351.107 124.253H351.107Z" fill="white"/>
<path d="M322.721 132.056C326.952 137.597 333.116 141.339 339.984 142.537C340.664 142.655 340.445 143.705 339.765 143.587C332.621 142.327 326.214 138.419 321.824 132.644C321.406 132.093 322.305 131.508 322.721 132.056V132.056Z" fill="white"/>
<path d="M381.534 131.324C381.098 132.599 380.985 133.963 381.206 135.292C381.427 136.622 381.974 137.876 382.8 138.942C383.225 139.487 382.325 140.071 381.903 139.53C380.997 138.348 380.393 136.963 380.146 135.494C379.899 134.026 380.015 132.519 380.484 131.106C380.517 130.969 380.601 130.85 380.719 130.772C380.837 130.695 380.98 130.666 381.119 130.69C381.257 130.72 381.379 130.803 381.457 130.922C381.535 131.04 381.563 131.185 381.534 131.324V131.324Z" fill="white"/>
<path d="M310.393 91.5983H308.275V33.5796C308.275 29.1699 307.407 24.8033 305.719 20.7293C304.031 16.6552 301.558 12.9534 298.439 9.83525C295.321 6.71709 291.619 4.24364 287.545 2.55611C283.47 0.868572 279.104 2.37731e-06 274.694 0H151.766C147.356 -9.50886e-06 142.989 0.868542 138.915 2.55607C134.841 4.24359 131.139 6.71703 128.02 9.83518C124.902 12.9533 122.428 16.6551 120.741 20.7292C119.053 24.8032 118.185 29.1698 118.185 33.5795V351.874C118.185 360.78 121.723 369.321 128.02 375.619C134.318 381.916 142.86 385.454 151.766 385.454H274.693C283.6 385.454 292.141 381.916 298.439 375.619C304.737 369.322 308.275 360.78 308.275 351.875V132.897H310.393V91.5983Z" fill="#3F3D56"/>
<path d="M276.048 8.73623H260.002C260.74 10.5453 261.021 12.508 260.822 14.4515C260.623 16.395 259.948 18.2597 258.859 19.8813C257.769 21.5029 256.297 22.8315 254.573 23.7503C252.848 24.669 250.924 25.1496 248.971 25.1498H178.547C176.593 25.1496 174.669 24.669 172.945 23.7503C171.221 22.8315 169.749 21.5029 168.659 19.8813C167.569 18.2597 166.895 16.3951 166.695 14.4515C166.496 12.508 166.778 10.5452 167.516 8.73621H152.529C145.877 8.7362 139.499 11.3782 134.795 16.081C130.092 20.7839 127.45 27.1623 127.45 33.8131V351.641C127.45 354.934 128.099 358.195 129.359 361.237C130.619 364.28 132.467 367.044 134.795 369.373C137.124 371.702 139.889 373.549 142.931 374.809C145.974 376.069 149.235 376.718 152.529 376.718H276.048C279.341 376.718 282.602 376.069 285.645 374.809C288.688 373.549 291.452 371.702 293.781 369.373C296.11 367.044 297.957 364.28 299.217 361.238C300.478 358.195 301.126 354.934 301.126 351.641V33.813C301.126 27.1623 298.484 20.7839 293.781 16.081C289.078 11.3782 282.699 8.73623 276.048 8.73623Z" fill="white"/>
<path d="M216.661 274.619C207.566 274.628 198.557 272.843 190.152 269.366C181.747 265.889 174.11 260.789 167.679 254.358C161.247 247.927 156.147 240.29 152.67 231.886C149.193 223.481 147.408 214.473 147.416 205.378C147.403 192.606 150.928 180.081 157.6 169.19C164.272 158.3 173.83 149.47 185.214 143.68C193.467 139.482 202.476 136.977 211.711 136.315C220.946 135.652 230.22 136.844 238.987 139.821C254.514 145.112 267.659 155.742 276.08 169.818C284.501 183.894 287.652 200.502 284.972 216.684C282.292 232.866 273.955 247.572 261.445 258.182C248.935 268.791 233.065 274.616 216.661 274.619L216.661 274.619ZM216.661 138.852C206.156 138.821 195.797 141.306 186.449 146.098C178.278 150.261 171.056 156.068 165.236 163.154C159.416 170.241 155.124 178.454 152.629 187.278C150.134 196.102 149.491 205.346 150.739 214.431C151.987 223.515 155.1 232.244 159.882 240.068C164.664 247.892 171.012 254.644 178.527 259.898C186.043 265.153 194.563 268.797 203.554 270.602C212.545 272.407 221.812 272.334 230.773 270.388C239.735 268.442 248.197 264.664 255.629 259.292C259.222 256.699 262.545 253.751 265.546 250.492C274.326 240.994 280.145 229.142 282.29 216.387C284.436 203.632 282.816 190.529 277.628 178.681C272.44 166.833 263.909 156.755 253.081 149.681C242.252 142.607 229.596 138.843 216.661 138.852Z" fill="url(#paint2_linear_318_256)" fill-opacity="0.4"/>
<path d="M66.6174 143.929C68.5181 144.167 70.3434 144.819 71.9648 145.839C73.5862 146.859 74.9642 148.222 76.0017 149.832C77.0393 151.442 77.7112 153.26 77.97 155.158C78.2289 157.056 78.0685 158.988 77.5001 160.817L100.507 179.98L92.271 196.801L60.1611 169.283C57.1513 168.124 54.671 165.902 53.1903 163.037C51.7096 160.172 51.3313 156.863 52.1271 153.738C52.9229 150.613 54.8376 147.888 57.5082 146.08C60.1789 144.272 63.42 143.507 66.6174 143.929L66.6174 143.929Z" fill="#FFB6B6"/>
<path d="M281.49 223.842C281.029 218.883 279.121 209.967 277.503 206.67C272.527 193.647 240.377 182.944 236.06 181.564L234.965 169.391L190.295 164.584L184.628 180.152L168.607 186.162C167.519 186.568 166.535 187.209 165.724 188.04C164.913 188.871 164.297 189.871 163.918 190.969L149.544 195.123L135.36 199.223L86.0828 164.503L83.7562 166.024L68.2057 176.17L65.8066 177.736L129.576 235.265L153.264 229.708L171.078 225.517L172.598 231.69L168.661 253.376C180.068 264.787 195.168 271.761 211.252 273.046C227.336 274.332 243.351 269.845 256.426 260.391L266.546 251.412C273.599 243.786 278.805 234.642 281.762 224.684L281.49 223.842Z" fill="#2042B8"/>
<path d="M226.664 154.628C243.527 149.045 252.671 130.85 247.088 113.989C241.505 97.1268 223.309 87.9833 206.446 93.5661C189.583 99.1489 180.439 117.344 186.022 134.206C191.605 151.068 209.801 160.211 226.664 154.628Z" fill="#FFB6B6"/>
<path d="M191.151 87.4331C194.278 82.968 198.97 79.8426 204.296 78.6781C209.561 77.5951 215.041 78.6003 219.579 81.4813C224.514 79.4935 229.835 78.1747 235.063 78.8451C240.291 79.5156 245.414 82.4354 247.833 87.2457C248.342 88.4919 248.959 89.6908 249.678 90.8288C251.809 93.6719 255.77 94.0407 259.267 94.1773C257.499 95.2086 255.73 96.2398 253.961 97.271C255.724 98.0923 257.487 98.9136 259.25 99.735C256.851 100.651 254.452 101.566 252.053 102.482C257.636 107.39 258.987 116.124 256.872 123.447C254.871 130.38 250.282 136.217 245.157 141.213C244.158 137.485 245.257 133.443 245.99 129.583C246.763 125.504 246.887 120.735 244.031 117.856C242.105 115.914 239.279 115.327 236.614 114.855C223.173 112.478 209.608 110.868 195.984 110.031C194.161 109.78 192.304 109.969 190.569 110.584C187.253 112.058 185.921 116.103 184.961 119.691C184.5 113.394 184.868 107.064 186.054 100.863C186.963 96.1167 188.395 91.3664 191.151 87.4331Z" fill="#2F2E41"/>
<path d="M232.954 307.242H194.937C193.617 307.242 192.351 306.718 191.417 305.784C190.483 304.85 189.959 303.584 189.959 302.264C189.959 300.944 190.483 299.677 191.417 298.744C192.351 297.81 193.617 297.286 194.937 297.286H232.954C234.275 297.286 235.541 297.81 236.475 298.744C237.408 299.677 237.933 300.944 237.933 302.264C237.933 303.584 237.408 304.85 236.475 305.784C235.541 306.718 234.275 307.242 232.954 307.242Z" fill="url(#paint3_linear_318_256)"/>
<path d="M108.206 40.8436H3.63717C2.67356 40.8421 1.74992 40.4582 1.06909 39.7763C0.388255 39.0945 0.00585938 38.1703 0.00585938 37.2068C0.00585938 36.2432 0.388255 35.319 1.06909 34.6372C1.74992 33.9553 2.67356 33.5715 3.63717 33.5699H108.206C109.171 33.5699 110.096 33.9531 110.778 34.6351C111.46 35.3172 111.843 36.2422 111.843 37.2068C111.843 38.1713 111.46 39.0963 110.778 39.7784C110.096 40.4604 109.171 40.8436 108.206 40.8436Z" fill="url(#paint4_linear_318_256)"/>
<path d="M168.581 64.0717H3.6368C2.67226 64.0717 1.74722 63.6885 1.06519 63.0065C0.383158 62.3245 0 61.3995 0 60.4351C0 59.4706 0.383158 58.5456 1.06519 57.8636C1.74722 57.1816 2.67226 56.7985 3.6368 56.7985H168.581C169.545 56.7985 170.47 57.1816 171.152 57.8636C171.835 58.5456 172.218 59.4706 172.218 60.4351C172.218 61.3995 171.835 62.3245 171.152 63.0065C170.47 63.6885 169.545 64.0717 168.581 64.0717Z" fill="url(#paint5_linear_318_256)"/>
<path d="M136.884 85.9549H3.6368C2.67226 85.9549 1.74722 85.5717 1.06519 84.8897C0.383159 84.2077 0 83.2828 0 82.3183C0 81.3538 0.383159 80.4288 1.06519 79.7468C1.74722 79.0648 2.67226 78.6817 3.6368 78.6817H136.884C137.848 78.6817 138.773 79.0648 139.455 79.7468C140.138 80.4288 140.521 81.3538 140.521 82.3183C140.521 83.2828 140.138 84.2077 139.455 84.8897C138.773 85.5717 137.848 85.9549 136.884 85.9549Z" fill="url(#paint6_linear_318_256)" fill-opacity="0.4"/>
<path d="M78.7739 107.758H3.6368C2.67226 107.758 1.74722 107.375 1.06519 106.693C0.383158 106.011 0 105.086 0 104.121C0 103.157 0.383158 102.232 1.06519 101.55C1.74722 100.868 2.67226 100.484 3.6368 100.484H78.7739C79.7384 100.484 80.6634 100.868 81.3455 101.55C82.0275 102.232 82.4107 103.157 82.4107 104.121C82.4107 105.086 82.0275 106.011 81.3455 106.693C80.6634 107.375 79.7384 107.758 78.7739 107.758Z" fill="url(#paint7_linear_318_256)" fill-opacity="0.4"/>
<path d="M120.281 129.559H3.63692C2.67337 129.557 1.74983 129.173 1.06903 128.492C0.38824 127.81 0.00585938 126.886 0.00585938 125.922C0.00585938 124.959 0.38824 124.034 1.06903 123.353C1.74983 122.671 2.67337 122.287 3.63692 122.285H120.281C121.245 122.287 122.169 122.671 122.849 123.353C123.53 124.034 123.912 124.959 123.912 125.922C123.912 126.886 123.53 127.81 122.849 128.492C122.169 129.173 121.245 129.557 120.281 129.559Z" fill="url(#paint8_linear_318_256)" fill-opacity="0.4"/>
<path d="M449.018 485.348L439.645 485.347L435.187 449.198L449.019 449.199L449.018 485.348Z" fill="#9F616A"/>
<path d="M452.705 498.318L416.923 498.316V497.864C416.923 494.17 418.391 490.628 421.002 488.016C423.614 485.405 427.157 483.937 430.85 483.937H430.851L437.387 478.979L449.582 483.938L452.706 483.938L452.705 498.318Z" fill="#2F2E41"/>
<path d="M443.557 315.457L439.423 265.061L436.176 246.145L454.357 242.13L460.39 268.027L455.134 316.856C456.194 318.155 456.841 319.741 456.993 321.411C457.145 323.081 456.794 324.758 455.985 326.227C455.176 327.696 453.946 328.89 452.454 329.655C450.962 330.42 449.275 330.721 447.61 330.52C445.945 330.319 444.378 329.624 443.111 328.526C441.844 327.428 440.934 325.976 440.498 324.357C440.062 322.737 440.121 321.025 440.666 319.439C441.211 317.853 442.218 316.466 443.557 315.457H443.557Z" fill="#9F616A"/>
<path d="M399.233 485.348L389.861 485.347L385.402 449.198L399.235 449.199L399.233 485.348Z" fill="#9F616A"/>
<path d="M384.235 326.882L380.08 334.068C380.08 334.068 375.515 335.315 377.007 350.196C378.499 365.077 378.563 453.243 385.785 464.092L387.092 473.409L400.73 474.712L401.074 466.446L417.335 351.601C417.335 351.601 426.913 464.342 434.836 467.101L437.697 476.493L450.196 476.499L449.458 465.43L450.264 325.717L384.235 326.882Z" fill="#2F2E41"/>
<path d="M379.666 333.521L379.379 333.447C387.955 301.373 385.481 259.84 379.426 215.241L379.426 215.057L401.316 195.008H420.324L439.168 207.168C451.351 213.258 454.119 226.156 454.146 226.286L454.164 226.378L446.7 252.431L452.323 327.776L452.33 327.863L452.298 327.944C450.478 332.558 445.601 331.901 439.954 331.14C434.318 330.38 413.545 337.33 407.176 337.33C394.729 337.33 380.556 333.749 379.666 333.521Z" fill="#FF6600"/>
<path d="M435.222 217.322L443.388 213.77L454.147 226.96L462.868 269.227L432.997 264.702L435.222 217.322Z" fill="#FF6600"/>
<path d="M309.621 295.263L346.951 261.153L359.925 247.009L374.227 258.93L357.437 279.55L315.6 305.274C315.221 306.908 314.363 308.391 313.135 309.533C311.907 310.675 310.365 311.423 308.708 311.683C307.052 311.942 305.355 311.7 303.837 310.988C302.319 310.276 301.048 309.126 300.188 307.686C299.329 306.246 298.919 304.583 299.012 302.908C299.105 301.234 299.697 299.626 300.711 298.29C301.725 296.955 303.115 295.953 304.703 295.413C306.291 294.874 308.004 294.822 309.621 295.263L309.621 295.263Z" fill="#9F616A"/>
<path d="M346.139 261.524L356.478 248.098C356.563 247.906 365.142 228.738 372.577 220.41C380.204 211.866 386.209 216.235 386.269 216.283L386.418 216.395L386.833 247.944L358.205 282.15L346.139 261.524Z" fill="#FF6600"/>
<path d="M426.135 176.123C427.676 166.624 421.225 157.674 411.726 156.133C402.227 154.592 393.276 161.042 391.735 170.541C390.193 180.04 396.644 188.99 406.143 190.531C415.643 192.073 424.593 185.622 426.135 176.123Z" fill="#9F616A"/>
<path d="M393.004 170.746C393.004 170.746 392.865 164.62 392.09 161.91C391.316 159.199 389.767 156.876 390.541 156.876C391.316 156.876 391.703 154.94 391.703 154.94C391.703 154.94 392.477 154.553 392.865 154.94C393.252 155.327 393.639 152.23 393.639 152.23C393.639 152.23 394.026 151.068 394.413 151.842C394.801 152.617 394.801 152.23 395.188 151.068C395.575 149.906 397.511 149.132 397.511 149.132C397.511 149.132 404.869 149.519 406.03 147.97C407.192 146.422 420.358 147.583 423.068 149.519C425.779 151.455 437.783 158.425 435.847 164.233C433.91 170.041 428.337 183.414 426.94 184.755C424.732 186.875 423.203 187.639 412.753 189.719C410.707 190.125 400.268 183.45 400.268 182.288C400.268 181.127 401.527 177.443 399.504 176.937C396.446 176.173 396.102 180.038 395.327 178.877C394.553 177.715 393.004 170.746 393.004 170.746Z" fill="#2F2E41"/>
<path d="M402.921 498.318L367.139 498.316V497.864C367.139 494.17 368.606 490.628 371.218 488.016C373.83 485.405 377.372 483.937 381.066 483.937H381.067L387.603 478.979L399.798 483.938L402.921 483.938L402.921 498.318Z" fill="#2F2E41"/>
<path d="M588.922 499H3.01233C2.72649 499 2.45237 498.886 2.25025 498.684C2.04813 498.482 1.93457 498.208 1.93457 497.922C1.93457 497.636 2.04813 497.362 2.25025 497.16C2.45237 496.958 2.72649 496.845 3.01233 496.845H588.922C589.208 496.845 589.482 496.958 589.684 497.16C589.886 497.362 590 497.636 590 497.922C590 498.208 589.886 498.482 589.684 498.684C589.482 498.886 589.208 499 588.922 499Z" fill="#CACACA"/>
</g>
<defs>
<linearGradient id="paint0_linear_318_256" x1="264.385" y1="55.3963" x2="323.061" y2="151.455" gradientUnits="userSpaceOnUse">
<stop stop-color="#FF6600"/>
<stop offset="1" stop-color="#2042B8"/>
</linearGradient>
<linearGradient id="paint1_linear_318_256" x1="261.444" y1="107.591" x2="284.99" y2="180.938" gradientUnits="userSpaceOnUse">
<stop stop-color="#FF6600"/>
<stop offset="1" stop-color="#2042B8"/>
</linearGradient>
<linearGradient id="paint2_linear_318_256" x1="135.464" y1="136.203" x2="240.265" y2="268.186" gradientUnits="userSpaceOnUse">
<stop stop-color="#FF6600"/>
<stop offset="1" stop-color="#2042B8"/>
</linearGradient>
<linearGradient id="paint3_linear_318_256" x1="185.819" y1="297.291" x2="188.301" y2="312.353" gradientUnits="userSpaceOnUse">
<stop stop-color="#FF6600"/>
<stop offset="1" stop-color="#2042B8"/>
</linearGradient>
<linearGradient id="paint4_linear_318_256" x1="-9.64585" y1="33.5734" x2="-9.06367" y2="44.8464" gradientUnits="userSpaceOnUse">
<stop stop-color="#FF6600"/>
<stop offset="1" stop-color="#2042B8"/>
</linearGradient>
<linearGradient id="paint5_linear_318_256" x1="-14.8626" y1="56.8019" x2="-14.484" y2="68.0916" gradientUnits="userSpaceOnUse">
<stop stop-color="#FF6600"/>
<stop offset="1" stop-color="#2042B8"/>
</linearGradient>
<linearGradient id="paint6_linear_318_256" x1="-12.1271" y1="78.6851" x2="-11.6634" y2="89.9685" gradientUnits="userSpaceOnUse">
<stop stop-color="#FF6600"/>
<stop offset="1" stop-color="#2042B8"/>
</linearGradient>
<linearGradient id="paint7_linear_318_256" x1="-7.11214" y1="100.488" x2="-6.32393" y2="111.735" gradientUnits="userSpaceOnUse">
<stop stop-color="#FF6600"/>
<stop offset="1" stop-color="#2042B8"/>
</linearGradient>
<linearGradient id="paint8_linear_318_256" x1="-10.6874" y1="122.289" x2="-10.1618" y2="133.567" gradientUnits="userSpaceOnUse">
<stop stop-color="#FF6600"/>
<stop offset="1" stop-color="#2042B8"/>
</linearGradient>
<clipPath id="clip0_318_256">
<rect width="590" height="499" fill="white"/>
</clipPath>
</defs>
</svg>
