<svg width="79" height="67" viewBox="0 0 79 67" fill="none" xmlns="http://www.w3.org/2000/svg">
<path fill-rule="evenodd" clip-rule="evenodd" d="M39.7826 15.7386C43.3471 15.7386 46.2239 18.6776 46.2239 22.2789C46.2239 24.3793 45.2483 26.2566 43.7247 27.454C44.8342 27.8782 45.8594 28.4772 46.769 29.2143C47.3998 28.6906 48.1012 28.2557 48.8567 27.9264C47.821 26.9698 47.1636 25.5861 47.1636 24.0524C47.1636 21.1603 49.4673 18.8128 52.3249 18.8128C55.1825 18.8128 57.4861 21.1603 57.4861 24.0524C57.4861 25.5818 56.8387 26.9634 55.8021 27.9204C58.7691 29.1175 60.1569 30.9394 60.2928 33.0795L60.2935 33.0912V33.4933C60.2935 35.1565 58.9802 36.6826 57.3674 36.9956C57.2486 37.0187 57.1512 37.0378 57.0833 37.051L56.9774 37.0718L56.9425 37.0787H50.9536C50.9855 37.4274 51.0031 37.783 51.0031 38.1393V38.7136C51.0031 41.3946 48.8657 43.5732 46.2159 43.5732H33.3328C30.683 43.5732 28.5456 41.3946 28.5456 38.7136V38.1393C28.5456 37.783 28.5631 37.4274 28.5952 37.0787H21.8627C20.0819 37.0787 18.6975 35.5254 18.8951 33.7508C19.0969 31.3819 20.6778 29.164 23.6928 27.9137C22.6597 26.9573 22.0043 25.5753 22.0043 24.0439C22.0043 21.1519 24.3079 18.8044 27.1656 18.8044C30.0232 18.8044 32.3269 21.1519 32.3269 24.0439C32.3269 25.5772 31.676 26.9619 30.6349 27.9192C31.4049 28.2552 32.1196 28.6985 32.7561 29.2366C33.6753 28.4854 34.7151 27.8783 35.84 27.4518C34.323 26.2548 33.3414 24.3789 33.3414 22.2789C33.3414 18.6689 36.2185 15.7386 39.7826 15.7386ZM44.1798 22.2789C44.1798 19.8166 42.2112 17.8232 39.7993 17.8232C37.3873 17.8232 35.4188 19.8166 35.4188 22.2789C35.4188 24.6511 37.2513 26.5887 39.5357 26.7261H40.0628C42.3472 26.5887 44.1798 24.6511 44.1798 22.2789ZM55.4503 24.0356C55.4503 22.2911 54.0553 20.8804 52.3499 20.8804C50.6444 20.8804 49.2493 22.2911 49.2493 24.0356C49.2493 25.7545 50.6125 27.1509 52.2881 27.1906H52.413C54.0867 27.1588 55.4503 25.7641 55.4503 24.0356ZM30.2661 24.0356C30.2661 22.2911 28.871 20.8804 27.1656 20.8804C25.4602 20.8804 24.0651 22.2911 24.0651 24.0356C24.0651 25.7545 25.428 27.1509 27.1035 27.1906H27.2287C28.9102 27.1588 30.2661 25.7646 30.2661 24.0356ZM48.959 38.1393C48.959 33.0962 45.0007 28.9766 40.0834 28.8195C39.9824 28.8275 39.8786 28.8275 39.7978 28.8275H39.7842C39.7034 28.8275 39.5996 28.8275 39.4985 28.8195C34.5812 28.9766 30.623 33.0962 30.623 38.1393V38.7136C30.623 40.247 31.8518 41.4887 33.3495 41.4887H46.2325C47.7301 41.4887 48.959 40.247 48.959 38.7136V38.1393ZM57.7762 32.0833C56.5593 30.3926 54.602 29.291 52.3986 29.2751H52.3009C50.7964 29.2827 49.4103 29.8035 48.2951 30.6663C49.3436 31.9023 50.139 33.3737 50.5935 34.9857H55.6389C56.5375 34.9857 57.3291 34.5709 57.7596 34.0019C58.1771 33.45 58.2608 32.7564 57.7762 32.0833ZM31.2648 30.6985C30.1415 29.8146 28.7383 29.2903 27.2137 29.2751H27.1169C24.6008 29.2932 22.2491 30.8931 21.0343 33.1146C20.748 33.6381 20.8406 34.1464 21.1567 34.5371C21.4822 34.9392 22.0519 35.218 22.7004 35.1971L28.9862 34.9946C29.4391 33.3879 30.2224 31.9337 31.2648 30.6985Z" fill="url(#paint0_linear_239_234)"/>
<path d="M61.7306 9.39865L61.2138 9.91712C61.0711 10.0603 61.0711 10.2924 61.2138 10.4356L61.7306 10.9541C61.8734 11.0972 62.1048 11.0972 62.2475 10.9541L62.7643 10.4356C62.907 10.2924 62.907 10.0603 62.7643 9.91712L62.2475 9.39865C62.1048 9.25547 61.8734 9.25547 61.7306 9.39865Z" fill="#8A8A8A" fill-opacity="0.55"/>
<path d="M51.8633 11.5983L51.3465 12.1168C51.2038 12.2599 51.2038 12.4921 51.3465 12.6352L51.8633 13.1537C52.006 13.2969 52.2374 13.2969 52.3802 13.1537L52.897 12.6352C53.0397 12.4921 53.0397 12.2599 52.897 12.1168L52.3802 11.5983C52.2374 11.4551 52.006 11.4551 51.8633 11.5983Z" fill="#8A8A8A" fill-opacity="0.55"/>
<path d="M39.6483 -6.55523e-06L39.0281 0.622162L39.6483 1.24433L40.2685 0.622162L39.6483 -6.55523e-06Z" fill="#8A8A8A" fill-opacity="0.55"/>
<path d="M39.0727 11.9648L38.5559 12.4833C38.4132 12.6265 38.4132 12.8586 38.5559 13.0018L39.0727 13.5202C39.2154 13.6634 39.4468 13.6634 39.5895 13.5202L40.1064 13.0018C40.2491 12.8586 40.2491 12.6265 40.1064 12.4833L39.5895 11.9648C39.4468 11.8216 39.2154 11.8216 39.0727 11.9648Z" fill="#8A8A8A" fill-opacity="0.55"/>
<path d="M26.2815 12.3314L25.7646 12.8499C25.6219 12.9931 25.6219 13.2252 25.7646 13.3684L26.2815 13.8869C26.4242 14.03 26.6556 14.03 26.7983 13.8869L27.3151 13.3684C27.4579 13.2252 27.4579 12.9931 27.3151 12.8499L26.7983 12.3314C26.6556 12.1883 26.4242 12.1883 26.2815 12.3314Z" fill="#8A8A8A" fill-opacity="0.55"/>
<path d="M16.7796 9.03201L16.2628 9.55049C16.12 9.69366 16.12 9.92579 16.2627 10.069L16.7796 10.5874C16.9223 10.7306 17.1537 10.7306 17.2964 10.5874L17.8133 10.069C17.956 9.92579 17.956 9.69366 17.8133 9.55049L17.2964 9.03201C17.1537 8.88884 16.9223 8.88884 16.7796 9.03201Z" fill="#8A8A8A" fill-opacity="0.55"/>
<path d="M9.83603 30.2957L9.31919 30.8141C9.17647 30.9573 9.17647 31.1894 9.31919 31.3326L9.83603 31.8511C9.97875 31.9942 10.2101 31.9942 10.3529 31.8511L10.8697 31.3326C11.0124 31.1894 11.0124 30.9573 10.8697 30.8141L10.3529 30.2957C10.2101 30.1525 9.97875 30.1525 9.83603 30.2957Z" fill="#8A8A8A" fill-opacity="0.55"/>
<path d="M16.0487 44.5938L15.5319 45.1123C15.3891 45.2554 15.3891 45.4876 15.5319 45.6307L16.0487 46.1492C16.1914 46.2924 16.4228 46.2924 16.5655 46.1492L17.0824 45.6307C17.2251 45.4876 17.2251 45.2554 17.0824 45.1123L16.5655 44.5938C16.4228 44.4506 16.1914 44.4506 16.0487 44.5938Z" fill="#8A8A8A" fill-opacity="0.55"/>
<path d="M25.5506 42.3941L25.0337 42.9126C24.891 43.0558 24.891 43.2879 25.0337 43.4311L25.5506 43.9496C25.6933 44.0927 25.9247 44.0927 26.0674 43.9496L26.5843 43.4311C26.727 43.2879 26.727 43.0558 26.5843 42.9126L26.0674 42.3941C25.9247 42.251 25.6933 42.251 25.5506 42.3941Z" fill="#8A8A8A" fill-opacity="0.55"/>
<path d="M67.5782 29.5625L67.0614 30.081C66.9186 30.2241 66.9186 30.4563 67.0614 30.5994L67.5782 31.1179C67.7209 31.2611 67.9523 31.2611 68.095 31.1179L68.6119 30.5994C68.7546 30.4563 68.7546 30.2241 68.6119 30.081L68.095 29.5625C67.9523 29.4193 67.7209 29.4193 67.5782 29.5625Z" fill="#8A8A8A" fill-opacity="0.55"/>
<path d="M61.3653 44.5938L60.8485 45.1123C60.7058 45.2554 60.7058 45.4876 60.8485 45.6307L61.3653 46.1492C61.5081 46.2924 61.7395 46.2924 61.8822 46.1492L62.399 45.6307C62.5417 45.4876 62.5417 45.2554 62.399 45.1123L61.8822 44.5938C61.7395 44.4506 61.5081 44.4506 61.3653 44.5938Z" fill="#8A8A8A" fill-opacity="0.55"/>
<path d="M41.2652 56.3252L40.7483 56.8437C40.6056 56.9869 40.6056 57.219 40.7483 57.3622L41.2652 57.8806C41.4079 58.0238 41.6393 58.0238 41.782 57.8806L42.2988 57.3622C42.4415 57.219 42.4415 56.9869 42.2988 56.8437L41.782 56.3252C41.6393 56.1821 41.4079 56.1821 41.2652 56.3252Z" fill="#8A8A8A" fill-opacity="0.55"/>
<path d="M52.5943 42.3941L52.0775 42.9126C51.9348 43.0558 51.9348 43.2879 52.0775 43.4311L52.5943 43.9496C52.737 44.0927 52.9684 44.0927 53.1111 43.9496L53.628 43.4311C53.7707 43.2879 53.7707 43.0558 53.628 42.9126L53.1111 42.3941C52.9684 42.251 52.737 42.251 52.5943 42.3941Z" fill="#8A8A8A" fill-opacity="0.55"/>
<path fill-rule="evenodd" clip-rule="evenodd" d="M39.4203 0.707245C39.3596 0.707245 39.2989 0.707445 39.2383 0.707863C39.2036 0.7081 39.1694 0.710765 39.1361 0.715687C38.7723 0.764466 38.4953 1.08071 38.503 1.45749C38.5082 1.70573 38.6357 1.92262 38.8266 2.05135C38.9592 2.23636 39.1757 2.35684 39.4203 2.35684C39.6648 2.35684 39.8813 2.23638 40.014 2.0514C40.2049 1.92267 40.3324 1.70577 40.3375 1.45749C40.3452 1.08065 40.0682 0.764375 39.7044 0.715669C39.671 0.710756 39.6369 0.7081 39.6023 0.707863C39.5417 0.707445 39.481 0.707245 39.4203 0.707245ZM37.0542 1.99865C37.1373 1.86319 37.1773 1.69971 37.1575 1.52942C37.1107 1.1272 36.7477 0.839253 36.3467 0.886257C36.2265 0.900349 36.1064 0.915259 35.9867 0.930988C35.5946 0.982477 35.316 1.33687 35.3541 1.72883C35.2375 1.91906 35.2086 2.16017 35.297 2.38374C35.4458 2.76018 35.8706 2.94434 36.2458 2.79507C36.3526 2.75258 36.4598 2.71221 36.5674 2.67398C36.8619 2.56927 37.0477 2.29451 37.0542 1.99865ZM42.4939 0.886257C42.093 0.839253 41.73 1.1272 41.6831 1.52942C41.6632 1.69972 41.7032 1.8632 41.7865 1.99867C41.7928 2.29452 41.9787 2.56927 42.2732 2.67398C42.3807 2.71221 42.4879 2.75258 42.5947 2.79507C42.97 2.94434 43.3948 2.76018 43.5436 2.38374C43.632 2.16016 43.6031 1.91905 43.4865 1.72882C43.5246 1.33686 43.246 0.982477 42.8538 0.930988C42.7341 0.915259 42.6141 0.900349 42.4939 0.886257ZM33.5768 2.86335C33.9154 2.73278 34.1123 2.36682 34.0234 2.00419C33.9271 1.61094 33.5312 1.3705 33.1392 1.46716C33.022 1.49605 32.9051 1.52574 32.7886 1.5562C32.398 1.6583 32.1638 2.05875 32.2656 2.45061C32.3483 2.76869 32.6267 2.98336 32.9377 2.99832C32.8404 3.07078 32.7436 3.14478 32.6475 3.22029C32.3297 3.46993 32.2737 3.93079 32.5226 4.24964C32.7715 4.56849 33.2309 4.62458 33.5486 4.37493C33.641 4.3024 33.7338 4.23156 33.8269 4.16244C34.1516 3.92168 34.2201 3.46254 33.9801 3.13693C33.8767 2.99668 33.733 2.90408 33.5768 2.86335ZM45.7013 1.46717C45.3093 1.3705 44.9135 1.61094 44.8171 2.00419C44.7282 2.36682 44.9252 2.73278 45.2637 2.86335C45.1076 2.90408 44.9638 2.99668 44.8604 3.13693C44.6205 3.46254 44.689 3.92168 45.0136 4.16244C45.1068 4.23156 45.1996 4.3024 45.2919 4.37493C45.6097 4.62458 46.0691 4.56848 46.318 4.24964C46.5668 3.93079 46.511 3.46993 46.1931 3.22029C46.097 3.14478 46.0002 3.07078 45.9029 2.99832C46.2138 2.98336 46.4924 2.76869 46.575 2.45062C46.6767 2.05875 46.4426 1.6583 46.0519 1.5562C45.9354 1.52574 45.8185 1.49605 45.7013 1.46717ZM30.552 3.81357C30.929 3.6687 31.1175 3.24472 30.973 2.86656C30.8287 2.4884 30.406 2.29927 30.029 2.44413C29.9161 2.48753 29.8035 2.53169 29.6913 2.57661C29.3164 2.72668 29.1337 3.15324 29.2833 3.52936C29.433 3.90548 29.8582 4.08873 30.2331 3.93865C30.339 3.89624 30.4454 3.85454 30.552 3.81357ZM48.8115 2.44413C48.4345 2.29927 48.0119 2.4884 47.8675 2.86656C47.7231 3.24472 47.9116 3.6687 48.2886 3.81357C48.3953 3.85455 48.5015 3.89624 48.6075 3.93865C48.9824 4.08873 49.4076 3.90548 49.5573 3.52936C49.7068 3.15324 49.5242 2.72668 49.1492 2.57661C49.037 2.53169 48.9245 2.48753 48.8115 2.44413ZM27.7515 5.09478C28.1077 4.90429 28.2426 4.46018 28.0527 4.10283C27.8628 3.74547 27.4201 3.6102 27.0639 3.80068C26.9574 3.85765 26.8513 3.91533 26.7456 3.9737C26.392 4.16906 26.2632 4.61498 26.4579 4.9697C26.6527 5.32441 27.0973 5.4536 27.4508 5.25824C27.5507 5.20308 27.6509 5.14859 27.7515 5.09478ZM51.7767 3.80068C51.4204 3.6102 50.9777 3.74547 50.7878 4.10283C50.598 4.46018 50.7328 4.9043 51.089 5.09478C51.1897 5.14859 51.2899 5.20308 51.3897 5.25824C51.7434 5.4536 52.1878 5.32441 52.3826 4.9697C52.5773 4.61498 52.4485 4.16906 52.095 3.9737C51.9893 3.91533 51.8832 3.85765 51.7767 3.80068ZM25.1287 6.71207C25.459 6.47933 25.5387 6.02201 25.3067 5.69062C25.0747 5.35924 24.6189 5.27926 24.2885 5.512C24.1897 5.58162 24.0914 5.65191 23.9935 5.72284C23.6664 5.96004 23.5928 6.4184 23.8292 6.74661C24.0657 7.07482 24.5226 7.1486 24.8498 6.9114C24.9423 6.84433 25.0352 6.77789 25.1287 6.71207ZM54.5521 5.512C54.2217 5.27926 53.7659 5.35924 53.5338 5.69062C53.3018 6.02202 53.3816 6.47933 53.7119 6.71207C53.8053 6.77789 53.8983 6.84434 53.9908 6.9114C54.318 7.1486 54.7748 7.07482 55.0113 6.74661C55.2477 6.4184 55.1742 5.96004 54.8471 5.72284C54.7492 5.65191 54.6509 5.58162 54.5521 5.512ZM22.7203 8.63793C23.0201 8.36683 23.0442 7.90319 22.7739 7.60237C22.5037 7.30154 22.0416 7.27743 21.7417 7.54852C21.652 7.62958 21.5629 7.71123 21.4743 7.79349C21.1781 8.06859 21.1602 8.53249 21.4345 8.82969C21.7087 9.12681 22.1711 9.14473 22.4673 8.86963C22.5511 8.79185 22.6355 8.71462 22.7203 8.63793ZM57.0989 7.54852C56.799 7.27744 56.3368 7.30155 56.0667 7.60237C55.7965 7.9032 55.8205 8.36683 56.1203 8.63793C56.2052 8.71462 56.2894 8.79185 56.3732 8.86963C56.6695 9.14473 57.1319 9.12681 57.4062 8.82969C57.6803 8.53249 57.6625 8.06859 57.3663 7.7935C57.2777 7.71123 57.1885 7.62958 57.0989 7.54852ZM20.5597 10.841C20.8251 10.5359 20.7936 10.0726 20.4894 9.80645C20.1851 9.54027 19.7235 9.57193 19.4581 9.87704C19.3788 9.96829 19.3001 10.06 19.222 10.1522C18.9607 10.4609 18.9983 10.9237 19.3061 11.1858C19.6138 11.4478 20.075 11.4101 20.3364 11.1014C20.4103 11.0141 20.4847 10.9273 20.5597 10.841ZM59.3825 9.87704C59.1172 9.57193 58.6554 9.54027 58.3513 9.80645C58.047 10.0726 58.0155 10.5359 58.2808 10.841C58.3559 10.9273 58.4303 11.0141 58.5042 11.1014C58.7655 11.4101 59.2267 11.4478 59.5345 11.1858C59.8422 10.9237 59.8798 10.461 59.6186 10.1522C59.5405 10.06 59.4618 9.96829 59.3825 9.87704ZM17.0972 15.9418C17.2831 15.5823 17.1434 15.1397 16.785 14.9532C16.4267 14.7667 15.9855 14.9069 15.7996 15.2664C15.7441 15.3737 15.6893 15.4815 15.6352 15.5896C15.454 15.9515 15.5996 16.3922 15.9603 16.5739C16.3211 16.7556 16.7604 16.6096 16.9415 16.2477C16.9928 16.1453 17.0447 16.0433 17.0972 15.9418ZM63.0409 15.2664C62.855 14.9069 62.4139 14.7667 62.0555 14.9532C61.6972 15.1397 61.5575 15.5823 61.7434 15.9418C61.7959 16.0433 61.8478 16.1453 61.8991 16.2477C62.0802 16.6096 62.5195 16.7556 62.8802 16.5739C63.241 16.3922 63.3865 15.9515 63.2054 15.5897C63.1513 15.4815 63.0964 15.3737 63.0409 15.2664ZM15.8434 18.7654C15.9854 18.3864 15.7943 17.9635 15.4164 17.8211C15.0385 17.6786 14.6171 17.8704 14.475 18.2495C14.4326 18.3629 14.3908 18.4766 14.3497 18.5908C14.2127 18.9717 14.4095 19.3919 14.7892 19.5293C15.1689 19.6668 15.5878 19.4694 15.7248 19.0885C15.7637 18.9804 15.8032 18.8728 15.8434 18.7654ZM64.3656 18.2495C64.2235 17.8704 63.802 17.6786 63.4242 17.8211C63.0463 17.9635 62.8551 18.3864 62.9971 18.7654C63.0374 18.8728 63.0769 18.9804 63.1158 19.0885C63.2528 19.4694 63.6716 19.6668 64.0513 19.5293C64.4311 19.3919 64.6278 18.9717 64.4909 18.5908C64.4498 18.4766 64.408 18.3629 64.3656 18.2495ZM14.9325 21.719C15.0287 21.3257 14.7889 20.9286 14.3968 20.8321C14.0048 20.7356 13.609 20.9762 13.5128 21.3695C13.4841 21.4867 13.4562 21.6042 13.429 21.722C13.3379 22.1165 13.5829 22.5104 13.9762 22.6018C14.3695 22.6931 14.7621 22.4473 14.8531 22.0528C14.8789 21.9412 14.9053 21.83 14.9325 21.719ZM65.3278 21.3695C65.2316 20.9762 64.8357 20.7356 64.4437 20.8321C64.0517 20.9286 63.8118 21.3257 63.9081 21.719C63.9353 21.83 63.9616 21.9412 63.9874 22.0528C64.0784 22.4473 64.4711 22.6931 64.8644 22.6018C65.2576 22.5105 65.5026 22.1165 65.4116 21.722C65.3844 21.6042 65.3564 21.4868 65.3278 21.3695ZM14.3761 24.7594C14.4255 24.3575 14.1407 23.9915 13.7401 23.942C13.3395 23.8925 12.9746 24.1781 12.9252 24.58C12.9105 24.7001 12.8965 24.8205 12.8832 24.941C12.8391 25.3436 13.1285 25.7058 13.5298 25.7501C13.931 25.7944 14.2921 25.504 14.3363 25.1015C14.3488 24.9872 14.3621 24.8732 14.3761 24.7594ZM65.9153 24.58C65.8659 24.1781 65.5011 23.8925 65.1004 23.9421C64.6998 23.9916 64.4151 24.3575 64.4645 24.7594C64.4785 24.8732 64.4918 24.9872 64.5043 25.1015C64.5485 25.504 64.9096 25.7944 65.3107 25.7501C65.712 25.7058 66.0015 25.3436 65.9573 24.941C65.9441 24.8205 65.9301 24.7001 65.9153 24.58ZM14.3363 30.9388C14.2921 30.5364 13.931 30.2459 13.5298 30.2903C13.1285 30.3346 12.8391 30.6967 12.8832 31.0993C12.8965 31.2198 12.9105 31.3402 12.9252 31.4604C12.9746 31.8623 13.3395 32.1478 13.7401 32.0983C14.1407 32.0488 14.4255 31.6828 14.3761 31.2809C14.3621 31.1671 14.3488 31.0531 14.3363 30.9388ZM65.9573 31.0993C66.0015 30.6967 65.712 30.3346 65.3107 30.2903C64.9096 30.2459 64.5485 30.5364 64.5043 30.9388C64.4918 31.0531 64.4785 31.1671 64.4645 31.2809C64.4151 31.6828 64.6998 32.0488 65.1004 32.0983C65.5011 32.1478 65.8659 31.8623 65.9153 31.4604C65.9301 31.3402 65.9441 31.2199 65.9573 31.0993ZM14.8531 33.9875C14.7621 33.593 14.3695 33.3473 13.9762 33.4386C13.5829 33.5299 13.3379 33.9238 13.429 34.3183C13.4562 34.4361 13.4841 34.5536 13.5128 34.6708C13.609 35.0641 14.0048 35.3047 14.3968 35.2082C14.7889 35.1117 15.0287 34.7146 14.9325 34.3213C14.9053 34.2103 14.8789 34.0991 14.8531 33.9875ZM65.4116 34.3183C65.5026 33.9238 65.2576 33.5299 64.8644 33.4386C64.4711 33.3473 64.0784 33.593 63.9874 33.9875C63.9616 34.0991 63.9353 34.2103 63.9081 34.3213C63.8118 34.7146 64.0517 35.1117 64.4437 35.2082C64.8357 35.3047 65.2316 35.0641 65.3278 34.6708C65.3564 34.5536 65.3844 34.4361 65.4116 34.3183ZM15.7248 36.9518C15.5878 36.5709 15.1689 36.3735 14.7892 36.511C14.4095 36.6484 14.2127 37.0686 14.3497 37.4495C14.3908 37.5637 14.4326 37.6774 14.475 37.7908C14.6171 38.1699 15.0385 38.3617 15.4164 38.2192C15.7942 38.0768 15.9854 37.6539 15.8434 37.2749C15.8032 37.1676 15.7637 37.0599 15.7248 36.9518ZM64.4908 37.4495C64.6278 37.0686 64.4311 36.6484 64.0513 36.511C63.6716 36.3735 63.2528 36.5709 63.1158 36.9518C63.0769 37.0599 63.0374 37.1676 62.9971 37.2749C62.8551 37.6539 63.0463 38.0768 63.4242 38.2192C63.802 38.3617 64.2235 38.1699 64.3656 37.7908C64.408 37.6774 64.4498 37.5637 64.4908 37.4495ZM16.9415 39.7927C16.7604 39.4307 16.3211 39.2847 15.9603 39.4664C15.5996 39.6481 15.454 40.0889 15.6352 40.4507C15.6893 40.5589 15.7441 40.6666 15.7996 40.774C15.9855 41.1334 16.4267 41.2736 16.785 41.0871C17.1434 40.9006 17.2831 40.458 17.0972 40.0985C17.0447 39.997 16.9928 39.895 16.9415 39.7927ZM63.2054 40.4507C63.3865 40.0889 63.241 39.6481 62.8802 39.4664C62.5195 39.2847 62.0802 39.4308 61.8991 39.7927C61.8478 39.895 61.7959 39.997 61.7434 40.0986C61.5575 40.458 61.6972 40.9006 62.0555 41.0871C62.4139 41.2736 62.855 41.1334 63.0409 40.774C63.0964 40.6666 63.1513 40.5589 63.2054 40.4507ZM18.4856 42.4671C18.2628 42.1294 17.8094 42.0368 17.4727 42.2602C17.1361 42.4838 17.0437 42.9387 17.2665 43.2764C17.2937 43.3177 17.3211 43.3589 17.3485 43.3999C17.4215 43.6024 17.5808 43.7634 17.7819 43.8383C17.9188 43.8976 18.072 43.9142 18.2197 43.8838C18.5626 43.7846 18.8206 43.5553 18.8206 43.1506C18.8206 43.0517 18.5626 42.5015 18.4862 42.4679L18.4856 42.4671ZM59.6186 45.8881C59.8798 45.5794 59.8422 45.1166 59.5345 44.8546C59.2267 44.5925 58.7655 44.6302 58.5042 44.9389C58.4303 45.0262 58.3559 45.113 58.2808 45.1993C58.0155 45.5045 58.047 45.9677 58.3512 46.2339C58.6554 46.5 59.1172 46.4685 59.3825 46.1633C59.4618 46.0721 59.5405 45.9803 59.6186 45.8881ZM22.4673 47.1707C22.1711 46.8956 21.7087 46.9135 21.4345 47.2106C21.1602 47.5078 21.1781 47.9718 21.4743 48.2469C21.5629 48.3291 21.652 48.4108 21.7417 48.4918C22.0415 48.7628 22.5037 48.7387 22.7739 48.438C23.0442 48.1371 23.0201 47.6735 22.7203 47.4024C22.6355 47.3258 22.5511 47.2485 22.4673 47.1707ZM57.3663 48.2469C57.6625 47.9718 57.6803 47.5078 57.4061 47.2106C57.1319 46.9135 56.6695 46.8956 56.3732 47.1707C56.2894 47.2485 56.2052 47.3258 56.1203 47.4024C55.8205 47.6735 55.7965 48.1371 56.0666 48.438C56.3368 48.7388 56.799 48.7628 57.0989 48.4918C57.1885 48.4108 57.2777 48.3291 57.3663 48.2469ZM24.8498 49.1289C24.5226 48.8918 24.0657 48.9655 23.8292 49.2938C23.5928 49.6219 23.6664 50.0803 23.9935 50.3174C24.0914 50.3884 24.1897 50.4587 24.2885 50.5283C24.6189 50.761 25.0747 50.6811 25.3067 50.3497C25.5387 50.0183 25.459 49.561 25.1287 49.3282C25.0352 49.2625 24.9423 49.196 24.8498 49.1289ZM54.847 50.3174C55.1742 50.0803 55.2477 49.6219 55.0113 49.2938C54.7748 48.9655 54.318 48.8918 53.9908 49.1289C53.8983 49.196 53.8053 49.2625 53.7119 49.3282C53.3816 49.561 53.3018 50.0183 53.5338 50.3497C53.7659 50.6811 54.2217 50.761 54.5521 50.5283C54.6509 50.4587 54.7492 50.3884 54.847 50.3174ZM27.4508 50.782C27.0973 50.5867 26.6527 50.7159 26.4579 51.0706C26.2632 51.4253 26.392 51.8712 26.7456 52.0666C26.8513 52.125 26.9574 52.1827 27.0639 52.2397C27.4201 52.4302 27.8628 52.2949 28.0527 51.9375C28.2426 51.5801 28.1077 51.136 27.7515 50.9455C27.6509 50.8918 27.5507 50.8373 27.4508 50.782ZM52.095 52.0666C52.4485 51.8712 52.5773 51.4254 52.3826 51.0706C52.1878 50.7159 51.7434 50.5867 51.3897 50.782C51.2899 50.8373 51.1897 50.8918 51.089 50.9455C50.7328 51.136 50.598 51.5801 50.7878 51.9375C50.9777 52.2949 51.4204 52.4302 51.7767 52.2397C51.8832 52.1827 51.9893 52.125 52.095 52.0666ZM30.2331 52.1017C29.8582 51.9516 29.433 52.1349 29.2833 52.5109C29.1337 52.8871 29.3164 53.3137 29.6913 53.4637C29.8035 53.5086 29.9161 53.5528 30.029 53.5962C30.406 53.7411 30.8287 53.5519 30.973 53.1738C31.1175 52.7956 30.929 52.3716 30.552 52.2267C30.4454 52.1858 30.339 52.1441 30.2331 52.1017ZM49.1492 53.4637C49.5242 53.3137 49.7068 52.8871 49.5573 52.5109C49.4076 52.1349 48.9824 51.9516 48.6075 52.1017C48.5015 52.1441 48.3953 52.1858 48.2886 52.2267C47.9116 52.3716 47.7231 52.7956 47.8675 53.1738C48.0119 53.5519 48.4345 53.7411 48.8115 53.5962C48.9245 53.5528 49.037 53.5086 49.1492 53.4637ZM32.9377 53.042C32.6267 53.0569 32.3483 53.2716 32.2656 53.5897C32.1638 53.9816 32.398 54.382 32.7886 54.4841C32.9051 54.5146 33.022 54.5442 33.1392 54.5732C33.5312 54.6698 33.9271 54.4294 34.0234 54.0362C34.1123 53.6735 33.9154 53.3076 33.5768 53.1769C33.733 53.1363 33.8767 53.0437 33.9801 52.9034C34.2201 52.5778 34.1516 52.1187 33.8269 51.8779C33.7338 51.8087 33.641 51.738 33.5486 51.6654C33.2309 51.4157 32.7715 51.4719 32.5226 51.7907C32.2737 52.1096 32.3297 52.5703 32.6475 52.8201C32.7436 52.8956 32.8404 52.9695 32.9377 53.042ZM46.0519 54.4841C46.4426 54.382 46.6767 53.9816 46.575 53.5897C46.4924 53.2716 46.1877 53.0777 45.8768 53.0628L45.2637 53.1769C44.9252 53.3076 44.7282 53.6735 44.8171 54.0362C44.9135 54.4294 45.3093 54.6698 45.7013 54.5732C45.8185 54.5442 45.9354 54.5146 46.0519 54.4841ZM35.3736 54.4165C35.3736 54.2332 35.4637 54.143 35.5564 54.0499C35.649 53.9569 35.9218 53.8666 35.9218 53.8666C35.9218 53.8666 36.5453 53.8284 36.6527 53.8666C36.8354 53.8666 37.005 53.9617 37.0542 54.0417C37.1373 54.1772 37.1773 54.3406 37.1575 54.5109C37.1107 54.9131 36.7477 55.201 36.3467 55.1541C36.2264 55.14 36.1064 55.1251 35.9867 55.1093C35.5946 55.0579 35.3736 54.8103 35.3736 54.4165ZM43.4865 54.3115C43.5246 54.7034 43.246 55.0579 42.8538 55.1093C42.7341 55.1251 42.6141 55.14 42.4939 55.1541C42.093 55.201 41.7691 54.7831 41.7691 54.5998C41.7493 54.4295 41.7691 54.3252 41.7691 54.2332C41.7691 54.0499 42.0278 53.9091 42.1346 53.8666C42.5098 53.7174 42.6562 53.6833 42.6828 53.6833C43.231 53.6833 43.4137 54.0499 43.4865 54.3115ZM48.4388 5.37514C48.1735 5.06995 47.7117 5.03832 47.4075 5.30448C47.1033 5.57065 47.0717 6.03383 47.3371 6.33902C47.4147 6.42834 47.4919 6.51898 47.5686 6.6109C47.8278 6.9214 48.2888 6.96236 48.5983 6.70239C48.9078 6.44244 48.9486 5.97998 48.6894 5.66949C48.6066 5.5701 48.5229 5.47198 48.4388 5.37514ZM31.5035 6.33902C31.7689 6.03383 31.7373 5.57065 31.4331 5.30449C31.1288 5.03832 30.6672 5.06995 30.4018 5.37514C30.3177 5.47198 30.2341 5.5701 30.1511 5.66949C29.8919 5.97998 29.9328 6.44244 30.2423 6.70239C30.5518 6.96236 31.0128 6.9214 31.2719 6.6109C31.3487 6.51898 31.4258 6.42834 31.5035 6.33902ZM29.597 8.94568C29.8102 8.60181 29.7051 8.14971 29.3623 7.93586C29.0196 7.722 28.5689 7.82741 28.3557 8.17129C28.2886 8.27939 28.2222 8.38844 28.1563 8.49843C27.9485 8.84552 28.0605 9.29601 28.4064 9.50452C28.7525 9.71311 29.2016 9.60076 29.4094 9.25362C29.4714 9.15 29.534 9.04739 29.597 8.94568ZM50.485 8.17129C50.2718 7.82741 49.8211 7.722 49.4783 7.93586C49.1354 8.14971 49.0304 8.60181 49.2436 8.94568C49.3065 9.04739 49.3691 9.15 49.4311 9.25362C49.6391 9.60076 50.088 9.71311 50.4341 9.50452C50.7801 9.29601 50.8921 8.84552 50.6843 8.49844C50.6184 8.38844 50.552 8.27939 50.485 8.17129ZM53.7282 14.7647C53.5988 14.3811 53.1841 14.1753 52.8016 14.305C52.4192 14.4347 52.214 14.8508 52.3433 15.2344C52.3821 15.3493 52.4203 15.4648 52.458 15.5809C52.5832 15.9659 52.9958 16.1761 53.3796 16.0506C53.7633 15.925 53.973 15.5111 53.8478 15.1261C53.8084 15.0051 53.7685 14.8846 53.7282 14.7647ZM29.4094 46.7867C29.2016 46.4395 28.7525 46.3272 28.4064 46.5358C28.0605 46.7443 27.9485 47.1948 28.1563 47.5419C28.2222 47.6519 28.2886 47.7609 28.3557 47.8691C28.5689 48.2129 29.0196 48.3184 29.3623 48.1045C29.7051 47.8906 29.8102 47.4385 29.597 47.0946C29.534 46.9929 29.4714 46.8903 29.4094 46.7867ZM50.6843 47.5419C50.8921 47.1948 50.7801 46.7443 50.4341 46.5358C50.088 46.3272 49.6391 46.4395 49.4311 46.7867C49.3691 46.8903 49.3065 46.9929 49.2436 47.0946C49.0304 47.4385 49.1354 47.8906 49.4783 48.1045C49.8211 48.3184 50.2718 48.2129 50.485 47.8691C50.552 47.7609 50.6184 47.6519 50.6843 47.5419ZM31.2719 49.4294C31.0128 49.1189 30.5518 49.078 30.2423 49.338C29.9328 49.5979 29.8919 50.0604 30.1511 50.3708C30.2341 50.4702 30.3177 50.5683 30.4018 50.6652C30.6672 50.9703 31.1288 51.002 31.4331 50.7358C31.7373 50.4696 31.7689 50.0065 31.5035 49.7013C31.4258 49.612 31.3487 49.5214 31.2719 49.4294ZM48.6894 50.3708C48.9486 50.0604 48.9078 49.5979 48.5983 49.338C48.2888 49.078 47.8278 49.1189 47.5686 49.4294C47.4919 49.5214 47.4147 49.612 47.3371 49.7013C47.0717 50.0065 47.1033 50.4696 47.4075 50.7358C47.7117 51.002 48.1735 50.9703 48.4388 50.6651C48.5229 50.5683 48.6066 50.4702 48.6894 50.3708ZM20.6797 12.8915C20.6797 12.4865 21.007 12.1582 21.4106 12.1582H21.7708C22.1745 12.1582 22.5017 12.4865 22.5017 12.8915C22.5017 13.2965 22.1745 13.6247 21.7708 13.6247H21.4106C21.007 13.6247 20.6797 13.2965 20.6797 12.8915ZM30.4049 12.8915C30.4049 12.4865 30.7322 12.1582 31.1358 12.1582H31.496C31.8997 12.1582 32.2269 12.4865 32.2269 12.8915C32.2269 13.2965 31.8997 13.6247 31.496 13.6247H31.1358C30.7322 13.6247 30.4049 13.2965 30.4049 12.8915ZM33.6467 12.8915C33.6467 12.4865 33.9739 12.1582 34.3776 12.1582H34.7378C35.1415 12.1582 35.4687 12.4865 35.4687 12.8915C35.4687 13.2965 35.1415 13.6247 34.7378 13.6247H34.3776C33.9739 13.6247 33.6467 13.2965 33.6467 12.8915ZM43.3719 12.8915C43.3719 12.4865 43.6991 12.1582 44.1028 12.1582H44.463C44.8667 12.1582 45.1939 12.4865 45.1939 12.8915C45.1939 13.2965 44.8667 13.6247 44.463 13.6247H44.1028C43.6991 13.6247 43.3719 13.2965 43.3719 12.8915ZM46.6136 12.8915C46.6136 12.4865 46.9409 12.1582 47.3445 12.1582H47.7047C48.1084 12.1582 48.4356 12.4865 48.4356 12.8915C48.4356 13.2965 48.1084 13.6247 47.7047 13.6247H47.3445C46.9409 13.6247 46.6136 13.2965 46.6136 12.8915ZM15.7817 27.6997C15.7817 27.2947 16.109 26.9665 16.5127 26.9665H16.8734C17.2771 26.9665 17.6043 27.2947 17.6043 27.6997C17.6043 28.1046 17.2771 28.4329 16.8734 28.4329H16.5127C16.109 28.4329 15.7817 28.1046 15.7817 27.6997ZM61.2363 27.6997C61.2363 27.2947 61.5635 26.9665 61.9672 26.9665H62.3279C62.7316 26.9665 63.0588 27.2947 63.0588 27.6997C63.0588 28.1046 62.7316 28.4329 62.3279 28.4329H61.9672C61.5635 28.4329 61.2363 28.1046 61.2363 27.6997ZM20.4123 43.1506C20.4123 42.7457 20.7395 42.4174 21.1432 42.4174H21.5087C21.9124 42.4174 22.2396 42.7457 22.2396 43.1506C22.2396 43.5556 21.9124 43.8838 21.5087 43.8838H21.1432C20.7395 43.8838 20.4123 43.5556 20.4123 43.1506ZM56.601 43.1506C56.601 42.7457 56.9282 42.4174 57.3319 42.4174H57.6974C58.1011 42.4174 58.4283 42.7457 58.4283 43.1506C58.4283 43.5556 58.1011 43.8838 57.6974 43.8838H57.3319C56.9282 43.8838 56.601 43.5556 56.601 43.1506ZM40.1512 4.55364C40.1512 4.14869 39.824 3.82042 39.4203 3.82042C39.0166 3.82042 38.6894 4.14869 38.6894 4.55364V4.9199C38.6894 5.32486 39.0166 5.65313 39.4203 5.65313C39.824 5.65313 40.1512 5.32486 40.1512 4.9199V4.55364ZM40.1512 7.84995C40.1512 7.44499 39.824 7.11671 39.4203 7.11671C39.0166 7.11671 38.6894 7.44499 38.6894 7.84995V8.21621C38.6894 8.62119 39.0166 8.94941 39.4203 8.94941C39.824 8.94941 40.1512 8.62119 40.1512 8.21621V7.84995ZM40.1512 47.4056C40.1512 47.0006 39.824 46.6723 39.4203 46.6723C39.0166 46.6723 38.6894 47.0006 38.6894 47.4056V47.7718C38.6894 48.1767 39.0166 48.505 39.4203 48.505C39.824 48.505 40.1512 48.1767 40.1512 47.7718V47.4056ZM40.1512 50.7018C40.1512 50.2969 39.824 49.9686 39.4203 49.9686C39.0166 49.9686 38.6894 50.2969 38.6894 50.7018V51.0681C38.6894 51.4731 39.0166 51.8014 39.4203 51.8014C39.824 51.8014 40.1512 51.4731 40.1512 51.0681V50.7018Z" fill="#8A8A8A" fill-opacity="0.55"/>
<path d="M24.5656 15.5041C24.6949 15.1204 25.1097 14.9146 25.4921 15.0443C25.8745 15.174 26.0797 15.5901 25.9505 15.9737C25.9117 16.0886 25.8735 16.2042 25.8358 16.3202C25.7106 16.7052 25.2979 16.9155 24.9142 16.7898C24.5304 16.6643 24.3208 16.2504 24.446 15.8654C24.4853 15.7444 24.5252 15.624 24.5656 15.5041Z" fill="#8A8A8A" fill-opacity="0.55"/>
<g clip-path="url(#clip0_239_234)">
<circle cx="66.6949" cy="47.9613" r="2.57592" fill="white"/>
<path d="M66.6949 45.3752C66.1834 45.3752 65.6834 45.5268 65.2581 45.811C64.8328 46.0952 64.5014 46.4991 64.3056 46.9716C64.1099 47.4442 64.0587 47.9642 64.1585 48.4658C64.2582 48.9675 64.5046 49.4283 64.8662 49.79C65.2279 50.1517 65.6887 50.398 66.1904 50.4978C66.692 50.5975 67.212 50.5463 67.6846 50.3506C68.1571 50.1548 68.561 49.8234 68.8452 49.3981C69.1294 48.9728 69.2811 48.4728 69.2811 47.9613C69.2811 47.2754 69.0086 46.6176 68.5236 46.1326C68.0386 45.6476 67.3808 45.3752 66.6949 45.3752ZM66.6949 50.0772C66.2764 50.0772 65.8673 49.9531 65.5194 49.7206C65.1714 49.4881 64.9002 49.1577 64.74 48.771C64.5799 48.3844 64.538 47.959 64.6196 47.5485C64.7013 47.138 64.9028 46.761 65.1987 46.4651C65.4946 46.1692 65.8717 45.9677 66.2821 45.886C66.6926 45.8044 67.118 45.8463 67.5046 46.0064C67.8913 46.1666 68.2217 46.4378 68.4543 46.7857C68.6868 47.1337 68.8109 47.5428 68.8109 47.9613C68.8109 48.5225 68.5879 49.0607 68.1911 49.4575C67.7943 49.8543 67.2561 50.0772 66.6949 50.0772ZM67.1651 46.7858V46.5507C67.1651 46.4883 67.1404 46.4285 67.0963 46.3844C67.0522 46.3403 66.9924 46.3156 66.93 46.3156C66.8677 46.3156 66.8079 46.3403 66.7638 46.3844C66.7197 46.4285 66.6949 46.4883 66.6949 46.5507V46.7858H66.4598V46.5507C66.4598 46.4883 66.435 46.4285 66.3909 46.3844C66.3469 46.3403 66.2871 46.3156 66.2247 46.3156C66.1624 46.3156 66.1026 46.3403 66.0585 46.3844C66.0144 46.4285 65.9896 46.4883 65.9896 46.5507V46.7858H65.7545C65.6921 46.7858 65.6323 46.8105 65.5883 46.8546C65.5442 46.8987 65.5194 46.9585 65.5194 47.0209C65.5194 47.0832 65.5442 47.143 65.5883 47.1871C65.6323 47.2312 65.6921 47.256 65.7545 47.256H65.9896V48.6666H65.7545C65.6921 48.6666 65.6323 48.6914 65.5883 48.7355C65.5442 48.7796 65.5194 48.8394 65.5194 48.9017C65.5194 48.9641 65.5442 49.0239 65.5883 49.068C65.6323 49.1121 65.6921 49.1368 65.7545 49.1368H65.9896V49.3719C65.9896 49.4343 66.0144 49.4941 66.0585 49.5382C66.1026 49.5823 66.1624 49.607 66.2247 49.607C66.2871 49.607 66.3469 49.5823 66.3909 49.5382C66.435 49.4941 66.4598 49.4343 66.4598 49.3719V49.1368H66.6949V49.3719C66.6949 49.4343 66.7197 49.4941 66.7638 49.5382C66.8079 49.5823 66.8677 49.607 66.93 49.607C66.9924 49.607 67.0522 49.5823 67.0963 49.5382C67.1404 49.4941 67.1651 49.4343 67.1651 49.3719V49.1368C67.3522 49.1368 67.5316 49.0625 67.6639 48.9302C67.7961 48.798 67.8704 48.6186 67.8704 48.4315C67.87 48.2578 67.8056 48.0904 67.6894 47.9613C67.8056 47.8322 67.87 47.6648 67.8704 47.4911C67.8704 47.304 67.7961 47.1246 67.6639 46.9924C67.5316 46.8601 67.3522 46.7858 67.1651 46.7858ZM67.1651 48.6666H66.4598V48.1964H67.1651C67.2275 48.1964 67.2873 48.2212 67.3314 48.2653C67.3755 48.3094 67.4002 48.3692 67.4002 48.4315C67.4002 48.4939 67.3755 48.5537 67.3314 48.5978C67.2873 48.6418 67.2275 48.6666 67.1651 48.6666ZM67.1651 47.7262H66.4598V47.256H67.1651C67.2275 47.256 67.2873 47.2808 67.3314 47.3248C67.3755 47.3689 67.4002 47.4287 67.4002 47.4911C67.4002 47.5534 67.3755 47.6132 67.3314 47.6573C67.2873 47.7014 67.2275 47.7262 67.1651 47.7262Z" fill="url(#paint1_linear_239_234)"/>
</g>
<g clip-path="url(#clip1_239_234)">
<path d="M68.2083 8.62496H69.375C69.4523 8.62496 69.5265 8.59423 69.5812 8.53953C69.6359 8.48483 69.6667 8.41065 69.6667 8.33329C69.6667 8.25594 69.6359 8.18175 69.5812 8.12705C69.5265 8.07236 69.4523 8.04163 69.375 8.04163H68.7917V7.74996C68.7917 7.6726 68.7609 7.59842 68.7062 7.54372C68.6515 7.48902 68.5773 7.45829 68.5 7.45829C68.4226 7.45829 68.3485 7.48902 68.2938 7.54372C68.2391 7.59842 68.2083 7.6726 68.2083 7.74996V8.04163C67.9763 8.04163 67.7537 8.13381 67.5896 8.29791C67.4255 8.462 67.3333 8.68456 67.3333 8.91663C67.3333 9.14869 67.4255 9.37125 67.5896 9.53534C67.7537 9.69944 67.9763 9.79163 68.2083 9.79163H68.7917C68.869 9.79163 68.9432 9.82236 68.9979 9.87705C69.0526 9.93175 69.0833 10.0059 69.0833 10.0833C69.0833 10.1606 69.0526 10.2348 68.9979 10.2895C68.9432 10.3442 68.869 10.375 68.7917 10.375H67.625C67.5476 10.375 67.4734 10.4057 67.4188 10.4604C67.3641 10.5151 67.3333 10.5893 67.3333 10.6666C67.3333 10.744 67.3641 10.8182 67.4188 10.8729C67.4734 10.9276 67.5476 10.9583 67.625 10.9583H68.2083V11.25C68.2083 11.3273 68.2391 11.4015 68.2938 11.4562C68.3485 11.5109 68.4226 11.5416 68.5 11.5416C68.5773 11.5416 68.6515 11.5109 68.7062 11.4562C68.7609 11.4015 68.7917 11.3273 68.7917 11.25V10.9583C69.0237 10.9583 69.2463 10.8661 69.4104 10.702C69.5745 10.5379 69.6667 10.3154 69.6667 10.0833C69.6667 9.85123 69.5745 9.62867 69.4104 9.46457C69.2463 9.30048 69.0237 9.20829 68.7917 9.20829H68.2083C68.131 9.20829 68.0568 9.17756 68.0021 9.12287C67.9474 9.06817 67.9167 8.99398 67.9167 8.91663C67.9167 8.83927 67.9474 8.76508 68.0021 8.71039C68.0568 8.65569 68.131 8.62496 68.2083 8.62496ZM68.5 6.29163C67.8654 6.29163 67.2451 6.47979 66.7175 6.83233C66.1899 7.18486 65.7787 7.68594 65.5359 8.27218C65.293 8.85843 65.2295 9.50352 65.3533 10.1259C65.4771 10.7482 65.7827 11.3199 66.2314 11.7686C66.6801 12.2173 67.2517 12.5229 67.8741 12.6466C68.4964 12.7704 69.1415 12.7069 69.7278 12.4641C70.314 12.2212 70.8151 11.81 71.1676 11.2824C71.5202 10.7548 71.7083 10.1345 71.7083 9.49996C71.7083 8.64906 71.3703 7.833 70.7686 7.23133C70.1669 6.62965 69.3509 6.29163 68.5 6.29163ZM68.5 12.125C67.9808 12.125 67.4733 11.971 67.0416 11.6826C66.6099 11.3941 66.2735 10.9842 66.0748 10.5045C65.8761 10.0248 65.8241 9.49705 65.9254 8.98785C66.0267 8.47865 66.2767 8.01092 66.6438 7.6438C67.0109 7.27669 67.4787 7.02668 67.9879 6.9254C68.4971 6.82411 69.0249 6.8761 69.5045 7.07478C69.9842 7.27346 70.3942 7.60991 70.6826 8.04159C70.971 8.47327 71.125 8.98078 71.125 9.49996C71.125 10.1962 70.8484 10.8638 70.3561 11.3561C69.8639 11.8484 69.1962 12.125 68.5 12.125Z" fill="url(#paint2_linear_239_234)"/>
</g>
<g clip-path="url(#clip2_239_234)">
<circle cx="11.0759" cy="46.349" r="2.44508" fill="white"/>
<path d="M11.0759 43.7629C10.5644 43.7629 10.0644 43.9146 9.63912 44.1987C9.21383 44.4829 8.88236 44.8868 8.68662 45.3593C8.49088 45.8319 8.43967 46.3519 8.53945 46.8536C8.63924 47.3552 8.88555 47.816 9.24723 48.1777C9.60891 48.5394 10.0697 48.7857 10.5714 48.8855C11.073 48.9853 11.593 48.9341 12.0656 48.7383C12.5381 48.5426 12.942 48.2111 13.2262 47.7858C13.5104 47.3605 13.6621 46.8605 13.6621 46.349C13.6621 45.6631 13.3896 45.0053 12.9046 44.5203C12.4196 44.0353 11.7618 43.7629 11.0759 43.7629ZM11.0759 48.465C10.6574 48.465 10.2483 48.3409 9.90036 48.1084C9.55239 47.8759 9.28119 47.5454 9.12104 47.1588C8.96089 46.7721 8.91898 46.3467 9.00063 45.9362C9.08227 45.5258 9.2838 45.1488 9.57972 44.8528C9.87563 44.5569 10.2527 44.3554 10.6631 44.2737C11.0736 44.1921 11.499 44.234 11.8856 44.3942C12.2723 44.5543 12.6027 44.8255 12.8352 45.1735C13.0678 45.5214 13.1918 45.9305 13.1918 46.349C13.1918 46.9102 12.9689 47.4484 12.5721 47.8452C12.1753 48.242 11.6371 48.465 11.0759 48.465ZM11.2146 45.331C11.3353 45.3341 11.4537 45.365 11.5605 45.4213C11.6674 45.4775 11.7598 45.5577 11.8306 45.6555C11.8684 45.705 11.9242 45.7375 11.9859 45.7459C12.0476 45.7543 12.1101 45.7378 12.1597 45.7001C12.1844 45.6812 12.2051 45.6577 12.2206 45.6307C12.2361 45.6038 12.2461 45.574 12.2501 45.5432C12.254 45.5124 12.2518 45.4811 12.2435 45.4511C12.2353 45.4212 12.2212 45.3931 12.2021 45.3686C12.0877 45.2137 11.9391 45.0872 11.7678 44.9991C11.5965 44.9111 11.4072 44.8637 11.2146 44.8608C10.9454 44.8687 10.6851 44.9593 10.4693 45.1205C10.2535 45.2816 10.0926 45.5054 10.0085 45.7613H9.66528C9.60293 45.7613 9.54313 45.786 9.49904 45.8301C9.45495 45.8742 9.43018 45.934 9.43018 45.9964C9.43018 46.0587 9.45495 46.1185 9.49904 46.1626C9.54313 46.2067 9.60293 46.2315 9.66528 46.2315H9.90039C9.90039 46.2714 9.90039 46.3091 9.90039 46.349C9.90039 46.389 9.90039 46.4266 9.90039 46.4666H9.66528C9.60293 46.4666 9.54313 46.4913 9.49904 46.5354C9.45495 46.5795 9.43018 46.6393 9.43018 46.7017C9.43018 46.764 9.45495 46.8238 9.49904 46.8679C9.54313 46.912 9.60293 46.9368 9.66528 46.9368H10.0085C10.0926 47.1927 10.2535 47.4165 10.4693 47.5776C10.6851 47.7387 10.9454 47.8294 11.2146 47.8372C11.4072 47.8343 11.5965 47.787 11.7678 47.6989C11.9391 47.6108 12.0877 47.4844 12.2021 47.3294C12.2274 47.3059 12.2472 47.2771 12.2601 47.2451C12.273 47.2131 12.2787 47.1786 12.2767 47.1441C12.2748 47.1096 12.2653 47.076 12.2489 47.0456C12.2325 47.0152 12.2097 46.9888 12.1819 46.9683C12.1542 46.9477 12.1222 46.9335 12.0884 46.9267C12.0545 46.9199 12.0196 46.9206 11.9861 46.9289C11.9525 46.9371 11.9212 46.9526 11.8943 46.9743C11.8675 46.9959 11.8457 47.0233 11.8306 47.0543C11.7598 47.1521 11.6674 47.2323 11.5605 47.2886C11.4537 47.3448 11.3353 47.3757 11.2146 47.3788C11.0712 47.3731 10.9318 47.3291 10.8111 47.2514C10.6904 47.1737 10.5927 47.065 10.5281 46.9368H11.0759C11.1383 46.9368 11.1981 46.912 11.2422 46.8679C11.2862 46.8238 11.311 46.764 11.311 46.7017C11.311 46.6393 11.2862 46.5795 11.2422 46.5354C11.1981 46.4913 11.1383 46.4666 11.0759 46.4666H10.3824C10.3761 46.4277 10.3722 46.3884 10.3706 46.349C10.3722 46.3096 10.3761 46.2704 10.3824 46.2315H11.0759C11.1383 46.2315 11.1981 46.2067 11.2422 46.1626C11.2862 46.1185 11.311 46.0587 11.311 45.9964C11.311 45.934 11.2862 45.8742 11.2422 45.8301C11.1981 45.786 11.1383 45.7613 11.0759 45.7613H10.5281C10.5942 45.6352 10.6926 45.5289 10.8132 45.4534C10.9338 45.3778 11.0724 45.3356 11.2146 45.331Z" fill="url(#paint3_linear_239_234)"/>
</g>
<g clip-path="url(#clip3_239_234)">
<circle cx="14.3001" cy="6.85147" r="2.58615" fill="white"/>
<path d="M15.2405 7.55678H14.0227C14.0501 7.48139 14.0644 7.40188 14.065 7.32167V7.08657H14.6528C14.7151 7.08657 14.7749 7.0618 14.819 7.01771C14.8631 6.97362 14.8879 6.91382 14.8879 6.85147C14.8879 6.78911 14.8631 6.72931 14.819 6.68522C14.7749 6.64113 14.7151 6.61636 14.6528 6.61636H14.065V6.38126C14.0645 6.28048 14.0972 6.18235 14.1581 6.10203C14.2189 6.0217 14.3045 5.96367 14.4017 5.93691C14.4989 5.91014 14.6021 5.91614 14.6955 5.95396C14.7889 5.99178 14.8673 6.05933 14.9184 6.14615C14.9496 6.2004 15.0011 6.24004 15.0615 6.25636C15.1219 6.27267 15.1863 6.26432 15.2405 6.23314C15.2948 6.20197 15.3344 6.15052 15.3507 6.09011C15.3671 6.02971 15.3587 5.9653 15.3275 5.91105C15.2198 5.74202 15.0608 5.61185 14.8739 5.53953C14.6869 5.46721 14.4817 5.45652 14.2883 5.50902C14.0948 5.56151 13.9232 5.67446 13.7984 5.83137C13.6737 5.98828 13.6023 6.18094 13.5948 6.38126V6.61636H13.3597C13.2974 6.61636 13.2376 6.64113 13.1935 6.68522C13.1494 6.72931 13.1246 6.78911 13.1246 6.85147C13.1246 6.91382 13.1494 6.97362 13.1935 7.01771C13.2376 7.0618 13.2974 7.08657 13.3597 7.08657H13.5948V7.32167C13.5948 7.38403 13.57 7.44383 13.5259 7.48792C13.4819 7.53201 13.4221 7.55678 13.3597 7.55678C13.2974 7.55678 13.2376 7.58155 13.1935 7.62564C13.1494 7.66973 13.1246 7.72953 13.1246 7.79188C13.1246 7.85424 13.1494 7.91404 13.1935 7.95813C13.2376 8.00222 13.2974 8.02699 13.3597 8.02699H15.2405C15.3029 8.02699 15.3627 8.00222 15.4068 7.95813C15.4509 7.91404 15.4756 7.85424 15.4756 7.79188C15.4756 7.72953 15.4509 7.66973 15.4068 7.62564C15.3627 7.58155 15.3029 7.55678 15.2405 7.55678ZM14.3001 4.26532C13.7886 4.26532 13.2886 4.41699 12.8633 4.70116C12.438 4.98533 12.1066 5.38923 11.9108 5.86179C11.7151 6.33435 11.6639 6.85434 11.7637 7.356C11.8635 7.85766 12.1098 8.31847 12.4714 8.68015C12.8331 9.04183 13.2939 9.28813 13.7956 9.38792C14.2973 9.48771 14.8172 9.43649 15.2898 9.24075C15.7624 9.04501 16.1663 8.71354 16.4504 8.28825C16.7346 7.86296 16.8863 7.36296 16.8863 6.85147C16.8863 6.16558 16.6138 5.50778 16.1288 5.02278C15.6438 4.53779 14.986 4.26532 14.3001 4.26532ZM14.3001 8.9674C13.8816 8.9674 13.4725 8.84331 13.1246 8.6108C12.7766 8.3783 12.5054 8.04784 12.3452 7.6612C12.1851 7.27456 12.1432 6.84912 12.2248 6.43867C12.3065 6.02822 12.508 5.65119 12.8039 5.35527C13.0998 5.05935 13.4769 4.85783 13.8873 4.77619C14.2978 4.69454 14.7232 4.73644 15.1099 4.89659C15.4965 5.05674 15.827 5.32795 16.0595 5.67591C16.292 6.02388 16.4161 6.43297 16.4161 6.85147C16.4161 7.41265 16.1931 7.95085 15.7963 8.34766C15.3995 8.74448 14.8613 8.9674 14.3001 8.9674Z" fill="url(#paint4_linear_239_234)"/>
</g>
<path d="M77.9099 28.4843H77.7442V27.3243C77.7442 27.259 77.7313 27.1944 77.7063 27.1341C77.6813 27.0738 77.6447 27.0189 77.5986 26.9728C77.5524 26.9266 77.4976 26.89 77.4373 26.865C77.377 26.84 77.3123 26.8272 77.247 26.8272H76.8742L76.682 26.108C76.6478 25.9808 76.5645 25.8724 76.4505 25.8066C76.3365 25.7407 76.201 25.7228 76.0738 25.7567L75.8915 25.8064L75.6446 25.2877C75.617 25.2283 75.5779 25.1749 75.5296 25.1306C75.4813 25.0864 75.4248 25.0521 75.3632 25.0298C75.3016 25.0074 75.2361 24.9975 75.1707 25.0005C75.1052 25.0036 75.041 25.0195 74.9818 25.0475L71.1588 26.8272H70.95C70.8182 26.8272 70.6917 26.8796 70.5985 26.9728C70.5053 27.066 70.4529 27.1925 70.4529 27.3243V29.1869C70.1204 29.3385 69.8497 29.5993 69.6859 29.9259C69.5221 30.2526 69.475 30.6255 69.5524 30.9827C69.6298 31.3398 69.8271 31.6597 70.1115 31.8892C70.3959 32.1187 70.7503 32.244 71.1157 32.2442H77.247C77.3789 32.2442 77.5053 32.1919 77.5986 32.0986C77.6918 32.0054 77.7442 31.879 77.7442 31.7471V30.5871H77.9099C77.9538 30.5871 77.996 30.5697 78.027 30.5386C78.0581 30.5075 78.0756 30.4654 78.0756 30.4214V28.65C78.0756 28.606 78.0581 28.5639 78.027 28.5328C77.996 28.5017 77.9538 28.4843 77.9099 28.4843ZM75.1259 25.3358C75.1657 25.3171 75.2113 25.315 75.2526 25.3299C75.2939 25.3448 75.3276 25.3756 75.3463 25.4153L75.5651 25.8859L74.0571 26.2903C74.036 26.2959 74.0162 26.3057 73.9989 26.319C73.9815 26.3323 73.967 26.3489 73.9561 26.3678C73.9451 26.3868 73.9381 26.4076 73.9352 26.4293C73.9323 26.451 73.9338 26.473 73.9395 26.4941C73.9451 26.5152 73.9549 26.535 73.9682 26.5523C73.9815 26.5697 73.9981 26.5842 74.017 26.5951C74.0359 26.6061 74.0568 26.6132 74.0785 26.616C74.1002 26.6189 74.1222 26.6174 74.1433 26.6118L76.16 26.0715C76.2022 26.0604 76.247 26.0663 76.2849 26.088C76.3227 26.1097 76.3505 26.1455 76.3621 26.1875L76.5278 26.8206H71.9426L75.1259 25.3358ZM69.8448 30.6385C69.8444 30.3871 69.9187 30.1412 70.0581 29.9319C70.1976 29.7227 70.396 29.5595 70.6282 29.4631C70.8604 29.3666 71.116 29.3412 71.3627 29.3901C71.6093 29.4389 71.836 29.5599 72.0139 29.7375C72.1918 29.9152 72.313 30.1417 72.3622 30.3883C72.4114 30.6349 72.3863 30.8905 72.2902 31.1229C72.194 31.3552 72.0311 31.5538 71.822 31.6935C71.613 31.8333 71.3672 31.9079 71.1157 31.9079C70.7791 31.9074 70.4563 31.7736 70.2181 31.5357C69.9799 31.2978 69.8456 30.9752 69.8448 30.6385ZM77.4127 31.1356H74.3918C74.3479 31.1357 74.3058 31.1531 74.2747 31.1842C74.2436 31.2153 74.2262 31.2574 74.2262 31.3014C74.2262 31.3453 74.2436 31.3874 74.2747 31.4185C74.3058 31.4496 74.3479 31.4671 74.3918 31.4671H77.4127V31.7421C77.4127 31.7861 77.3953 31.8282 77.3642 31.8593C77.3331 31.8904 77.291 31.9079 77.247 31.9079H72.0868C72.2456 31.7874 72.38 31.6378 72.4829 31.4671H72.9386C72.9825 31.4671 73.0246 31.4496 73.0557 31.4185C73.0868 31.3874 73.1042 31.3453 73.1042 31.3014C73.1042 31.2574 73.0868 31.2153 73.0557 31.1842C73.0246 31.1531 72.9825 31.1357 72.9386 31.1356H72.637C72.7158 30.8952 72.7365 30.6396 72.6975 30.3896C72.6584 30.1397 72.5606 29.9025 72.4122 29.6976C72.2637 29.4928 72.0688 29.326 71.8435 29.211C71.6181 29.096 71.3687 29.0361 71.1157 29.0361C71.0043 29.0358 70.8932 29.0474 70.7843 29.0709V27.3243C70.7843 27.2804 70.8018 27.2382 70.8329 27.2071C70.8639 27.1761 70.9061 27.1586 70.95 27.1586H77.247C77.291 27.1586 77.3331 27.1761 77.3642 27.2071C77.3953 27.2382 77.4127 27.2804 77.4127 27.3243V28.4843H75.6993C75.5384 28.4843 75.3842 28.5482 75.2704 28.6619C75.1567 28.7757 75.0928 28.9299 75.0928 29.0908V29.9757C75.0928 30.0553 75.1085 30.1342 75.139 30.2078C75.1694 30.2814 75.2141 30.3482 75.2704 30.4045C75.3268 30.4609 75.3936 30.5055 75.4672 30.536C75.5408 30.5665 75.6196 30.5822 75.6993 30.5822H77.4127V31.1356ZM77.7442 30.2508H75.6993C75.6263 30.2508 75.5564 30.2218 75.5048 30.1702C75.4532 30.1186 75.4242 30.0486 75.4242 29.9757V29.0958C75.4236 29.0592 75.4302 29.0229 75.4437 28.989C75.4572 28.955 75.4774 28.9241 75.503 28.898C75.5286 28.8719 75.5592 28.8512 75.5929 28.8371C75.6266 28.823 75.6627 28.8157 75.6993 28.8157H77.7442V30.2508Z" fill="url(#paint5_linear_239_234)"/>
<path d="M75.9213 29.704H76.1699C76.2138 29.704 76.256 29.6866 76.287 29.6555C76.3181 29.6244 76.3356 29.5823 76.3356 29.5383C76.3356 29.4944 76.3181 29.4522 76.287 29.4212C76.256 29.3901 76.2138 29.3726 76.1699 29.3726H75.9213C75.8774 29.3726 75.8352 29.3901 75.8042 29.4212C75.7731 29.4522 75.7557 29.4944 75.7557 29.5383C75.7557 29.5823 75.7731 29.6244 75.8042 29.6555C75.8352 29.6866 75.8774 29.704 75.9213 29.704ZM73.7108 31.1358H73.4904C73.4464 31.1358 73.4043 31.1533 73.3732 31.1843C73.3421 31.2154 73.3247 31.2575 73.3247 31.3015C73.3247 31.3454 73.3421 31.3876 73.3732 31.4186C73.4043 31.4497 73.4464 31.4672 73.4904 31.4672H73.7108C73.7547 31.4672 73.7968 31.4497 73.8279 31.4186C73.859 31.3876 73.8764 31.3454 73.8764 31.3015C73.8764 31.2575 73.859 31.2154 73.8279 31.1843C73.7968 31.1533 73.7547 31.1358 73.7108 31.1358ZM71.2052 31.3744L71.2234 31.4258C71.235 31.4578 71.2562 31.4855 71.2841 31.505C71.3119 31.5246 71.3452 31.5351 71.3792 31.5351C71.3984 31.5351 71.4175 31.5318 71.4355 31.5252C71.4768 31.5102 71.5105 31.4795 71.5292 31.4397C71.5478 31.3999 71.5499 31.3544 71.535 31.3131L71.5118 31.2468C71.5782 31.2022 71.6318 31.1411 71.6675 31.0695C71.7157 30.9652 71.721 30.8462 71.6825 30.7381C71.6625 30.683 71.6318 30.6324 71.5922 30.5893C71.5527 30.5461 71.5049 30.5112 71.4518 30.4865C71.3986 30.4619 71.3412 30.448 71.2826 30.4457C71.2241 30.4433 71.1657 30.4526 71.1108 30.4729L71.0047 30.5061C70.981 30.5076 70.9574 30.5014 70.9374 30.4885C70.9174 30.4755 70.9022 30.4565 70.8938 30.4343C70.8855 30.412 70.8845 30.3876 70.891 30.3647C70.8976 30.3419 70.9113 30.3217 70.9301 30.3072L71.1389 30.231C71.1459 30.252 71.157 30.2715 71.1715 30.2882C71.1861 30.3048 71.2039 30.3184 71.2238 30.3281C71.2438 30.3378 71.2654 30.3434 71.2876 30.3445C71.3097 30.3457 71.3318 30.3424 71.3527 30.3349C71.3735 30.3274 71.3926 30.3157 71.4089 30.3007C71.4251 30.2856 71.4382 30.2675 71.4473 30.2473C71.4564 30.2271 71.4614 30.2053 71.4619 30.1831C71.4625 30.161 71.4586 30.1389 71.4505 30.1183C71.4218 30.0367 71.3623 29.9695 71.2848 29.9311C71.2453 29.9126 71.2026 29.902 71.1591 29.9C71.1156 29.898 71.0722 29.9046 71.0312 29.9195L71.0047 29.8598C70.9978 29.8388 70.9867 29.8193 70.9721 29.8027C70.9575 29.786 70.9397 29.7724 70.9198 29.7627C70.8999 29.753 70.8782 29.7474 70.8561 29.7463C70.8339 29.7451 70.8118 29.7484 70.791 29.7559C70.7701 29.7634 70.751 29.7751 70.7348 29.7901C70.7185 29.8052 70.7054 29.8233 70.6963 29.8435C70.6872 29.8637 70.6822 29.8855 70.6817 29.9077C70.6811 29.9298 70.685 29.9519 70.6932 29.9725L70.718 30.0404C70.6297 30.1013 70.5665 30.1922 70.5404 30.2963C70.5143 30.4003 70.527 30.5103 70.5762 30.6057C70.6254 30.701 70.7077 30.7751 70.8076 30.8141C70.9075 30.8532 71.0183 30.8544 71.119 30.8176L71.2218 30.7795C71.2355 30.7745 71.2501 30.7722 71.2646 30.7728C71.2792 30.7734 71.2935 30.7769 71.3068 30.7831C71.32 30.7892 71.3319 30.7979 71.3418 30.8087C71.3517 30.8195 71.3593 30.8321 71.3643 30.8458C71.37 30.8591 71.3729 30.8735 71.3729 30.888C71.3729 30.9026 71.37 30.9169 71.3643 30.9303C71.3586 30.9434 71.3502 30.9553 71.3396 30.965C71.329 30.9747 71.3166 30.982 71.303 30.9866L71.0942 31.0629C71.088 31.0408 71.0774 31.0202 71.0629 31.0025C71.0484 30.9847 71.0304 30.9702 71.01 30.9597C70.9896 30.9493 70.9673 30.9432 70.9444 30.9418C70.9216 30.9405 70.8987 30.9439 70.8772 30.9518C70.8557 30.9597 70.8361 30.972 70.8196 30.9879C70.8031 31.0038 70.79 31.023 70.7813 31.0441C70.7726 31.0653 70.7684 31.0881 70.7689 31.111C70.7694 31.1339 70.7746 31.1564 70.7843 31.1772C70.8076 31.2407 70.8498 31.2955 70.9052 31.3343C70.9606 31.3731 71.0266 31.394 71.0942 31.3943C71.1332 31.3944 71.1719 31.3877 71.2085 31.3744H71.2052Z" fill="url(#paint6_linear_239_234)"/>
<path d="M49.8004 61.8957H49.6009V60.5988C49.6009 60.5258 49.5854 60.4535 49.5553 60.3861C49.5252 60.3186 49.4811 60.2574 49.4255 60.2058C49.3699 60.1541 49.3039 60.1132 49.2313 60.0853C49.1586 60.0573 49.0808 60.043 49.0021 60.043H48.5531L48.3216 59.2388C48.2804 59.0967 48.1802 58.9755 48.0429 58.9018C47.9056 58.8282 47.7424 58.8081 47.5892 58.8461L47.3697 58.9016L47.0723 58.3217C47.0391 58.2553 46.992 58.1956 46.9338 58.1461C46.8756 58.0966 46.8075 58.0582 46.7333 58.0333C46.6591 58.0083 46.5804 57.9972 46.5015 58.0006C46.4227 58.004 46.3454 58.0218 46.274 58.0531L41.6699 60.043H41.4184C41.2597 60.043 41.1074 60.1015 40.9951 60.2058C40.8828 60.31 40.8197 60.4514 40.8197 60.5988V62.6813C40.4192 62.8508 40.0933 63.1424 39.896 63.5076C39.6987 63.8729 39.642 64.2898 39.7352 64.6892C39.8285 65.0885 40.0661 65.4462 40.4086 65.7028C40.7511 65.9594 41.1779 66.0995 41.618 66.0997H49.0021C49.1609 66.0997 49.3132 66.0412 49.4255 65.9369C49.5378 65.8327 49.6009 65.6913 49.6009 65.5439V64.2469H49.8004C49.8534 64.2469 49.9041 64.2274 49.9415 64.1927C49.979 64.1579 50 64.1108 50 64.0617V62.081C50 62.0319 49.979 61.9848 49.9415 61.95C49.9041 61.9153 49.8534 61.8957 49.8004 61.8957ZM46.4476 58.3754C46.4955 58.3546 46.5504 58.3522 46.6002 58.3689C46.65 58.3856 46.6906 58.4199 46.7131 58.4644L46.9765 58.9906L45.1604 59.4427C45.135 59.449 45.1111 59.4599 45.0903 59.4748C45.0694 59.4896 45.0519 59.5082 45.0387 59.5294C45.0256 59.5505 45.017 59.5739 45.0136 59.5981C45.0102 59.6223 45.0119 59.6469 45.0187 59.6705C45.0255 59.6941 45.0373 59.7163 45.0533 59.7357C45.0693 59.755 45.0893 59.7713 45.1121 59.7835C45.1349 59.7957 45.1601 59.8037 45.1861 59.8068C45.2122 59.81 45.2388 59.8084 45.2642 59.8021L47.693 59.1981C47.7438 59.1856 47.7978 59.1922 47.8434 59.2165C47.889 59.2408 47.9224 59.2808 47.9364 59.3278L48.136 60.0355H42.6139L46.4476 58.3754ZM40.0873 64.3044C40.0869 64.0232 40.1763 63.7483 40.3443 63.5144C40.5123 63.2804 40.7512 63.098 41.0309 62.9901C41.3105 62.8823 41.6184 62.8539 41.9154 62.9085C42.2125 62.9631 42.4854 63.0983 42.6997 63.297C42.914 63.4957 43.0599 63.7489 43.1192 64.0246C43.1784 64.3003 43.1482 64.5861 43.0324 64.8459C42.9166 65.1057 42.7204 65.3278 42.4686 65.484C42.2169 65.6402 41.9208 65.7236 41.618 65.7236C41.2126 65.7231 40.8238 65.5735 40.5369 65.3075C40.25 65.0415 40.0884 64.6808 40.0873 64.3044ZM49.2017 64.8602H45.5635C45.5106 64.8602 45.4599 64.8798 45.4224 64.9145C45.385 64.9492 45.364 64.9964 45.364 65.0455C45.364 65.0946 45.385 65.1417 45.4224 65.1765C45.4599 65.2112 45.5106 65.2308 45.5635 65.2308H49.2017V65.5383C49.2017 65.5875 49.1807 65.6346 49.1433 65.6694C49.1058 65.7041 49.0551 65.7236 49.0021 65.7236H42.7875C42.9787 65.5889 43.1406 65.4216 43.2645 65.2308H43.8133C43.8662 65.2308 43.917 65.2112 43.9544 65.1765C43.9918 65.1417 44.0128 65.0946 44.0128 65.0455C44.0128 64.9964 43.9918 64.9492 43.9544 64.9145C43.917 64.8798 43.8662 64.8602 43.8133 64.8602H43.4501C43.545 64.5914 43.57 64.3056 43.5229 64.0261C43.4759 63.7466 43.3581 63.4815 43.1793 63.2524C43.0006 63.0233 42.7659 62.8369 42.4945 62.7083C42.2231 62.5797 41.9227 62.5127 41.618 62.5127C41.4838 62.5124 41.35 62.5254 41.2189 62.5516V60.5988C41.2189 60.5497 41.2399 60.5025 41.2773 60.4678C41.3148 60.433 41.3655 60.4135 41.4184 60.4135H49.0021C49.0551 60.4135 49.1058 60.433 49.1433 60.4678C49.1807 60.5025 49.2017 60.5497 49.2017 60.5988V61.8957H47.1382C46.9444 61.8957 46.7586 61.9672 46.6217 62.0944C46.4847 62.2215 46.4077 62.394 46.4077 62.5739V63.5633C46.4077 63.6523 46.4266 63.7405 46.4633 63.8228C46.5 63.905 46.5538 63.9798 46.6217 64.0428C46.6895 64.1057 46.77 64.1557 46.8586 64.1898C46.9472 64.2238 47.0422 64.2414 47.1382 64.2414H49.2017V64.8602ZM49.6009 63.8708H47.1382C47.0503 63.8708 46.966 63.8384 46.9039 63.7807C46.8418 63.7231 46.8069 63.6448 46.8069 63.5633V62.5794C46.8061 62.5386 46.814 62.498 46.8303 62.46C46.8466 62.4221 46.8709 62.3875 46.9018 62.3583C46.9326 62.3292 46.9694 62.306 47.01 62.2902C47.0506 62.2744 47.0941 62.2663 47.1382 62.2663H49.6009V63.8708Z" fill="url(#paint7_linear_239_234)"/>
<path d="M47.4059 63.2594H47.7053C47.7582 63.2593 47.8089 63.2398 47.8464 63.2051C47.8838 63.1703 47.9048 63.1232 47.9048 63.0741C47.9048 63.0249 47.8838 62.9778 47.8464 62.9431C47.8089 62.9083 47.7582 62.8888 47.7053 62.8888H47.4059C47.353 62.8888 47.3022 62.9083 47.2648 62.9431C47.2274 62.9778 47.2064 63.0249 47.2064 63.0741C47.2064 63.1232 47.2274 63.1703 47.2648 63.2051C47.3022 63.2398 47.353 63.2593 47.4059 63.2594ZM44.7436 64.8602H44.4782C44.4253 64.8602 44.3745 64.8797 44.3371 64.9144C44.2997 64.9492 44.2787 64.9963 44.2787 65.0454C44.2787 65.0946 44.2997 65.1417 44.3371 65.1764C44.3745 65.2112 44.4253 65.2307 44.4782 65.2307H44.7436C44.7966 65.2307 44.8473 65.2112 44.8847 65.1764C44.9221 65.1417 44.9432 65.0946 44.9432 65.0454C44.9432 64.9963 44.9221 64.9492 44.8847 64.9144C44.8473 64.8797 44.7966 64.8602 44.7436 64.8602ZM41.7261 65.127L41.7481 65.1844C41.762 65.2202 41.7875 65.2512 41.8211 65.273C41.8546 65.2949 41.8947 65.3067 41.9357 65.3067C41.9588 65.3067 41.9818 65.3029 42.0035 65.2956C42.0533 65.2788 42.0938 65.2445 42.1163 65.2C42.1387 65.1555 42.1412 65.1046 42.1233 65.0584L42.0953 64.9843C42.1753 64.9344 42.2399 64.8661 42.2829 64.7861C42.3409 64.6695 42.3473 64.5364 42.3009 64.4155C42.2768 64.3539 42.2399 64.2974 42.1922 64.2491C42.1446 64.2008 42.0871 64.1618 42.0231 64.1342C41.9591 64.1067 41.8898 64.0912 41.8194 64.0886C41.7489 64.0859 41.6785 64.0963 41.6124 64.119L41.4846 64.1561C41.4561 64.1578 41.4276 64.1509 41.4036 64.1364C41.3796 64.1219 41.3612 64.1007 41.3511 64.0758C41.341 64.0509 41.3399 64.0237 41.3477 63.9981C41.3556 63.9725 41.3721 63.95 41.3948 63.9338L41.6463 63.8485C41.6547 63.8721 41.668 63.8938 41.6856 63.9124C41.7031 63.9311 41.7246 63.9463 41.7486 63.9571C41.7726 63.9679 41.7987 63.9742 41.8253 63.9755C41.8519 63.9768 41.8786 63.9731 41.9037 63.9647C41.9288 63.9563 41.9518 63.9433 41.9714 63.9264C41.991 63.9096 42.0067 63.8893 42.0177 63.8667C42.0287 63.8442 42.0347 63.8198 42.0353 63.795C42.036 63.7702 42.0313 63.7456 42.0215 63.7226C41.987 63.6312 41.9153 63.5561 41.8219 63.5132C41.7744 63.4925 41.723 63.4807 41.6706 63.4785C41.6182 63.4763 41.5659 63.4836 41.5166 63.5002L41.4846 63.4335C41.4763 63.41 41.4629 63.3883 41.4454 63.3696C41.4278 63.351 41.4064 63.3358 41.3824 63.3249C41.3584 63.3141 41.3323 63.3079 41.3056 63.3066C41.279 63.3053 41.2523 63.3089 41.2272 63.3173C41.2022 63.3258 41.1791 63.3388 41.1596 63.3556C41.14 63.3724 41.1242 63.3927 41.1132 63.4153C41.1023 63.4379 41.0963 63.4623 41.0956 63.4871C41.095 63.5118 41.0997 63.5365 41.1094 63.5595L41.1394 63.6355C41.033 63.7035 40.9569 63.8052 40.9254 63.9215C40.894 64.0379 40.9093 64.1609 40.9686 64.2674C41.0278 64.374 41.1269 64.4569 41.2473 64.5005C41.3676 64.5442 41.501 64.5456 41.6223 64.5044L41.7461 64.4618C41.7626 64.4562 41.7801 64.4537 41.7977 64.4544C41.8153 64.455 41.8325 64.4589 41.8485 64.4658C41.8644 64.4727 41.8787 64.4824 41.8906 64.4945C41.9025 64.5065 41.9117 64.5206 41.9177 64.5359C41.9246 64.5509 41.9281 64.5669 41.9281 64.5832C41.9281 64.5994 41.9246 64.6155 41.9177 64.6304C41.9108 64.6451 41.9007 64.6583 41.888 64.6692C41.8753 64.68 41.8602 64.6883 41.8439 64.6934L41.5924 64.7786C41.585 64.754 41.5722 64.731 41.5548 64.7111C41.5373 64.6913 41.5156 64.675 41.4911 64.6633C41.4665 64.6517 41.4396 64.6449 41.4121 64.6433C41.3845 64.6418 41.3569 64.6456 41.3311 64.6545C41.3052 64.6633 41.2815 64.6771 41.2617 64.6949C41.2418 64.7126 41.2261 64.734 41.2156 64.7577C41.2051 64.7814 41.2 64.8068 41.2006 64.8324C41.2012 64.8581 41.2076 64.8833 41.2192 64.9065C41.2473 64.9775 41.2981 65.0388 41.3648 65.0821C41.4315 65.1255 41.511 65.1489 41.5924 65.1492C41.6394 65.1494 41.686 65.1418 41.7301 65.127H41.7261Z" fill="url(#paint8_linear_239_234)"/>
<path d="M8.45475 29.2631H8.28783V28.0947C8.28783 28.0289 8.27488 27.9638 8.24972 27.9031C8.22455 27.8423 8.18767 27.7871 8.14117 27.7406C8.09467 27.6941 8.03947 27.6572 7.97872 27.6321C7.91797 27.6069 7.85285 27.594 7.7871 27.594H7.41154L7.21792 26.8696C7.18349 26.7415 7.09966 26.6323 6.98482 26.5659C6.86997 26.4996 6.7335 26.4815 6.60535 26.5157L6.42175 26.5658L6.17305 26.0433C6.14525 25.9835 6.10589 25.9297 6.05723 25.8851C6.00858 25.8405 5.95159 25.806 5.88955 25.7835C5.8275 25.761 5.76162 25.751 5.69569 25.754C5.62976 25.7571 5.56509 25.7732 5.50539 25.8013L1.65471 27.594H1.4444C1.31159 27.594 1.18423 27.6467 1.09032 27.7406C0.996414 27.8345 0.943657 27.9619 0.943657 28.0947V29.9708C0.608706 30.1235 0.336077 30.3861 0.171071 30.7152C0.00606453 31.0442 -0.0413838 31.4198 0.0366099 31.7796C0.114604 32.1393 0.313343 32.4616 0.599806 32.6927C0.886269 32.9239 1.24321 33.0501 1.61131 33.0503H7.7871C7.9199 33.0503 8.04726 32.9976 8.14117 32.9037C8.23508 32.8098 8.28783 32.6824 8.28783 32.5496V31.3812H8.45475C8.49902 31.3812 8.54147 31.3636 8.57277 31.3323C8.60408 31.301 8.62166 31.2586 8.62166 31.2143V29.43C8.62166 29.3857 8.60408 29.3433 8.57277 29.312C8.54147 29.2807 8.49902 29.2631 8.45475 29.2631ZM5.65061 26.0917C5.69067 26.0729 5.73656 26.0708 5.77819 26.0858C5.81982 26.1009 5.85378 26.1318 5.8726 26.1719L6.09293 26.6459L4.57402 27.0532C4.55276 27.0589 4.53282 27.0687 4.51536 27.0821C4.4979 27.0955 4.48325 27.1122 4.47224 27.1313C4.46124 27.1503 4.4541 27.1714 4.45123 27.1932C4.44835 27.215 4.44981 27.2372 4.45551 27.2585C4.46121 27.2797 4.47104 27.2997 4.48444 27.3171C4.49784 27.3346 4.51455 27.3492 4.53362 27.3602C4.55268 27.3712 4.57373 27.3784 4.59555 27.3812C4.61737 27.3841 4.63955 27.3827 4.66081 27.377L6.69214 26.8328C6.73463 26.8216 6.77985 26.8275 6.81798 26.8494C6.8561 26.8713 6.88406 26.9073 6.89578 26.9497L7.06269 27.5873H2.44421L5.65061 26.0917ZM0.331086 31.433C0.330756 31.1797 0.405559 30.932 0.546031 30.7212C0.686503 30.5105 0.886331 30.3461 1.12023 30.249C1.35413 30.1518 1.6116 30.1262 1.86004 30.1755C2.10849 30.2247 2.33676 30.3465 2.51597 30.5254C2.69518 30.7044 2.81728 30.9325 2.86681 31.1809C2.91634 31.4293 2.89109 31.6868 2.79424 31.9208C2.69739 32.1548 2.5333 32.3549 2.32274 32.4956C2.11217 32.6364 1.86459 32.7115 1.61131 32.7115C1.2722 32.7111 0.947076 32.5763 0.707131 32.3366C0.467186 32.097 0.331969 31.7721 0.331086 31.433ZM7.95401 31.9337H4.91118C4.86692 31.9337 4.82448 31.9513 4.79318 31.9826C4.76189 32.0139 4.74431 32.0563 4.74431 32.1006C4.74431 32.1449 4.76189 32.1873 4.79318 32.2186C4.82448 32.2499 4.86692 32.2675 4.91118 32.2675H7.95401V32.5446C7.95401 32.5889 7.93642 32.6313 7.90512 32.6626C7.87382 32.6939 7.83136 32.7115 7.7871 32.7115H2.58942C2.74933 32.5901 2.88471 32.4395 2.98834 32.2675H3.44735C3.49162 32.2675 3.53406 32.2499 3.56535 32.2186C3.59665 32.1873 3.61423 32.1449 3.61423 32.1006C3.61423 32.0563 3.59665 32.0139 3.56535 31.9826C3.53406 31.9513 3.49162 31.9337 3.44735 31.9337H3.14357C3.22298 31.6915 3.24386 31.434 3.2045 31.1823C3.16514 30.9305 3.06666 30.6916 2.91715 30.4853C2.76763 30.2789 2.57133 30.1109 2.34434 29.9951C2.11735 29.8793 1.86614 29.8189 1.61131 29.8189C1.4991 29.8186 1.38718 29.8303 1.27748 29.854V28.0947C1.27748 28.0504 1.29507 28.008 1.32637 27.9767C1.35767 27.9454 1.40013 27.9278 1.4444 27.9278H7.7871C7.83136 27.9278 7.87382 27.9454 7.90512 27.9767C7.93642 28.008 7.95401 28.0504 7.95401 28.0947V29.2631H6.22813C6.06611 29.2631 5.91072 29.3274 5.79615 29.442C5.68159 29.5566 5.61722 29.712 5.61722 29.874V30.7653C5.61722 30.8455 5.63303 30.925 5.66373 30.9991C5.69443 31.0732 5.73943 31.1405 5.79615 31.1973C5.85288 31.254 5.92023 31.299 5.99434 31.3297C6.06846 31.3604 6.1479 31.3762 6.22813 31.3762H7.95401V31.9337ZM8.28783 31.0424H6.22813C6.15464 31.0424 6.08417 31.0132 6.0322 30.9612C5.98024 30.9093 5.95105 30.8388 5.95105 30.7653V29.879C5.95039 29.8422 5.95706 29.8056 5.97069 29.7714C5.98431 29.7372 6.00462 29.7061 6.03041 29.6798C6.05621 29.6536 6.08698 29.6327 6.12092 29.6185C6.15487 29.6042 6.19132 29.5969 6.22813 29.5969H8.28783V31.0424Z" fill="url(#paint9_linear_239_234)"/>
<path d="M6.45198 30.4916H6.70235C6.74661 30.4916 6.78906 30.474 6.82035 30.4427C6.85164 30.4114 6.86922 30.369 6.86922 30.3247C6.86922 30.2804 6.85164 30.238 6.82035 30.2067C6.78906 30.1754 6.74661 30.1578 6.70235 30.1578H6.45198C6.40772 30.1578 6.36528 30.1754 6.33398 30.2067C6.30269 30.238 6.28511 30.2804 6.28511 30.3247C6.28511 30.369 6.30269 30.4114 6.33398 30.4427C6.36528 30.474 6.40772 30.4916 6.45198 30.4916ZM4.22536 31.9337H4.00337C3.95911 31.9337 3.91666 31.9513 3.88537 31.9826C3.85407 32.0139 3.83649 32.0564 3.83649 32.1006C3.83649 32.1449 3.85407 32.1874 3.88537 32.2187C3.91666 32.25 3.95911 32.2675 4.00337 32.2676H4.22536C4.26962 32.2675 4.31207 32.25 4.34336 32.2187C4.37465 32.1874 4.39223 32.1449 4.39223 32.1006C4.39223 32.0564 4.37465 32.0139 4.34336 31.9826C4.31207 31.9513 4.26962 31.9337 4.22536 31.9337ZM1.70163 32.1741L1.71999 32.2258C1.73166 32.2581 1.75298 32.286 1.78105 32.3057C1.80912 32.3254 1.84259 32.336 1.87689 32.336C1.89625 32.336 1.91545 32.3326 1.93364 32.326C1.97524 32.3109 2.00916 32.2799 2.02794 32.2399C2.04672 32.1998 2.04882 32.1539 2.03379 32.1123L2.01042 32.0456C2.07729 32.0006 2.13135 31.9391 2.16732 31.867C2.21579 31.7619 2.22118 31.6421 2.18234 31.5331C2.16224 31.4777 2.13136 31.4267 2.09148 31.3832C2.0516 31.3398 2.00352 31.3046 1.95 31.2798C1.89647 31.255 1.83857 31.241 1.77961 31.2386C1.72066 31.2363 1.66182 31.2456 1.60649 31.2661L1.49967 31.2995C1.47576 31.301 1.452 31.2947 1.43189 31.2817C1.41178 31.2687 1.39639 31.2495 1.38798 31.2271C1.37957 31.2047 1.37858 31.1801 1.38517 31.1571C1.39175 31.1341 1.40556 31.1138 1.42456 31.0992L1.63487 31.0224C1.64186 31.0436 1.65304 31.0632 1.66773 31.08C1.68242 31.0968 1.70033 31.1104 1.7204 31.1202C1.74047 31.1299 1.76229 31.1356 1.78458 31.1368C1.80687 31.1379 1.82916 31.1346 1.85015 31.127C1.87113 31.1194 1.89038 31.1077 1.90676 31.0926C1.92314 31.0774 1.93631 31.0591 1.94549 31.0388C1.95468 31.0184 1.95969 30.9965 1.96024 30.9742C1.96078 30.9518 1.95685 30.9296 1.94867 30.9089C1.91979 30.8266 1.85988 30.7589 1.78175 30.7203C1.74204 30.7016 1.69905 30.691 1.65523 30.689C1.61141 30.687 1.56762 30.6937 1.52638 30.7086L1.49967 30.6485C1.49268 30.6273 1.4815 30.6077 1.46681 30.5909C1.45212 30.5741 1.43421 30.5605 1.41414 30.5507C1.39407 30.5409 1.37224 30.5353 1.34996 30.5341C1.32767 30.533 1.30538 30.5363 1.28439 30.5439C1.26341 30.5514 1.24416 30.5632 1.22778 30.5783C1.2114 30.5935 1.19823 30.6118 1.18905 30.6321C1.17986 30.6525 1.17485 30.6744 1.1743 30.6967C1.17376 30.719 1.17769 30.7412 1.18587 30.762L1.21091 30.8304C1.1219 30.8917 1.05828 30.9833 1.03198 31.0881C1.00568 31.1929 1.01851 31.3037 1.06806 31.3998C1.11761 31.4958 1.20048 31.5705 1.30114 31.6098C1.40179 31.6491 1.51333 31.6503 1.61484 31.6133L1.71833 31.5749C1.73213 31.5698 1.7468 31.5675 1.7615 31.5681C1.77619 31.5688 1.79061 31.5723 1.80395 31.5785C1.81728 31.5847 1.82926 31.5935 1.8392 31.6043C1.84914 31.6151 1.85684 31.6278 1.86187 31.6416C1.86761 31.6551 1.87057 31.6696 1.87057 31.6842C1.87057 31.6988 1.86761 31.7133 1.86187 31.7268C1.85611 31.74 1.84764 31.7519 1.837 31.7617C1.82636 31.7714 1.8138 31.7789 1.80011 31.7835L1.5898 31.8603C1.58362 31.8381 1.5729 31.8173 1.55831 31.7995C1.54372 31.7816 1.52558 31.7669 1.50504 31.7564C1.48449 31.7459 1.462 31.7398 1.43896 31.7384C1.41593 31.737 1.39286 31.7404 1.37121 31.7484C1.34956 31.7564 1.32981 31.7688 1.31319 31.7848C1.29657 31.8008 1.28345 31.8201 1.27466 31.8414C1.26587 31.8628 1.2616 31.8857 1.26212 31.9088C1.26264 31.9318 1.26794 31.9545 1.27767 31.9755C1.30118 32.0394 1.34368 32.0946 1.39947 32.1337C1.45526 32.1728 1.52168 32.1939 1.5898 32.1941C1.62907 32.1943 1.66806 32.1875 1.70497 32.1741H1.70163Z" fill="url(#paint10_linear_239_234)"/>
<defs>
<linearGradient id="paint0_linear_239_234" x1="43.4601" y1="42.8529" x2="44.6802" y2="14.1947" gradientUnits="userSpaceOnUse">
<stop stop-color="#2042B8"/>
<stop offset="0.933726" stop-color="#FF6600"/>
</linearGradient>
<linearGradient id="paint1_linear_239_234" x1="63.6624" y1="45.3776" x2="67.5767" y2="50.307" gradientUnits="userSpaceOnUse">
<stop stop-color="#FF6600"/>
<stop offset="1" stop-color="#2042B8"/>
</linearGradient>
<linearGradient id="paint2_linear_239_234" x1="64.7379" y1="6.29469" x2="69.5939" y2="12.41" gradientUnits="userSpaceOnUse">
<stop stop-color="#FF6600"/>
<stop offset="1" stop-color="#2042B8"/>
</linearGradient>
<linearGradient id="paint3_linear_239_234" x1="8.04339" y1="43.7653" x2="11.9577" y2="48.6948" gradientUnits="userSpaceOnUse">
<stop stop-color="#FF6600"/>
<stop offset="1" stop-color="#2042B8"/>
</linearGradient>
<linearGradient id="paint4_linear_239_234" x1="11.2676" y1="4.26779" x2="15.1819" y2="9.1972" gradientUnits="userSpaceOnUse">
<stop stop-color="#FF6600"/>
<stop offset="1" stop-color="#2042B8"/>
</linearGradient>
<linearGradient id="paint5_linear_239_234" x1="68.7774" y1="25.0035" x2="73.989" y2="32.7583" gradientUnits="userSpaceOnUse">
<stop stop-color="#FF6600"/>
<stop offset="1" stop-color="#2042B8"/>
</linearGradient>
<linearGradient id="paint6_linear_239_234" x1="70.0259" y1="29.3737" x2="70.9395" y2="32.4641" gradientUnits="userSpaceOnUse">
<stop stop-color="#FF6600"/>
<stop offset="1" stop-color="#2042B8"/>
</linearGradient>
<linearGradient id="paint7_linear_239_234" x1="38.8018" y1="58.0039" x2="44.4545" y2="67.0638" gradientUnits="userSpaceOnUse">
<stop stop-color="#FF6600"/>
<stop offset="1" stop-color="#2042B8"/>
</linearGradient>
<linearGradient id="paint8_linear_239_234" x1="40.3058" y1="62.8899" x2="41.2648" y2="66.3841" gradientUnits="userSpaceOnUse">
<stop stop-color="#FF6600"/>
<stop offset="1" stop-color="#2042B8"/>
</linearGradient>
<linearGradient id="paint9_linear_239_234" x1="-0.744059" y1="25.757" x2="4.50545" y2="33.5682" gradientUnits="userSpaceOnUse">
<stop stop-color="#FF6600"/>
<stop offset="1" stop-color="#2042B8"/>
</linearGradient>
<linearGradient id="paint10_linear_239_234" x1="0.513718" y1="30.1588" x2="1.43399" y2="33.2716" gradientUnits="userSpaceOnUse">
<stop stop-color="#FF6600"/>
<stop offset="1" stop-color="#2042B8"/>
</linearGradient>
<clipPath id="clip0_239_234">
<rect width="5.6425" height="5.6425" fill="white" transform="translate(63.8737 45.14)"/>
</clipPath>
<clipPath id="clip1_239_234">
<rect width="7" height="7" fill="white" transform="translate(65 5.99997)"/>
</clipPath>
<clipPath id="clip2_239_234">
<rect width="5.6425" height="5.6425" fill="white" transform="translate(8.25465 43.5278)"/>
</clipPath>
<clipPath id="clip3_239_234">
<rect width="5.6425" height="5.6425" fill="white" transform="translate(11.4789 4.03021)"/>
</clipPath>
</defs>
</svg>
