<svg width="64" height="59" viewBox="0 0 64 59" fill="none" xmlns="http://www.w3.org/2000/svg">
<path d="M45.6218 52.3999L45.6167 52.8999L46.1167 52.9049L49.1304 52.9354L49.6304 52.9405L49.6354 52.4405L49.6831 47.7252C49.6943 46.6169 48.8049 45.7093 47.6966 45.6981C46.5882 45.6869 45.6807 46.5763 45.6695 47.6846L45.6218 52.3999Z" stroke="url(#paint0_linear_239_171)"/>
<path d="M63.6154 49.4723H63.2309V46.7803C63.2309 46.6288 63.201 46.4788 63.143 46.3388C63.0851 46.1988 63.0001 46.0716 62.8929 45.9645C62.7858 45.8574 62.6586 45.7724 62.5186 45.7144C62.3787 45.6564 62.2286 45.6266 62.0771 45.6266H61.2118L60.7657 43.9575C60.6864 43.6624 60.4933 43.4108 60.2287 43.258C59.9641 43.1051 59.6496 43.0635 59.3544 43.1422L58.9313 43.2576L58.3583 42.0539C58.2943 41.916 58.2036 41.7921 58.0915 41.6893C57.9794 41.5866 57.8481 41.507 57.7051 41.4552C57.5622 41.4034 57.4104 41.3803 57.2585 41.3874C57.1066 41.3944 56.9576 41.4314 56.82 41.4963L47.9479 45.6266H47.4634C47.1574 45.6266 46.8639 45.7481 46.6476 45.9645C46.4312 46.1809 46.3097 46.4743 46.3097 46.7803V51.1029C45.5379 51.4546 44.9098 52.0599 44.5296 52.818C44.1494 53.5761 44.0401 54.4416 44.2198 55.2704C44.3995 56.0993 44.8574 56.8417 45.5174 57.3743C46.1774 57.9069 46.9998 58.1977 47.8479 58.1983H62.0771C62.3831 58.1983 62.6766 58.0767 62.8929 57.8603C63.1093 57.644 63.2309 57.3505 63.2309 57.0445V54.3525H63.6154C63.7174 54.3525 63.8152 54.312 63.8874 54.2399C63.9595 54.1678 64 54.07 64 53.968V49.8569C64 49.7549 63.9595 49.6571 63.8874 49.5849C63.8152 49.5128 63.7174 49.4723 63.6154 49.4723ZM57.1546 42.1654C57.2469 42.1221 57.3526 42.1172 57.4486 42.1518C57.5445 42.1864 57.6227 42.2577 57.6661 42.35L58.1737 43.4422L54.6741 44.3806C54.6251 44.3937 54.5792 44.4163 54.539 44.4472C54.4987 44.4781 54.465 44.5166 54.4396 44.5605C54.4143 44.6044 54.3978 44.6529 54.3912 44.7032C54.3846 44.7535 54.3879 44.8046 54.4011 44.8536C54.4142 44.9026 54.4368 44.9485 54.4677 44.9887C54.4986 45.029 54.5371 45.0627 54.581 45.0881C54.625 45.1134 54.6734 45.1299 54.7237 45.1365C54.774 45.1431 54.8251 45.1398 54.8741 45.1266L59.5543 43.8729C59.6522 43.847 59.7564 43.8607 59.8443 43.9111C59.9321 43.9615 59.9965 44.0445 60.0235 44.1421L60.4081 45.6112H49.767L57.1546 42.1654ZM44.8983 54.4717C44.8975 53.8882 45.0699 53.3175 45.3935 52.832C45.7172 52.3464 46.1776 51.9677 46.7165 51.7439C47.2554 51.52 47.8486 51.4611 48.421 51.5744C48.9935 51.6878 49.5194 51.9684 49.9323 52.3808C50.3452 52.7932 50.6265 53.3188 50.7407 53.891C50.8548 54.4633 50.7966 55.0566 50.5735 55.5958C50.3503 56.135 49.9722 56.5959 49.4871 56.9202C49.0019 57.2445 48.4315 57.4176 47.8479 57.4176C47.0666 57.4166 46.3175 57.106 45.7647 56.5539C45.2118 56.0018 44.9003 55.2531 44.8983 54.4717ZM62.4617 55.6255H55.4509C55.349 55.6255 55.2512 55.666 55.1791 55.7381C55.107 55.8103 55.0665 55.9081 55.0665 56.01C55.0665 56.112 55.107 56.2098 55.1791 56.2819C55.2512 56.3541 55.349 56.3946 55.4509 56.3946H62.4617V57.033C62.4617 57.135 62.4212 57.2328 62.3491 57.3049C62.2769 57.3771 62.1791 57.4176 62.0771 57.4176H50.1015C50.47 57.1379 50.7819 56.7908 51.0207 56.3946H52.0782C52.1802 56.3946 52.278 56.3541 52.3501 56.2819C52.4222 56.2098 52.4627 56.112 52.4627 56.01C52.4627 55.9081 52.4222 55.8103 52.3501 55.7381C52.278 55.666 52.1802 55.6255 52.0782 55.6255H51.3783C51.5613 55.0676 51.6094 54.4742 51.5187 53.8941C51.428 53.314 51.2011 52.7637 50.8566 52.2882C50.5121 51.8128 50.0599 51.4257 49.5369 51.1589C49.0139 50.892 48.4351 50.7529 47.8479 50.7529C47.5894 50.7521 47.3315 50.7792 47.0788 50.8337V46.7803C47.0788 46.6783 47.1193 46.5805 47.1914 46.5084C47.2636 46.4362 47.3614 46.3957 47.4634 46.3957H62.0771C62.1791 46.3957 62.2769 46.4362 62.3491 46.5084C62.4212 46.5805 62.4617 46.6783 62.4617 46.7803V49.4723H58.4852C58.1119 49.4723 57.7539 49.6206 57.4899 49.8846C57.226 50.1485 57.0777 50.5065 57.0777 50.8798V52.9335C57.0777 53.1183 57.1141 53.3013 57.1848 53.4721C57.2556 53.6429 57.3592 53.798 57.4899 53.9287C57.6206 54.0594 57.7758 54.1631 57.9466 54.2339C58.1174 54.3046 58.3004 54.341 58.4852 54.341H62.4617V55.6255ZM63.2309 53.5718H58.4852C58.3159 53.5718 58.1535 53.5046 58.0338 53.3849C57.9141 53.2651 57.8468 53.1028 57.8468 52.9335V50.8914C57.8453 50.8066 57.8607 50.7223 57.8921 50.6435C57.9235 50.5647 57.9703 50.493 58.0297 50.4325C58.0891 50.372 58.16 50.3239 58.2382 50.2911C58.3164 50.2583 58.4004 50.2414 58.4852 50.2414H63.2309V53.5718Z" fill="url(#paint1_linear_239_171)"/>
<path d="M59.0006 52.3027H59.5774C59.6794 52.3027 59.7772 52.2622 59.8493 52.1901C59.9214 52.118 59.9619 52.0202 59.9619 51.9182C59.9619 51.8162 59.9214 51.7184 59.8493 51.6463C59.7772 51.5742 59.6794 51.5336 59.5774 51.5336H59.0006C58.8986 51.5336 58.8008 51.5742 58.7287 51.6463C58.6566 51.7184 58.6161 51.8162 58.6161 51.9182C58.6161 52.0202 58.6566 52.118 58.7287 52.1901C58.8008 52.2622 58.8986 52.3027 59.0006 52.3027ZM53.8704 55.6255H53.3589C53.2569 55.6255 53.1591 55.666 53.087 55.7381C53.0149 55.8102 52.9744 55.908 52.9744 56.01C52.9744 56.112 53.0149 56.2098 53.087 56.2819C53.1591 56.354 53.2569 56.3946 53.3589 56.3946H53.8704C53.9723 56.3946 54.0701 56.354 54.1422 56.2819C54.2143 56.2098 54.2548 56.112 54.2548 56.01C54.2548 55.908 54.2143 55.8102 54.1422 55.7381C54.0701 55.666 53.9723 55.6255 53.8704 55.6255ZM48.0556 56.1792L48.0979 56.2985C48.1248 56.3728 48.1739 56.437 48.2386 56.4824C48.3033 56.5279 48.3804 56.5522 48.4594 56.5523C48.504 56.5522 48.5483 56.5444 48.5902 56.5292C48.686 56.4945 48.7642 56.4231 48.8074 56.3308C48.8507 56.2385 48.8556 56.1328 48.8209 56.0369L48.7671 55.8831C48.9212 55.7795 49.0457 55.6378 49.1286 55.4716C49.2402 55.2296 49.2527 54.9535 49.1632 54.7025C49.1169 54.5747 49.0457 54.4573 48.9538 54.3571C48.862 54.2569 48.7512 54.1759 48.6279 54.1187C48.5045 54.0615 48.3711 54.0293 48.2353 54.0239C48.0995 54.0185 47.9639 54.04 47.8364 54.0872L47.5903 54.1641C47.5352 54.1675 47.4805 54.1532 47.4341 54.1232C47.3878 54.0932 47.3523 54.0491 47.333 53.9974C47.3136 53.9457 47.3113 53.8892 47.3265 53.8361C47.3416 53.783 47.3735 53.7362 47.4172 53.7026L47.9018 53.5257C47.9179 53.5745 47.9437 53.6196 47.9775 53.6583C48.0113 53.697 48.0526 53.7286 48.0989 53.751C48.1451 53.7735 48.1954 53.7865 48.2467 53.7892C48.2981 53.7919 48.3494 53.7843 48.3978 53.7668C48.4462 53.7493 48.4905 53.7223 48.5282 53.6874C48.566 53.6524 48.5963 53.6103 48.6175 53.5634C48.6386 53.5166 48.6502 53.466 48.6515 53.4146C48.6527 53.3631 48.6436 53.312 48.6248 53.2642C48.5583 53.0747 48.4202 52.9187 48.2402 52.8296C48.1487 52.7867 48.0497 52.7622 47.9487 52.7576C47.8477 52.753 47.7469 52.7683 47.6518 52.8027L47.5903 52.6642C47.5742 52.6154 47.5484 52.5703 47.5146 52.5316C47.4807 52.4929 47.4395 52.4614 47.3932 52.4389C47.347 52.4164 47.2967 52.4034 47.2454 52.4007C47.194 52.398 47.1426 52.4056 47.0943 52.4231C47.0459 52.4406 47.0016 52.4676 46.9638 52.5026C46.9261 52.5375 46.8958 52.5796 46.8746 52.6265C46.8534 52.6733 46.8419 52.724 46.8406 52.7754C46.8394 52.8268 46.8484 52.8779 46.8673 52.9258L46.925 53.0834C46.7199 53.2246 46.5733 53.4357 46.5127 53.6772C46.4521 53.9186 46.4817 54.1739 46.5959 54.3952C46.71 54.6164 46.9009 54.7885 47.1329 54.879C47.3648 54.9696 47.6218 54.9724 47.8556 54.8871L48.0941 54.7986C48.1259 54.787 48.1597 54.7817 48.1935 54.7831C48.2274 54.7846 48.2606 54.7927 48.2914 54.8069C48.3221 54.8212 48.3497 54.8414 48.3726 54.8664C48.3955 54.8914 48.4132 54.9206 48.4248 54.9525C48.438 54.9835 48.4449 55.0168 48.4449 55.0505C48.4449 55.0842 48.438 55.1176 48.4248 55.1486C48.4115 55.1791 48.392 55.2065 48.3675 55.229C48.343 55.2515 48.3141 55.2687 48.2825 55.2793L47.798 55.4562C47.7837 55.405 47.759 55.3573 47.7254 55.3161C47.6918 55.2749 47.65 55.2412 47.6027 55.2169C47.5553 55.1927 47.5035 55.1786 47.4504 55.1754C47.3974 55.1722 47.3442 55.1801 47.2943 55.1985C47.2444 55.2169 47.1989 55.2454 47.1606 55.2823C47.1223 55.3192 47.0921 55.3636 47.0719 55.4128C47.0516 55.4619 47.0418 55.5148 47.043 55.5679C47.0442 55.6211 47.0564 55.6734 47.0788 55.7216C47.133 55.8689 47.2309 55.9961 47.3594 56.0862C47.488 56.1763 47.641 56.2248 47.798 56.2254C47.8884 56.2257 47.9783 56.2101 48.0633 56.1792H48.0556Z" fill="url(#paint2_linear_239_171)"/>
<path d="M16.5254 28.919V50.9904C16.5254 52.095 17.4208 52.9904 18.5254 52.9904H25.3563M33.0477 21.0851H34.6086C35.7132 21.0851 36.6086 20.1897 36.6086 19.0851V13.2084C36.6086 11.8344 37.9622 10.8696 39.261 11.3178L55.4867 16.9168C56.2931 17.1951 56.8343 17.9543 56.8343 18.8074V40.7211C56.8343 41.5126 56.3675 42.2296 55.6438 42.5499L48.3958 45.758C48.231 45.831 48.0526 45.8687 47.8723 45.8687V45.8687C47.1581 45.8687 46.579 46.4478 46.579 47.1621V49.658C46.579 50.4679 46.0628 51.1552 45.39 51.6061C45.1197 51.7873 44.8845 51.9876 44.6533 52.2279C44.2189 52.6794 43.647 52.9904 43.0205 52.9904H41.5938M33.0477 21.0851H39.5938C40.6984 21.0851 41.5938 21.9806 41.5938 23.0851V52.9904M33.0477 21.0851C32.1152 24.8609 30.6917 26.7231 26.3332 28.67C25.5801 29.0063 25.0779 29.7471 25.0878 30.5718L25.3563 52.9904M41.5938 52.9904H25.3563" stroke="url(#paint3_linear_239_171)"/>
<rect x="0.5" y="9.61768" width="4.98816" height="13.8191" stroke="url(#paint4_linear_239_171)"/>
<circle cx="21.9379" cy="17.679" r="11.7523" stroke="url(#paint5_linear_239_171)"/>
<path d="M5.55792 11.1147L8.97635 5.41736C10.8663 3.55703 12.0124 2.55123 14.9586 1.14433C16.7316 0.865607 17.8605 0.80402 20.5135 1.14433C24.4838 2.50119 26.5545 3.34616 29.202 5.41736C30.8499 6.75241 30.9603 7.50102 29.202 8.83579C24.6316 6.32608 21.924 5.32204 15.3859 8.26605V15.1029L19.0892 16.8121C21.8482 18.9452 21.4994 20.0564 18.6619 21.9397H5.55792" stroke="url(#paint6_linear_239_171)"/>
<path d="M19.2316 17.9515L17.1191 16.5204C15.6871 15.5504 14.863 13.9093 14.9047 12.1802C14.9264 11.2833 14.9415 10.3592 14.942 9.54786C18.2703 6.93179 20.8645 6.12645 27.4783 7.91241C27.7811 7.99417 28.8739 6.99671 28.7747 6.69918C28.5125 5.9124 28.3828 5.72101 28.1746 5.52273C27.8104 5.17602 27.4172 4.85435 26.985 4.59742C24.1505 2.9124 22.7841 2.46617 20.6559 1.71398C19.1048 1.16954 17.809 1.21305 15.4314 1.60838C15.0231 1.67628 14.6238 1.7973 14.2504 1.9759C12.7032 2.71593 11.6919 3.41894 10.2571 4.73539C9.97231 4.99666 9.72358 5.29541 9.51102 5.61818L6.80934 9.72073C6.27173 10.5371 5.9852 11.4932 5.9852 12.4707V16.5399C5.9852 19.3458 8.29364 21.6023 11.0988 21.5386L17.6568 21.3895C18.2277 21.3765 18.7985 21.2767 19.318 21.0399C21.1492 20.2051 21.1875 19.4665 19.2316 17.9515Z" fill="white"/>
<path d="M14.8161 7.12648C14.9099 7.3609 14.9426 8.32678 14.942 9.54786M14.942 9.54786C14.9415 10.3592 14.9264 11.2833 14.9047 12.1802C14.863 13.9093 15.6871 15.5504 17.1191 16.5204L19.2316 17.9515C21.1875 19.4665 21.1492 20.2051 19.318 21.0399C18.7985 21.2767 18.2277 21.3765 17.6568 21.3895L11.0988 21.5386C8.29364 21.6023 5.9852 19.3458 5.9852 16.5399V12.4707C5.9852 11.4932 6.27173 10.5371 6.80934 9.72073L9.51102 5.61818C9.72358 5.29541 9.97231 4.99666 10.2571 4.73539C11.6919 3.41894 12.7032 2.71593 14.2504 1.9759C14.6238 1.7973 15.0231 1.67628 15.4314 1.60838C17.809 1.21305 19.1048 1.16954 20.6559 1.71398C22.7841 2.46617 24.1505 2.9124 26.985 4.59742C27.4172 4.85435 27.8104 5.17602 28.1746 5.52273C28.3828 5.72101 28.5125 5.9124 28.7747 6.69918V6.69918C28.8739 6.99671 27.7811 7.99417 27.4783 7.91241C20.8645 6.12645 18.2703 6.93179 14.942 9.54786Z" stroke="url(#paint7_linear_239_171)"/>
<path d="M17.5224 38.9592H17.0224V39.4592V43.1625V43.6625H17.5224H18.5194C19.8182 43.6625 20.8711 42.6096 20.8711 41.3108C20.8711 40.012 19.8182 38.9592 18.5194 38.9592H17.5224Z" stroke="url(#paint8_linear_239_171)"/>
<path d="M42.5908 32.9769H42.0908V33.4769V37.1802V37.6802H42.5908H43.5879C44.8866 37.6802 45.9395 36.6274 45.9395 35.3286C45.9395 34.0298 44.8866 32.9769 43.5879 32.9769H42.5908Z" stroke="url(#paint9_linear_239_171)"/>
<path d="M29.9756 52.3364L29.9705 52.8364L30.4705 52.8415L32.7201 52.8642L33.2201 52.8693L33.2251 52.3693L33.26 48.9271C33.269 48.0298 32.549 47.295 31.6516 47.2859C30.7543 47.2768 30.0195 47.9969 30.0104 48.8943L29.9756 52.3364Z" stroke="url(#paint10_linear_239_171)"/>
<line x1="29.1323" y1="35.2559" x2="38.1027" y2="35.2559" stroke="url(#paint11_linear_239_171)" stroke-linecap="round"/>
<line x1="29.1323" y1="39.244" x2="38.1027" y2="39.244" stroke="url(#paint12_linear_239_171)" stroke-linecap="round"/>
<line x1="29.1323" y1="42.6625" x2="38.1027" y2="42.6625" stroke="url(#paint13_linear_239_171)" stroke-linecap="round"/>
<rect x="31.2658" y="25.5703" width="4.98816" height="4.98816" rx="2.49408" stroke="url(#paint14_linear_239_171)"/>
<rect x="48.0731" y="20.4427" width="4.98816" height="7.26711" rx="2.49408" stroke="url(#paint15_linear_239_171)"/>
<line x1="36.8237" y1="16.1697" x2="40.9514" y2="16.1697" stroke="url(#paint16_linear_239_171)" stroke-linecap="round"/>
<line x1="16.598" y1="34.1164" x2="19.8711" y2="34.1164" stroke="url(#paint17_linear_239_171)" stroke-linecap="round"/>
<line x1="22.0106" y1="48.075" x2="25.2836" y2="48.075" stroke="url(#paint18_linear_239_171)" stroke-linecap="round"/>
<defs>
<linearGradient id="paint0_linear_239_171" x1="46.1177" y1="52.942" x2="50.2134" y2="51.4141" gradientUnits="userSpaceOnUse">
<stop stop-color="#FF6600"/>
<stop offset="1" stop-color="#2042B8"/>
</linearGradient>
<linearGradient id="paint1_linear_239_171" x1="42.4211" y1="41.3942" x2="54.5161" y2="59.3913" gradientUnits="userSpaceOnUse">
<stop stop-color="#FF6600"/>
<stop offset="1" stop-color="#2042B8"/>
</linearGradient>
<linearGradient id="paint2_linear_239_171" x1="45.3186" y1="51.536" x2="47.439" y2="58.7081" gradientUnits="userSpaceOnUse">
<stop stop-color="#FF6600"/>
<stop offset="1" stop-color="#2042B8"/>
</linearGradient>
<linearGradient id="paint3_linear_239_171" x1="13.0467" y1="10.4229" x2="45.6333" y2="49.2644" gradientUnits="userSpaceOnUse">
<stop stop-color="#FF6600"/>
<stop offset="1" stop-color="#2042B8"/>
</linearGradient>
<linearGradient id="paint4_linear_239_171" x1="0.655817" y1="10.1238" x2="7.42195" y2="12.7747" gradientUnits="userSpaceOnUse">
<stop stop-color="#FF6600"/>
<stop offset="1" stop-color="#2042B8"/>
</linearGradient>
<linearGradient id="paint5_linear_239_171" x1="8.74336" y1="6.43747" x2="25.7744" y2="27.8853" gradientUnits="userSpaceOnUse">
<stop stop-color="#FF6600"/>
<stop offset="1" stop-color="#2042B8"/>
</linearGradient>
<linearGradient id="paint6_linear_239_171" x1="3.40715" y1="0.921654" x2="18.5178" y2="23.4746" gradientUnits="userSpaceOnUse">
<stop stop-color="#FF6600"/>
<stop offset="1" stop-color="#2042B8"/>
</linearGradient>
<linearGradient id="paint7_linear_239_171" x1="3.98156" y1="1.31809" x2="18.8055" y2="22.62" gradientUnits="userSpaceOnUse">
<stop stop-color="#FF6600"/>
<stop offset="1" stop-color="#2042B8"/>
</linearGradient>
<linearGradient id="paint8_linear_239_171" x1="17.2765" y1="39.4609" x2="20.1525" y2="42.2469" gradientUnits="userSpaceOnUse">
<stop stop-color="#FF6600"/>
<stop offset="1" stop-color="#2042B8"/>
</linearGradient>
<linearGradient id="paint9_linear_239_171" x1="42.345" y1="33.4787" x2="45.2209" y2="36.2647" gradientUnits="userSpaceOnUse">
<stop stop-color="#FF6600"/>
<stop offset="1" stop-color="#2042B8"/>
</linearGradient>
<linearGradient id="paint10_linear_239_171" x1="30.4727" y1="52.7356" x2="33.5166" y2="51.5804" gradientUnits="userSpaceOnUse">
<stop stop-color="#FF6600"/>
<stop offset="1" stop-color="#2042B8"/>
</linearGradient>
<linearGradient id="paint11_linear_239_171" x1="27.7718" y1="35.7564" x2="27.8948" y2="37.3005" gradientUnits="userSpaceOnUse">
<stop stop-color="#FF6600"/>
<stop offset="1" stop-color="#2042B8"/>
</linearGradient>
<linearGradient id="paint12_linear_239_171" x1="27.7718" y1="39.7445" x2="27.8948" y2="41.2887" gradientUnits="userSpaceOnUse">
<stop stop-color="#FF6600"/>
<stop offset="1" stop-color="#2042B8"/>
</linearGradient>
<linearGradient id="paint13_linear_239_171" x1="27.7718" y1="43.163" x2="27.8948" y2="44.7071" gradientUnits="userSpaceOnUse">
<stop stop-color="#FF6600"/>
<stop offset="1" stop-color="#2042B8"/>
</linearGradient>
<linearGradient id="paint14_linear_239_171" x1="31.4216" y1="26.0722" x2="34.4398" y2="29.8731" gradientUnits="userSpaceOnUse">
<stop stop-color="#FF6600"/>
<stop offset="1" stop-color="#2042B8"/>
</linearGradient>
<linearGradient id="paint15_linear_239_171" x1="48.2289" y1="20.9457" x2="52.9814" y2="24.7543" gradientUnits="userSpaceOnUse">
<stop stop-color="#FF6600"/>
<stop offset="1" stop-color="#2042B8"/>
</linearGradient>
<linearGradient id="paint16_linear_239_171" x1="35.8812" y1="16.6702" x2="36.1162" y2="18.1877" gradientUnits="userSpaceOnUse">
<stop stop-color="#FF6600"/>
<stop offset="1" stop-color="#2042B8"/>
</linearGradient>
<linearGradient id="paint17_linear_239_171" x1="15.7293" y1="34.6169" x2="16.0084" y2="36.119" gradientUnits="userSpaceOnUse">
<stop stop-color="#FF6600"/>
<stop offset="1" stop-color="#2042B8"/>
</linearGradient>
<linearGradient id="paint18_linear_239_171" x1="21.1418" y1="48.5754" x2="21.4209" y2="50.0775" gradientUnits="userSpaceOnUse">
<stop stop-color="#FF6600"/>
<stop offset="1" stop-color="#2042B8"/>
</linearGradient>
</defs>
</svg>
