<svg width="54" height="57" viewBox="0 0 54 57" fill="none" xmlns="http://www.w3.org/2000/svg">
<mask id="path-1-outside-1_237_82" maskUnits="userSpaceOnUse" x="6.65686" y="0" width="38" height="36" fill="black">
<rect fill="white" x="6.65686" width="38" height="36"/>
<path d="M33.3789 33.9964C36.8064 32.1797 39.5339 29.2768 41.1338 25.7429C42.7336 22.209 43.1153 18.244 42.2188 14.4699C41.3224 10.6957 39.1986 7.32583 36.1806 4.88876C33.1626 2.45169 29.421 1.08529 25.5427 1.00386C21.6644 0.922429 17.8687 2.13057 14.751 4.43881C11.6334 6.74705 9.37002 10.0248 8.31596 13.758C7.26191 17.4912 7.47679 21.4687 8.92688 25.0666C10.377 28.6646 12.9803 31.6794 16.3285 33.6384L18.2486 30.3565C15.6271 28.8227 13.5889 26.4623 12.4535 23.6453C11.3182 20.8283 11.1499 17.7141 11.9752 14.7912C12.8005 11.8683 14.5726 9.30195 17.0136 7.49472C19.4545 5.68748 22.4263 4.74156 25.4628 4.80532C28.4994 4.86908 31.4288 5.9389 33.7918 7.847C36.1548 9.75511 37.8176 12.3936 38.5195 15.3485C39.2213 18.3035 38.9225 21.4079 37.6699 24.1747C36.4173 26.9416 34.2818 29.2144 31.5982 30.6368L33.3789 33.9964Z"/>
</mask>
<path d="M33.3789 33.9964C36.8064 32.1797 39.5339 29.2768 41.1338 25.7429C42.7336 22.209 43.1153 18.244 42.2188 14.4699C41.3224 10.6957 39.1986 7.32583 36.1806 4.88876C33.1626 2.45169 29.421 1.08529 25.5427 1.00386C21.6644 0.922429 17.8687 2.13057 14.751 4.43881C11.6334 6.74705 9.37002 10.0248 8.31596 13.758C7.26191 17.4912 7.47679 21.4687 8.92688 25.0666C10.377 28.6646 12.9803 31.6794 16.3285 33.6384L18.2486 30.3565C15.6271 28.8227 13.5889 26.4623 12.4535 23.6453C11.3182 20.8283 11.1499 17.7141 11.9752 14.7912C12.8005 11.8683 14.5726 9.30195 17.0136 7.49472C19.4545 5.68748 22.4263 4.74156 25.4628 4.80532C28.4994 4.86908 31.4288 5.9389 33.7918 7.847C36.1548 9.75511 37.8176 12.3936 38.5195 15.3485C39.2213 18.3035 38.9225 21.4079 37.6699 24.1747C36.4173 26.9416 34.2818 29.2144 31.5982 30.6368L33.3789 33.9964Z" stroke="#8A8A8A" stroke-opacity="0.55" stroke-width="2" stroke-dasharray="2 2" mask="url(#path-1-outside-1_237_82)"/>
<path d="M1.69485 52.162L1.21364 52.2977L1.23618 52.3776L1.28332 52.4459L1.69485 52.162ZM2.07999 48.4939L2.45087 48.8292L2.46617 48.8123L2.47987 48.7941L2.07999 48.4939ZM8.62739 47.2712L8.4603 47.7425L9.04086 47.9483L9.12293 47.3378L8.62739 47.2712ZM13.2491 42.5552L13.2919 43.0533L14.0141 42.9912L13.6995 42.3382L13.2491 42.5552ZM12.6714 38.7124L13.1328 38.905L12.6714 38.7124ZM17.1005 36.0924L17.182 35.5991L17.1005 36.0924ZM6.44404 54.8225C5.44278 54.5585 4.73552 54.3411 4.09152 53.9414C3.45509 53.5464 2.84653 52.9506 2.10639 51.878L1.28332 52.4459C2.07071 53.587 2.7721 54.2994 3.56418 54.791C4.34869 55.2779 5.18851 55.5256 6.18905 55.7895L6.44404 54.8225ZM2.17607 52.0262C1.90519 51.0661 1.8143 50.461 1.86267 50.0039C1.90752 49.5802 2.07702 49.2427 2.45087 48.8292L1.70912 48.1586C1.23804 48.6796 0.941469 49.2067 0.868224 49.8987C0.798505 50.5574 0.937496 51.319 1.21364 52.2977L2.17607 52.0262ZM2.47987 48.7941C3.24498 47.7748 3.8898 47.2657 4.70279 47.1013C5.54989 46.93 6.67787 47.1105 8.4603 47.7425L8.79448 46.8C6.98748 46.1593 5.63648 45.8923 4.5046 46.1212C3.3386 46.3569 2.50443 47.0956 1.68011 48.1937L2.47987 48.7941ZM9.12293 47.3378C9.34832 45.6613 9.69482 44.6925 10.2769 44.0939C10.8492 43.5054 11.7373 43.187 13.2919 43.0533L13.2062 42.057C11.5861 42.1963 10.391 42.5423 9.56003 43.3968C8.7388 44.2412 8.36182 45.494 8.13185 47.2046L9.12293 47.3378ZM13.2491 42.5552C13.6995 42.3382 13.6996 42.3382 13.6996 42.3383C13.6996 42.3383 13.6997 42.3384 13.6997 42.3384C13.6997 42.3385 13.6997 42.3385 13.6997 42.3385C13.6997 42.3384 13.6996 42.3382 13.6994 42.3379C13.6991 42.3373 13.6985 42.336 13.6977 42.3342C13.696 42.3307 13.6932 42.3248 13.6896 42.3169C13.6822 42.301 13.671 42.2766 13.6567 42.2446C13.6281 42.1804 13.5872 42.0858 13.5396 41.9674C13.4441 41.7298 13.3232 41.4003 13.2202 41.0308C13.0045 40.2564 12.908 39.4437 13.1328 38.905L12.2099 38.5199C11.8437 39.3977 12.036 40.5063 12.2569 41.2992C12.3723 41.7133 12.5066 42.0788 12.6118 42.3404C12.6645 42.4716 12.7103 42.5776 12.7433 42.6517C12.7598 42.6888 12.7732 42.7179 12.7826 42.7382C12.7874 42.7484 12.7911 42.7564 12.7938 42.7621C12.7952 42.7649 12.7962 42.7672 12.7971 42.7689C12.7975 42.7697 12.7978 42.7704 12.798 42.771C12.7982 42.7712 12.7983 42.7715 12.7984 42.7717C12.7984 42.7718 12.7985 42.7719 12.7985 42.7719C12.7986 42.772 12.7986 42.7722 13.2491 42.5552ZM13.1328 38.905C13.7929 37.3231 15.2603 36.2951 17.019 36.5857L17.182 35.5991C14.8775 35.2183 13.0118 36.5982 12.2099 38.5199L13.1328 38.905ZM17.019 36.5857C17.4512 36.6571 17.7685 36.7517 18.0441 36.888C18.3186 37.0238 18.5748 37.2126 18.8708 37.4995L19.5667 36.7814C19.2189 36.4442 18.8794 36.1856 18.4875 35.9917C18.0967 35.7983 17.6769 35.6809 17.182 35.5991L17.019 36.5857Z" fill="url(#paint0_linear_237_82)"/>
<path d="M31.8318 37.146C34.4866 36.856 35.4785 37.5767 36.2211 40.7079C37.6123 39.7133 38.677 39.6729 40.7933 39.9956C42.5837 40.4964 43.2335 41.2602 43.7194 43.5575L44.0852 46.7632C45.7571 46.9288 46.3282 47.3458 46.8285 48.5442C47.4695 49.8722 47.4416 50.8032 46.2798 52.9966C45.2376 54.1954 44.5339 54.5664 43.1708 54.9556" stroke="url(#paint1_linear_237_82)"/>
<path d="M27.9779 47.9484C28.4562 50.621 27.2836 52.5737 25.3502 56.0068C22.6652 51.7234 22.2293 50.0544 22.7225 47.9484C24.8566 44.5683 26.0084 44.6026 27.9779 47.9484Z" stroke="url(#paint2_linear_237_82)"/>
<path d="M25.1749 2.40146C16.2459 16.7295 14.6141 24.9742 19.7443 38.6639L16.0656 39.8901V52.6783L19.7443 44.9704C21.282 44.4296 21.0555 43.4594 20.7954 41.8171C24.9841 44.4232 26.879 44.1953 29.7296 41.8171C29.303 43.4622 29.4791 44.1793 30.7807 44.9704L34.2843 52.6783V39.8901L30.7807 38.6639C37.1346 24.5626 34.9047 16.5225 25.1749 2.40146Z" fill="white" stroke="url(#paint3_linear_237_82)"/>
<circle cx="25.5253" cy="20.6202" r="4.35397" stroke="url(#paint4_linear_237_82)"/>
<circle cx="25.8757" cy="32.1822" r="2.95253" stroke="url(#paint5_linear_237_82)"/>
<line x1="1.5" y1="31.8318" x2="1.5" y2="43.0434" stroke="#8A8A8A" stroke-opacity="0.55" stroke-dasharray="5 0"/>
<line x1="52.6527" y1="39.8901" x2="52.6527" y2="55.306" stroke="#8A8A8A" stroke-opacity="0.55" stroke-dasharray="5 0"/>
<g clip-path="url(#clip0_237_82)">
<circle cx="35.861" cy="6.43062" r="3.67879" fill="white"/>
<path d="M35.861 2.73721C35.1305 2.73721 34.4164 2.95383 33.809 3.35966C33.2017 3.7655 32.7283 4.34233 32.4487 5.01721C32.1692 5.69208 32.096 6.4347 32.2385 7.15115C32.3811 7.8676 32.7328 8.5257 33.2493 9.04223C33.7659 9.55876 34.424 9.91052 35.1404 10.053C35.8569 10.1955 36.5995 10.1224 37.2744 9.84285C37.9492 9.56331 38.5261 9.08992 38.9319 8.48254C39.3377 7.87517 39.5544 7.16109 39.5544 6.43061C39.5544 5.45106 39.1652 4.51163 38.4726 3.81898C37.7799 3.12634 36.8405 2.73721 35.861 2.73721V2.73721ZM35.861 9.45247C35.2633 9.45247 34.6791 9.27524 34.1821 8.9432C33.6852 8.61115 33.2978 8.1392 33.0691 7.58702C32.8404 7.03485 32.7806 6.42725 32.8972 5.84107C33.0138 5.25488 33.3016 4.71644 33.7242 4.29382C34.1468 3.87121 34.6852 3.5834 35.2714 3.4668C35.8576 3.3502 36.4652 3.41005 37.0174 3.63876C37.5696 3.86748 38.0415 4.2548 38.3736 4.75175C38.7056 5.24869 38.8828 5.83294 38.8828 6.43061C38.8828 7.23205 38.5645 8.00068 37.9977 8.56739C37.431 9.1341 36.6624 9.45247 35.861 9.45247V9.45247ZM36.5325 4.75179V4.41603C36.5325 4.32698 36.4971 4.24158 36.4341 4.17861C36.3712 4.11564 36.2858 4.08026 36.1967 4.08026C36.1077 4.08026 36.0223 4.11564 35.9593 4.17861C35.8963 4.24158 35.861 4.32698 35.861 4.41603V4.75179H35.5252V4.41603C35.5252 4.32698 35.4898 4.24158 35.4269 4.17861C35.3639 4.11564 35.2785 4.08026 35.1894 4.08026C35.1004 4.08026 35.015 4.11564 34.952 4.17861C34.8891 4.24158 34.8537 4.32698 34.8537 4.41603V4.75179H34.5179C34.4289 4.75179 34.3435 4.78717 34.2805 4.85013C34.2175 4.9131 34.1822 4.9985 34.1822 5.08755C34.1822 5.1766 34.2175 5.26201 34.2805 5.32497C34.3435 5.38794 34.4289 5.42332 34.5179 5.42332H34.8537V7.43789H34.5179C34.4289 7.43789 34.3435 7.47327 34.2805 7.53624C34.2175 7.5992 34.1822 7.68461 34.1822 7.77366C34.1822 7.86271 34.2175 7.94811 34.2805 8.01108C34.3435 8.07405 34.4289 8.10942 34.5179 8.10942H34.8537V8.44518C34.8537 8.53423 34.8891 8.61964 34.952 8.6826C35.015 8.74557 35.1004 8.78095 35.1894 8.78095C35.2785 8.78095 35.3639 8.74557 35.4269 8.6826C35.4898 8.61964 35.5252 8.53423 35.5252 8.44518V8.10942H35.861V8.44518C35.861 8.53423 35.8963 8.61964 35.9593 8.6826C36.0223 8.74557 36.1077 8.78095 36.1967 8.78095C36.2858 8.78095 36.3712 8.74557 36.4341 8.6826C36.4971 8.61964 36.5325 8.53423 36.5325 8.44518V8.10942C36.7996 8.10942 37.0558 8.0033 37.2448 7.81439C37.4337 7.62549 37.5398 7.36928 37.5398 7.10213C37.5392 6.85409 37.4472 6.61498 37.2812 6.43061C37.4472 6.24623 37.5392 6.00712 37.5398 5.75908C37.5398 5.49193 37.4337 5.23572 37.2448 5.04682C37.0558 4.85792 36.7996 4.75179 36.5325 4.75179V4.75179ZM36.5325 7.43789H35.5252V6.76637H36.5325C36.6215 6.76637 36.7069 6.80174 36.7699 6.86471C36.8329 6.92768 36.8683 7.01308 36.8683 7.10213C36.8683 7.19118 36.8329 7.27658 36.7699 7.33955C36.7069 7.40252 36.6215 7.43789 36.5325 7.43789ZM36.5325 6.09484H35.5252V5.42332H36.5325C36.6215 5.42332 36.7069 5.45869 36.7699 5.52166C36.8329 5.58463 36.8683 5.67003 36.8683 5.75908C36.8683 5.84813 36.8329 5.93353 36.7699 5.9965C36.7069 6.05947 36.6215 6.09484 36.5325 6.09484Z" fill="url(#paint6_linear_237_82)"/>
</g>
<g clip-path="url(#clip1_237_82)">
<path d="M45.1455 33.5836H46.547C46.6399 33.5836 46.729 33.5467 46.7947 33.481C46.8604 33.4153 46.8973 33.3262 46.8973 33.2333C46.8973 33.1403 46.8604 33.0512 46.7947 32.9855C46.729 32.9198 46.6399 32.8829 46.547 32.8829H45.8462V32.5325C45.8462 32.4396 45.8093 32.3505 45.7436 32.2848C45.6779 32.2191 45.5888 32.1822 45.4959 32.1822C45.403 32.1822 45.3138 32.2191 45.2481 32.2848C45.1824 32.3505 45.1455 32.4396 45.1455 32.5325V32.8829C44.8668 32.8829 44.5994 32.9936 44.4023 33.1908C44.2052 33.3879 44.0944 33.6552 44.0944 33.934C44.0944 34.2127 44.2052 34.4801 44.4023 34.6772C44.5994 34.8743 44.8668 34.9851 45.1455 34.9851H45.8462C45.9392 34.9851 46.0283 35.022 46.094 35.0877C46.1597 35.1534 46.1966 35.2425 46.1966 35.3354C46.1966 35.4283 46.1597 35.5175 46.094 35.5832C46.0283 35.6489 45.9392 35.6858 45.8462 35.6858H44.4448C44.3519 35.6858 44.2628 35.7227 44.1971 35.7884C44.1314 35.8541 44.0944 35.9432 44.0944 36.0362C44.0944 36.1291 44.1314 36.2182 44.1971 36.2839C44.2628 36.3496 44.3519 36.3865 44.4448 36.3865H45.1455V36.7369C45.1455 36.8298 45.1824 36.9189 45.2481 36.9846C45.3138 37.0503 45.403 37.0872 45.4959 37.0872C45.5888 37.0872 45.6779 37.0503 45.7436 36.9846C45.8093 36.9189 45.8462 36.8298 45.8462 36.7369V36.3865C46.125 36.3865 46.3924 36.2758 46.5895 36.0787C46.7866 35.8815 46.8973 35.6142 46.8973 35.3354C46.8973 35.0567 46.7866 34.7893 46.5895 34.5922C46.3924 34.3951 46.125 34.2843 45.8462 34.2843H45.1455C45.0526 34.2843 44.9635 34.2474 44.8978 34.1817C44.8321 34.116 44.7952 34.0269 44.7952 33.934C44.7952 33.8411 44.8321 33.7519 44.8978 33.6862C44.9635 33.6205 45.0526 33.5836 45.1455 33.5836V33.5836ZM45.4959 30.7807C44.7336 30.7807 43.9885 31.0068 43.3547 31.4302C42.7209 31.8537 42.227 32.4556 41.9353 33.1599C41.6436 33.8641 41.5673 34.639 41.716 35.3866C41.8647 36.1342 42.2317 36.8209 42.7707 37.3599C43.3097 37.8989 43.9964 38.2659 44.744 38.4146C45.4916 38.5633 46.2665 38.487 46.9707 38.1953C47.675 37.9036 48.2769 37.4096 48.7003 36.7759C49.1238 36.1421 49.3499 35.3969 49.3499 34.6347C49.3499 33.6126 48.9438 32.6323 48.2211 31.9095C47.4983 31.1868 46.518 30.7807 45.4959 30.7807V30.7807ZM45.4959 37.788C44.8722 37.788 44.2626 37.603 43.744 37.2565C43.2255 36.9101 42.8213 36.4176 42.5827 35.8414C42.344 35.2652 42.2816 34.6312 42.4032 34.0195C42.5249 33.4079 42.8252 32.846 43.2662 32.405C43.7072 31.964 44.269 31.6637 44.8807 31.542C45.4924 31.4204 46.1264 31.4828 46.7026 31.7215C47.2788 31.9601 47.7712 32.3643 48.1177 32.8829C48.4642 33.4014 48.6491 34.0111 48.6491 34.6347C48.6491 35.471 48.3169 36.273 47.7256 36.8644C47.1342 37.4557 46.3322 37.788 45.4959 37.788V37.788Z" fill="url(#paint7_linear_237_82)"/>
</g>
<g clip-path="url(#clip2_237_82)">
<circle cx="10.1093" cy="31.8318" r="3.85397" fill="white"/>
<path d="M11.5108 32.8829H9.69592C9.73671 32.7706 9.75804 32.6521 9.75899 32.5325V32.1822H10.6349C10.7278 32.1822 10.8169 32.1453 10.8826 32.0796C10.9483 32.0139 10.9853 31.9247 10.9853 31.8318C10.9853 31.7389 10.9483 31.6498 10.8826 31.5841C10.8169 31.5184 10.7278 31.4815 10.6349 31.4815H9.75899V31.1311C9.75821 30.9809 9.80694 30.8347 9.89764 30.715C9.98834 30.5953 10.1159 30.5088 10.2607 30.4689C10.4055 30.429 10.5594 30.438 10.6986 30.4943C10.8378 30.5507 10.9546 30.6513 11.0308 30.7807C11.0773 30.8616 11.1539 30.9207 11.2439 30.945C11.334 30.9693 11.43 30.9568 11.5108 30.9104C11.5916 30.8639 11.6507 30.7872 11.675 30.6972C11.6993 30.6072 11.6869 30.5112 11.6404 30.4304C11.4798 30.1785 11.243 29.9845 10.9643 29.8767C10.6857 29.7689 10.38 29.753 10.0917 29.8312C9.80338 29.9095 9.54762 30.0778 9.36172 30.3116C9.17581 30.5455 9.06949 30.8326 9.05826 31.1311V31.4815H8.7079C8.61498 31.4815 8.52586 31.5184 8.46016 31.5841C8.39445 31.6498 8.35754 31.7389 8.35754 31.8318C8.35754 31.9247 8.39445 32.0139 8.46016 32.0796C8.52586 32.1453 8.61498 32.1822 8.7079 32.1822H9.05826V32.5325C9.05826 32.6255 9.02135 32.7146 8.95564 32.7803C8.88994 32.846 8.80082 32.8829 8.7079 32.8829C8.61498 32.8829 8.52586 32.9198 8.46016 32.9855C8.39445 33.0512 8.35754 33.1403 8.35754 33.2333C8.35754 33.3262 8.39445 33.4153 8.46016 33.481C8.52586 33.5467 8.61498 33.5836 8.7079 33.5836H11.5108C11.6037 33.5836 11.6928 33.5467 11.7585 33.481C11.8242 33.4153 11.8612 33.3262 11.8612 33.2333C11.8612 33.1403 11.8242 33.0512 11.7585 32.9855C11.6928 32.9198 11.6037 32.8829 11.5108 32.8829ZM10.1093 27.9778C9.3471 27.9778 8.60198 28.2039 7.96819 28.6274C7.33441 29.0508 6.84044 29.6527 6.54874 30.357C6.25704 31.0612 6.18072 31.8361 6.32943 32.5837C6.47813 33.3313 6.84519 34.018 7.38418 34.557C7.92316 35.096 8.60988 35.463 9.35747 35.6117C10.1051 35.7604 10.88 35.6841 11.5842 35.3924C12.2884 35.1007 12.8903 34.6068 13.3138 33.973C13.7373 33.3392 13.9633 32.5941 13.9633 31.8318C13.9633 30.8097 13.5573 29.8294 12.8345 29.1066C12.1118 28.3839 11.1315 27.9778 10.1093 27.9778V27.9778ZM10.1093 34.9851C9.48569 34.9851 8.87604 34.8001 8.35749 34.4537C7.83894 34.1072 7.43478 33.6147 7.19612 33.0385C6.95746 32.4623 6.89502 31.8283 7.01668 31.2166C7.13835 30.605 7.43867 30.0431 7.87966 29.6021C8.32065 29.1611 8.88251 28.8608 9.49418 28.7392C10.1058 28.6175 10.7399 28.6799 11.316 28.9186C11.8922 29.1573 12.3847 29.5614 12.7312 30.08C13.0777 30.5985 13.2626 31.2082 13.2626 31.8318C13.2626 32.6681 12.9304 33.4702 12.339 34.0615C11.7477 34.6529 10.9456 34.9851 10.1093 34.9851V34.9851Z" fill="url(#paint8_linear_237_82)"/>
</g>
<g clip-path="url(#clip3_237_82)">
<circle cx="13.4378" cy="13.0875" r="2.27735" fill="white"/>
<path d="M13.4378 10.6787C12.9614 10.6787 12.4957 10.82 12.0996 11.0847C11.7035 11.3493 11.3948 11.7255 11.2125 12.1657C11.0302 12.6058 10.9825 13.0901 11.0754 13.5574C11.1683 14.0246 11.3977 14.4538 11.7346 14.7907C12.0715 15.1275 12.5007 15.357 12.9679 15.4499C13.4352 15.5428 13.9195 15.4951 14.3596 15.3128C14.7998 15.1305 15.176 14.8218 15.4406 14.4257C15.7053 14.0296 15.8466 13.5638 15.8466 13.0874C15.8466 12.4486 15.5928 11.8359 15.1411 11.3842C14.6894 10.9325 14.0767 10.6787 13.4378 10.6787V10.6787ZM13.4378 15.0582C13.0481 15.0582 12.667 14.9426 12.3429 14.7261C12.0188 14.5095 11.7662 14.2017 11.6171 13.8416C11.4679 13.4815 11.4289 13.0853 11.5049 12.703C11.581 12.3207 11.7687 11.9695 12.0443 11.6939C12.3199 11.4183 12.6711 11.2306 13.0534 11.1545C13.4357 11.0785 13.8319 11.1175 14.192 11.2667C14.5521 11.4158 14.8599 11.6684 15.0765 11.9925C15.293 12.3166 15.4086 12.6977 15.4086 13.0874C15.4086 13.6101 15.201 14.1114 14.8314 14.481C14.4618 14.8506 13.9605 15.0582 13.4378 15.0582V15.0582ZM13.567 12.1393C13.6795 12.1421 13.7897 12.1709 13.8892 12.2233C13.9887 12.2757 14.0748 12.3504 14.1408 12.4415C14.1759 12.4876 14.228 12.5179 14.2854 12.5257C14.3429 12.5335 14.4011 12.5182 14.4473 12.4831C14.4703 12.4655 14.4896 12.4435 14.504 12.4184C14.5185 12.3933 14.5278 12.3656 14.5314 12.3369C14.5351 12.3082 14.533 12.279 14.5254 12.2511C14.5177 12.2232 14.5046 12.1971 14.4867 12.1743C14.3802 12.03 14.2418 11.9122 14.0823 11.8302C13.9227 11.7481 13.7464 11.704 13.567 11.7013C13.3163 11.7086 13.0739 11.7931 12.8728 11.9432C12.6718 12.0932 12.522 12.3017 12.4437 12.54H12.124C12.0659 12.54 12.0102 12.5631 11.9692 12.6041C11.9281 12.6452 11.905 12.7009 11.905 12.759C11.905 12.8171 11.9281 12.8728 11.9692 12.9138C12.0102 12.9549 12.0659 12.978 12.124 12.978H12.343C12.343 13.0152 12.343 13.0502 12.343 13.0874C12.343 13.1247 12.343 13.1597 12.343 13.1969H12.124C12.0659 13.1969 12.0102 13.22 11.9692 13.2611C11.9281 13.3021 11.905 13.3578 11.905 13.4159C11.905 13.474 11.9281 13.5297 11.9692 13.5707C12.0102 13.6118 12.0659 13.6349 12.124 13.6349H12.4437C12.522 13.8732 12.6718 14.0817 12.8728 14.2317C13.0739 14.3818 13.3163 14.4663 13.567 14.4736C13.7464 14.4709 13.9227 14.4268 14.0823 14.3447C14.2418 14.2627 14.3802 14.1449 14.4867 14.0006C14.5103 13.9787 14.5287 13.9519 14.5408 13.922C14.5528 13.8922 14.5581 13.8601 14.5563 13.828C14.5545 13.7959 14.5457 13.7646 14.5304 13.7362C14.5151 13.7079 14.4938 13.6833 14.468 13.6642C14.4421 13.6451 14.4124 13.6318 14.3809 13.6255C14.3493 13.6192 14.3168 13.6198 14.2856 13.6275C14.2543 13.6351 14.2252 13.6496 14.2001 13.6698C14.1751 13.69 14.1548 13.7155 14.1408 13.7444C14.0748 13.8355 13.9887 13.9101 13.8892 13.9625C13.7897 14.0149 13.6795 14.0437 13.567 14.0466C13.4334 14.0413 13.3036 14.0003 13.1912 13.9279C13.0788 13.8555 12.9877 13.7543 12.9276 13.6349H13.4378C13.4959 13.6349 13.5516 13.6118 13.5927 13.5707C13.6338 13.5297 13.6568 13.474 13.6568 13.4159C13.6568 13.3578 13.6338 13.3021 13.5927 13.2611C13.5516 13.22 13.4959 13.1969 13.4378 13.1969H12.7919C12.7861 13.1607 12.7824 13.1241 12.7809 13.0874C12.7824 13.0508 12.7861 13.0142 12.7919 12.978H13.4378C13.4959 12.978 13.5516 12.9549 13.5927 12.9138C13.6338 12.8728 13.6568 12.8171 13.6568 12.759C13.6568 12.7009 13.6338 12.6452 13.5927 12.6041C13.5516 12.5631 13.4959 12.54 13.4378 12.54H12.9276C12.9892 12.4226 13.0808 12.3236 13.1932 12.2532C13.3055 12.1828 13.4345 12.1435 13.567 12.1393V12.1393Z" fill="url(#paint9_linear_237_82)"/>
</g>
<defs>
<linearGradient id="paint0_linear_237_82" x1="-0.191724" y1="36.0453" x2="14.6025" y2="53.3212" gradientUnits="userSpaceOnUse">
<stop stop-color="#FF6600"/>
<stop offset="1" stop-color="#2042B8"/>
</linearGradient>
<linearGradient id="paint1_linear_237_82" x1="30.5014" y1="37.0957" x2="44.3373" y2="52.1283" gradientUnits="userSpaceOnUse">
<stop stop-color="#FF6600"/>
<stop offset="1" stop-color="#2042B8"/>
</linearGradient>
<linearGradient id="paint2_linear_237_82" x1="22.0677" y1="45.4312" x2="29.6234" y2="50.4125" gradientUnits="userSpaceOnUse">
<stop stop-color="#FF6600"/>
<stop offset="1" stop-color="#2042B8"/>
</linearGradient>
<linearGradient id="paint3_linear_237_82" x1="14.4863" y1="2.42545" x2="44.0804" y2="15.9905" gradientUnits="userSpaceOnUse">
<stop stop-color="#FF6600"/>
<stop offset="1" stop-color="#2042B8"/>
</linearGradient>
<linearGradient id="paint4_linear_237_82" x1="21.0061" y1="16.7699" x2="26.8393" y2="24.1159" gradientUnits="userSpaceOnUse">
<stop stop-color="#FF6600"/>
<stop offset="1" stop-color="#2042B8"/>
</linearGradient>
<linearGradient id="paint5_linear_237_82" x1="22.9998" y1="29.732" x2="26.7119" y2="34.4067" gradientUnits="userSpaceOnUse">
<stop stop-color="#FF6600"/>
<stop offset="1" stop-color="#2042B8"/>
</linearGradient>
<linearGradient id="paint6_linear_237_82" x1="31.5301" y1="2.74074" x2="37.1203" y2="9.78065" gradientUnits="userSpaceOnUse">
<stop stop-color="#FF6600"/>
<stop offset="1" stop-color="#2042B8"/>
</linearGradient>
<linearGradient id="paint7_linear_237_82" x1="40.9767" y1="30.7844" x2="46.8099" y2="38.1304" gradientUnits="userSpaceOnUse">
<stop stop-color="#FF6600"/>
<stop offset="1" stop-color="#2042B8"/>
</linearGradient>
<linearGradient id="paint8_linear_237_82" x1="5.59017" y1="27.9815" x2="11.4234" y2="35.3275" gradientUnits="userSpaceOnUse">
<stop stop-color="#FF6600"/>
<stop offset="1" stop-color="#2042B8"/>
</linearGradient>
<linearGradient id="paint9_linear_237_82" x1="10.6134" y1="10.681" x2="14.2591" y2="15.2723" gradientUnits="userSpaceOnUse">
<stop stop-color="#FF6600"/>
<stop offset="1" stop-color="#2042B8"/>
</linearGradient>
<clipPath id="clip0_237_82">
<rect width="8.05831" height="8.05831" fill="white" transform="translate(31.8318 2.40146)"/>
</clipPath>
<clipPath id="clip1_237_82">
<rect width="8.40867" height="8.40867" fill="white" transform="translate(41.2915 30.4304)"/>
</clipPath>
<clipPath id="clip2_237_82">
<rect width="8.40867" height="8.40867" fill="white" transform="translate(5.90503 27.6275)"/>
</clipPath>
<clipPath id="clip3_237_82">
<rect width="5.25542" height="5.25542" fill="white" transform="translate(10.8101 10.4597)"/>
</clipPath>
</defs>
</svg>
