<svg width="388" height="325" viewBox="0 0 388 325" fill="none" xmlns="http://www.w3.org/2000/svg">
<rect width="388" height="324.389" rx="22" fill="#FF6600" fill-opacity="0.22"/>
<path d="M341 239.851H47V239.998H341V239.851Z" fill="#EBEBEB"/>
<path d="M148.853 243.603H135.224V243.75H148.853V243.603Z" fill="#EBEBEB"/>
<path d="M316.757 246.754H283.435V246.901H316.757V246.754Z" fill="#EBEBEB"/>
<path d="M105.441 246.754H72.1191V246.901H105.441V246.754Z" fill="#EBEBEB"/>
<path d="M186.356 213.626H72.8189C71.9294 213.625 71.077 213.271 70.4486 212.641C69.8202 212.012 69.4673 211.158 69.4673 210.269V50.6682C69.475 49.7838 69.8314 48.9383 70.4589 48.3151C71.0865 47.692 71.9345 47.3416 72.8189 47.3401H186.356C187.246 47.3401 188.1 47.6938 188.73 48.3235C189.36 48.9531 189.713 49.8071 189.713 50.6976V210.269C189.713 211.159 189.36 212.013 188.73 212.643C188.1 213.273 187.246 213.626 186.356 213.626ZM72.8189 47.4577C71.9684 47.4592 71.1533 47.7982 70.5525 48.4001C69.9517 49.002 69.6143 49.8177 69.6143 50.6682V210.269C69.6143 211.119 69.9517 211.935 70.5525 212.537C71.1533 213.139 71.9684 213.478 72.8189 213.479H186.356C187.206 213.476 188.021 213.137 188.623 212.536C189.224 211.934 189.563 211.12 189.566 210.269V50.6682C189.563 49.8176 189.224 49.0029 188.623 48.4014C188.021 47.8 187.206 47.4608 186.356 47.4577H72.8189Z" fill="#EBEBEB"/>
<path d="M313.546 213.626H200.003C199.114 213.623 198.262 213.269 197.633 212.64C197.004 212.011 196.649 211.159 196.646 210.269V50.6682C196.655 49.7833 197.013 48.9377 197.641 48.3148C198.27 47.6918 199.119 47.3416 200.003 47.3401H313.546C314.43 47.3431 315.276 47.6942 315.902 48.3172C316.529 48.9402 316.884 49.7848 316.892 50.6682V210.269C316.893 210.709 316.807 211.145 316.639 211.552C316.471 211.959 316.225 212.329 315.914 212.641C315.604 212.952 315.235 213.2 314.828 213.369C314.422 213.538 313.986 213.626 313.546 213.626ZM200.003 47.4577C199.153 47.4608 198.338 47.8 197.737 48.4014C197.135 49.0029 196.796 49.8176 196.793 50.6682V210.269C196.796 211.12 197.135 211.934 197.737 212.536C198.338 213.137 199.153 213.476 200.003 213.479H313.546C314.397 213.476 315.212 213.137 315.813 212.536C316.414 211.934 316.754 211.12 316.757 210.269V50.6682C316.754 49.8176 316.414 49.0029 315.813 48.4014C315.212 47.8 314.397 47.4608 313.546 47.4577H200.003Z" fill="#EBEBEB"/>
<path d="M232.261 193.182H218.684V240.169H232.261V193.182Z" fill="#E6E6E6"/>
<path d="M222.647 193.182H209.07V240.169H222.647V193.182Z" fill="url(#paint0_linear_271_142)" fill-opacity="0.4"/>
<path d="M220.072 240.169H222.647V232.831H217.361L220.072 240.169Z" fill="#F0F0F0"/>
<path d="M154.398 193.182H140.821V240.169H154.398V193.182Z" fill="#E6E6E6"/>
<path d="M222.653 193.182H152.152V236.559H222.653V193.182Z" fill="url(#paint1_linear_271_142)" fill-opacity="0.4"/>
<path d="M218.261 226.798H190.625C189.913 226.795 189.231 226.511 188.728 226.007C188.225 225.504 187.941 224.822 187.938 224.111V197.703C187.939 196.992 188.223 196.31 188.727 195.807C189.23 195.305 189.913 195.022 190.625 195.022H218.231C218.943 195.022 219.626 195.305 220.129 195.807C220.633 196.31 220.917 196.992 220.918 197.703V224.111C220.915 224.817 220.635 225.495 220.138 225.997C219.641 226.499 218.967 226.787 218.261 226.798ZM190.625 195.634C190.072 195.634 189.541 195.853 189.149 196.243C188.756 196.633 188.534 197.162 188.531 197.715V224.122C188.528 224.397 188.579 224.67 188.682 224.925C188.784 225.18 188.936 225.413 189.128 225.609C189.32 225.806 189.549 225.963 189.802 226.071C190.055 226.179 190.326 226.236 190.601 226.239H218.237C218.791 226.242 219.324 226.026 219.719 225.636C220.113 225.247 220.338 224.718 220.342 224.163V197.703C220.342 197.43 220.288 197.158 220.183 196.906C220.078 196.653 219.924 196.423 219.73 196.23C219.537 196.036 219.306 195.883 219.053 195.779C218.8 195.674 218.529 195.621 218.255 195.622L190.625 195.634Z" fill="#E0E0E0"/>
<path d="M184.145 226.798H156.509C155.797 226.795 155.116 226.511 154.612 226.007C154.109 225.504 153.825 224.822 153.822 224.111V197.703C153.823 196.992 154.107 196.31 154.611 195.807C155.115 195.305 155.797 195.022 156.509 195.022H184.145C184.857 195.022 185.539 195.305 186.043 195.807C186.547 196.31 186.831 196.992 186.832 197.703V224.111C186.831 224.823 186.547 225.505 186.043 226.009C185.54 226.513 184.857 226.796 184.145 226.798ZM156.509 195.634C156.235 195.633 155.964 195.686 155.711 195.79C155.457 195.895 155.227 196.048 155.033 196.241C154.839 196.435 154.686 196.664 154.581 196.917C154.476 197.17 154.422 197.441 154.422 197.715V224.122C154.422 224.396 154.476 224.668 154.58 224.921C154.685 225.174 154.839 225.405 155.033 225.598C155.227 225.792 155.457 225.946 155.71 226.051C155.963 226.156 156.235 226.21 156.509 226.21H184.145C184.699 226.208 185.229 225.988 185.621 225.597C186.013 225.206 186.235 224.676 186.238 224.122V197.703C186.235 197.15 186.013 196.621 185.621 196.231C185.229 195.841 184.698 195.622 184.145 195.622L156.509 195.634Z" fill="#E0E0E0"/>
<path d="M181.581 203.366C181.069 203.366 180.568 203.214 180.141 202.929C179.715 202.645 179.383 202.24 179.186 201.766C178.99 201.293 178.938 200.772 179.038 200.269C179.137 199.766 179.384 199.304 179.746 198.941C180.108 198.578 180.569 198.331 181.072 198.23C181.574 198.13 182.096 198.18 182.57 198.375C183.044 198.571 183.449 198.902 183.735 199.328C184.02 199.754 184.173 200.254 184.174 200.767C184.174 201.455 183.901 202.115 183.415 202.603C182.929 203.09 182.27 203.364 181.581 203.366Z" fill="#FAFAFA"/>
<path d="M193.212 203.366C192.699 203.369 192.197 203.221 191.769 202.939C191.34 202.657 191.005 202.254 190.806 201.781C190.606 201.309 190.551 200.788 190.648 200.284C190.745 199.781 190.988 199.317 191.349 198.952C191.709 198.587 192.169 198.337 192.671 198.233C193.174 198.13 193.695 198.177 194.171 198.37C194.646 198.564 195.053 198.893 195.341 199.318C195.629 199.742 195.784 200.242 195.788 200.755V200.808C195.78 201.487 195.506 202.136 195.024 202.614C194.542 203.093 193.891 203.363 193.212 203.366Z" fill="#FAFAFA"/>
<path d="M154.727 240.169H152.146V232.831H157.432L154.727 240.169Z" fill="#F0F0F0"/>
<path d="M150.076 193.182H136.5V240.169H150.076V193.182Z" fill="#E6E6E6"/>
<path d="M147.495 240.169H150.076V232.831H144.79L147.495 240.169Z" fill="#F0F0F0"/>
<path d="M150.076 193.182H79.5752V236.559H150.076V193.182Z" fill="url(#paint2_linear_271_142)" fill-opacity="0.4"/>
<path d="M145.684 226.798H118.048C117.335 226.798 116.652 226.515 116.148 226.011C115.644 225.507 115.361 224.823 115.361 224.111V197.703C115.362 196.992 115.646 196.31 116.15 195.807C116.654 195.305 117.336 195.022 118.048 195.022H145.655C146.366 195.022 147.049 195.305 147.553 195.807C148.056 196.31 148.34 196.992 148.342 197.703V224.111C148.342 224.818 148.063 225.497 147.565 226C147.068 226.503 146.392 226.79 145.684 226.798ZM118.048 195.634C117.774 195.633 117.503 195.686 117.25 195.79C116.996 195.895 116.766 196.048 116.572 196.241C116.378 196.435 116.225 196.664 116.12 196.917C116.015 197.17 115.961 197.441 115.961 197.715V224.122C115.957 224.397 116.009 224.67 116.111 224.925C116.213 225.18 116.365 225.413 116.557 225.609C116.749 225.806 116.978 225.963 117.231 226.071C117.484 226.179 117.755 226.236 118.03 226.239H145.666C146.221 226.242 146.754 226.026 147.15 225.637C147.546 225.248 147.771 224.718 147.777 224.163V197.703C147.774 197.151 147.553 196.623 147.162 196.233C146.771 195.843 146.242 195.624 145.69 195.622L118.048 195.634Z" fill="#E0E0E0"/>
<path d="M111.568 226.798H83.9674C83.2548 226.798 82.5713 226.515 82.0673 226.011C81.5634 225.507 81.2803 224.823 81.2803 224.111V197.704C81.2803 197.351 81.3498 197.002 81.4849 196.676C81.62 196.35 81.8181 196.055 82.0677 195.805C82.3173 195.556 82.6136 195.359 82.9395 195.225C83.2655 195.09 83.6148 195.021 83.9674 195.022H111.568C111.921 195.021 112.27 195.09 112.596 195.225C112.922 195.359 113.218 195.556 113.468 195.805C113.718 196.055 113.916 196.35 114.051 196.676C114.186 197.002 114.255 197.351 114.255 197.704V224.111C114.254 224.823 113.97 225.505 113.467 226.009C112.963 226.513 112.28 226.796 111.568 226.798ZM83.9674 195.634C83.6931 195.632 83.4212 195.685 83.1673 195.789C82.9134 195.893 82.6825 196.046 82.488 196.239C82.2934 196.433 82.1391 196.663 82.0337 196.916C81.9284 197.169 81.8742 197.441 81.8742 197.715V224.122C81.871 224.397 81.9221 224.67 82.0245 224.925C82.1268 225.18 82.2784 225.413 82.4706 225.609C82.6628 225.806 82.8918 225.963 83.1446 226.071C83.3974 226.179 83.669 226.236 83.9439 226.239H111.58C111.855 226.24 112.127 226.186 112.381 226.082C112.634 225.977 112.865 225.824 113.06 225.63C113.254 225.436 113.408 225.206 113.514 224.952C113.619 224.698 113.673 224.426 113.673 224.152V197.692C113.673 197.417 113.619 197.146 113.514 196.892C113.408 196.639 113.254 196.409 113.059 196.216C112.865 196.022 112.634 195.869 112.38 195.765C112.126 195.661 111.854 195.609 111.58 195.61L83.9674 195.634Z" fill="#E0E0E0"/>
<path d="M109.011 203.366C108.498 203.367 107.996 203.216 107.569 202.932C107.142 202.648 106.809 202.244 106.611 201.771C106.414 201.297 106.361 200.776 106.46 200.273C106.559 199.769 106.805 199.307 107.167 198.943C107.529 198.58 107.99 198.332 108.493 198.231C108.996 198.129 109.517 198.18 109.992 198.375C110.466 198.57 110.872 198.901 111.157 199.327C111.443 199.753 111.597 200.254 111.598 200.767C111.599 201.108 111.534 201.445 111.404 201.761C111.275 202.076 111.085 202.362 110.844 202.604C110.604 202.845 110.318 203.037 110.003 203.168C109.689 203.299 109.351 203.366 109.011 203.366Z" fill="#FAFAFA"/>
<path d="M120.641 203.366C120.128 203.369 119.626 203.221 119.197 202.939C118.769 202.657 118.434 202.254 118.234 201.781C118.035 201.309 117.98 200.788 118.077 200.284C118.173 199.781 118.417 199.317 118.777 198.952C119.138 198.587 119.598 198.337 120.1 198.233C120.602 198.13 121.124 198.177 121.599 198.37C122.074 198.564 122.482 198.893 122.77 199.318C123.057 199.742 123.213 200.242 123.216 200.755V200.808C123.209 201.487 122.934 202.136 122.452 202.614C121.971 203.093 121.32 203.363 120.641 203.366Z" fill="#FAFAFA"/>
<path d="M82.1506 240.169H79.5752V232.831H84.8554L82.1506 240.169Z" fill="url(#paint3_linear_271_142)" fill-opacity="0.4"/>
<path d="M204.161 62.9338H178.9V88.1943H204.161V62.9338Z" fill="#EBEBEB"/>
<path d="M205.284 62.9397H204.167V88.2002H205.284V62.9397Z" fill="#E0E0E0"/>
<path d="M200.744 66.3618H182.328V84.778H200.744V66.3618Z" fill="white"/>
<path d="M194.617 78.6452C194.213 79.0507 193.732 79.3724 193.203 79.592C192.674 79.8115 192.106 79.9245 191.533 79.9245C190.96 79.9245 190.393 79.8115 189.864 79.592C189.335 79.3724 188.854 79.0507 188.449 78.6452C187.633 77.8273 187.175 76.7192 187.175 75.5641C187.175 74.4089 187.633 73.3008 188.449 72.4829C189.268 71.6668 190.377 71.2085 191.533 71.2085C192.689 71.2085 193.798 71.6668 194.617 72.4829C195.433 73.3008 195.891 74.4089 195.891 75.5641C195.891 76.7192 195.433 77.8273 194.617 78.6452Z" fill="#F5F5F5"/>
<path d="M179.417 95.415H149.8V125.033H179.417V95.415Z" fill="#EBEBEB"/>
<path d="M180.729 95.4209H179.417V125.038H180.729V95.4209Z" fill="#E0E0E0"/>
<path d="M175.407 99.4309H153.816V121.022H175.407V99.4309Z" fill="white"/>
<path d="M169.21 105.617H160.002V114.825H169.21V105.617Z" fill="#F5F5F5"/>
<path d="M311.894 85.8894H295.859V89.635H311.894V85.8894Z" fill="#E6E6E6"/>
<path d="M295.859 85.8894H229.486V89.635H295.859V85.8894Z" fill="#F5F5F5"/>
<path d="M267.2 66.0032H248.514V85.8952H267.2V66.0032Z" fill="#E0E0E0"/>
<path d="M248.513 66.0032H243.727V85.8952H248.513V66.0032Z" fill="#F0F0F0"/>
<path d="M272.098 62.9338H258.062V85.8894H272.098V62.9338Z" fill="#E6E6E6"/>
<path d="M258.068 62.9338H254.011V85.8894H258.068V62.9338Z" fill="#F0F0F0"/>
<path d="M274.039 66.0032H262.202V85.8952H274.039V66.0032Z" fill="#F0F0F0"/>
<path d="M262.202 66.0032H259.498V85.8952H262.202V66.0032Z" fill="#FAFAFA"/>
<path d="M287.41 69.3665H271.887V85.8893H287.41V69.3665Z" fill="#E6E6E6"/>
<path d="M271.886 69.3665H267.912V85.8893H271.886V69.3665Z" fill="#FAFAFA"/>
<path d="M291.479 66.8206H279.819V85.8953H291.479V66.8206Z" fill="#E6E6E6"/>
<path d="M279.818 66.8206H276.449V85.8953H279.818V66.8206Z" fill="#F0F0F0"/>
<path d="M294.577 69.3665H283.252V85.8893H294.577V69.3665Z" fill="#F0F0F0"/>
<path d="M283.253 69.3665H281.006V85.8893H283.253V69.3665Z" fill="#FAFAFA"/>
<path d="M286.369 196.939C291.39 190.377 303.344 187.937 307.478 183.797C312.888 178.37 312.864 170.226 308.254 167.286C304.256 164.734 290.99 181.986 289.503 183.927C284.358 190.565 282.87 195.487 281.906 200.255C282.018 196.204 282.123 192.476 282.212 189.607C282.488 180.24 282.835 177.223 283 176.3C283.588 175.842 284.211 175.318 284.587 175.036C287.798 172.643 294.912 169.791 298.47 166.316C303.668 161.236 302.827 155.144 299.181 152.892C295.377 150.54 288.638 156.12 285.069 161.665C281.5 167.21 283.023 172.525 282.023 177.094C281.812 178 281.594 181.428 281.394 186.184C280.548 181.497 277.955 177.305 274.138 174.454C269.217 170.526 264.966 165.74 260.908 166.357C256.851 166.975 259.056 173.307 262.243 177.753C265.101 181.71 279.207 185.661 281.283 188.842C281.036 195.31 280.818 203.454 280.665 211.063C279.554 207.135 280.318 206.806 275.761 200.773C273.056 197.198 261.943 192.776 260.626 195.246C259.309 197.715 261.314 202.349 265.507 205.6C268.888 208.223 276.361 208.217 278.131 209.846C278.537 210.222 279.895 211.68 280.636 212.521C280.453 221.8 280.377 229.991 280.465 232.789L281.194 232.819C281.159 232.096 281.241 227.374 281.388 221.123C283.211 217.801 295.5 215.831 299.269 212.398C303.233 208.781 306.079 204.559 304.379 201.731C302.962 199.379 291.808 202.578 287.239 206.482C284.217 209.081 282.37 211.862 281.524 215.59C281.624 211.333 281.747 206.77 281.859 202.449C282.788 201.396 284.863 198.909 286.369 196.939Z" fill="url(#paint4_linear_271_142)" fill-opacity="0.4"/>
<path d="M287.439 240.045H274.703C274.003 240.045 273.404 239.14 273.268 237.882L272.363 229.65H289.773L288.874 237.882C288.727 239.14 288.133 240.045 287.439 240.045Z" fill="#F0F0F0"/>
<path d="M290.138 232.831H271.998C271.563 232.831 271.199 232.243 271.152 231.431L270.781 225.339C270.722 224.405 271.116 223.575 271.628 223.575H290.515C291.02 223.575 291.414 224.393 291.355 225.339L290.985 231.431C290.944 232.231 290.573 232.831 290.138 232.831Z" fill="#F0F0F0"/>
<path d="M194 266.405C256.965 266.405 308.007 263.425 308.007 259.749C308.007 256.073 256.965 253.093 194 253.093C131.036 253.093 79.9927 256.073 79.9927 259.749C79.9927 263.425 131.036 266.405 194 266.405Z" fill="#F5F5F5"/>
<path d="M173.12 106.54C171.821 109.697 164.171 109.48 156.157 106.175C148.142 102.871 142.691 97.6315 143.991 94.4739C144.297 93.7448 145.167 91.0106 146.037 90.6343C149.024 89.3701 154.71 92.2101 160.866 94.7503C166.599 97.1023 173.156 98.637 174.173 101.747C174.784 103.641 173.491 105.64 173.12 106.54Z" fill="url(#paint5_linear_271_142)"/>
<path opacity="0.2" d="M174.173 101.748C174.661 104.223 173.585 105.411 173.12 106.54C172.656 107.669 171.297 108.41 169.398 108.668C169.161 108.709 168.921 108.736 168.681 108.751C167.224 108.836 165.763 108.759 164.324 108.521C164.118 108.521 163.912 108.457 163.7 108.421C162.011 108.118 160.346 107.69 158.72 107.14L158.132 106.94C157.479 106.71 156.809 106.458 156.139 106.181C155.468 105.905 154.833 105.593 154.204 105.317L153.663 105.058C152.181 104.325 150.752 103.488 149.388 102.553L148.906 102.212C147.716 101.371 146.625 100.396 145.655 99.3074C145.508 99.1428 145.372 98.984 145.243 98.8194C143.979 97.22 143.479 95.6912 143.979 94.4741C144.308 93.692 145.014 91.0166 146.025 90.6285C147.269 90.2781 148.586 90.2781 149.829 90.6285L150.417 90.7697C153.357 91.5223 157.062 93.1981 160.843 94.7563C165.3 96.5968 170.574 98.5078 173.161 100.713C173.315 100.842 173.462 100.98 173.602 101.124C173.809 101.317 173.999 101.525 174.173 101.748Z" fill="black"/>
<g opacity="0.2">
<path opacity="0.2" d="M150.712 90.2639L150.441 90.7578L145.666 99.3015C145.519 99.1369 145.384 98.9781 145.255 98.8134L149.841 90.6167L150.2 89.9817L150.712 90.2639Z" fill="black"/>
</g>
<g opacity="0.2">
<path opacity="0.2" d="M154.322 93.7507L149.4 102.571L148.918 102.23L153.81 93.4802L154.322 93.7507Z" fill="black"/>
</g>
<g opacity="0.2">
<path opacity="0.2" d="M163.371 98.8075L158.72 107.139L158.132 106.94L162.836 98.4958L163.371 98.8075Z" fill="black"/>
</g>
<g opacity="0.2">
<path opacity="0.2" d="M159.161 96.4557L154.216 105.317L153.675 105.058L158.649 96.144L159.161 96.4557Z" fill="black"/>
</g>
<g opacity="0.2">
<path opacity="0.2" d="M168.857 100.419L164.323 108.521C164.118 108.521 163.912 108.457 163.7 108.421L168.34 100.125L168.857 100.419Z" fill="black"/>
</g>
<path d="M174.137 103.788C172.838 106.946 165.282 106.822 157.262 103.512C149.241 100.201 143.797 94.968 145.102 91.8105C146.407 88.6529 153.957 88.7823 161.978 92.0868C169.998 95.3914 175.437 100.613 174.137 103.788Z" fill="url(#paint6_linear_271_142)"/>
<path opacity="0.2" d="M171.409 102.641C170.492 104.87 164.6 104.558 158.256 101.942C151.911 99.3251 147.513 95.3914 148.43 93.1628C149.347 90.9343 155.239 91.246 161.589 93.8626C167.94 96.4792 172.332 100.413 171.409 102.641Z" fill="white"/>
<path d="M213.645 77.9984C215.738 80.6973 211.752 87.23 204.89 92.5396C198.028 97.8492 190.778 99.966 188.69 97.2436C188.208 96.6203 186.256 94.5329 186.374 93.5568C186.768 90.3405 192.054 86.8242 197.322 82.7435C202.226 78.945 206.807 74.0176 210.011 74.682C211.958 75.1113 213.051 77.234 213.645 77.9984Z" fill="url(#paint7_linear_271_142)"/>
<path opacity="0.2" d="M210.011 74.7056C212.404 75.517 212.898 77.0576 213.645 77.9984C214.392 78.9392 214.362 80.5091 213.645 82.2908C213.563 82.5083 213.463 82.7259 213.357 82.9493C212.713 84.2565 211.924 85.4873 211.005 86.6185C210.882 86.7831 210.746 86.9418 210.611 87.1065C209.505 88.4253 208.302 89.6596 207.012 90.7991L206.56 91.1931C206.036 91.6459 205.484 92.0986 204.913 92.5396C204.343 92.9806 203.773 93.3981 203.196 93.7921C203.038 93.9097 202.867 94.0214 202.708 94.1331C201.334 95.0547 199.896 95.8761 198.404 96.5909C198.222 96.685 198.045 96.7615 197.875 96.8438C196.549 97.457 195.159 97.9185 193.73 98.2197C193.518 98.2667 193.312 98.302 193.106 98.3314C191.089 98.6313 189.514 98.3314 188.708 97.2671C188.191 96.5968 186.221 94.6505 186.391 93.5862C186.699 92.3281 187.353 91.1813 188.279 90.2758C188.408 90.1288 188.549 89.9818 188.696 89.8289C190.819 87.6298 194.106 85.2719 197.34 82.7729C201.156 79.8329 205.437 76.1932 208.629 75.0525C208.822 74.9817 209.018 74.9209 209.217 74.8702C209.478 74.796 209.743 74.741 210.011 74.7056Z" fill="black"/>
<g opacity="0.2">
<path opacity="0.2" d="M188.385 89.3467L188.679 89.8288L193.712 98.2196C193.5 98.2666 193.294 98.3019 193.089 98.3313L188.261 90.264L187.885 89.676L188.385 89.3467Z" fill="black"/>
</g>
<g opacity="0.2">
<path opacity="0.2" d="M193.201 87.9473L198.387 96.5909C198.204 96.6849 198.028 96.7614 197.857 96.8437L192.695 88.2471L193.201 87.9473Z" fill="black"/>
</g>
<g opacity="0.2">
<path opacity="0.2" d="M202.085 82.6199L206.995 90.8048L206.542 91.1988L201.58 82.9198L202.085 82.6199Z" fill="black"/>
</g>
<g opacity="0.2">
<path opacity="0.2" d="M197.957 85.0955L203.179 93.792C203.02 93.9096 202.85 94.0213 202.691 94.133L197.446 85.3953L197.957 85.0955Z" fill="black"/>
</g>
<g opacity="0.2">
<path opacity="0.2" d="M206.213 78.6509L210.987 86.6183C210.864 86.7829 210.729 86.9417 210.593 87.1063L205.707 78.9566L206.213 78.6509Z" fill="black"/>
</g>
<path d="M203.11 90.232C209.967 84.9205 213.832 78.4272 211.742 75.7289C209.652 73.0306 202.398 75.149 195.541 80.4606C188.684 85.7721 184.819 92.2653 186.909 94.9636C188.999 97.6619 196.252 95.5435 203.11 90.232Z" fill="url(#paint8_linear_271_142)"/>
<path opacity="0.2" d="M202.259 88.5954C207.687 84.3915 210.889 79.4372 209.411 77.5297C207.934 75.6221 202.336 77.4837 196.909 81.6875C191.481 85.8914 188.279 90.8457 189.757 92.7532C191.234 94.6608 196.832 92.7993 202.259 88.5954Z" fill="white"/>
<path d="M185.262 65.3562C184.592 69.2252 175.913 70.8599 166.082 69.0959C156.25 67.3319 148.836 62.7866 149.524 58.9176C149.683 58.0179 149.959 54.7428 150.882 54.0901C153.934 51.938 161.025 53.7373 168.575 55.0779C175.631 56.3304 183.351 56.4303 185.262 59.682C186.421 61.6812 185.456 64.2507 185.262 65.3562Z" fill="url(#paint9_linear_271_142)"/>
<path opacity="0.2" d="M185.262 59.6879C186.438 62.3575 185.503 63.9509 185.262 65.3386C185.021 66.7263 183.675 67.8847 181.605 68.6491C181.352 68.749 181.088 68.8313 180.817 68.9137C179.198 69.3687 177.534 69.6428 175.854 69.731C175.613 69.731 175.378 69.731 175.131 69.7721C173.153 69.8449 171.172 69.7722 169.204 69.5546L168.516 69.4664C167.722 69.3664 166.905 69.2488 166.088 69.1018C165.27 68.9548 164.477 68.7902 163.695 68.6079C163.471 68.5609 163.248 68.5021 163.024 68.4491C161.177 67.993 159.365 67.4034 157.603 66.6851C157.385 66.6028 157.179 66.5087 156.974 66.4264C155.427 65.7681 153.96 64.9377 152.599 63.9509C152.393 63.8039 152.205 63.6569 152.011 63.5041C150.188 62.0164 149.253 60.4171 149.518 58.9294C149.694 57.9651 149.835 54.8134 150.87 54.1019C151.905 53.3905 153.387 53.167 155.151 53.1611H155.856C159.384 53.2787 163.93 54.2607 168.569 55.0839C174.037 56.06 180.441 56.9126 183.886 58.7589C184.089 58.866 184.285 58.9838 184.474 59.1117C184.752 59.283 185.015 59.4756 185.262 59.6879Z" fill="black"/>
<g opacity="0.2">
<path opacity="0.2" d="M156.05 52.5615L155.862 53.1789L152.593 63.9628C152.387 63.8158 152.199 63.6688 152.005 63.5159L155.145 53.173L155.392 52.3674L156.05 52.5615Z" fill="black"/>
</g>
<g opacity="0.2">
<path opacity="0.2" d="M160.966 55.572L157.597 66.6793C157.379 66.597 157.174 66.5029 156.968 66.4206L160.319 55.3662L160.966 55.572Z" fill="black"/>
</g>
<g opacity="0.2">
<path opacity="0.2" d="M172.391 59.0529L169.198 69.5723L168.51 69.4841L171.738 58.853L172.391 59.0529Z" fill="black"/>
</g>
<g opacity="0.2">
<path opacity="0.2" d="M167.082 57.4419L163.689 68.6139C163.465 68.5669 163.242 68.5081 163.019 68.4551L166.429 57.2302L167.082 57.4419Z" fill="black"/>
</g>
<g opacity="0.2">
<path opacity="0.2" d="M178.959 59.5117L175.848 69.7487C175.607 69.7487 175.372 69.7487 175.125 69.7899L178.306 59.3176L178.959 59.5117Z" fill="black"/>
</g>
<path d="M185.72 61.9782C186.409 58.1096 178.994 53.5547 169.159 51.8047C159.325 50.0547 150.794 51.7721 150.106 55.6407C149.417 59.5094 156.832 64.0642 166.667 65.8142C176.501 67.5643 185.032 65.8468 185.72 61.9782Z" fill="url(#paint10_linear_271_142)"/>
<path opacity="0.2" d="M182.373 61.3869C182.86 58.6533 176.946 55.3146 169.164 53.9299C161.382 52.5451 154.679 53.6385 154.192 56.3721C153.706 59.1057 159.62 62.4444 167.402 63.8292C175.184 65.2139 181.887 64.1205 182.373 61.3869Z" fill="white"/>
<path d="M236.595 164.134L176.084 167.662C173.946 167.788 171.849 168.298 169.892 169.168L104.165 198.568C103.012 199.075 102.068 199.962 101.49 201.081C100.912 202.201 100.735 203.484 100.99 204.718L111.85 256.08C112.034 256.907 112.404 257.681 112.933 258.343C113.462 259.005 114.135 259.538 114.901 259.9C115.667 260.262 116.505 260.444 117.352 260.432C118.2 260.42 119.033 260.215 119.788 259.831L184.662 227.444L244.568 225.439C245.305 225.42 246.03 225.243 246.693 224.922C247.357 224.6 247.944 224.141 248.417 223.574C248.889 223.008 249.235 222.348 249.432 221.637C249.629 220.927 249.673 220.182 249.56 219.453L241.546 170.273C241.128 167.733 239.199 164.058 236.595 164.134Z" fill="#407BFF"/>
<path opacity="0.1" d="M236.595 164.134L176.084 167.662C173.946 167.788 171.849 168.298 169.892 169.168L104.165 198.568C103.012 199.075 102.068 199.962 101.49 201.081C100.912 202.201 100.735 203.484 100.99 204.718L111.85 256.08C112.034 256.907 112.404 257.681 112.933 258.343C113.462 259.005 114.135 259.538 114.901 259.9C115.667 260.262 116.505 260.444 117.352 260.432C118.2 260.42 119.033 260.215 119.788 259.831L184.662 227.444L244.568 225.439C245.305 225.42 246.03 225.243 246.693 224.922C247.357 224.6 247.944 224.141 248.417 223.574C248.889 223.008 249.235 222.348 249.432 221.637C249.629 220.927 249.673 220.182 249.56 219.453L241.546 170.273C241.128 167.733 239.199 164.058 236.595 164.134Z" fill="black"/>
<path d="M115.137 130.692L83.3813 159.964L140.367 221.784L172.123 192.512L115.137 130.692Z" fill="url(#paint11_linear_271_142)"/>
<path opacity="0.5" d="M172.114 192.517L140.357 221.788L83.3794 159.971L104.218 140.761L115.137 130.695L116.954 132.671L172.114 192.517Z" fill="#FAFAFA"/>
<path d="M115.341 134.471L87.3208 160.3L140.624 218.125L168.644 192.296L115.341 134.471Z" stroke="#407BFF" stroke-miterlimit="10"/>
<path d="M134.287 183.144C137.501 180.181 137.095 174.512 133.379 170.482C129.664 166.451 124.047 165.586 120.833 168.548C117.619 171.511 118.026 177.18 121.741 181.21C125.456 185.241 131.073 186.107 134.287 183.144Z" fill="#407BFF"/>
<path opacity="0.1" d="M140.022 196.698L128.738 200.596L104.218 140.761L115.137 130.695L116.954 132.671L140.022 196.698Z" fill="black"/>
<path d="M142.22 106.472L101.618 121.194L130.278 200.236L170.88 185.515L142.22 106.472Z" fill="url(#paint12_linear_271_142)"/>
<path opacity="0.5" d="M142.22 106.472L101.618 121.194L130.278 200.236L170.88 185.515L142.22 106.472Z" fill="#FAFAFA"/>
<path d="M140.944 110.036L105.118 123.026L131.926 196.961L167.751 183.971L140.944 110.036Z" stroke="#407BFF" stroke-miterlimit="10"/>
<path d="M139.61 162.245C143.72 160.755 145.536 155.37 143.668 150.216C141.799 145.063 136.953 142.093 132.844 143.583C128.735 145.073 126.918 150.459 128.787 155.612C130.655 160.766 135.501 163.735 139.61 162.245Z" fill="#407BFF"/>
<path d="M236.988 166.222L177.306 169.585C175.191 169.701 173.115 170.209 171.185 171.084L106.423 200.32C105.282 200.835 104.352 201.725 103.785 202.841C103.218 203.957 103.05 205.233 103.307 206.459L114.167 257.844C114.342 258.666 114.703 259.437 115.222 260.097C115.742 260.758 116.406 261.291 117.163 261.655C117.921 262.019 118.752 262.204 119.592 262.197C120.432 262.19 121.26 261.99 122.011 261.613L185.926 229.408L245.009 227.538C245.74 227.515 246.458 227.336 247.115 227.014C247.772 226.691 248.352 226.232 248.817 225.667C249.283 225.102 249.622 224.444 249.813 223.738C250.004 223.032 250.042 222.292 249.924 221.57L241.886 172.396C241.469 169.832 239.564 166.151 236.988 166.222Z" fill="#2042B8"/>
<path opacity="0.2" d="M179.735 178.581L230.944 175.43" stroke="black" stroke-width="2" stroke-linecap="round" stroke-linejoin="round"/>
<path opacity="0.2" d="M173.602 179.905L182.957 222.876" stroke="black" stroke-width="2" stroke-linecap="round" stroke-linejoin="round"/>
<path opacity="0.2" d="M111.227 218.701L117.824 251.752C117.824 251.752 122.881 238.64 111.227 218.701Z" fill="#FAFAFA"/>
<path opacity="0.2" d="M112.091 219.089C112.321 219.677 170.691 194.628 170.691 194.628C170.85 200.307 169.43 205.919 166.59 210.839C163.749 215.759 159.6 219.796 154.604 222.499C137.034 232.348 112.091 219.089 112.091 219.089Z" fill="#FAFAFA"/>
<path d="M150.864 220.065C152.261 220.065 153.393 218.933 153.393 217.536C153.393 216.14 152.261 215.008 150.864 215.008C149.468 215.008 148.336 216.14 148.336 217.536C148.336 218.933 149.468 220.065 150.864 220.065Z" fill="#407BFF"/>
<path opacity="0.2" d="M170.721 194.628C170.721 194.628 177.959 205.524 176.207 224.081L170.721 194.628Z" fill="black"/>
<g opacity="0.2">
<path opacity="0.2" d="M108.434 205.718L109.781 205.124" stroke="#FAFAFA" stroke-linecap="round" stroke-linejoin="round"/>
<path opacity="0.2" d="M112.574 203.889L167.081 179.793" stroke="#FAFAFA" stroke-linecap="round" stroke-linejoin="round" stroke-dasharray="5.2 5.2"/>
<path opacity="0.2" d="M168.48 179.175L169.821 178.582" stroke="#FAFAFA" stroke-linecap="round" stroke-linejoin="round"/>
</g>
<path opacity="0.2" d="M181.452 188.242L232.661 185.085" stroke="black" stroke-width="2" stroke-linecap="round" stroke-linejoin="round"/>
<path opacity="0.2" d="M183.757 200.29L234.966 197.133" stroke="black" stroke-width="2" stroke-linecap="round" stroke-linejoin="round"/>
<path d="M223.741 114.701C223.741 114.701 222.453 128.419 217.355 129.601C214.198 130.283 210.907 129.954 207.947 128.661L203.802 125.474L201.779 132.53C201.779 132.53 203.99 135.534 208.606 133.453C208.606 133.453 216.838 137.075 221.389 133.453C225.94 129.831 227.398 119.893 227.398 119.893L223.741 114.701Z" fill="#B97964"/>
<path d="M227.839 108.057C227.839 108.057 224.282 101.995 225.899 91.0049C227.516 80.0152 236.73 78.6569 240.287 79.4507C243.845 80.2445 246.755 83.6608 249.178 90.1641C251.6 96.6674 252.494 98.3608 256.534 97.2201C260.573 96.0794 271.322 92.5161 274.315 95.6854C275.176 96.5511 275.81 97.6156 276.162 98.7847C276.514 99.9538 276.572 101.192 276.332 102.389C276.332 102.389 291.285 98.7547 289.991 112.091C288.697 125.426 267.118 137.874 246.591 124.697C226.064 111.52 227.839 108.057 227.839 108.057Z" fill="#263238"/>
<path d="M227.675 140.332C227.675 140.332 223.612 175.277 223.747 191.665C223.882 208.052 229.703 246.672 229.703 246.672H236.883C236.883 246.672 235.936 215.79 236.071 205.224C236.207 194.658 238.1 177.176 238.1 177.176C238.1 177.176 240.399 192.888 243.11 198.438C245.82 203.989 260.856 223.634 271.287 229.732L276.161 225.257C276.161 225.257 265.324 211.851 261.261 205.212C257.198 198.574 253.547 196.692 252.053 184.344C250.56 171.996 253.141 152.245 248.808 140.326L227.675 140.332Z" fill="#263238"/>
<path opacity="0.2" d="M238.1 177.176L234.978 155.026C234.978 155.026 232.514 168.339 237.365 184.597L238.1 177.176Z" fill="black"/>
<path d="M231.179 248.63L231.42 255.492L236.236 255.892L236.477 255.251V248.148L231.179 248.63Z" fill="#B97964"/>
<path d="M228.892 246.019L229.333 248.589L237.6 248.789L238.124 245.702L228.892 246.019Z" fill="#407BFF"/>
<path d="M269.023 230.208L276.685 223.07L278.372 225.757L271.792 231.778L269.023 230.208Z" fill="#407BFF"/>
<path d="M272.716 230.208L277.773 234.465L281.018 230.649L276.867 226.357L272.716 230.208Z" fill="#B97964"/>
<path d="M282 230.355L285.058 232.237C285.197 232.322 285.316 232.438 285.406 232.574C285.496 232.711 285.555 232.866 285.58 233.027C285.604 233.189 285.592 233.355 285.546 233.511C285.499 233.668 285.419 233.813 285.311 233.936C283.094 236.441 277.432 242.803 276.867 243.25C276.167 243.838 275.321 242.85 275.103 241.968C275.103 241.968 276.708 239.839 276.867 238.475C276.934 237.422 276.934 236.365 276.867 235.312C276.855 235.048 276.943 234.79 277.114 234.589L280.53 230.578C280.707 230.369 280.953 230.232 281.223 230.191C281.494 230.149 281.77 230.208 282 230.355Z" fill="#263238"/>
<path d="M237.412 256.08L238.047 259.608C238.076 259.769 238.07 259.935 238.028 260.094C237.986 260.252 237.91 260.4 237.806 260.526C237.701 260.652 237.57 260.754 237.421 260.824C237.273 260.894 237.111 260.93 236.947 260.931C233.602 260.931 225.087 260.966 224.376 260.849C223.488 260.702 223.647 259.432 224.17 258.691C224.17 258.691 226.822 258.467 227.933 257.662C228.76 257.013 229.545 256.314 230.285 255.569C230.474 255.383 230.726 255.276 230.991 255.269L236.254 255.145C236.527 255.135 236.795 255.224 237.007 255.396C237.22 255.568 237.364 255.811 237.412 256.08Z" fill="#263238"/>
<path d="M249.578 120.952L256.916 115.801C256.916 115.801 254.964 107.992 252.071 107.604C249.178 107.216 234.819 104.482 225.687 107.604C225.687 107.604 222.406 108.539 221.395 117.753L225.299 119C225.299 119 226.699 136.252 227.563 138.909H248.402C248.402 138.909 248.637 124.074 249.578 120.952Z" fill="#2042B8"/>
<path d="M251.159 119.84C251.159 119.84 253.941 127.778 254.434 132.047C254.434 132.047 247.825 129.413 246.12 128.208L244.827 123.563L240.452 121.428L239.152 124.956L242.804 129.484C242.804 129.484 252.759 138.798 257.804 136.669C262.849 134.54 255.81 116.595 255.81 116.595L251.159 119.84Z" fill="#B97964"/>
<path d="M232.49 85.0838C232.49 85.0838 229.944 90.1641 230.138 94.2978C230.333 98.4314 232.42 100.119 236.389 100.701C236.389 100.701 238.082 105.993 233.637 106.528C233.296 106.569 233.178 107.916 233.202 108.133C233.32 108.992 234.172 109.462 234.966 109.662C235.802 109.847 236.656 109.942 237.512 109.944C238.411 109.975 239.306 109.802 240.128 109.436C240.95 109.07 241.678 108.522 242.257 107.834C242.351 107.722 243.245 106.581 243.245 106.581C243.245 106.581 241.122 105.529 241.869 98.6372C242.882 97.9777 243.66 97.0144 244.092 95.8854C244.497 95.6701 244.856 95.3762 245.147 95.0208C245.437 94.6655 245.654 94.2558 245.785 93.8156C246.103 92.4397 244.886 90.5346 242.663 92.4397C242.663 92.4397 238.476 90.3229 236.889 82.9082C235.712 84.1108 234.161 84.8779 232.49 85.0838Z" fill="#B97964"/>
<path d="M233.684 93.1687L234.043 90.4521L232.12 92.5807C232.318 92.7918 232.563 92.9546 232.834 93.0566C233.105 93.1585 233.396 93.1969 233.684 93.1687Z" fill="#A24E3F"/>
<path d="M234.801 95.1563C234.801 95.1563 236.83 95.4679 237.806 94.1685" stroke="#222221" stroke-width="0.75" stroke-linecap="round" stroke-linejoin="round"/>
<path d="M236.83 86.6479C237.291 86.517 237.778 86.5129 238.241 86.6361C238.703 86.7592 239.124 87.0051 239.458 87.3476" stroke="#222221" stroke-linecap="round" stroke-linejoin="round"/>
<path d="M233.319 86.0597C233.319 86.0597 232.143 85.8775 231.62 86.5419" stroke="#222221" stroke-linecap="round" stroke-linejoin="round"/>
<path d="M237.647 90.2229C237.594 90.6345 237.33 90.9344 237.059 90.8991C236.789 90.8639 236.607 90.5052 236.66 90.0936C236.712 89.682 236.977 89.3821 237.248 89.4174C237.518 89.4526 237.7 89.8113 237.647 90.2229Z" fill="#222221"/>
<path d="M232.953 89.3128C233.006 88.9038 232.827 88.5434 232.554 88.5079C232.28 88.4723 232.015 88.775 231.962 89.184C231.909 89.593 232.088 89.9534 232.361 89.9889C232.635 90.0245 232.9 89.7218 232.953 89.3128Z" fill="#222221"/>
<path d="M237.253 89.4174L236.324 89.0117C236.336 89.1134 236.375 89.2101 236.436 89.2923C236.497 89.3745 236.579 89.4393 236.673 89.4803C236.767 89.5213 236.87 89.5371 236.971 89.526C237.073 89.515 237.17 89.4776 237.253 89.4174Z" fill="#222221"/>
<path d="M232.643 88.5471L231.714 88.1414C231.727 88.2431 231.765 88.3398 231.826 88.422C231.887 88.5042 231.969 88.569 232.063 88.61C232.157 88.651 232.26 88.6667 232.361 88.6557C232.463 88.6447 232.56 88.6072 232.643 88.5471Z" fill="#222221"/>
<path d="M226.834 137.992V140.444L249.413 140.632L248.808 137.716L226.834 137.992Z" fill="#407BFF"/>
<path opacity="0.4" d="M226.834 137.992V140.444L249.413 140.632L248.808 137.716L226.834 137.992Z" fill="white"/>
<path d="M227.11 126.091L214.692 169.285C214.279 170.732 213.442 172.021 212.289 172.988C211.136 173.954 209.72 174.553 208.224 174.707C207.271 174.798 206.31 174.71 205.389 174.448L181.652 167.621C179.733 167.067 178.112 165.775 177.144 164.028C176.176 162.281 175.941 160.222 176.489 158.301L188.914 115.095C189.469 113.179 190.76 111.561 192.506 110.595C194.252 109.63 196.309 109.396 198.228 109.944L221.983 116.765C223.897 117.325 225.512 118.621 226.473 120.369C227.434 122.117 227.663 124.174 227.11 126.091Z" fill="#407BFF"/>
<path opacity="0.2" d="M227.11 126.091L214.692 169.285C214.279 170.732 213.442 172.021 212.289 172.988C211.136 173.954 209.72 174.553 208.224 174.707C207.271 174.798 206.31 174.71 205.389 174.448L181.652 167.621C179.733 167.067 178.112 165.775 177.144 164.028C176.176 162.281 175.941 160.222 176.489 158.301L188.914 115.095C189.469 113.179 190.76 111.561 192.506 110.595C194.252 109.63 196.309 109.396 198.228 109.944L221.983 116.765C223.897 117.325 225.512 118.621 226.473 120.369C227.434 122.117 227.663 124.174 227.11 126.091Z" fill="black"/>
<path d="M225.046 126.602L212.628 169.803C212.314 170.902 211.753 171.916 210.987 172.766C210.222 173.616 209.273 174.279 208.212 174.707C207.259 174.798 206.298 174.71 205.378 174.448L181.652 167.621C179.733 167.068 178.112 165.776 177.144 164.028C176.176 162.281 175.941 160.222 176.489 158.301L188.914 115.095C189.228 113.997 189.789 112.985 190.555 112.137C191.32 111.29 192.269 110.628 193.33 110.203C194.282 110.106 195.244 110.194 196.164 110.462L219.872 117.312C221.787 117.862 223.407 119.148 224.376 120.889C225.346 122.63 225.587 124.684 225.046 126.602Z" fill="url(#paint13_linear_271_142)"/>
<path opacity="0.5" d="M225.046 126.602L212.628 169.803C212.314 170.902 211.753 171.916 210.987 172.766C210.222 173.616 209.273 174.279 208.212 174.707C207.259 174.798 206.298 174.71 205.378 174.448L181.652 167.621C179.733 167.068 178.112 165.776 177.144 164.028C176.176 162.281 175.941 160.222 176.489 158.301L188.914 115.095C189.228 113.997 189.789 112.985 190.555 112.137C191.32 111.29 192.269 110.628 193.33 110.203C194.282 110.106 195.244 110.194 196.164 110.462L219.872 117.312C221.787 117.862 223.407 119.148 224.376 120.889C225.346 122.63 225.587 124.684 225.046 126.602Z" fill="#FAFAFA"/>
<path d="M191.66 130.276L189.119 129.56L179.973 162.011L182.514 162.727L191.66 130.276Z" fill="#FAFAFA"/>
<path d="M186.162 163.758L183.622 163.023L192.765 130.583L195.299 131.312L186.162 163.758Z" fill="#FAFAFA"/>
<path d="M189.855 164.816L187.314 164.087L196.458 131.647L198.998 132.376L189.855 164.816Z" fill="#FAFAFA"/>
<path opacity="0.5" d="M213.785 136.628L211.244 135.912L202.097 168.363L204.639 169.079L213.785 136.628Z" fill="black"/>
<path d="M213.463 127.455L212.228 131.859L210.723 131.436C209.993 131.229 209.376 130.741 209.006 130.08C208.635 129.419 208.542 128.637 208.747 127.908L209.57 124.968L212.61 125.838C212.937 125.939 213.211 126.167 213.371 126.47C213.531 126.773 213.564 127.127 213.463 127.455Z" fill="#FAFAFA"/>
<path d="M212.739 125.297L209.699 124.427L210.611 121.204C210.712 120.843 210.884 120.505 211.117 120.21C211.349 119.915 211.637 119.669 211.965 119.485C212.293 119.302 212.653 119.185 213.026 119.141C213.399 119.097 213.777 119.127 214.139 119.229L215.703 119.67L214.339 124.415C214.293 124.579 214.216 124.732 214.11 124.866C214.005 125 213.874 125.111 213.725 125.193C213.576 125.275 213.412 125.327 213.242 125.345C213.073 125.362 212.902 125.346 212.739 125.297Z" fill="#FAFAFA"/>
<path d="M215.62 126.72L218.678 127.596L217.867 130.471C217.766 130.834 217.595 131.173 217.363 131.468C217.131 131.764 216.843 132.011 216.514 132.195C216.186 132.378 215.825 132.495 215.452 132.539C215.078 132.582 214.7 132.551 214.339 132.447L212.751 132L214.015 127.602C214.062 127.438 214.14 127.285 214.247 127.152C214.353 127.019 214.484 126.908 214.634 126.826C214.783 126.744 214.947 126.692 215.116 126.674C215.286 126.656 215.457 126.671 215.62 126.72Z" fill="#FAFAFA"/>
<path d="M219.76 123.78L218.837 127.049L215.779 126.173C215.452 126.077 215.176 125.856 215.01 125.558C214.845 125.259 214.805 124.908 214.897 124.58L216.262 119.834L217.784 120.264C218.145 120.365 218.482 120.536 218.777 120.767C219.071 120.999 219.317 121.286 219.501 121.613C219.684 121.939 219.801 122.299 219.846 122.67C219.89 123.042 219.861 123.419 219.76 123.78Z" fill="#FAFAFA"/>
<defs>
<linearGradient id="paint0_linear_271_142" x1="207.899" y1="193.204" x2="231.362" y2="201.742" gradientUnits="userSpaceOnUse">
<stop stop-color="#FF6600"/>
<stop offset="1" stop-color="#2042B8"/>
</linearGradient>
<linearGradient id="paint1_linear_271_142" x1="146.068" y1="193.202" x2="172.654" y2="247.62" gradientUnits="userSpaceOnUse">
<stop stop-color="#FF6600"/>
<stop offset="1" stop-color="#2042B8"/>
</linearGradient>
<linearGradient id="paint2_linear_271_142" x1="73.4909" y1="193.202" x2="100.077" y2="247.62" gradientUnits="userSpaceOnUse">
<stop stop-color="#FF6600"/>
<stop offset="1" stop-color="#2042B8"/>
</linearGradient>
<linearGradient id="paint3_linear_271_142" x1="79.1195" y1="232.834" x2="84.7937" y2="237.976" gradientUnits="userSpaceOnUse">
<stop stop-color="#FF6600"/>
<stop offset="1" stop-color="#2042B8"/>
</linearGradient>
<linearGradient id="paint4_linear_271_142" x1="254.138" y1="152.378" x2="315.574" y2="203.255" gradientUnits="userSpaceOnUse">
<stop stop-color="#FF6600"/>
<stop offset="1" stop-color="#2042B8"/>
</linearGradient>
<linearGradient id="paint5_linear_271_142" x1="141.164" y1="90.3325" x2="152.358" y2="113.648" gradientUnits="userSpaceOnUse">
<stop stop-color="#FF6600"/>
<stop offset="1" stop-color="#2042B8"/>
</linearGradient>
<linearGradient id="paint6_linear_271_142" x1="142.37" y1="89.5308" x2="151.951" y2="110.975" gradientUnits="userSpaceOnUse">
<stop stop-color="#FF6600"/>
<stop offset="1" stop-color="#2042B8"/>
</linearGradient>
<linearGradient id="paint7_linear_271_142" x1="183.966" y1="74.6327" x2="201.165" y2="99.9514" gradientUnits="userSpaceOnUse">
<stop stop-color="#FF6600"/>
<stop offset="1" stop-color="#2042B8"/>
</linearGradient>
<linearGradient id="paint8_linear_271_142" x1="180.985" y1="91.7425" x2="196.023" y2="102.228" gradientUnits="userSpaceOnUse">
<stop stop-color="#FF6600"/>
<stop offset="1" stop-color="#2042B8"/>
</linearGradient>
<linearGradient id="paint9_linear_271_142" x1="146.343" y1="53.0998" x2="154.711" y2="76.0153" gradientUnits="userSpaceOnUse">
<stop stop-color="#FF6600"/>
<stop offset="1" stop-color="#2042B8"/>
</linearGradient>
<linearGradient id="paint10_linear_271_142" x1="148.661" y1="63.8576" x2="163.484" y2="43.7841" gradientUnits="userSpaceOnUse">
<stop stop-color="#FF6600"/>
<stop offset="1" stop-color="#2042B8"/>
</linearGradient>
<linearGradient id="paint11_linear_271_142" x1="87.1234" y1="156.514" x2="193.987" y2="144.507" gradientUnits="userSpaceOnUse">
<stop offset="0.0428217" stop-color="#2042B8"/>
<stop offset="0.883313" stop-color="#FF6600"/>
</linearGradient>
<linearGradient id="paint12_linear_271_142" x1="106.402" y1="119.459" x2="209.6" y2="149.693" gradientUnits="userSpaceOnUse">
<stop offset="0.0428217" stop-color="#2042B8"/>
<stop offset="0.883313" stop-color="#FF6600"/>
</linearGradient>
<linearGradient id="paint13_linear_271_142" x1="171.959" y1="110.196" x2="222.089" y2="158.225" gradientUnits="userSpaceOnUse">
<stop stop-color="#FF6600"/>
<stop offset="1" stop-color="#2042B8"/>
</linearGradient>
</defs>
</svg>
