<?xml version="1.0" encoding="utf-8"?>
<!-- Generator: Adobe Illustrator 25.2.3, SVG Export Plug-In . SVG Version: 6.00 Build 0)  -->
<svg version="1.1" id="Layer_1" xmlns="http://www.w3.org/2000/svg" xmlns:xlink="http://www.w3.org/1999/xlink" x="0px" y="0px"
	 viewBox="0 0 161.4 29.8" style="enable-background:new 0 0 161.4 29.8;" xml:space="preserve">
<style type="text/css">
	.st0{fill-rule:evenodd;clip-rule:evenodd;fill:#1E2341;}
	.st1{fill-rule:evenodd;clip-rule:evenodd;fill:#3D6CFF;}
</style>
<g>
	<path class="st0" d="M101,8.5c1.1,0,1.7,0.5,1.7,1.5c0,0.5-0.1,0.9-0.4,1.1c-0.3,0.3-0.7,0.4-1.3,0.4c-1.1,0-1.7-0.5-1.7-1.5
		C99.3,9,99.9,8.5,101,8.5z"/>
	<path class="st0" d="M124.5,12.8c1.4,0,2.4,0.5,3.2,1.6c0.8,1.1,1.2,2.5,1.2,4.4c0,1.2-0.2,2.3-0.5,3.2c-0.4,0.9-0.9,1.6-1.5,2.1
		c-0.7,0.5-1.5,0.7-2.4,0.7c-1.4,0-2.4-0.5-3.2-1.5h-0.2c0.1,1,0.2,1.5,0.2,1.7v4.7h-3.1V13h2.6l0.4,1.5h0.1
		C122,13.3,123.1,12.8,124.5,12.8z M123.5,15.3c-0.8,0-1.3,0.2-1.7,0.7c-0.4,0.5-0.5,1.3-0.6,2.4v0.3c0,1.2,0.2,2.1,0.6,2.7
		c0.4,0.5,1,0.8,1.7,0.8c1.4,0,2.1-1.2,2.1-3.5c0-1.1-0.2-2-0.5-2.6C124.8,15.6,124.3,15.3,123.5,15.3z"/>
	<path class="st0" d="M136.4,12.8c1.1,0,2.1,0.2,2.9,0.7c0.8,0.5,1.5,1.2,1.9,2.1c0.5,0.9,0.7,2,0.7,3.2c0,1.9-0.5,3.3-1.5,4.4
		c-1,1.1-2.4,1.6-4.1,1.6c-1.1,0-2.1-0.2-2.9-0.7c-0.8-0.5-1.5-1.2-2-2.1c-0.5-0.9-0.7-2-0.7-3.2c0-1.9,0.5-3.3,1.5-4.4
		C133.3,13.3,134.6,12.8,136.4,12.8z M136.4,15.3c-0.8,0-1.4,0.3-1.8,0.9c-0.4,0.6-0.6,1.4-0.6,2.6c0,1.1,0.2,2,0.6,2.6
		c0.4,0.6,1,0.9,1.8,0.9c0.8,0,1.4-0.3,1.8-0.9c0.4-0.6,0.6-1.4,0.6-2.6c0-1.1-0.2-2-0.6-2.6C137.8,15.6,137.2,15.3,136.4,15.3z"/>
	<path class="st0" d="M73.1,12.7c1.5,0,2.7,0.3,3.6,1c0.8,0.7,1.2,1.7,1.2,3.1v7.7h-2.2l-0.6-1.6H75c-0.5,0.7-1.1,1.1-1.6,1.4
		c-0.6,0.3-1.3,0.4-2.2,0.4c-1.1,0-2-0.3-2.6-0.9c-0.6-0.6-1-1.5-1-2.7c0-1.2,0.4-2.1,1.3-2.7c0.9-0.6,2.1-0.9,3.9-1l2-0.1v-0.5
		c0-1.2-0.6-1.8-1.8-1.8c-0.9,0-2,0.3-3.3,0.8l-1-2.1C70,13.1,71.5,12.7,73.1,12.7z M74.8,19.2l-1.2,0c-0.9,0-1.6,0.2-2,0.5
		c-0.4,0.3-0.7,0.8-0.7,1.4c0,0.9,0.5,1.3,1.5,1.3c0.7,0,1.3-0.2,1.7-0.6c0.4-0.4,0.7-1,0.7-1.7V19.2z"/>
	<polygon class="st0" points="108.1,13 110.3,16.7 112.6,13 116.2,13 112.4,18.6 116.4,24.5 112.8,24.5 110.3,20.6 107.9,24.5 
		104.3,24.5 108.3,18.6 104.5,13 	"/>
	<rect x="99.4" y="13" class="st0" width="3.1" height="11.5"/>
	<path class="st0" d="M150.9,12.8c0.4,0,0.8,0,1.1,0.1l-0.2,2.9c-0.3-0.1-0.6-0.1-0.9-0.1c-1,0-1.8,0.3-2.3,0.8
		c-0.6,0.5-0.8,1.2-0.8,2.2v5.9h-3.1V13h2.4l0.5,1.9h0.2c0.4-0.6,0.8-1.2,1.4-1.6C149.5,13,150.2,12.8,150.9,12.8z"/>
	<path class="st0" d="M96.4,12.8c0.4,0,0.8,0,1.1,0.1l-0.2,2.9c-0.3-0.1-0.6-0.1-0.9-0.1c-1,0-1.8,0.3-2.3,0.8
		c-0.6,0.5-0.8,1.2-0.8,2.2v5.9H90V13h2.4l0.5,1.9H93c0.4-0.6,0.8-1.2,1.4-1.6C95.1,13,95.7,12.8,96.4,12.8z"/>
	<path class="st0" d="M61.4,12.8c1.3,0,2.3,0.3,3,1c0.7,0.7,1,1.7,1,3.2v7.5h-3.2v-6.7c0-0.8-0.1-1.5-0.4-1.9
		c-0.3-0.4-0.7-0.6-1.3-0.6c-0.8,0-1.3,0.3-1.7,0.8c-0.4,0.6-0.6,1.4-0.6,2.6v5.8H55v-6.7c0-0.8-0.1-1.5-0.4-1.9
		c-0.3-0.4-0.7-0.6-1.3-0.6c-0.8,0-1.4,0.3-1.8,0.9c-0.4,0.6-0.5,1.6-0.5,2.9v5.4h-3.1V13h2.4l0.4,1.5h0.2c0.3-0.5,0.8-0.9,1.3-1.2
		c0.6-0.3,1.3-0.5,2-0.5c1.7,0,2.9,0.6,3.5,1.7H58c0.3-0.5,0.8-1,1.4-1.2C60,12.9,60.6,12.8,61.4,12.8z"/>
	<path class="st0" d="M157.9,10.5V13h3.2v2.4h-3.2v5.6c0,0.4,0.1,0.8,0.4,1c0.3,0.2,0.6,0.3,1,0.3c0.6,0,1.2-0.1,2-0.4v2.3
		c-0.8,0.4-1.7,0.5-2.9,0.5c-1.3,0-2.2-0.3-2.7-1c-0.6-0.6-0.9-1.6-0.9-2.9v-5.6h-1.5V14L155,13l0.9-2.4H157.9z"/>
	<path class="st0" d="M84.4,10.5V13h3.2v2.4h-3.2v5.6c0,0.4,0.1,0.8,0.4,1c0.3,0.2,0.6,0.3,1,0.3c0.6,0,1.2-0.1,2-0.4v2.3
		c-0.8,0.4-1.7,0.5-2.9,0.5c-1.3,0-2.2-0.3-2.7-1c-0.6-0.6-0.9-1.6-0.9-2.9v-5.6h-1.5V14l1.7-1.1l0.9-2.4H84.4z"/>
	<path class="st0" d="M25.5,17c0.1,0,0.2,0,0.2,0.1v3.9c0,0.1-0.1,0.2-0.1,0.2L18.7,25c-1,0.6-2.2,0.6-3.2,0l-6.8-3.9
		c-0.1,0-0.1-0.1-0.1-0.2v-3.9c0-0.1,0.1-0.2,0.2-0.1l7.4,4.2c0.6,0.3,1.3,0.3,1.8,0L25.5,17z"/>
	<path class="st0" d="M34.3,11.3V28c0,0.1-0.1,0.2-0.2,0.2h-3.4c-0.1,0-0.2-0.1-0.2-0.2V11.3c0-0.6-0.7-1-1.3-0.7l-10.6,6
		c-1,0.6-2.2,0.6-3.2,0l-10.6-6c-0.6-0.3-1.2,0.1-1.2,0.7V28c0,0.1-0.1,0.2-0.2,0.2H0.2C0.1,28.2,0,28.1,0,28V11.3
		c0-3.5,3.7-5.6,6.7-3.9l9.5,5.4c0.6,0.3,1.3,0.3,1.8,0l9.5-5.4C30.6,5.6,34.3,7.8,34.3,11.3z"/>
	<path class="st1" d="M25.5,0L18,4.2c-0.6,0.3-1.3,0.3-1.8,0L8.8,0C8.7,0,8.6,0,8.6,0.1V4c0,0.1,0.1,0.2,0.1,0.2l6.8,3.9
		c1,0.6,2.2,0.6,3.2,0l6.9-3.9c0.1,0,0.1-0.1,0.1-0.2V0.1C25.7,0,25.6,0,25.5,0"/>
</g>
</svg>
