<svg width="534" height="445" viewBox="0 0 534 445" fill="none" xmlns="http://www.w3.org/2000/svg">
<g clip-path="url(#clip0_321_340)">
<path d="M364.81 -4.4272e-05L0 215.793L10.9714 234.276L375.781 18.4827L364.81 -4.4272e-05Z" fill="url(#paint0_linear_321_340)" fill-opacity="0.4"/>
<path d="M444.1 18.0917L79.2905 233.885L90.2619 252.367L455.072 36.5745L444.1 18.0917Z" fill="url(#paint1_linear_321_340)" fill-opacity="0.4"/>
<path d="M514.329 37.8796L149.519 253.673L160.491 272.155L525.3 56.3624L514.329 37.8796Z" fill="url(#paint2_linear_321_340)" fill-opacity="0.4"/>
<path d="M237.62 252.962C300.7 252.962 351.837 201.914 351.837 138.944C351.837 75.974 300.7 24.9267 237.62 24.9267C174.539 24.9267 123.402 75.974 123.402 138.944C123.402 201.914 174.539 252.962 237.62 252.962Z" fill="white"/>
<path d="M122.553 138.944C122.553 75.6072 174.171 24.0787 237.62 24.0787C301.068 24.0787 352.687 75.6072 352.687 138.944C352.687 202.281 301.068 253.81 237.62 253.81C174.171 253.81 122.553 202.281 122.553 138.944ZM124.252 138.944C124.252 201.346 175.108 252.113 237.62 252.113C300.131 252.113 350.988 201.346 350.988 138.944C350.988 76.5425 300.131 25.7748 237.62 25.7748C175.108 25.7748 124.252 76.5425 124.252 138.944H124.252Z" fill="#3F3D56"/>
<path d="M217.259 139.44C217.259 135.42 218.453 131.49 220.691 128.148C222.928 124.806 226.108 122.2 229.828 120.662C233.549 119.124 237.642 118.721 241.592 119.505C245.542 120.29 249.169 122.225 252.017 125.068C254.864 127.91 256.804 131.532 257.589 135.475C258.375 139.417 257.972 143.504 256.431 147.218C254.889 150.932 252.28 154.106 248.932 156.339C245.583 158.573 241.647 159.765 237.62 159.765C232.22 159.765 227.041 157.623 223.223 153.812C219.404 150 217.259 144.83 217.259 139.44V139.44ZM237.62 120.106C232.485 120.112 227.562 122.151 223.931 125.775C220.301 129.4 218.258 134.314 218.252 139.44C218.252 143.264 219.388 147.002 221.516 150.181C223.645 153.36 226.669 155.838 230.208 157.302C233.747 158.765 237.641 159.148 241.398 158.402C245.155 157.656 248.606 155.814 251.315 153.111C254.023 150.407 255.868 146.962 256.615 143.212C257.362 139.461 256.979 135.574 255.513 132.041C254.047 128.509 251.565 125.489 248.38 123.365C245.195 121.24 241.45 120.106 237.62 120.106Z" fill="#3F3D56"/>
<path d="M198.885 139.44C198.885 131.792 201.157 124.316 205.413 117.958C209.669 111.599 215.719 106.643 222.797 103.716C229.875 100.79 237.663 100.024 245.177 101.516C252.69 103.008 259.592 106.691 265.009 112.098C270.427 117.506 274.116 124.396 275.61 131.896C277.105 139.397 276.338 147.172 273.406 154.237C270.474 161.302 265.51 167.341 259.14 171.59C252.77 175.839 245.281 178.107 237.62 178.107C232.533 178.107 227.496 177.106 222.797 175.163C218.097 173.22 213.827 170.372 210.23 166.781C206.633 163.191 203.78 158.928 201.834 154.237C199.887 149.546 198.885 144.518 198.885 139.44V139.44ZM237.62 101.765C230.155 101.765 222.858 103.974 216.652 108.114C210.445 112.254 205.608 118.138 202.751 125.022C199.895 131.906 199.147 139.482 200.603 146.79C202.06 154.098 205.654 160.811 210.933 166.08C216.211 171.349 222.936 174.938 230.257 176.391C237.578 177.845 245.166 177.099 252.063 174.247C258.959 171.396 264.854 166.567 269.001 160.371C273.148 154.175 275.361 146.891 275.361 139.44C275.35 129.451 271.37 119.875 264.295 112.812C257.219 105.749 247.626 101.776 237.62 101.765Z" fill="#CCCCCC"/>
<path d="M162.137 139.44C162.137 124.537 166.564 109.969 174.858 97.5772C183.152 85.1859 194.941 75.528 208.734 69.8249C222.527 64.1218 237.704 62.6296 252.346 65.537C266.988 68.4444 280.438 75.6209 290.994 86.1589C301.551 96.6968 308.74 110.123 311.652 124.74C314.565 139.356 313.07 154.507 307.357 168.275C301.644 182.044 291.969 193.812 279.556 202.092C267.143 210.371 252.549 214.79 237.62 214.79C217.607 214.768 198.421 206.822 184.27 192.696C170.119 178.57 162.159 159.417 162.137 139.44ZM237.62 65.0806C222.887 65.0806 208.485 69.4417 196.236 77.6124C183.986 85.7831 174.438 97.3965 168.8 110.984C163.162 124.571 161.687 139.522 164.561 153.947C167.436 168.371 174.53 181.62 184.948 192.02C195.365 202.419 208.638 209.501 223.088 212.37C237.537 215.239 252.515 213.767 266.126 208.139C279.737 202.511 291.371 192.98 299.556 180.752C307.741 168.523 312.11 154.147 312.11 139.44C312.087 119.725 304.232 100.825 290.267 86.8846C276.303 72.9444 257.369 65.1029 237.62 65.0806Z" fill="#CCCCCC"/>
<path d="M237.62 148.363C242.831 148.363 247.055 144.146 247.055 138.944C247.055 133.742 242.831 129.525 237.62 129.525C232.409 129.525 228.184 133.742 228.184 138.944C228.184 144.146 232.409 148.363 237.62 148.363Z" fill="#2042B8"/>
<path d="M213.286 175.628C218.497 175.628 222.722 171.411 222.722 166.209C222.722 161.007 218.497 156.79 213.286 156.79C208.075 156.79 203.851 161.007 203.851 166.209C203.851 171.411 208.075 175.628 213.286 175.628Z" fill="#2042B8"/>
<path d="M308.219 171.662C313.43 171.662 317.654 167.445 317.654 162.243C317.654 157.041 313.43 152.825 308.219 152.825C303.008 152.825 298.783 157.041 298.783 162.243C298.783 167.445 303.008 171.662 308.219 171.662Z" fill="#2042B8"/>
<path d="M237.62 143.406C240.088 143.406 242.089 141.408 242.089 138.944C242.089 136.48 240.088 134.483 237.62 134.483C235.151 134.483 233.15 136.48 233.15 138.944C233.15 141.408 235.151 143.406 237.62 143.406Z" fill="#2F2E41"/>
<path d="M308.219 166.705C310.687 166.705 312.688 164.707 312.688 162.243C312.688 159.779 310.687 157.782 308.219 157.782C305.75 157.782 303.749 159.779 303.749 162.243C303.749 164.707 305.75 166.705 308.219 166.705Z" fill="#2F2E41"/>
<path d="M213.287 171.166C215.755 171.166 217.756 169.169 217.756 166.705C217.756 164.241 215.755 162.243 213.287 162.243C210.818 162.243 208.817 164.241 208.817 166.705C208.817 169.169 210.818 171.166 213.287 171.166Z" fill="#2F2E41"/>
<path d="M29.0484 93.3371C31.5168 93.3371 33.5178 91.3396 33.5178 88.8756C33.5178 86.4115 31.5168 84.414 29.0484 84.414C26.5801 84.414 24.579 86.4115 24.579 88.8756C24.579 91.3396 26.5801 93.3371 29.0484 93.3371Z" fill="#2042B8"/>
<path d="M237.371 89.1238H41.2147V88.1323H238.365V139.192H237.371V89.1238Z" fill="#2F2E41"/>
<path d="M16.1368 88.8756C16.1368 86.3264 16.894 83.8344 18.3128 81.7149C19.7315 79.5953 21.748 77.9433 24.1073 76.9677C26.4666 75.9922 29.0627 75.7369 31.5673 76.2343C34.0719 76.7316 36.3725 77.9591 38.1782 79.7617C39.9839 81.5642 41.2136 83.8608 41.7118 86.361C42.21 88.8612 41.9543 91.4528 40.9771 93.8079C39.9999 96.1631 38.3449 98.1761 36.2216 99.5923C34.0983 101.009 31.602 101.765 29.0484 101.765C27.3528 101.765 25.6738 101.431 24.1073 100.783C22.5408 100.136 21.1174 99.1863 19.9185 97.9894C18.7195 96.7926 17.7685 95.3717 17.1196 93.808C16.4707 92.2442 16.1368 90.5682 16.1368 88.8756ZM29.0484 76.9781C26.6911 76.9781 24.3868 77.6759 22.4269 78.9832C20.4669 80.2905 18.9393 82.1486 18.0372 84.3226C17.1351 86.4966 16.8991 88.8888 17.359 91.1966C17.8189 93.5045 18.954 95.6245 20.6208 97.2884C22.2876 98.9523 24.4112 100.085 26.7232 100.544C29.0351 101.004 31.4315 100.768 33.6093 99.8674C35.7871 98.9669 37.6485 97.442 38.9581 95.4855C40.2677 93.5289 40.9667 91.2287 40.9667 88.8756C40.9631 85.7213 39.7063 82.6972 37.4719 80.4668C35.2376 78.2364 32.2082 76.9817 29.0484 76.9781Z" fill="#2F2E41"/>
<path d="M58.8444 221.731C61.3128 221.731 63.3138 219.733 63.3138 217.269C63.3138 214.805 61.3128 212.808 58.8444 212.808C56.376 212.808 54.375 214.805 54.375 217.269C54.375 219.733 56.376 221.731 58.8444 221.731Z" fill="#2042B8"/>
<path d="M45.9327 217.269C45.9327 214.72 46.69 212.228 48.1087 210.108C49.5275 207.989 51.544 206.337 53.9032 205.361C56.2625 204.386 58.8586 204.131 61.3632 204.628C63.8678 205.125 66.1684 206.353 67.9741 208.155C69.7799 209.958 71.0096 212.254 71.5078 214.755C72.006 217.255 71.7503 219.846 70.773 222.201C69.7958 224.557 68.1409 226.57 66.0176 227.986C63.8943 229.402 61.398 230.158 58.8443 230.158C55.4199 230.158 52.1358 228.8 49.7145 226.383C47.2931 223.966 45.9327 220.687 45.9327 217.269ZM58.8443 205.372C56.4871 205.372 54.1828 206.069 52.2228 207.377C50.2628 208.684 48.7352 210.542 47.8332 212.716C46.9311 214.89 46.6951 217.282 47.1549 219.59C47.6148 221.898 48.7499 224.018 50.4167 225.682C52.0835 227.346 54.2072 228.479 56.5191 228.938C58.831 229.397 61.2274 229.161 63.4052 228.261C65.583 227.36 67.4444 225.836 68.754 223.879C70.0636 221.922 70.7626 219.622 70.7626 217.269C70.759 214.115 69.5022 211.091 67.2678 208.86C65.0335 206.63 62.0041 205.375 58.8443 205.372Z" fill="#2F2E41"/>
<path d="M446.77 114.158C449.238 114.158 451.239 112.16 451.239 109.696C451.239 107.232 449.238 105.235 446.77 105.235C444.301 105.235 442.3 107.232 442.3 109.696C442.3 112.16 444.301 114.158 446.77 114.158Z" fill="#2042B8"/>
<path d="M433.858 109.696C433.858 107.147 434.615 104.655 436.034 102.535C437.453 100.416 439.469 98.7639 441.829 97.7883C444.188 96.8128 446.784 96.5576 449.289 97.0549C451.793 97.5522 454.094 98.7798 455.899 100.582C457.705 102.385 458.935 104.681 459.433 107.182C459.931 109.682 459.676 112.273 458.698 114.629C457.721 116.984 456.066 118.997 453.943 120.413C451.82 121.829 449.323 122.585 446.77 122.585C445.074 122.585 443.395 122.252 441.829 121.604C440.262 120.956 438.839 120.007 437.64 118.81C436.441 117.613 435.49 116.192 434.841 114.629C434.192 113.065 433.858 111.389 433.858 109.696ZM446.77 97.7987C443.61 97.8023 440.58 99.057 438.346 101.287C436.112 103.518 434.855 106.542 434.851 109.696C434.851 112.049 435.55 114.35 436.86 116.306C438.169 118.263 440.031 119.788 442.209 120.688C444.387 121.588 446.783 121.824 449.095 121.365C451.407 120.906 453.53 119.773 455.197 118.109C456.864 116.445 457.999 114.325 458.459 112.017C458.919 109.709 458.683 107.317 457.781 105.143C456.879 102.969 455.351 101.111 453.391 99.8038C451.431 98.4964 449.127 97.7987 446.77 97.7987V97.7987Z" fill="#2F2E41"/>
<path d="M307.722 111.191L434.347 109.201L434.362 110.191L308.715 112.167V162.243H307.722V111.191Z" fill="#2F2E41"/>
<path d="M71.2596 216.774H212.79V166.705H213.783V217.764H71.2596V216.774Z" fill="#2F2E41"/>
<path d="M56.3613 112.175H1.73547V115.645H56.3613V112.175Z" fill="url(#paint3_linear_321_340)"/>
<path d="M56.3613 122.089H1.73547V125.559H56.3613V122.089Z" fill="url(#paint4_linear_321_340)"/>
<path d="M56.3613 132.004H1.73547V135.474H56.3613V132.004Z" fill="url(#paint5_linear_321_340)"/>
<path d="M86.1572 240.568H31.5314V244.038H86.1572V240.568Z" fill="url(#paint6_linear_321_340)"/>
<path d="M86.1572 250.483H31.5314V253.953H86.1572V250.483Z" fill="url(#paint7_linear_321_340)"/>
<path d="M86.1572 260.397H31.5314V263.868H86.1572V260.397Z" fill="url(#paint8_linear_321_340)"/>
<path d="M474.083 133.491H419.457V136.961H474.083V133.491Z" fill="url(#paint9_linear_321_340)"/>
<path d="M474.083 143.406H419.457V146.876H474.083V143.406Z" fill="url(#paint10_linear_321_340)"/>
<path d="M474.083 153.32H419.457V156.79H474.083V153.32Z" fill="url(#paint11_linear_321_340)"/>
<path d="M500.087 429.145L492.319 431.917L477.913 403.324L489.379 399.234L500.087 429.145Z" fill="#FFB8B8"/>
<path d="M479.711 444.892L479.598 444.576C478.677 441.994 478.819 439.154 479.994 436.677C481.169 434.2 483.279 432.29 485.863 431.365L501.163 425.906L504.76 435.956L479.711 444.892Z" fill="#2F2E41"/>
<path d="M449.571 436.816L441.321 436.815L437.396 405.05L449.572 405.051L449.571 436.816Z" fill="#FFB8B8"/>
<path d="M451.675 444.799L425.074 444.798V444.462C425.074 443.104 425.342 441.76 425.862 440.506C426.382 439.252 427.145 438.113 428.106 437.153C429.068 436.194 430.209 435.432 431.465 434.913C432.722 434.394 434.068 434.126 435.428 434.126H435.428L451.675 434.127L451.675 444.799Z" fill="#2F2E41"/>
<path d="M468.372 233.878L464.784 226.801C464.784 226.801 451.418 230.144 450.203 237.877L468.372 233.878Z" fill="#FF6600"/>
<path d="M483.176 314.798L473.419 369.151L499.326 414.887L483.849 420.933L457.605 376.598L454.241 364.507L452.222 427.65L438.264 427.227L431.864 368.267L442.128 313.455L483.176 314.798Z" fill="#2F2E41"/>
<path d="M436.574 324.604C436.272 323.258 435.403 282.168 435.403 282.168C435.403 282.168 449.753 235.141 449.885 234.754L449.936 234.603L460.831 230.526C460.984 230.456 464.613 228.842 467.584 230.187C468.346 230.557 469.017 231.089 469.552 231.745C470.087 232.401 470.472 233.166 470.68 233.985C471.916 234.905 480.821 244.862 480.821 258.369L481.157 290.243L488.623 324.797L488.293 324.867C488.089 324.91 478.988 327.647 464.655 327.647C456.69 327.647 436.574 324.604 436.574 324.604Z" fill="#3F3D56"/>
<path d="M453.64 224.573C461.773 224.573 468.366 217.992 468.366 209.873C468.366 201.755 461.773 195.174 453.64 195.174C445.508 195.174 438.915 201.755 438.915 209.873C438.915 217.992 445.508 224.573 453.64 224.573Z" fill="#FFB8B8"/>
<path opacity="0.2" d="M474.619 274.633L448.858 310.514L445.053 293.758L474.619 274.633Z" fill="black"/>
<path d="M428.896 311.288C429.819 311.251 430.723 311.013 431.544 310.59C432.365 310.167 433.083 309.57 433.648 308.84C434.212 308.11 434.609 307.265 434.812 306.365C435.014 305.465 435.016 304.532 434.818 303.631L453.96 291.91L443.39 286.974L426.833 298.861C425.339 299.294 424.056 300.259 423.227 301.572C422.398 302.886 422.081 304.458 422.335 305.99C422.59 307.521 423.398 308.907 424.607 309.883C425.817 310.86 427.343 311.359 428.896 311.288Z" fill="#FFB8B8"/>
<path d="M442.128 287.257L435.572 291.843L441.133 301.7L448.858 295.318L442.128 287.257Z" fill="#FF6600"/>
<path d="M438.696 287.546L454.117 269.703L448.209 245.091C447.598 242.548 447.936 239.87 449.158 237.556C450.381 235.243 452.405 233.453 454.853 232.52C457.301 231.588 460.005 231.577 462.461 232.489C464.916 233.401 466.956 235.174 468.198 237.477L468.332 237.726L473.776 274.274L446.419 302.266L438.696 287.546Z" fill="#3F3D56"/>
<path d="M466.183 222.636L453.961 223.074C453.216 223.1 451.194 215.074 450.929 213.409C450.72 212.325 450.123 211.354 449.249 210.678C448.375 210.002 447.285 209.666 446.181 209.733C445.266 209.82 442.959 208.113 440.578 206.093C436.059 202.257 436.294 195.053 441.259 191.812C441.394 191.723 441.527 191.642 441.658 191.569C444.79 189.819 448.454 189.231 452.043 189.187C455.297 189.146 458.643 189.555 461.509 191.092C466.648 193.848 469.383 199.871 469.623 205.689C469.863 211.507 467.995 217.197 465.874 222.621" fill="#2F2E41"/>
<path d="M533.327 445H384.613C384.435 445 384.263 444.929 384.137 444.803C384.011 444.677 383.94 444.506 383.94 444.328C383.94 444.15 384.011 443.979 384.137 443.853C384.263 443.727 384.435 443.656 384.613 443.656H533.327C533.506 443.656 533.677 443.727 533.803 443.853C533.929 443.979 534 444.15 534 444.328C534 444.506 533.929 444.677 533.803 444.803C533.677 444.929 533.506 445 533.327 445Z" fill="#3F3D56"/>
</g>
<defs>
<linearGradient id="paint0_linear_321_340" x1="-31.4783" y1="234.425" x2="-13.3438" y2="262.444" gradientUnits="userSpaceOnUse">
<stop stop-color="#FF6600"/>
<stop offset="1" stop-color="#2042B8"/>
</linearGradient>
<linearGradient id="paint1_linear_321_340" x1="47.8123" y1="252.517" x2="65.9467" y2="280.536" gradientUnits="userSpaceOnUse">
<stop stop-color="#FF6600"/>
<stop offset="1" stop-color="#2042B8"/>
</linearGradient>
<linearGradient id="paint2_linear_321_340" x1="118.041" y1="272.305" x2="136.175" y2="300.324" gradientUnits="userSpaceOnUse">
<stop stop-color="#FF6600"/>
<stop offset="1" stop-color="#2042B8"/>
</linearGradient>
<linearGradient id="paint3_linear_321_340" x1="-2.9788" y1="112.176" x2="-2.70748" y2="117.555" gradientUnits="userSpaceOnUse">
<stop stop-color="#FF6600"/>
<stop offset="1" stop-color="#2042B8"/>
</linearGradient>
<linearGradient id="paint4_linear_321_340" x1="-2.9788" y1="122.091" x2="-2.70748" y2="127.47" gradientUnits="userSpaceOnUse">
<stop stop-color="#FF6600"/>
<stop offset="1" stop-color="#2042B8"/>
</linearGradient>
<linearGradient id="paint5_linear_321_340" x1="-2.9788" y1="132.006" x2="-2.70748" y2="137.384" gradientUnits="userSpaceOnUse">
<stop stop-color="#FF6600"/>
<stop offset="1" stop-color="#2042B8"/>
</linearGradient>
<linearGradient id="paint6_linear_321_340" x1="26.8171" y1="240.57" x2="27.0884" y2="245.949" gradientUnits="userSpaceOnUse">
<stop stop-color="#FF6600"/>
<stop offset="1" stop-color="#2042B8"/>
</linearGradient>
<linearGradient id="paint7_linear_321_340" x1="26.8171" y1="250.485" x2="27.0884" y2="255.863" gradientUnits="userSpaceOnUse">
<stop stop-color="#FF6600"/>
<stop offset="1" stop-color="#2042B8"/>
</linearGradient>
<linearGradient id="paint8_linear_321_340" x1="26.8171" y1="260.399" x2="27.0884" y2="265.778" gradientUnits="userSpaceOnUse">
<stop stop-color="#FF6600"/>
<stop offset="1" stop-color="#2042B8"/>
</linearGradient>
<linearGradient id="paint9_linear_321_340" x1="414.742" y1="133.493" x2="415.014" y2="138.872" gradientUnits="userSpaceOnUse">
<stop stop-color="#FF6600"/>
<stop offset="1" stop-color="#2042B8"/>
</linearGradient>
<linearGradient id="paint10_linear_321_340" x1="414.742" y1="143.407" x2="415.014" y2="148.786" gradientUnits="userSpaceOnUse">
<stop stop-color="#FF6600"/>
<stop offset="1" stop-color="#2042B8"/>
</linearGradient>
<linearGradient id="paint11_linear_321_340" x1="414.742" y1="153.322" x2="415.014" y2="158.701" gradientUnits="userSpaceOnUse">
<stop stop-color="#FF6600"/>
<stop offset="1" stop-color="#2042B8"/>
</linearGradient>
<clipPath id="clip0_321_340">
<rect width="534" height="445" fill="white"/>
</clipPath>
</defs>
</svg>
