<?xml version="1.0" encoding="utf-8"?>
<!-- Generator: Adobe Illustrator 25.4.1, SVG Export Plug-In . SVG Version: 6.00 Build 0)  -->
<svg version="1.1" id="Layer_1" xmlns="http://www.w3.org/2000/svg" xmlns:xlink="http://www.w3.org/1999/xlink" x="0px" y="0px"
	 viewBox="0 0 1064.8 328.1" style="enable-background:new 0 0 1064.8 328.1;" xml:space="preserve">
<style type="text/css">
	.st0{fill:#1FD5C0;}
	.st1{fill:#FFFFFF;}
</style>
<g>
	<g>
		<polygon class="st0" points="215.6,53.5 215.6,22.4 184,22.4 184,85.1 299.9,85.1 299.9,53.5 		"/>
		<path class="st0" d="M152.3,85V22.4h-31.7v31H73.3c-26.3,0-47.6,21.3-47.6,47.6c-0.1,26.3,21.3,47.7,47.6,47.7h194.9v31.6H73.3
			c-26.3,0-47.6,21.4-47.6,47.7c0,26.3,21.3,47.6,47.6,47.6h47.3v31h31.7v-62.6c0,0-79,0.1-79.7,0c-20.5-1.7-20-31.1,0.8-31.9h226.5
			v-95H73.4c-20.8-0.8-21.3-30.1-0.8-31.8C73.3,85,152.3,85,152.3,85z"/>
		<polygon class="st0" points="184,306.4 215.6,306.4 215.6,275.3 299.9,275.3 299.9,243.7 184,243.7 		"/>
	</g>
	<g>
		<path class="st1" d="M363.9,244.1V85.9h39.6l64.9,120.9l-2.7,3.4V85.9h30.5v158.2h-39.6l-64.2-120.2l2-2.9v123.2H363.9z"/>
		<path class="st1" d="M571.2,244.1v-63.3l-58.8-94.9H547l40.5,66.4l39.8-66.4h33.4l-59,94.9v63.3H571.2z"/>
		<path class="st1" d="M676.7,244.1V85.9h54.2c16,0,30,3,42,9c12.1,6,21.4,15,28.1,26.8c6.7,11.8,10.1,26.3,10.1,43.3
			c0,17-3.2,31.5-9.7,43.3c-6.5,11.8-15.7,20.8-27.6,26.8c-11.9,6-25.8,9-41.8,9H676.7z M728.7,217c16.4,0,29.2-4,38.3-12
			c9.1-8,13.7-21.3,13.7-40c0-18.7-4.6-32-13.7-40c-9.1-8-21.9-12-38.3-12h-21.5v104H728.7z"/>
		<path class="st1" d="M835.9,244.1V85.9h30.5v158.2H835.9z"/>
		<path class="st1" d="M967,246.4c-15.1,0-28.3-3.5-39.8-10.6c-11.5-7.1-20.3-16.8-26.6-29.2c-6.3-12.4-9.4-26.2-9.4-41.6
			c0-15.4,3.2-29.2,9.6-41.6c6.4-12.4,15.5-22.1,27.3-29.2c11.8-7.1,25.5-10.6,41-10.6c13.3,0,24.9,2.4,34.8,7.2
			c9.9,4.8,17.7,11.5,23.4,20c5.6,8.5,8.8,18.3,9.6,29.3h-30.5c-1.2-8.9-4.8-16-10.8-21.4c-6-5.3-14.5-8-25.3-8h-2.3
			c-9.6,0-17.9,2.2-24.9,6.7c-6.9,4.4-12.2,10.7-15.9,18.9c-3.7,8.1-5.5,17.7-5.5,28.7c0,11,1.8,20.6,5.5,28.7
			c3.7,8.1,9,14.4,15.9,18.9c6.9,4.4,15.2,6.7,24.9,6.7h2.3c6.5,0,12.6-1.1,18.3-3.4c5.7-2.3,10.7-5.6,14.8-9.9
			c4.1-4.4,7-9.6,8.7-15.6l0.5-1.6h-43.4v-27.1h68.9v82.5h-26v-15.4c-3.3,3.5-7.1,6.5-11.4,9.2c-4.3,2.6-9.3,4.7-14.9,6.2
			C980.2,245.6,973.9,246.4,967,246.4z"/>
	</g>
</g>
</svg>
