<svg width="593" height="467" viewBox="0 0 593 467" fill="none" xmlns="http://www.w3.org/2000/svg">
<path d="M291.834 106.105H289.382V38.8976C289.382 28.5813 285.285 18.6876 277.992 11.3929C270.7 4.09815 260.809 1.28636e-05 250.496 2.46867e-10H108.154C103.048 -1.81978e-05 97.9914 1.00608 93.2737 2.96085C88.5559 4.91562 84.2692 7.78078 80.6584 11.3927C77.0475 15.0047 74.1832 19.2927 72.2291 24.012C70.2749 28.7313 69.2691 33.7893 69.269 38.8974V407.6C69.269 412.709 70.2748 417.767 72.229 422.486C74.1831 427.205 77.0474 431.493 80.6582 435.105C84.269 438.717 88.5557 441.582 93.2735 443.537C97.9912 445.492 103.048 446.498 108.154 446.498H250.496C255.603 446.498 260.659 445.492 265.377 443.537C270.095 441.582 274.381 438.717 277.992 435.105C281.603 431.493 284.467 427.205 286.422 422.486C288.376 417.767 289.382 412.709 289.382 407.601V153.944H291.834V106.105Z" fill="#2F2E41"/>
<path d="M251.772 11.0398H233.192C234.046 13.1353 234.372 15.4089 234.142 17.6602C233.911 19.9115 233.13 22.0715 231.868 23.9499C230.606 25.8283 228.902 27.3674 226.905 28.4316C224.908 29.4959 222.681 30.0526 220.418 30.0528H138.872C136.61 30.0526 134.382 29.4959 132.386 28.4316C130.389 27.3674 128.685 25.8283 127.423 23.9499C126.161 22.0715 125.38 19.9115 125.149 17.6602C124.918 15.4089 125.244 13.1353 126.099 11.0398H108.745C101.043 11.0398 93.6568 14.1002 88.2109 19.5478C82.7651 24.9954 79.7056 32.3839 79.7056 40.088V408.25C79.7056 412.065 80.4567 415.842 81.916 419.366C83.3754 422.891 85.5144 426.093 88.2109 428.79C90.9074 431.488 94.1087 433.627 97.6319 435.087C101.155 436.547 104.931 437.298 108.745 437.298H251.772C259.474 437.298 266.86 434.238 272.306 428.79C277.752 423.343 280.811 415.954 280.811 408.25V40.0881C280.811 36.2734 280.06 32.4961 278.601 28.9718C277.141 25.4475 275.002 22.2452 272.306 19.5478C269.609 16.8504 266.408 14.7108 262.885 13.251C259.362 11.7911 255.586 11.0398 251.772 11.0398H251.772ZM248.65 181.832C248.645 183.826 247.85 185.737 246.441 187.146C245.032 188.556 243.122 189.351 241.129 189.357H204.774C202.781 189.351 200.871 188.556 199.462 187.146C198.052 185.737 197.258 183.826 197.252 181.832V179.951C197.258 177.958 198.052 176.047 199.462 174.638C200.871 173.228 202.781 172.433 204.774 172.427H241.129C243.122 172.433 245.032 173.228 246.441 174.638C247.85 176.047 248.645 177.958 248.65 179.951V181.832ZM252.725 148.601C252.719 150.595 251.925 152.505 250.515 153.915C249.106 155.325 247.196 156.119 245.203 156.125H114.827C112.834 156.119 110.924 155.325 109.514 153.915C108.105 152.505 107.311 150.595 107.305 148.601V146.72C107.311 144.726 108.105 142.816 109.514 141.406C110.924 139.996 112.834 139.202 114.827 139.196H245.203C247.196 139.202 249.106 139.996 250.515 141.406C251.925 142.816 252.719 144.726 252.725 146.72V148.601ZM252.725 115.37C252.719 117.363 251.925 119.274 250.515 120.683C249.106 122.093 247.196 122.888 245.203 122.894H114.827C112.834 122.888 110.924 122.093 109.514 120.683C108.105 119.274 107.311 117.363 107.305 115.37V113.489C107.311 111.495 108.105 109.584 109.514 108.175C110.924 106.765 112.834 105.97 114.827 105.964H245.203C247.196 105.97 249.106 106.765 250.515 108.175C251.925 109.584 252.719 111.495 252.725 113.489V115.37ZM252.725 82.1381C252.719 84.1318 251.925 86.0422 250.515 87.452C249.106 88.8618 247.196 89.6564 245.203 89.6622H114.827C112.834 89.6564 110.924 88.8618 109.514 87.452C108.105 86.0422 107.311 84.1318 107.305 82.1381V80.2571C107.311 78.2634 108.105 76.353 109.514 74.9432C110.924 73.5334 112.834 72.7388 114.827 72.733H245.203C247.196 72.7388 249.106 73.5334 250.515 74.9432C251.925 76.353 252.719 78.2634 252.725 80.2571V82.1381Z" fill="white"/>
<path d="M117.647 152.363C120.071 152.363 122.035 150.398 122.035 147.974C122.035 145.55 120.071 143.585 117.647 143.585C115.224 143.585 113.26 145.55 113.26 147.974C113.26 150.398 115.224 152.363 117.647 152.363Z" fill="white"/>
<path d="M132.064 152.363C134.487 152.363 136.452 150.398 136.452 147.974C136.452 145.55 134.487 143.585 132.064 143.585C129.641 143.585 127.676 145.55 127.676 147.974C127.676 150.398 129.641 152.363 132.064 152.363Z" fill="white"/>
<path d="M146.481 152.363C148.904 152.363 150.869 150.398 150.869 147.974C150.869 145.55 148.904 143.585 146.481 143.585C144.058 143.585 142.093 145.55 142.093 147.974C142.093 150.398 144.058 152.363 146.481 152.363Z" fill="white"/>
<path d="M160.897 152.363C163.321 152.363 165.285 150.398 165.285 147.974C165.285 145.55 163.321 143.585 160.897 143.585C158.474 143.585 156.51 145.55 156.51 147.974C156.51 150.398 158.474 152.363 160.897 152.363Z" fill="white"/>
<path d="M207.908 185.595C210.331 185.595 212.296 183.629 212.296 181.205C212.296 178.781 210.331 176.816 207.908 176.816C205.485 176.816 203.521 178.781 203.521 181.205C203.521 183.629 205.485 185.595 207.908 185.595Z" fill="white"/>
<path d="M222.325 185.595C224.748 185.595 226.712 183.629 226.712 181.205C226.712 178.781 224.748 176.816 222.325 176.816C219.901 176.816 217.937 178.781 217.937 181.205C217.937 183.629 219.901 185.595 222.325 185.595Z" fill="white"/>
<path d="M236.741 185.595C239.164 185.595 241.129 183.629 241.129 181.205C241.129 178.781 239.164 176.816 236.741 176.816C234.318 176.816 232.354 178.781 232.354 181.205C232.354 183.629 234.318 185.595 236.741 185.595Z" fill="white"/>
<path d="M253.734 238.074H105.043C101.55 238.074 98.1995 239.462 95.7294 241.933C93.2593 244.404 91.8716 247.755 91.8716 251.249V323.718C91.8716 327.212 93.2593 330.563 95.7294 333.034C98.1995 335.505 101.55 336.893 105.043 336.893H253.734C257.227 336.893 260.577 335.505 263.047 333.034C265.517 330.563 266.905 327.212 266.905 323.718V251.249C266.905 247.755 265.517 244.404 263.047 241.933C260.577 239.462 257.227 238.074 253.734 238.074H253.734ZM101.364 247.062C101.658 247.008 108.62 245.823 114.386 249.294C120.151 252.763 122.366 259.472 122.457 259.756L122.69 260.479L121.942 260.612C120.875 260.779 119.795 260.858 118.715 260.849C115.288 260.915 111.906 260.062 108.92 258.38C103.155 254.911 100.94 248.201 100.849 247.918L100.616 247.194L101.364 247.062ZM133.641 314.344H107.121C105.186 314.344 103.331 313.575 101.964 312.207C100.596 310.839 99.8277 308.983 99.8277 307.048C99.8277 305.114 100.596 303.258 101.964 301.89C103.331 300.522 105.186 299.753 107.121 299.753H133.641C135.575 299.753 137.43 300.522 138.798 301.89C140.166 303.258 140.934 305.114 140.934 307.048C140.934 308.983 140.166 310.839 138.798 312.207C137.43 313.575 135.575 314.344 133.641 314.344ZM254.308 313.017C254.302 315.126 253.462 317.147 251.971 318.638C250.48 320.129 248.46 320.97 246.352 320.976H226.462C224.354 320.97 222.333 320.129 220.843 318.638C219.352 317.147 218.512 315.126 218.506 313.017V301.079C218.512 298.971 219.352 296.95 220.843 295.459C222.333 293.967 224.354 293.127 226.462 293.121H246.352C248.46 293.127 250.48 293.967 251.971 295.459C253.462 296.95 254.302 298.971 254.308 301.079L254.308 313.017Z" fill="url(#paint0_linear_288_166)"/>
<path d="M232.875 310.557H224.877C224.306 310.557 223.759 310.784 223.355 311.188C222.951 311.592 222.724 312.14 222.724 312.711C222.724 313.282 222.951 313.83 223.355 314.234C223.759 314.638 224.306 314.865 224.877 314.865H232.875C233.446 314.865 233.993 314.638 234.397 314.234C234.801 313.83 235.028 313.282 235.028 312.711C235.028 312.14 234.801 311.592 234.397 311.188C233.993 310.784 233.446 310.557 232.875 310.557Z" fill="#3F3D56"/>
<path d="M247.639 310.557H239.641C239.07 310.557 238.523 310.784 238.119 311.188C237.715 311.592 237.488 312.14 237.488 312.711C237.488 313.282 237.715 313.83 238.119 314.234C238.523 314.638 239.07 314.865 239.641 314.865H247.639C248.21 314.865 248.757 314.638 249.161 314.234C249.565 313.83 249.792 313.282 249.792 312.711C249.792 312.14 249.565 311.592 249.161 311.188C248.757 310.784 248.21 310.557 247.639 310.557Z" fill="#3F3D56"/>
<path d="M232.874 304.477H224.876C224.305 304.477 223.758 304.704 223.354 305.108C222.95 305.512 222.723 306.06 222.723 306.631C222.723 307.202 222.95 307.75 223.354 308.154C223.758 308.558 224.305 308.785 224.876 308.785H232.874C233.445 308.785 233.992 308.558 234.396 308.154C234.8 307.75 235.027 307.202 235.027 306.631C235.027 306.06 234.8 305.512 234.396 305.108C233.992 304.704 233.445 304.477 232.874 304.477Z" fill="#3F3D56"/>
<path d="M247.638 304.477H239.64C239.069 304.477 238.522 304.704 238.118 305.108C237.714 305.512 237.487 306.06 237.487 306.631C237.487 307.202 237.714 307.75 238.118 308.154C238.522 308.558 239.069 308.785 239.64 308.785H247.638C248.209 308.785 248.756 308.558 249.16 308.154C249.564 307.75 249.791 307.202 249.791 306.631C249.791 306.06 249.564 305.512 249.16 305.108C248.756 304.704 248.209 304.477 247.638 304.477H247.638Z" fill="#3F3D56"/>
<path d="M232.874 298.521H224.876C224.305 298.521 223.758 298.748 223.354 299.151C222.95 299.555 222.723 300.103 222.723 300.674C222.723 301.246 222.95 301.793 223.354 302.197C223.758 302.601 224.305 302.828 224.876 302.828H232.874C233.445 302.828 233.992 302.601 234.396 302.197C234.8 301.793 235.027 301.246 235.027 300.674C235.027 300.103 234.8 299.555 234.396 299.151C233.992 298.748 233.445 298.521 232.874 298.521Z" fill="#3F3D56"/>
<path d="M247.638 298.521H239.64C239.069 298.521 238.522 298.748 238.118 299.151C237.714 299.555 237.487 300.103 237.487 300.674C237.487 301.246 237.714 301.793 238.118 302.197C238.522 302.601 239.069 302.828 239.64 302.828H247.638C248.209 302.828 248.756 302.601 249.16 302.197C249.564 301.793 249.791 301.246 249.791 300.674C249.791 300.103 249.564 299.555 249.16 299.151C248.756 298.748 248.209 298.521 247.638 298.521H247.638Z" fill="#3F3D56"/>
<path d="M356.719 265.372H337.325V284.773H356.719V265.372Z" fill="url(#paint1_linear_288_166)" fill-opacity="0.4"/>
<path d="M314.467 277.151H346.329V309.024H314.467V277.151ZM344.944 278.537H315.852V307.638H344.944V278.537Z" fill="#3F3D56"/>
<path d="M19.3944 105.318H0V124.718H19.3944V105.318Z" fill="url(#paint2_linear_288_166)" fill-opacity="0.4"/>
<path d="M42.2519 112.939H10.3896V81.0668H42.2519V112.939ZM11.775 111.553H40.8666V82.4525H11.775V111.553Z" fill="#3F3D56"/>
<path d="M452.359 458.282H443.867L439.828 425.517H452.361L452.359 458.282Z" fill="#FFB8B8"/>
<path d="M437.802 455.854H454.179V466.169H427.49C427.49 463.433 428.577 460.81 430.51 458.875C432.444 456.941 435.067 455.854 437.802 455.854Z" fill="#2F2E41"/>
<path d="M494.611 458.282H486.119L482.08 425.517H494.613L494.611 458.282Z" fill="#FFB8B8"/>
<path d="M480.054 455.854H496.431V466.169H469.742C469.742 463.433 470.829 460.81 472.762 458.875C474.696 456.941 477.319 455.854 480.054 455.854Z" fill="#2F2E41"/>
<path d="M409.76 341.106C409.149 340.206 408.743 339.183 408.57 338.108C408.397 337.034 408.462 335.935 408.76 334.888C409.058 333.841 409.581 332.873 410.294 332.051C411.007 331.228 411.891 330.573 412.884 330.129L441.751 250.54L455.956 258.295L422.996 334.352C423.63 336.071 423.612 337.963 422.945 339.669C422.278 341.375 421.008 342.778 419.377 343.61C417.745 344.443 415.865 344.648 414.093 344.186C412.32 343.725 410.779 342.629 409.76 341.106Z" fill="#FFB8B8"/>
<path d="M490.274 356.061C489.33 355.52 488.516 354.778 487.89 353.889C487.264 352.999 486.841 351.983 486.649 350.911C486.458 349.84 486.505 348.74 486.784 347.688C487.064 346.637 487.571 345.66 488.27 344.825L479.327 260.634L495.492 261.373L499.209 344.186C500.532 345.452 501.345 347.161 501.494 348.987C501.642 350.813 501.116 352.63 500.014 354.094C498.913 355.557 497.313 356.566 495.518 356.929C493.723 357.291 491.857 356.983 490.274 356.061V356.061Z" fill="#FFB8B8"/>
<path d="M464.486 235.799C473.881 235.799 481.498 228.179 481.498 218.781C481.498 209.382 473.881 201.763 464.486 201.763C455.09 201.763 447.473 209.382 447.473 218.781C447.473 228.179 455.09 235.799 464.486 235.799Z" fill="#FFB8B8"/>
<path d="M490.165 336.914H438.876L438.938 336.515C439.03 335.918 448.079 276.623 441.405 257.224C440.735 255.318 440.794 253.231 441.57 251.366C442.346 249.5 443.785 247.988 445.609 247.12H445.609C455.148 242.626 473.459 237.093 488.914 250.521C491.188 252.53 492.964 255.04 494.101 257.853C495.239 260.667 495.706 263.707 495.466 266.732L490.165 336.914Z" fill="#2042B8"/>
<path d="M448.727 285.386L425.636 280.7L436.459 255.042C437.107 252.557 438.714 250.431 440.927 249.129C443.14 247.827 445.779 247.457 448.265 248.099C450.75 248.74 452.88 250.343 454.187 252.553C455.493 254.764 455.87 257.403 455.234 259.891L448.727 285.386Z" fill="#2042B8"/>
<path d="M478.301 294.087L476.912 262.255C475.86 256.271 479.284 250.614 484.551 249.69C489.818 248.768 494.962 252.919 496.02 258.946L501.238 288.69L478.301 294.087Z" fill="#2042B8"/>
<path d="M488.459 333.103C496.711 364.543 497.612 404.517 495.385 448.121L484.303 446.735L464.215 363.59L453.133 448.121L440.665 447.428C436.94 401.677 433.314 362.401 439.28 336.567L488.459 333.103Z" fill="#2F2E41"/>
<path d="M475.695 231.933C472.521 235.314 466.627 233.499 466.214 228.879C466.181 228.52 466.184 228.159 466.221 227.801C466.434 225.755 467.616 223.897 467.333 221.736C467.269 221.198 467.069 220.686 466.751 220.247C464.222 216.859 458.285 221.762 455.899 218.695C454.435 216.815 456.155 213.854 455.032 211.752C453.55 208.978 449.159 210.347 446.406 208.828C443.343 207.137 443.526 202.436 445.542 199.576C448.002 196.088 452.314 194.227 456.572 193.959C460.83 193.691 465.059 194.842 469.034 196.392C473.551 198.153 478.03 200.586 480.81 204.559C484.19 209.391 484.516 215.886 482.825 221.536C481.797 224.973 478.287 229.171 475.695 231.933Z" fill="#2F2E41"/>
<path d="M592.307 467H328.405C328.221 467 328.045 466.927 327.915 466.797C327.785 466.667 327.712 466.491 327.712 466.307C327.712 466.123 327.785 465.947 327.915 465.817C328.045 465.687 328.221 465.614 328.405 465.614H592.307C592.491 465.614 592.667 465.687 592.797 465.817C592.927 465.947 593 466.123 593 466.307C593 466.491 592.927 466.667 592.797 466.797C592.667 466.927 592.491 467 592.307 467Z" fill="#3F3D56"/>
<defs>
<linearGradient id="paint0_linear_288_166" x1="76.766" y1="238.121" x2="134.089" y2="365.985" gradientUnits="userSpaceOnUse">
<stop stop-color="#FF6600"/>
<stop offset="1" stop-color="#2042B8"/>
</linearGradient>
<linearGradient id="paint1_linear_288_166" x1="335.651" y1="265.382" x2="350.334" y2="283.867" gradientUnits="userSpaceOnUse">
<stop stop-color="#FF6600"/>
<stop offset="1" stop-color="#2042B8"/>
</linearGradient>
<linearGradient id="paint2_linear_288_166" x1="-1.67376" y1="105.327" x2="13.0093" y2="123.812" gradientUnits="userSpaceOnUse">
<stop stop-color="#FF6600"/>
<stop offset="1" stop-color="#2042B8"/>
</linearGradient>
</defs>
</svg>
