<svg width="388" height="325" viewBox="0 0 388 325" fill="none" xmlns="http://www.w3.org/2000/svg">
<rect width="388" height="324.39" rx="22" fill="#2042B8" fill-opacity="0.21"/>
<g clip-path="url(#clip0_271_138)">
<path d="M74.3561 102.468C73.8822 102.601 73.4805 102.916 73.2392 103.344C72.9979 103.772 72.9366 104.278 73.0688 104.751L104.109 215.343C104.242 215.816 104.558 216.217 104.987 216.457C105.416 216.698 105.923 216.759 106.397 216.627L220.826 184.662C221.3 184.529 221.702 184.214 221.943 183.786C222.184 183.358 222.246 182.852 222.113 182.379L191.074 71.787C190.94 71.3142 190.624 70.9135 190.195 70.6727C189.766 70.432 189.259 70.3708 188.785 70.5027L74.3561 102.468Z" fill="url(#paint0_linear_271_138)" fill-opacity="0.4"/>
<path d="M107.532 211.68L216.576 181.219L187.044 76L78 106.461L107.532 211.68Z" fill="white"/>
<path d="M92.7202 120.236C91.9926 120.439 91.6927 121.645 92.0515 122.923C92.4104 124.202 93.2943 125.077 94.0218 124.874L143.755 110.981C144.482 110.778 144.782 109.572 144.424 108.293C144.065 107.015 143.181 106.14 142.453 106.343L92.7202 120.236Z" fill="#E6E6E6"/>
<path d="M96.7255 134.506C95.998 134.709 95.6981 135.915 96.0569 137.193C96.4158 138.472 97.2997 139.347 98.0272 139.143L147.76 125.251C148.488 125.047 148.788 123.842 148.429 122.563C148.07 121.285 147.186 120.41 146.459 120.613L96.7255 134.506Z" fill="#E6E6E6"/>
<path d="M100.685 148.611C99.957 148.814 99.657 150.02 100.016 151.298C100.375 152.577 101.259 153.452 101.986 153.249L151.719 139.356C152.447 139.153 152.747 137.947 152.388 136.668C152.029 135.39 151.145 134.515 150.418 134.718L100.685 148.611Z" fill="#E6E6E6"/>
<path d="M104.689 162.881C103.962 163.084 103.662 164.29 104.021 165.568C104.38 166.847 105.264 167.722 105.991 167.519L155.724 153.626C156.452 153.423 156.752 152.217 156.393 150.938C156.034 149.66 155.15 148.785 154.423 148.988L104.689 162.881Z" fill="#E6E6E6"/>
<path d="M167.692 99.4571C167.387 99.5421 167.101 99.6864 166.851 99.8816C166.602 100.077 166.393 100.319 166.237 100.595C166.082 100.871 165.982 101.174 165.944 101.489C165.906 101.803 165.931 102.121 166.016 102.426C166.102 102.731 166.247 103.016 166.443 103.265C166.639 103.513 166.882 103.721 167.158 103.876C167.435 104.031 167.739 104.13 168.054 104.168C168.369 104.205 168.689 104.181 168.994 104.095L178.291 101.498C178.908 101.325 179.43 100.916 179.744 100.359C180.058 99.8027 180.137 99.1445 179.965 98.5295C179.792 97.9145 179.382 97.3931 178.824 97.08C178.266 96.7669 177.606 96.6877 176.99 96.8599L167.692 99.4571Z" fill="#E6E6E6"/>
<path d="M171.62 113.45C171.315 113.535 171.029 113.68 170.779 113.875C170.529 114.07 170.321 114.312 170.165 114.588C170.009 114.864 169.91 115.168 169.872 115.482C169.834 115.796 169.858 116.114 169.944 116.419C170.029 116.724 170.174 117.009 170.37 117.258C170.566 117.507 170.81 117.714 171.086 117.869C171.363 118.024 171.667 118.123 171.982 118.161C172.297 118.198 172.616 118.174 172.922 118.088L182.219 115.491C182.836 115.319 183.358 114.909 183.672 114.353C183.986 113.796 184.065 113.138 183.893 112.523C183.72 111.908 183.31 111.386 182.752 111.073C182.194 110.76 181.534 110.681 180.917 110.853L171.62 113.45Z" fill="#E6E6E6"/>
<path d="M175.548 127.444C175.242 127.529 174.957 127.673 174.708 127.869C174.458 128.064 174.25 128.306 174.095 128.582C173.939 128.858 173.84 129.161 173.802 129.475C173.764 129.789 173.789 130.107 173.874 130.412C173.96 130.716 174.104 131.001 174.3 131.25C174.496 131.498 174.739 131.706 175.015 131.861C175.291 132.016 175.595 132.116 175.91 132.153C176.225 132.191 176.544 132.167 176.849 132.081L186.147 129.484C186.763 129.312 187.286 128.902 187.6 128.346C187.913 127.789 187.993 127.131 187.82 126.516C187.647 125.901 187.237 125.38 186.679 125.066C186.121 124.753 185.461 124.674 184.845 124.846L175.548 127.444Z" fill="#E6E6E6"/>
<path d="M179.475 141.437C178.859 141.61 178.337 142.019 178.024 142.576C177.711 143.132 177.632 143.79 177.804 144.404C177.977 145.019 178.387 145.54 178.944 145.853C179.501 146.166 180.161 146.246 180.777 146.075L190.074 143.477C190.69 143.305 191.212 142.895 191.525 142.339C191.838 141.782 191.917 141.125 191.745 140.51C191.572 139.895 191.163 139.374 190.605 139.061C190.048 138.748 189.389 138.668 188.772 138.84L179.475 141.437Z" fill="#E6E6E6"/>
<path d="M183.227 165.692C182.838 165.8 182.474 165.984 182.156 166.233C181.838 166.482 181.572 166.79 181.373 167.142C181.175 167.493 181.048 167.88 181 168.28C180.951 168.681 180.982 169.087 181.091 169.475C181.2 169.863 181.385 170.226 181.635 170.543C181.885 170.86 182.194 171.125 182.547 171.323C182.899 171.52 183.287 171.647 183.689 171.694C184.09 171.742 184.497 171.711 184.886 171.601L196.733 168.292C197.518 168.073 198.184 167.551 198.584 166.842C198.984 166.132 199.085 165.294 198.865 164.51C198.645 163.726 198.122 163.062 197.411 162.663C196.7 162.264 195.86 162.163 195.074 162.383L183.227 165.692Z" fill="url(#paint1_linear_271_138)"/>
<path d="M195.42 153.757L107.755 178.246L107.973 179.024L195.638 154.535L195.42 153.757Z" fill="#E6E6E6"/>
<path d="M283.477 258.277L276.446 259.973L266.544 233.725L276.921 231.222L283.477 258.277Z" fill="#A0616A"/>
<path d="M264.317 270L264.269 269.804C263.712 267.493 264.096 265.056 265.338 263.028C266.579 260.999 268.577 259.545 270.892 258.984L284.648 255.666L286.807 264.576L264.317 270Z" fill="#2F2E41"/>
<path d="M252.353 263.055L245.119 263.055L241.678 235.221L252.354 235.221L252.353 263.055Z" fill="#A0616A"/>
<path d="M254.105 269.958L230.967 269.957V269.755C230.967 267.378 231.914 265.098 233.599 263.417C235.284 261.736 237.569 260.791 239.952 260.791H239.953L254.105 260.792L254.105 269.958Z" fill="#2F2E41"/>
<path d="M241.673 252.189L234.649 168.685L263.723 163.339L263.838 163.318L272.347 168.775L269.385 199.507L283.022 247.42L271.247 250.511L257.589 206.075L254.463 192.562L252.861 210.121L254.05 253.424L241.673 252.189Z" fill="#2F2E41"/>
<path d="M233.749 170.579L233.672 170.482L243.718 95.0165L243.732 94.9176L243.802 94.8469C243.95 94.6992 247.47 91.229 251.091 91.229C251.614 91.229 252.112 91.2158 252.589 91.2037C255.36 91.1319 257.549 91.0744 260.15 93.6697C262.8 96.3133 271.446 105.967 271.446 119.188C271.446 131.985 272.614 171.755 272.626 172.155L272.643 172.717L272.17 172.41C272.054 172.335 260.424 164.948 250.671 171.815C247.623 173.962 244.885 174.714 242.544 174.714C237.094 174.714 233.795 170.639 233.749 170.579Z" fill="#FF6600"/>
<path d="M256.504 85.0022C263.527 81.1724 266.108 72.3883 262.269 65.3824C258.43 58.3765 249.625 55.8017 242.603 59.6315C235.58 63.4613 232.999 72.2453 236.838 79.2513C240.677 86.2572 249.482 88.832 256.504 85.0022Z" fill="#A0616A"/>
<path d="M227.37 186.797C228.055 186.267 228.616 185.594 229.013 184.824C229.409 184.055 229.631 183.208 229.664 182.343C229.697 181.478 229.539 180.617 229.203 179.819C228.866 179.022 228.357 178.308 227.714 177.728L235.944 158.362L225.168 160.341L219.005 178.427C218.1 179.57 217.646 181.005 217.73 182.46C217.814 183.914 218.43 185.287 219.461 186.319C220.492 187.351 221.867 187.969 223.324 188.057C224.782 188.146 226.221 187.697 227.37 186.797H227.37Z" fill="#A0616A"/>
<path d="M219.419 171.734L222.069 166.152C221.905 166.054 221.77 165.914 221.678 165.747C219.202 161.467 234.157 125.918 235.154 123.56C235.002 122.278 233.432 108.688 234.58 104.107C235.931 98.7148 238.705 96.2017 243.857 95.7039C249.538 95.1716 251.071 102.868 251.086 102.947L251.091 122.734L244.571 145.511L229.701 175.774L219.419 171.734Z" fill="#FF6600"/>
<path d="M251.406 77.7634C249.669 77.9889 248.359 76.2157 247.751 74.5766C247.143 72.9375 246.68 71.0293 245.17 70.1439C243.106 68.9343 240.466 70.3891 238.107 69.99C235.442 69.5393 233.709 66.7219 233.574 64.0289C233.438 61.3359 234.512 58.7458 235.566 56.2629L235.934 59.3486C235.885 58.3028 236.105 57.2619 236.575 56.3254C237.044 55.389 237.746 54.5883 238.614 54L238.14 58.5278C238.437 55.9912 241.177 54.0257 243.682 54.5514L243.607 57.2492C246.685 56.884 249.789 56.5184 252.876 56.7966C255.963 57.0747 259.072 58.0491 261.411 60.0773C264.911 63.1111 266.189 68.1066 265.76 72.7121C265.331 77.3176 263.425 81.6442 261.439 85.8236C260.939 86.8752 260.248 88.0618 259.09 88.1958C258.048 88.3161 257.096 87.4478 256.772 86.4533C256.448 85.4588 256.606 84.3783 256.8 83.3507C257.093 81.7984 257.462 80.2116 257.187 78.6561C256.911 77.1006 255.79 75.5634 254.218 75.3728C252.646 75.1822 251.038 76.9745 251.794 78.3626L251.406 77.7634Z" fill="#2F2E41"/>
<path d="M314.845 269.991H210.562V269.141H315L314.845 269.991Z" fill="#3F3D56"/>
<path d="M118.414 107.966L116.523 101.226L118.699 100.615C119.225 100.468 119.68 100.434 120.062 100.513C120.445 100.593 120.758 100.761 121.003 101.018C121.249 101.274 121.422 101.586 121.525 101.952C121.644 102.375 121.636 102.789 121.5 103.195C121.371 103.598 121.085 103.938 120.644 104.214L122.93 106.698L121.977 106.966L119.829 104.567L119.771 104.583L118.442 104.956L119.223 107.739L118.414 107.966ZM118.264 104.321L119.573 103.953C120.093 103.807 120.437 103.576 120.604 103.259C120.771 102.942 120.8 102.588 120.69 102.196C120.579 101.798 120.371 101.517 120.069 101.353C119.771 101.18 119.356 101.168 118.823 101.318L117.524 101.683L118.264 104.321ZM124.122 106.364L122.23 99.6244L126.399 98.4545L126.586 99.1188L123.226 100.062L123.885 102.411L126.956 101.549L127.14 102.204L124.069 103.066L124.744 105.473L128.104 104.53L128.291 105.194L124.122 106.364ZM132.545 104.125C131.883 104.311 131.272 104.326 130.709 104.173C130.151 104.011 129.668 103.707 129.259 103.261C128.848 102.808 128.545 102.235 128.351 101.542C128.158 100.855 128.12 100.215 128.237 99.6212C128.353 99.021 128.607 98.5067 128.999 98.0781C129.397 97.6477 129.927 97.3398 130.588 97.1543C131.359 96.9381 132.037 96.9486 132.622 97.1858C133.213 97.4148 133.668 97.8409 133.989 98.4642L133.093 98.7155C132.874 98.3271 132.568 98.0528 132.177 97.8925C131.79 97.724 131.327 97.7154 130.788 97.8667C130.307 98.0018 129.918 98.2321 129.622 98.5577C129.323 98.8768 129.133 99.2729 129.051 99.7459C128.974 100.211 129.017 100.732 129.179 101.31C129.341 101.887 129.577 102.358 129.886 102.721C130.201 103.076 130.569 103.315 130.991 103.439C131.412 103.556 131.863 103.548 132.345 103.412C132.884 103.261 133.276 103.019 133.522 102.687C133.773 102.347 133.892 101.957 133.88 101.517L134.775 101.266C134.822 101.952 134.653 102.547 134.268 103.049C133.889 103.55 133.315 103.909 132.545 104.125ZM136.486 102.894L134.594 96.1546L138.763 94.9847L138.95 95.649L135.59 96.592L136.249 98.9412L139.32 98.0793L139.504 98.734L136.433 99.596L137.108 102.003L140.468 101.06L140.655 101.724L136.486 102.894ZM141.92 101.369L140.029 94.6295L140.838 94.4025L142.729 101.142L141.92 101.369ZM144.158 100.741L142.267 94.0015L144.481 93.3801C145.008 93.2323 145.465 93.1974 145.854 93.2752C146.243 93.3531 146.559 93.5171 146.802 93.7673C147.052 94.0158 147.229 94.3261 147.334 94.6984C147.436 95.0643 147.449 95.4174 147.371 95.7577C147.294 96.0979 147.11 96.4057 146.82 96.6809C146.529 96.9497 146.116 97.1588 145.584 97.3083L144.178 97.7028L144.967 100.514L144.158 100.741ZM143.986 97.0192L145.373 96.6301C145.912 96.4788 146.262 96.2593 146.424 95.9716C146.59 95.6757 146.617 95.3287 146.506 94.9308C146.392 94.5264 146.188 94.2443 145.894 94.0845C145.605 93.9165 145.19 93.9081 144.651 94.0594L143.265 94.4485L143.986 97.0192ZM151.313 98.7333L149.608 92.658L147.596 93.2227L147.409 92.5584L152.242 91.202L152.429 91.8663L150.417 92.431L152.122 98.5064L151.313 98.7333Z" fill="black"/>
</g>
<defs>
<linearGradient id="paint0_linear_271_138" x1="60.126" y1="70.5044" x2="170.298" y2="212.019" gradientUnits="userSpaceOnUse">
<stop stop-color="#FF6600"/>
<stop offset="1" stop-color="#2042B8"/>
</linearGradient>
<linearGradient id="paint1_linear_271_138" x1="179.424" y1="162.273" x2="184.637" y2="174.782" gradientUnits="userSpaceOnUse">
<stop stop-color="#FF6600"/>
<stop offset="1" stop-color="#2042B8"/>
</linearGradient>
<clipPath id="clip0_271_138">
<rect width="242" height="216" fill="white" transform="translate(73 54)"/>
</clipPath>
</defs>
</svg>
