<svg width="398" height="355" viewBox="0 0 398 355" fill="none" xmlns="http://www.w3.org/2000/svg">
<g clip-path="url(#clip0_221_460)">
<path d="M86.0382 109.309C84.9704 109.309 83.9464 109.733 83.1914 110.488C82.4363 111.243 82.0122 112.267 82.0122 113.334C82.0122 114.401 82.4363 115.425 83.1914 116.18C83.9464 116.935 84.9704 117.359 86.0382 117.359H136.645V115.603C136.645 114.355 136.955 113.127 137.547 112.028C138.139 110.93 138.995 109.996 140.037 109.309H86.0382Z" fill="#E6E6E6"/>
<path d="M132.088 100.254H114.978C113.91 100.254 112.886 99.8296 112.131 99.0749C111.376 98.3201 110.952 97.2964 110.952 96.229C110.952 95.1615 111.376 94.1378 112.131 93.383C112.886 92.6283 113.91 92.2042 114.978 92.2042H132.088C133.156 92.2042 134.18 92.6283 134.935 93.383C135.69 94.1378 136.114 95.1615 136.114 96.229C136.114 97.2964 135.69 98.3201 134.935 99.0749C134.18 99.8296 133.156 100.254 132.088 100.254Z" fill="#E6E6E6"/>
<path d="M93.7124 71.5775H27.2831C26.2153 71.5775 25.1913 71.1535 24.4363 70.3987C23.6813 69.6439 23.2571 68.6202 23.2571 67.5528C23.2571 66.4854 23.6813 65.4617 24.4363 64.7069C25.1913 63.9521 26.2153 63.5281 27.2831 63.5281H93.7124C94.7802 63.5281 95.8042 63.9521 96.5593 64.7069C97.3143 65.4617 97.7384 66.4854 97.7384 67.5528C97.7384 68.6202 97.3143 69.6439 96.5593 70.3987C95.8042 71.1535 94.7802 71.5775 93.7124 71.5775Z" fill="#E6E6E6"/>
<path d="M64.7755 54.4724H56.2202C55.1524 54.4724 54.1284 54.0484 53.3733 53.2936C52.6183 52.5388 52.1942 51.5151 52.1942 50.4477C52.1942 49.3803 52.6183 48.3566 53.3733 47.6018C54.1284 46.847 55.1524 46.423 56.2202 46.423H64.7755C65.8432 46.423 66.8673 46.847 67.6223 47.6018C68.3773 48.3566 68.8015 49.3803 68.8015 50.4477C68.8015 51.5151 68.3773 52.5388 67.6223 53.2936C66.8673 54.0484 65.8432 54.4724 64.7755 54.4724Z" fill="#E6E6E6"/>
<path d="M136.14 190.254H73.5162C71.248 190.251 69.0734 189.35 67.4696 187.746C65.8657 186.143 64.9635 183.969 64.9609 181.701V82.673C64.9635 80.4055 65.8657 78.2316 67.4696 76.6283C69.0734 75.0249 71.248 74.123 73.5162 74.1205H173.55C175.818 74.123 177.992 75.0249 179.596 76.6283C181.2 78.2316 182.102 80.4055 182.105 82.673V107.218H181.098V82.673C181.096 80.6723 180.3 78.7542 178.885 77.3394C177.47 75.9247 175.551 75.1289 173.55 75.1267H73.5162C71.5149 75.1289 69.5961 75.9247 68.1809 77.3394C66.7658 78.7542 65.9697 80.6723 65.9675 82.673V181.701C65.9697 183.702 66.7658 185.62 68.1809 187.035C69.5961 188.45 71.5149 189.246 73.5162 189.248H136.14V190.254Z" fill="url(#paint0_linear_221_460)" fill-opacity="0.4"/>
<path d="M65.4642 130.972H19.8144C17.5462 130.969 15.3716 130.067 13.7678 128.464C12.1639 126.861 11.2617 124.687 11.2592 122.419V41.8951C11.2617 39.6276 12.1639 37.4537 13.7678 35.8503C15.3716 34.247 17.5462 33.3451 19.8144 33.3425H101.181C103.449 33.3451 105.624 34.247 107.228 35.8503C108.832 37.4537 109.734 39.6276 109.736 41.8951V74.6235H108.73V41.8951C108.728 39.8944 107.931 37.9762 106.516 36.5615C105.101 35.1468 103.182 34.351 101.181 34.3487H19.8144C17.8131 34.351 15.8943 35.1468 14.4792 36.5615C13.064 37.9762 12.2679 39.8944 12.2657 41.8951V122.419C12.2679 124.42 13.064 126.338 14.4792 127.753C15.8943 129.167 17.8131 129.963 19.8144 129.965H65.4642V130.972Z" fill="url(#paint1_linear_221_460)" fill-opacity="0.4"/>
<path d="M269.222 109.309C270.264 109.996 271.12 110.93 271.712 112.028C272.304 113.127 272.614 114.355 272.614 115.603V117.359H323.221C324.289 117.359 325.313 116.935 326.068 116.18C326.823 115.425 327.247 114.401 327.247 113.334C327.247 112.267 326.823 111.243 326.068 110.488C325.313 109.733 324.289 109.309 323.221 109.309H269.222Z" fill="#E6E6E6"/>
<path d="M273.145 96.229C273.146 95.1619 273.571 94.1389 274.325 93.3844C275.08 92.6299 276.104 92.2054 277.171 92.2042H294.282C295.349 92.2042 296.373 92.6283 297.128 93.383C297.883 94.1378 298.308 95.1615 298.308 96.229C298.308 97.2964 297.883 98.3201 297.128 99.0749C296.373 99.8296 295.349 100.254 294.282 100.254H277.171C276.104 100.252 275.08 99.828 274.325 99.0735C273.571 98.319 273.146 97.296 273.145 96.229Z" fill="#E6E6E6"/>
<path d="M311.521 67.5528C311.522 66.4858 311.946 65.4628 312.701 64.7082C313.456 63.9537 314.479 63.5293 315.547 63.5281H381.976C383.044 63.5281 384.068 63.9521 384.823 64.7069C385.578 65.4617 386.002 66.4854 386.002 67.5528C386.002 68.6202 385.578 69.6439 384.823 70.3987C384.068 71.1535 383.044 71.5775 381.976 71.5775H315.547C314.479 71.5763 313.456 71.1519 312.701 70.3974C311.946 69.6428 311.522 68.6199 311.521 67.5528Z" fill="#E6E6E6"/>
<path d="M340.458 50.4477C340.459 49.3807 340.883 48.3577 341.638 47.6031C342.393 46.8486 343.416 46.4242 344.484 46.423H353.039C354.107 46.423 355.131 46.847 355.886 47.6018C356.641 48.3566 357.065 49.3803 357.065 50.4477C357.065 51.5151 356.641 52.5388 355.886 53.2936C355.131 54.0484 354.107 54.4724 353.039 54.4724H344.484C343.416 54.4712 342.393 54.0468 341.638 53.2923C340.883 52.5377 340.459 51.5148 340.458 50.4477Z" fill="#E6E6E6"/>
<path d="M273.119 190.254H335.743C338.011 190.251 340.186 189.35 341.79 187.746C343.394 186.143 344.296 183.969 344.298 181.701V82.673C344.296 80.4055 343.394 78.2316 341.79 76.6283C340.186 75.0249 338.011 74.123 335.743 74.1205H235.71C233.441 74.123 231.267 75.0249 229.663 76.6283C228.059 78.2316 227.157 80.4055 227.154 82.673V107.218H228.161V82.673C228.163 80.6723 228.959 78.7542 230.374 77.3394C231.79 75.9247 233.708 75.1289 235.71 75.1267H335.743C337.744 75.1289 339.663 75.9247 341.078 77.3394C342.493 78.7542 343.289 80.6723 343.292 82.673V181.701C343.289 183.702 342.493 185.62 341.078 187.035C339.663 188.45 337.744 189.246 335.743 189.248H273.119V190.254Z" fill="url(#paint2_linear_221_460)" fill-opacity="0.4"/>
<path d="M343.795 130.972H389.445C391.713 130.969 393.887 130.067 395.491 128.464C397.095 126.861 397.997 124.687 398 122.419V41.8951C397.997 39.6276 397.095 37.4537 395.491 35.8503C393.887 34.247 391.713 33.3451 389.445 33.3425H308.078C305.81 33.3451 303.635 34.247 302.031 35.8503C300.428 37.4537 299.525 39.6276 299.523 41.8951V74.6235H300.529V41.8951C300.532 39.8944 301.328 37.9762 302.743 36.5615C304.158 35.1468 306.077 34.351 308.078 34.3487H389.445C391.446 34.351 393.365 35.1468 394.78 36.5615C396.195 37.9762 396.991 39.8944 396.993 41.8951V122.419C396.991 124.42 396.195 126.338 394.78 127.753C393.365 129.167 391.446 129.963 389.445 129.965H343.795V130.972Z" fill="url(#paint3_linear_221_460)" fill-opacity="0.4"/>
<path d="M264.854 107.05H144.194C141.926 107.055 139.753 107.957 138.15 109.56C136.546 111.163 135.643 113.336 135.639 115.603V235.082C135.641 237.35 136.543 239.524 138.147 241.127C139.751 242.73 141.926 243.632 144.194 243.635H264.854C267.122 243.632 269.297 242.73 270.901 241.127C272.505 239.524 273.407 237.35 273.409 235.082V115.603C273.407 113.335 272.505 111.161 270.901 109.558C269.297 107.955 267.122 107.053 264.854 107.05ZM272.403 235.082C272.4 237.083 271.604 239.001 270.189 240.415C268.774 241.83 266.855 242.626 264.854 242.628H144.194C142.193 242.626 140.274 241.83 138.859 240.415C137.444 239.001 136.648 237.083 136.645 235.082V115.603C136.648 113.602 137.445 111.685 138.86 110.27C140.275 108.856 142.193 108.06 144.194 108.057H264.854C266.855 108.059 268.774 108.855 270.189 110.27C271.604 111.684 272.4 113.602 272.403 115.603V235.082Z" fill="url(#paint4_linear_221_460)"/>
<path d="M255.352 153.581H153.695C152.627 153.581 151.603 153.157 150.848 152.402C150.093 151.648 149.669 150.624 149.669 149.557C149.669 148.489 150.093 147.465 150.848 146.711C151.603 145.956 152.627 145.532 153.695 145.532H255.352C256.42 145.532 257.444 145.956 258.199 146.711C258.954 147.465 259.378 148.489 259.378 149.557C259.378 150.624 258.954 151.648 258.199 152.402C257.444 153.157 256.42 153.581 255.352 153.581Z" fill="#CCCCCC"/>
<path d="M226.415 136.476H182.632C181.564 136.476 180.54 136.052 179.785 135.297C179.03 134.543 178.606 133.519 178.606 132.451C178.606 131.384 179.03 130.36 179.785 129.606C180.54 128.851 181.564 128.427 182.632 128.427H226.415C227.483 128.427 228.507 128.851 229.262 129.606C230.017 130.36 230.441 131.384 230.441 132.451C230.441 133.519 230.017 134.543 229.262 135.297C228.507 136.052 227.483 136.476 226.415 136.476Z" fill="url(#paint5_linear_221_460)"/>
<path d="M197.226 177.73H153.443C152.376 177.73 151.352 177.306 150.597 176.551C149.842 175.796 149.417 174.772 149.417 173.705C149.417 172.637 149.842 171.614 150.597 170.859C151.352 170.104 152.376 169.68 153.443 169.68H197.226C198.294 169.68 199.318 170.104 200.073 170.859C200.828 171.614 201.252 172.637 201.252 173.705C201.252 174.772 200.828 175.796 200.073 176.551C199.318 177.306 198.294 177.73 197.226 177.73Z" fill="#CCCCCC"/>
<path d="M197.226 195.338H153.443C152.376 195.338 151.352 194.914 150.597 194.159C149.842 193.404 149.417 192.381 149.417 191.313C149.417 190.246 149.842 189.222 150.597 188.467C151.352 187.712 152.376 187.288 153.443 187.288H197.226C198.294 187.288 199.318 187.712 200.073 188.467C200.828 189.222 201.252 190.246 201.252 191.313C201.252 192.381 200.828 193.404 200.073 194.159C199.318 194.914 198.294 195.338 197.226 195.338Z" fill="#CCCCCC"/>
<path d="M197.226 212.946H153.443C152.376 212.946 151.352 212.522 150.597 211.767C149.842 211.012 149.417 209.989 149.417 208.921C149.417 207.854 149.842 206.83 150.597 206.075C151.352 205.321 152.376 204.897 153.443 204.897H197.226C198.294 204.897 199.318 205.321 200.073 206.075C200.828 206.83 201.252 207.854 201.252 208.921C201.252 209.989 200.828 211.012 200.073 211.767C199.318 212.522 198.294 212.946 197.226 212.946Z" fill="#CCCCCC"/>
<path d="M251.832 181.18C255.982 181.18 259.345 177.817 259.345 173.669C259.345 169.521 255.982 166.159 251.832 166.159C247.683 166.159 244.319 169.521 244.319 173.669C244.319 177.817 247.683 181.18 251.832 181.18Z" fill="url(#paint6_linear_221_460)"/>
<path d="M251.088 176.534C250.919 176.535 250.754 176.48 250.619 176.379L250.611 176.372L248.845 175.022C248.68 174.896 248.572 174.709 248.544 174.502C248.517 174.296 248.573 174.087 248.7 173.922C248.826 173.757 249.013 173.649 249.22 173.622C249.426 173.595 249.635 173.651 249.8 173.777L250.943 174.654L253.646 171.129C253.709 171.047 253.787 170.979 253.876 170.927C253.965 170.876 254.064 170.842 254.166 170.829C254.268 170.815 254.372 170.822 254.471 170.849C254.571 170.875 254.664 170.921 254.746 170.984L254.746 170.984L254.729 171.007L254.746 170.984C254.911 171.111 255.019 171.298 255.046 171.504C255.073 171.71 255.018 171.919 254.891 172.084L251.713 176.228C251.639 176.323 251.544 176.4 251.436 176.453C251.328 176.506 251.209 176.534 251.088 176.533L251.088 176.534Z" fill="white"/>
<path d="M60.4978 23.348C58.1882 23.348 55.9304 22.6634 54.01 21.3806C52.0896 20.0978 50.5928 18.2746 49.709 16.1414C48.8251 14.0083 48.5939 11.661 49.0445 9.3965C49.4951 7.13196 50.6073 5.05186 52.2404 3.41923C53.8736 1.78659 55.9544 0.674755 58.2197 0.224315C60.4849 -0.226125 62.8329 0.00505963 64.9668 0.88864C67.1006 1.77222 68.9244 3.26851 70.2076 5.18829C71.4907 7.10807 72.1756 9.36512 72.1756 11.674C72.1721 14.7691 70.9406 17.7364 68.7514 19.9249C66.5621 22.1135 63.5939 23.3445 60.4978 23.348ZM60.4978 1.00619C58.3872 1.0062 56.324 1.63187 54.5692 2.80407C52.8143 3.97628 51.4465 5.64237 50.6389 7.59166C49.8312 9.54096 49.6199 11.6859 50.0316 13.7553C50.4434 15.8246 51.4597 17.7254 52.9522 19.2173C54.4446 20.7093 56.346 21.7253 58.416 22.1369C60.486 22.5485 62.6317 22.3372 64.5816 21.5298C66.5315 20.7224 68.1981 19.3551 69.3707 17.6008C70.5433 15.8464 71.1691 13.7839 71.1691 11.674C71.1659 8.84571 70.0406 6.13415 68.04 4.13424C66.0395 2.13432 63.327 1.00937 60.4978 1.00619Z" fill="url(#paint7_linear_221_460)" fill-opacity="0.4"/>
<path d="M59.3904 15.9354C59.139 15.9358 58.8943 15.8545 58.6932 15.7038L58.6807 15.6944L56.0545 13.6861C55.9329 13.5929 55.8308 13.4767 55.7541 13.344C55.6775 13.2114 55.6277 13.0649 55.6076 12.913C55.5875 12.7611 55.5976 12.6068 55.6372 12.4588C55.6768 12.3108 55.7452 12.172 55.8384 12.0504C55.9316 11.9288 56.0479 11.8268 56.1806 11.7501C56.3133 11.6734 56.4598 11.6237 56.6118 11.6036C56.7637 11.5835 56.9181 11.5936 57.0662 11.6332C57.2142 11.6728 57.353 11.7411 57.4746 11.8343L59.1757 13.1384L63.1953 7.896C63.2885 7.77446 63.4047 7.67246 63.5374 7.59583C63.67 7.51919 63.8165 7.46943 63.9683 7.44937C64.1202 7.42932 64.2746 7.43937 64.4226 7.47894C64.5705 7.51852 64.7093 7.58685 64.8309 7.68003L64.8312 7.68029L64.8063 7.71492L64.8319 7.68029C65.0772 7.86874 65.2376 8.14677 65.2781 8.45336C65.3185 8.75996 65.2357 9.07008 65.0477 9.31566L60.3197 15.4791C60.2103 15.6211 60.0697 15.736 59.9087 15.8149C59.7477 15.8938 59.5707 15.9346 59.3915 15.934L59.3904 15.9354Z" fill="url(#paint8_linear_221_460)" fill-opacity="0.4"/>
<path d="M134.574 64.0984C132.265 64.0984 130.007 63.4137 128.087 62.1309C126.166 60.8482 124.669 59.0249 123.786 56.8918C122.902 54.7586 122.671 52.4114 123.121 50.1468C123.572 47.8823 124.684 45.8022 126.317 44.1696C127.95 42.5369 130.031 41.4251 132.296 40.9747C134.562 40.5242 136.91 40.7554 139.043 41.639C141.177 42.5226 143.001 44.0189 144.284 45.9387C145.567 47.8585 146.252 50.1155 146.252 52.4244C146.249 55.5195 145.017 58.4868 142.828 60.6754C140.639 62.8639 137.67 64.095 134.574 64.0984ZM134.574 41.7566C132.464 41.7566 130.401 42.3823 128.646 43.5545C126.891 44.7267 125.523 46.3928 124.716 48.3421C123.908 50.2914 123.697 52.4363 124.108 54.5057C124.52 56.575 125.536 58.4758 127.029 59.9677C128.521 61.4597 130.423 62.4757 132.493 62.8873C134.563 63.2989 136.708 63.0876 138.658 62.2802C140.608 61.4728 142.275 60.1054 143.447 58.3511C144.62 56.5968 145.246 54.5343 145.246 52.4244C145.243 49.5961 144.117 46.8845 142.117 44.8846C140.116 42.8847 137.404 41.7597 134.574 41.7566Z" fill="url(#paint9_linear_221_460)" fill-opacity="0.4"/>
<path d="M133.467 56.6858C133.216 56.6862 132.971 56.6049 132.77 56.4541L132.757 56.4448L130.131 54.4365C129.886 54.2482 129.725 53.9701 129.684 53.6634C129.644 53.3566 129.727 53.0463 129.915 52.8008C130.103 52.5552 130.382 52.3945 130.688 52.354C130.995 52.3134 131.306 52.3964 131.551 52.5847L133.252 53.8887L137.272 48.6464C137.365 48.5248 137.481 48.4228 137.614 48.3462C137.747 48.2696 137.893 48.2198 138.045 48.1997C138.197 48.1797 138.351 48.1897 138.499 48.2293C138.647 48.2689 138.786 48.3372 138.908 48.4304L138.908 48.4307L138.883 48.4653L138.909 48.4307C139.154 48.6191 139.314 48.8971 139.355 49.2037C139.395 49.5103 139.312 49.8204 139.124 50.066L134.396 56.2294C134.287 56.3714 134.146 56.4863 133.985 56.5652C133.824 56.6442 133.647 56.6849 133.468 56.6844L133.467 56.6858Z" fill="url(#paint10_linear_221_460)" fill-opacity="0.4"/>
<path d="M251.832 198.788C255.982 198.788 259.345 195.426 259.345 191.277C259.345 187.129 255.982 183.767 251.832 183.767C247.683 183.767 244.319 187.129 244.319 191.277C244.319 195.426 247.683 198.788 251.832 198.788Z" fill="url(#paint11_linear_221_460)"/>
<path d="M251.088 194.143C250.919 194.143 250.754 194.088 250.619 193.987L250.611 193.981L248.845 192.63C248.763 192.568 248.695 192.489 248.643 192.4C248.591 192.311 248.558 192.213 248.544 192.11C248.531 192.008 248.538 191.905 248.564 191.805C248.591 191.706 248.637 191.612 248.7 191.531C248.762 191.449 248.841 191.38 248.93 191.329C249.019 191.277 249.117 191.244 249.22 191.23C249.322 191.217 249.426 191.223 249.525 191.25C249.625 191.277 249.718 191.323 249.8 191.385L250.943 192.262L253.646 188.737C253.709 188.656 253.787 188.587 253.876 188.536C253.965 188.484 254.064 188.451 254.166 188.437C254.268 188.424 254.372 188.43 254.471 188.457C254.571 188.484 254.664 188.529 254.746 188.592L254.746 188.592L254.729 188.616L254.746 188.592C254.911 188.719 255.019 188.906 255.046 189.112C255.074 189.318 255.018 189.527 254.891 189.692L251.713 193.836C251.639 193.931 251.544 194.008 251.436 194.061C251.328 194.115 251.209 194.142 251.088 194.142L251.088 194.143Z" fill="white"/>
<path d="M251.832 216.432C255.982 216.432 259.345 213.069 259.345 208.921C259.345 204.773 255.982 201.411 251.832 201.411C247.683 201.411 244.319 204.773 244.319 208.921C244.319 213.069 247.683 216.432 251.832 216.432Z" fill="url(#paint12_linear_221_460)"/>
<path d="M251.088 211.786C250.919 211.787 250.754 211.732 250.619 211.631L250.611 211.624L248.845 210.274C248.68 210.148 248.572 209.961 248.545 209.754C248.518 209.548 248.574 209.34 248.7 209.175C248.827 209.01 249.014 208.902 249.22 208.875C249.426 208.847 249.635 208.903 249.8 209.029L250.943 209.906L253.646 206.381C253.709 206.3 253.787 206.231 253.876 206.179C253.965 206.128 254.064 206.094 254.166 206.081C254.268 206.067 254.372 206.074 254.471 206.101C254.571 206.127 254.664 206.173 254.746 206.236L254.746 206.236L254.729 206.259L254.746 206.236C254.911 206.363 255.019 206.55 255.046 206.756C255.073 206.962 255.018 207.171 254.891 207.336L251.713 211.48C251.639 211.575 251.544 211.652 251.436 211.705C251.328 211.758 251.209 211.786 251.088 211.786L251.088 211.786Z" fill="white"/>
<path d="M204.535 96.7993C196.609 96.6642 193.007 90.6527 193.007 85.1243C193.008 79.596 196.61 73.5852 204.518 73.4513H204.535C212.444 73.5862 216.046 79.5977 216.046 85.126C216.045 90.6544 212.443 96.6655 204.535 96.7993ZM204.527 74.4575C197.304 74.5838 194.014 80.0745 194.014 85.1243C194.013 90.1764 197.306 95.6698 204.535 95.7931C211.746 95.6708 215.039 90.1778 215.039 85.126C215.039 80.0762 211.749 74.5855 204.527 74.4575Z" fill="url(#paint13_linear_221_460)"/>
<path d="M207.147 85.7593C209.168 89.2676 203.622 90.6377 201.501 88.5244L202.032 87.3892C205.482 90.3677 208.521 85.2086 203.252 85.6989V84.4552C208.077 84.8441 205.367 79.9894 202.153 82.8614L201.634 81.7265C204.253 79.009 210.133 82.2949 205.982 85.0106C206.445 85.1188 206.857 85.3833 207.147 85.7593Z" fill="url(#paint14_linear_221_460)"/>
<path d="M275.485 64.0984C273.175 64.0984 270.918 63.4137 268.997 62.1309C267.077 60.8482 265.58 59.0249 264.696 56.8918C263.812 54.7586 263.581 52.4114 264.032 50.1468C264.482 47.8823 265.595 45.8022 267.228 44.1696C268.861 42.5369 270.942 41.4251 273.207 40.9747C275.472 40.5242 277.82 40.7554 279.954 41.639C282.088 42.5226 283.912 44.0189 285.195 45.9387C286.478 47.8585 287.163 50.1155 287.163 52.4244C287.159 55.5195 285.928 58.4868 283.739 60.6754C281.549 62.8639 278.581 64.095 275.485 64.0984ZM275.485 41.7566C273.375 41.7566 271.311 42.3823 269.556 43.5545C267.802 44.7267 266.434 46.3928 265.626 48.3421C264.819 50.2914 264.607 52.4363 265.019 54.5057C265.431 56.575 266.447 58.4758 267.94 59.9677C269.432 61.4597 271.333 62.4757 273.403 62.8873C275.473 63.2989 277.619 63.0876 279.569 62.2802C281.519 61.4728 283.185 60.1054 284.358 58.3511C285.531 56.5968 286.156 54.5343 286.156 52.4244C286.153 49.5961 285.028 46.8845 283.027 44.8846C281.027 42.8847 278.314 41.7597 275.485 41.7566Z" fill="url(#paint15_linear_221_460)" fill-opacity="0.4"/>
<path d="M278.728 55.0445H277.508V56.7227H275.986V55.0445H272.242V53.8852L276.264 48.126H277.508V53.8251H278.728V55.0445ZM275.986 53.8251V50.5528L273.716 53.8251H275.986Z" fill="url(#paint16_linear_221_460)" fill-opacity="0.4"/>
<path d="M348.761 23.348C346.452 23.348 344.194 22.6633 342.274 21.3806C340.353 20.0978 338.856 18.2745 337.973 16.1414C337.089 14.0082 336.858 11.661 337.308 9.39646C337.759 7.13193 338.871 5.05183 340.504 3.4192C342.137 1.78658 344.218 0.674743 346.483 0.224309C348.749 -0.226126 351.097 0.00506713 353.23 0.88865C355.364 1.77223 357.188 3.26852 358.471 5.1883C359.754 7.10808 360.439 9.36513 360.439 11.674C360.436 14.7691 359.204 17.7364 357.015 19.925C354.826 22.1135 351.857 23.3446 348.761 23.348ZM348.761 1.00619C346.651 1.00621 344.588 1.63189 342.833 2.80411C341.078 3.97632 339.71 5.64242 338.903 7.59171C338.095 9.54101 337.884 11.6859 338.295 13.7553C338.707 15.8246 339.723 17.7255 341.216 19.2174C342.708 20.7093 344.61 21.7253 346.68 22.1369C348.75 22.5485 350.895 22.3372 352.845 21.5298C354.795 20.7224 356.462 19.3551 357.634 17.6007C358.807 15.8464 359.433 13.7839 359.433 11.674C359.43 8.8457 358.304 6.13414 356.304 4.13422C354.303 2.1343 351.591 1.00936 348.761 1.00619Z" fill="url(#paint17_linear_221_460)" fill-opacity="0.4"/>
<path d="M350.501 10.7746C350.905 10.9979 351.237 11.3334 351.455 11.7405C351.687 12.1812 351.803 12.6734 351.793 13.1712C351.804 13.6943 351.67 14.2103 351.406 14.6625C351.143 15.0986 350.756 15.4472 350.295 15.6645C349.771 15.9111 349.196 16.033 348.616 16.0207C348.074 16.0202 347.535 15.9284 347.022 15.749C346.546 15.5953 346.107 15.3469 345.73 15.0187L346.249 13.8836C346.924 14.4405 347.766 14.7552 348.641 14.7772C349.09 14.808 349.534 14.6629 349.879 14.3726C350.157 14.0547 350.31 13.6459 350.307 13.2233C350.305 12.8007 350.148 12.3935 349.867 12.0785C349.709 11.9324 349.523 11.8192 349.321 11.7456C349.119 11.672 348.904 11.6394 348.689 11.6499C348.362 11.6478 348.037 11.7114 347.735 11.8371C347.437 11.9618 347.169 12.1492 346.95 12.3864H346.008V7.32739H351.394V8.53477H347.529V10.877C347.987 10.5728 348.526 10.4168 349.075 10.4304C349.572 10.42 350.063 10.5386 350.501 10.7746Z" fill="url(#paint18_linear_221_460)" fill-opacity="0.4"/>
<path d="M74.5792 262.035C74.2737 261.361 74.1197 260.629 74.128 259.889C74.1363 259.15 74.3067 258.421 74.6272 257.755C74.9478 257.088 75.4106 256.5 75.9831 256.031C76.5556 255.563 77.2239 255.226 77.9409 255.043L79.4665 237.13L86.8035 242.917L84.2299 259.04C84.4565 260.264 84.2258 261.529 83.5817 262.595C82.9376 263.661 81.9248 264.454 80.7352 264.823C79.5457 265.192 78.2619 265.112 77.1273 264.598C75.9927 264.084 75.0861 263.172 74.5791 262.035H74.5792Z" fill="#FFB8B8"/>
<path d="M79.2979 253.163C78.7699 253.094 78.2834 252.84 77.9241 252.447C77.5648 252.054 77.3556 251.547 77.3334 251.015L76.484 230.687C76.1786 223.38 77.6662 216.11 80.8168 209.51L88.3494 193.731C88.854 192.782 89.5778 191.967 90.4607 191.353C91.3436 190.74 92.3601 190.346 93.4258 190.204C94.4602 190.059 95.5146 190.165 96.499 190.515C97.4834 190.864 98.3688 191.446 99.0797 192.211C99.4404 192.597 99.7644 193.015 100.048 193.46C100.616 194.382 100.945 195.43 101.005 196.511C101.065 197.592 100.854 198.671 100.391 199.65L88.8405 231.194L87.9518 251.744C87.9383 252.055 87.8607 252.36 87.7237 252.64C87.5867 252.92 87.3934 253.169 87.1559 253.371C86.9183 253.573 86.6416 253.723 86.3432 253.813C86.0447 253.903 85.7308 253.931 85.4212 253.894L79.3278 253.167L79.2979 253.163Z" fill="url(#paint19_linear_221_460)"/>
<path d="M57.6878 341.982L63.3373 344.461L75.5905 323.857L67.2526 320.198L57.6878 341.982Z" fill="#FFB8B8"/>
<path d="M57.0564 339.506L68.1822 344.388L68.1826 344.388C69.1137 344.797 69.9552 345.385 70.659 346.118C71.3629 346.852 71.9152 347.717 72.2846 348.664C72.6539 349.611 72.8331 350.622 72.8118 351.638C72.7905 352.655 72.5691 353.657 72.1603 354.587L72.0592 354.818L53.843 346.824L57.0564 339.506Z" fill="#2F2E41"/>
<path d="M133.534 348.839H139.704L142.639 325.049L133.533 325.049L133.534 348.839Z" fill="#FFB8B8"/>
<path d="M131.96 346.825L144.111 346.825H144.111C145.128 346.825 146.135 347.025 147.074 347.414C148.014 347.803 148.868 348.373 149.587 349.092C150.306 349.811 150.876 350.664 151.265 351.603C151.654 352.542 151.855 353.549 151.855 354.565V354.817L131.961 354.818L131.96 346.825Z" fill="#2F2E41"/>
<path d="M71.3914 342.075C71.1541 342.075 70.9183 342.038 70.6925 341.965L60.2311 338.603C59.6661 338.419 59.1957 338.021 58.9204 337.495C58.6452 336.968 58.587 336.355 58.7583 335.786L93.4502 225.35L119.436 220.256L119.527 220.405C136.706 248.35 142.441 291.04 146.079 336.271C146.123 336.861 145.936 337.446 145.556 337.901C145.177 338.356 144.635 338.645 144.046 338.706L132.609 339.85C132.075 339.906 131.539 339.769 131.097 339.465C130.655 339.161 130.336 338.709 130.198 338.191L109.257 264.132C109.215 263.981 109.128 263.847 109.007 263.747C108.887 263.648 108.738 263.588 108.581 263.577C108.425 263.566 108.27 263.604 108.136 263.685C108.002 263.767 107.897 263.888 107.835 264.031L73.4651 340.706C73.2915 341.112 73.0024 341.458 72.6338 341.702C72.2652 341.945 71.8332 342.075 71.3914 342.075Z" fill="#2F2E41"/>
<path d="M106.876 181.128C113.702 181.128 119.236 175.596 119.236 168.772C119.236 161.947 113.702 156.415 106.876 156.415C100.049 156.415 94.5155 161.947 94.5155 168.772C94.5155 175.596 100.049 181.128 106.876 181.128Z" fill="#FFB8B8"/>
<path d="M91.2397 228.62L91.155 228.443C91.0975 228.323 85.4027 216.246 85.9326 202.315C86.1081 197.743 88.0248 193.41 91.2905 190.204C94.5562 186.998 98.924 185.16 103.5 185.068C107.718 184.985 111.829 186.393 115.11 189.043C118.392 191.694 120.632 195.417 121.437 199.556C123.024 207.655 122.984 215.326 121.319 222.355L121.282 222.512L121.124 222.544L91.2397 228.62Z" fill="url(#paint20_linear_221_460)"/>
<path d="M154.259 246.051C153.527 245.943 152.828 245.676 152.21 245.269C151.593 244.861 151.073 244.323 150.686 243.693C150.299 243.062 150.055 242.355 149.971 241.62C149.887 240.885 149.965 240.141 150.2 239.44L135.964 228.456L144.803 225.424L156.967 236.319C158.12 236.792 159.058 237.671 159.606 238.789C160.153 239.908 160.271 241.188 159.937 242.388C159.603 243.588 158.841 244.623 157.794 245.298C156.748 245.973 155.49 246.241 154.259 246.051H154.259Z" fill="#FFB8B8"/>
<path d="M119.321 221.837L119.289 221.784L104.28 197.485C103.755 196.547 103.462 195.498 103.424 194.424C103.387 193.35 103.606 192.282 104.064 191.31C104.502 190.361 105.162 189.533 105.989 188.895C106.816 188.257 107.785 187.828 108.814 187.645C109.333 187.551 109.86 187.505 110.387 187.508C111.47 187.529 112.531 187.821 113.472 188.356C114.414 188.891 115.207 189.653 115.779 190.572L136.048 217.363L152.848 229.24C153.102 229.42 153.317 229.65 153.478 229.917C153.639 230.184 153.744 230.481 153.785 230.79C153.826 231.099 153.803 231.413 153.717 231.712C153.631 232.012 153.484 232.291 153.285 232.531L149.374 237.258C149.032 237.674 148.553 237.954 148.023 238.047C147.493 238.141 146.946 238.042 146.483 237.768L119.321 221.837Z" fill="url(#paint21_linear_221_460)"/>
<path d="M104.665 168.005C105.576 166.507 107.587 166.084 109.332 166.255C111.078 166.425 112.775 167.039 114.529 167.025C119.398 166.987 123.157 161.054 121.11 156.637C119.431 153.015 115.237 151.424 111.444 150.176C103.49 147.558 94.3543 145.043 87.137 149.288C84.837 150.68 82.9507 152.661 81.6727 155.026C80.3948 157.391 79.7716 160.054 79.8676 162.741C80.03 166.081 81.3096 169.512 80.2273 172.676C78.9789 176.326 75.0204 178.285 71.2795 179.232C64.7218 180.893 57.8076 180.626 51.2089 182.115C44.6102 183.605 37.8483 187.56 36.0695 194.085C34.9012 198.37 36.1203 202.984 38.1393 206.941C40.1991 210.978 43.0617 214.553 46.5517 217.445C50.0417 220.338 54.0856 222.488 58.4357 223.763C62.7859 225.039 67.3508 225.413 71.8508 224.863C76.3508 224.314 80.6911 222.851 84.606 220.566C92.5834 215.91 98.3428 208.039 101.776 199.466C103.723 194.465 105.094 189.259 105.862 183.948C106.631 178.976 105.978 173.952 104.585 169.117C104.519 168.937 104.492 168.744 104.506 168.553C104.52 168.361 104.574 168.174 104.665 168.005Z" fill="#2F2E41"/>
<path d="M192.242 355H0.503252C0.369782 355 0.241777 354.947 0.147399 354.853C0.0530207 354.758 0 354.63 0 354.497C0 354.364 0.0530207 354.236 0.147399 354.141C0.241777 354.047 0.369782 353.994 0.503252 353.994H192.242C192.376 353.994 192.504 354.047 192.598 354.141C192.693 354.236 192.746 354.364 192.746 354.497C192.746 354.63 192.693 354.758 192.598 354.853C192.504 354.947 192.376 355 192.242 355Z" fill="#3F3D56"/>
</g>
<defs>
<linearGradient id="paint0_linear_221_460" x1="54.8513" y1="74.1759" x2="142.563" y2="185.596" gradientUnits="userSpaceOnUse">
<stop stop-color="#FF6600"/>
<stop offset="1" stop-color="#2042B8"/>
</linearGradient>
<linearGradient id="paint1_linear_221_460" x1="2.76046" y1="33.3891" x2="76.4971" y2="127.055" gradientUnits="userSpaceOnUse">
<stop stop-color="#FF6600"/>
<stop offset="1" stop-color="#2042B8"/>
</linearGradient>
<linearGradient id="paint2_linear_221_460" x1="217.045" y1="74.1759" x2="304.757" y2="185.596" gradientUnits="userSpaceOnUse">
<stop stop-color="#FF6600"/>
<stop offset="1" stop-color="#2042B8"/>
</linearGradient>
<linearGradient id="paint3_linear_221_460" x1="291.024" y1="33.3891" x2="364.761" y2="127.055" gradientUnits="userSpaceOnUse">
<stop stop-color="#FF6600"/>
<stop offset="1" stop-color="#2042B8"/>
</linearGradient>
<linearGradient id="paint4_linear_221_460" x1="123.749" y1="107.116" x2="226.907" y2="238.155" gradientUnits="userSpaceOnUse">
<stop stop-color="#FF6600"/>
<stop offset="1" stop-color="#2042B8"/>
</linearGradient>
<linearGradient id="paint5_linear_221_460" x1="174.133" y1="128.431" x2="175.652" y2="140.752" gradientUnits="userSpaceOnUse">
<stop stop-color="#FF6600"/>
<stop offset="1" stop-color="#2042B8"/>
</linearGradient>
<linearGradient id="paint6_linear_221_460" x1="243.022" y1="166.166" x2="254.39" y2="180.485" gradientUnits="userSpaceOnUse">
<stop stop-color="#FF6600"/>
<stop offset="1" stop-color="#2042B8"/>
</linearGradient>
<linearGradient id="paint7_linear_221_460" x1="46.8045" y1="0.0111402" x2="64.4725" y2="22.2683" gradientUnits="userSpaceOnUse">
<stop stop-color="#FF6600"/>
<stop offset="1" stop-color="#2042B8"/>
</linearGradient>
<linearGradient id="paint8_linear_221_460" x1="54.7612" y1="7.44338" x2="60.9522" y2="16.336" gradientUnits="userSpaceOnUse">
<stop stop-color="#FF6600"/>
<stop offset="1" stop-color="#2042B8"/>
</linearGradient>
<linearGradient id="paint9_linear_221_460" x1="120.881" y1="40.7615" x2="138.549" y2="63.0187" gradientUnits="userSpaceOnUse">
<stop stop-color="#FF6600"/>
<stop offset="1" stop-color="#2042B8"/>
</linearGradient>
<linearGradient id="paint10_linear_221_460" x1="128.838" y1="48.1938" x2="135.029" y2="57.0864" gradientUnits="userSpaceOnUse">
<stop stop-color="#FF6600"/>
<stop offset="1" stop-color="#2042B8"/>
</linearGradient>
<linearGradient id="paint11_linear_221_460" x1="243.022" y1="183.774" x2="254.39" y2="198.093" gradientUnits="userSpaceOnUse">
<stop stop-color="#FF6600"/>
<stop offset="1" stop-color="#2042B8"/>
</linearGradient>
<linearGradient id="paint12_linear_221_460" x1="243.022" y1="201.418" x2="254.39" y2="215.737" gradientUnits="userSpaceOnUse">
<stop stop-color="#FF6600"/>
<stop offset="1" stop-color="#2042B8"/>
</linearGradient>
<linearGradient id="paint13_linear_221_460" x1="191.019" y1="73.4624" x2="208.741" y2="95.4836" gradientUnits="userSpaceOnUse">
<stop stop-color="#FF6600"/>
<stop offset="1" stop-color="#2042B8"/>
</linearGradient>
<linearGradient id="paint14_linear_221_460" x1="200.976" y1="80.7127" x2="207.761" y2="86.6052" gradientUnits="userSpaceOnUse">
<stop stop-color="#FF6600"/>
<stop offset="1" stop-color="#2042B8"/>
</linearGradient>
<linearGradient id="paint15_linear_221_460" x1="261.792" y1="40.7615" x2="279.46" y2="63.0187" gradientUnits="userSpaceOnUse">
<stop stop-color="#FF6600"/>
<stop offset="1" stop-color="#2042B8"/>
</linearGradient>
<linearGradient id="paint16_linear_221_460" x1="271.682" y1="48.1301" x2="278.353" y2="54.4681" gradientUnits="userSpaceOnUse">
<stop stop-color="#FF6600"/>
<stop offset="1" stop-color="#2042B8"/>
</linearGradient>
<linearGradient id="paint17_linear_221_460" x1="335.068" y1="0.0111402" x2="352.736" y2="22.2683" gradientUnits="userSpaceOnUse">
<stop stop-color="#FF6600"/>
<stop offset="1" stop-color="#2042B8"/>
</linearGradient>
<linearGradient id="paint18_linear_221_460" x1="345.207" y1="7.33154" x2="351.905" y2="13.2152" gradientUnits="userSpaceOnUse">
<stop stop-color="#FF6600"/>
<stop offset="1" stop-color="#2042B8"/>
</linearGradient>
<linearGradient id="paint19_linear_221_460" x1="74.3245" y1="190.172" x2="113.244" y2="209.056" gradientUnits="userSpaceOnUse">
<stop stop-color="#FF6600"/>
<stop offset="1" stop-color="#2042B8"/>
</linearGradient>
<linearGradient id="paint20_linear_221_460" x1="82.7305" y1="185.085" x2="116.513" y2="220.933" gradientUnits="userSpaceOnUse">
<stop stop-color="#FF6600"/>
<stop offset="1" stop-color="#2042B8"/>
</linearGradient>
<linearGradient id="paint21_linear_221_460" x1="99.072" y1="187.532" x2="137.378" y2="235.591" gradientUnits="userSpaceOnUse">
<stop stop-color="#FF6600"/>
<stop offset="1" stop-color="#2042B8"/>
</linearGradient>
<clipPath id="clip0_221_460">
<rect width="398" height="355" fill="white"/>
</clipPath>
</defs>
</svg>
