<svg width="230" height="216" viewBox="0 0 230 216" fill="none" xmlns="http://www.w3.org/2000/svg">
<g clip-path="url(#clip0_664_2451)">
<path d="M12.583 76.7328C16.3393 83.8379 24.3115 86.8879 24.3115 86.8879C24.3115 86.8879 26.1936 78.4184 22.4373 71.3133C18.681 64.2083 10.7088 61.1582 10.7088 61.1582C10.7088 61.1582 8.82675 69.6277 12.583 76.7328Z" fill="#2042B8"/>
<path d="M15.1651 74.395C21.9467 78.5564 24.5585 86.8221 24.5585 86.8221C24.5585 86.8221 16.1751 88.3408 9.39348 84.1794C2.61183 80.018 0 71.7523 0 71.7523C0 71.7523 8.3834 70.2336 15.1651 74.395Z" fill="#FF6600"/>
<path d="M230 192.264C230 199.755 212.544 216 191.012 216C169.479 216 152.023 199.755 152.023 192.264C152.023 184.773 169.479 188.873 191.012 188.873C212.544 188.873 230 184.773 230 192.264Z" fill="#3F3D56"/>
<path opacity="0.1" d="M230 192.264C230 199.755 212.544 216 191.012 216C169.479 216 152.023 199.755 152.023 192.264C152.023 184.773 169.479 188.873 191.012 188.873C212.544 188.873 230 184.773 230 192.264Z" fill="black"/>
<path d="M191.012 205.827C212.544 205.827 230 199.755 230 192.264C230 184.773 212.544 178.701 191.012 178.701C169.479 178.701 152.023 184.773 152.023 192.264C152.023 199.755 169.479 205.827 191.012 205.827Z" fill="#3F3D56"/>
<path d="M146.886 93.0049H22.9697V165.137H146.886V93.0049Z" fill="#F1F1F1"/>
<path d="M204.763 23.9547C211.357 23.9547 216.702 18.8482 216.702 12.5491C216.702 6.25 211.357 1.14355 204.763 1.14355C198.17 1.14355 192.825 6.25 192.825 12.5491C192.825 18.8482 198.17 23.9547 204.763 23.9547Z" fill="#2F2E41"/>
<path d="M170.007 83.603L166.984 87.9186C166.984 87.9186 152.477 91.0012 157.917 95.6251C163.358 100.249 171.216 91.3095 171.216 91.3095L175.447 85.7608L170.007 83.603Z" fill="#FFB8B8"/>
<path d="M185.723 34.5898C185.723 34.5898 181.793 34.5898 180.887 40.1385C179.98 45.6872 179.073 64.1827 179.073 64.1827C179.073 64.1827 166.38 81.1369 168.495 83.2947C170.611 85.4525 173.029 89.4599 174.54 88.8434C176.051 88.2269 189.047 70.0396 189.047 70.0396L185.723 34.5898Z" fill="#2042B8"/>
<path opacity="0.1" d="M185.723 34.5898C185.723 34.5898 181.793 34.5898 180.887 40.1385C179.98 45.6872 179.073 64.1827 179.073 64.1827C179.073 64.1827 166.38 81.1369 168.495 83.2947C170.611 85.4525 173.029 89.4599 174.54 88.8434C176.051 88.2269 189.047 70.0396 189.047 70.0396L185.723 34.5898Z" fill="black"/>
<path d="M197.812 18.8687C197.812 18.8687 197.51 30.8907 193.883 31.5073C190.256 32.1238 191.465 36.1311 191.465 36.1311C191.465 36.1311 203.253 43.2211 211.111 36.1311L212.622 32.432C212.622 32.432 207.182 28.4247 209.599 22.876L197.812 18.8687Z" fill="#FFB8B8"/>
<path d="M177.562 92.8506C177.562 92.8506 159.731 126.759 166.38 137.24C173.029 147.721 183.003 169.299 184.514 169.299C186.025 169.299 194.487 164.983 193.883 162.209C193.279 159.434 184.212 138.781 181.794 136.932C179.376 135.082 180.585 130.15 180.887 129.842C181.189 129.533 191.163 113.196 191.163 113.196C191.163 113.196 190.861 139.089 192.07 143.097C193.279 147.104 191.767 175.772 193.279 177.005C194.79 178.238 201.741 180.396 202.95 178.546C204.159 176.697 207.786 148.645 205.368 142.172L209.901 97.7827L177.562 92.8506Z" fill="#2F2E41"/>
<path d="M193.883 175.156L186.327 189.336C186.327 189.336 175.447 197.35 183.003 198.583C190.558 199.816 195.092 196.734 195.092 196.734L201.741 191.802V177.622L193.883 175.156Z" fill="#2F2E41"/>
<path d="M183.607 167.141L187.536 176.697C187.536 176.697 189.047 180.705 187.536 181.629C186.025 182.554 181.794 188.103 184.514 188.719C185.061 188.829 185.617 188.885 186.175 188.888C188.44 188.927 190.689 188.498 192.787 187.627C194.885 186.756 196.789 185.461 198.384 183.82L200.834 181.321C200.834 181.321 192.441 161.609 192.558 161.755C192.674 161.901 183.607 167.141 183.607 167.141Z" fill="#2F2E41"/>
<path d="M205.368 26.2668C211.043 26.2668 215.644 21.5744 215.644 15.786C215.644 9.99759 211.043 5.30518 205.368 5.30518C199.692 5.30518 195.092 9.99759 195.092 15.786C195.092 21.5744 199.692 26.2668 205.368 26.2668Z" fill="#FFB8B8"/>
<path d="M211.262 30.4282L208.088 33.6649C208.088 33.6649 198.417 37.364 193.883 33.6649C193.883 33.6649 195.545 30.1199 195.545 30.4282C195.545 30.7364 182.398 32.7401 181.189 38.2888C179.98 43.8374 182.096 53.3935 182.096 53.3935C182.096 53.3935 173.633 94.0836 176.958 95.0084C180.283 95.9332 211.413 103.64 211.11 97.7827C210.808 91.9258 213.528 67.8816 213.528 67.8816L224.106 47.2283C224.106 47.2283 222.595 40.4466 218.969 38.2888C215.342 36.131 211.262 30.4282 211.262 30.4282Z" fill="#2042B8"/>
<path d="M197.812 90.6929L193.883 93.1589C193.883 93.1589 178.771 103.64 186.629 105.489C194.487 107.339 199.021 98.0911 199.021 98.0911L202.043 94.392L197.812 90.6929Z" fill="#FFB8B8"/>
<path opacity="0.1" d="M220.178 45.3789L222.898 48.1532C222.898 48.1532 224.711 74.047 221.084 79.2874C217.458 84.5278 200.835 98.7077 199.928 97.7829C199.021 96.8581 193.279 92.2342 194.488 91.6177C195.697 91.0012 211.77 73.8714 211.77 73.8714L210.506 50.0028L220.178 45.3789Z" fill="black"/>
<path d="M221.386 44.4541L224.106 47.2284C224.106 47.2284 225.92 73.1222 222.293 78.3625C218.666 83.6029 202.043 97.7828 201.136 96.8581C200.23 95.9333 194.487 91.3094 195.696 90.6929C196.905 90.0764 212.979 72.9466 212.979 72.9466L211.715 49.078L221.386 44.4541Z" fill="#2042B8"/>
<path d="M201.118 0.898685C201.118 0.898685 197.625 -0.396845 192.862 2.35615L195.402 3.00392C195.402 3.00392 191.592 3.3278 191.115 8.50991H192.862C192.862 8.50991 191.75 13.0443 192.862 14.3398L193.576 12.9633L195.64 17.1737L196.117 15.0685L197.069 15.3924L197.704 11.9916C197.704 11.9916 199.292 14.4207 200.562 14.5827V12.4775C200.562 12.4775 204.055 16.526 205.167 16.364L203.579 14.0969L205.802 14.5827L204.849 12.9633L210.565 14.5827L209.295 12.9633L213.264 14.2588L215.17 15.0685C215.17 15.0685 217.869 8.75281 214.058 4.38041C210.248 0.00800121 204.691 -0.963635 201.118 0.898685Z" fill="#2F2E41"/>
<path d="M101.278 132.179C101.024 132.342 100.761 132.494 100.49 132.633C98.282 133.766 95.7238 133.959 93.3766 133.17C91.0293 132.381 89.0847 130.675 87.9694 128.426L85.9589 124.36L87.3084 123.666L89.3189 127.732C89.7804 128.667 90.4179 129.499 91.1951 130.182C91.9723 130.866 92.8738 131.386 93.8482 131.714C94.8226 132.042 95.8507 132.17 96.8739 132.093C97.8971 132.015 98.8953 131.732 99.8113 131.261C100.727 130.79 101.544 130.139 102.213 129.346C102.882 128.553 103.392 127.633 103.713 126.639C104.034 125.645 104.159 124.597 104.083 123.553C104.006 122.51 103.728 121.492 103.266 120.558L94.8226 103.482C94.3607 102.548 93.723 101.716 92.9458 101.033C92.1687 100.351 91.2673 99.8308 90.2931 99.5034C89.319 99.1761 88.2912 99.0476 87.2684 99.1254C86.2456 99.2031 85.2478 99.4856 84.332 99.9567C83.4162 100.428 82.6004 101.078 81.9311 101.871C81.2618 102.664 80.7521 103.583 80.4311 104.576C80.1101 105.57 79.9842 106.618 80.0604 107.661C80.1367 108.705 80.4137 109.722 80.8755 110.656L83.8649 116.702L82.5154 117.396L79.5261 111.35C78.4137 109.099 78.2236 106.489 78.9975 104.095C79.7714 101.701 81.446 99.7181 83.6529 98.5829C85.8599 97.4477 88.4185 97.253 90.7662 98.0416C93.1139 98.8302 95.0584 100.538 96.172 102.788L104.615 119.864C105.658 121.973 105.894 124.402 105.277 126.678C104.66 128.955 103.234 130.916 101.278 132.179Z" fill="url(#paint0_linear_664_2451)"/>
<path d="M102.095 153.256C101.844 153.416 101.585 153.566 101.316 153.705C99.1079 154.837 96.5498 155.03 94.2025 154.242C91.8553 153.453 89.9107 151.747 88.7954 149.497L80.352 132.422C79.2388 130.17 79.0481 127.56 79.8218 125.165C80.5955 122.77 82.2702 120.787 84.4776 119.652C86.685 118.516 89.2442 118.322 91.5922 119.111C93.9403 119.9 95.8848 121.608 96.998 123.86L99.216 128.345L97.8665 129.039L95.6485 124.553C95.1866 123.619 94.5489 122.787 93.7718 122.105C92.9946 121.422 92.0932 120.902 91.1191 120.575C90.145 120.247 89.1171 120.119 88.0943 120.197C87.0715 120.275 86.0737 120.557 85.1579 121.028C84.2422 121.499 83.4263 122.15 82.757 122.942C82.0877 123.735 81.578 124.654 81.257 125.648C80.9361 126.641 80.8101 127.69 80.8864 128.733C80.9626 129.776 81.2396 130.794 81.7015 131.728L90.1448 148.803C90.6063 149.738 91.2439 150.571 92.021 151.254C92.7982 151.937 93.6997 152.457 94.6741 152.785C95.6485 153.113 96.6767 153.242 97.6999 153.164C98.723 153.086 99.7212 152.804 100.637 152.333C101.553 151.861 102.369 151.211 103.039 150.418C103.708 149.625 104.218 148.705 104.539 147.711C104.86 146.717 104.985 145.668 104.909 144.625C104.832 143.581 104.554 142.563 104.092 141.629L101.186 135.751L102.535 135.057L105.441 140.935C106.482 143.046 106.716 145.476 106.097 147.753C105.479 150.03 104.052 151.992 102.095 153.256Z" fill="url(#paint1_linear_664_2451)"/>
<path d="M162.3 165.754H22.6675V86.5312H162.3V165.754ZM23.2719 165.137H161.695V87.1478H23.2719V165.137Z" fill="url(#paint2_linear_664_2451)" fill-opacity="0.4"/>
</g>
<defs>
<linearGradient id="paint0_linear_664_2451" x1="76.1913" y1="97.5817" x2="104.184" y2="124.042" gradientUnits="userSpaceOnUse">
<stop stop-color="#FF6600"/>
<stop offset="1" stop-color="#2042B8"/>
</linearGradient>
<linearGradient id="paint1_linear_664_2451" x1="77.0163" y1="118.651" x2="105.01" y2="145.108" gradientUnits="userSpaceOnUse">
<stop stop-color="#FF6600"/>
<stop offset="1" stop-color="#2042B8"/>
</linearGradient>
<linearGradient id="paint2_linear_664_2451" x1="10.6171" y1="86.569" x2="56.7231" y2="188.907" gradientUnits="userSpaceOnUse">
<stop stop-color="#FF6600"/>
<stop offset="1" stop-color="#2042B8"/>
</linearGradient>
<clipPath id="clip0_664_2451">
<rect width="230" height="216" fill="white"/>
</clipPath>
</defs>
</svg>
