<svg width="529" height="384" viewBox="0 0 529 384" fill="none" xmlns="http://www.w3.org/2000/svg">
<path d="M226.714 359.121C325.873 359.121 406.257 278.729 406.257 179.561C406.257 80.3921 325.873 0 226.714 0C127.556 0 47.172 80.3921 47.172 179.561C47.172 278.729 127.556 359.121 226.714 359.121Z" fill="url(#paint0_linear_221_350)" fill-opacity="0.4"/>
<path d="M71.2393 384C110.584 384 142.479 378.896 142.479 372.601C142.479 366.305 110.584 361.201 71.2393 361.201C31.8949 361.201 0 366.305 0 372.601C0 378.896 31.8949 384 71.2393 384Z" fill="#F2F2F2"/>
<path d="M418.772 372.412C479.649 372.412 529 364.515 529 354.774C529 345.033 479.649 337.136 418.772 337.136C357.894 337.136 308.543 345.033 308.543 354.774C308.543 364.515 357.894 372.412 418.772 372.412Z" fill="#F2F2F2"/>
<path d="M394.281 185.234C394.281 185.234 395.219 188.362 389.901 191.178C384.584 193.993 383.019 204.63 389.276 207.759C395.532 210.887 397.409 214.954 394.281 217.77C391.153 220.586 385.522 228.094 393.03 229.971C400.537 231.848 401.476 235.602 399.286 237.167C397.096 238.731 404.291 234.351 404.291 234.351C404.291 234.351 405.542 241.859 412.111 239.982C418.68 238.105 437.137 202.44 427.752 197.435C418.368 192.429 394.281 185.234 394.281 185.234Z" fill="#2F2E41"/>
<path d="M405.619 215.442C405.619 215.442 408.864 226.801 403.185 227.612C399.661 228.161 396.322 229.553 393.451 231.668L403.996 245.46H423.466L435.634 233.291C435.634 233.291 419.409 221.121 422.654 213.82C425.899 206.518 405.619 215.442 405.619 215.442Z" fill="#FFB9B9"/>
<path opacity="0.1" d="M405.619 215.442C405.619 215.442 408.864 226.801 403.185 227.612C399.661 228.161 396.322 229.553 393.451 231.668L403.996 245.46H423.466L435.634 233.291C435.634 233.291 419.409 221.121 422.654 213.82C425.899 206.518 405.619 215.442 405.619 215.442Z" fill="black"/>
<path d="M410.486 356.608L429.144 363.098L442.123 363.909L441.312 352.551L414.542 344.633L410.486 356.608Z" fill="#FFB9B9"/>
<path d="M434.417 354.174C434.417 354.174 434.417 365.532 436.039 365.532C437.662 365.532 459.564 363.098 466.054 365.532C472.544 367.966 482.278 359.042 477.411 354.174C472.544 349.306 464.605 342.004 459.651 343.627C454.697 345.25 434.417 349.306 434.417 349.306V354.174Z" fill="#575A89"/>
<path d="M374.793 343.627C374.793 343.627 365.058 363.098 371.548 364.721C378.038 366.343 385.339 363.909 386.15 363.098C386.961 362.287 398.318 359.042 399.94 360.664C401.563 362.287 401.563 354.174 401.563 354.174L374.793 343.627Z" fill="#575A89"/>
<path d="M382.905 316.854C382.905 316.854 367.492 337.948 378.849 343.627C390.206 349.306 444.557 349.306 448.613 343.627C452.669 337.948 454.292 320.099 448.613 318.477C442.935 316.854 382.905 316.854 382.905 316.854Z" fill="#2F2E41"/>
<path opacity="0.2" d="M382.905 316.854C382.905 316.854 367.492 337.948 378.849 343.627C390.206 349.306 444.557 349.306 448.613 343.627C452.669 337.948 454.292 320.099 448.613 318.477C442.935 316.854 382.905 316.854 382.905 316.854Z" fill="black"/>
<path d="M412.109 221.121C422.413 221.121 430.766 212.767 430.766 202.462C430.766 192.156 422.413 183.802 412.109 183.802C401.804 183.802 393.451 192.156 393.451 202.462C393.451 212.767 401.804 221.121 412.109 221.121Z" fill="#FFB9B9"/>
<path d="M382.905 231.668L399.129 228.423C399.129 228.423 403.185 241.404 416.165 238.97C429.144 236.536 432.389 228.423 432.389 228.423C432.389 228.423 442.123 232.48 442.935 232.48C443.746 232.48 454.292 236.536 454.292 238.97C454.292 241.404 442.123 265.743 442.123 265.743L443.746 309.553L383.716 307.93L387.772 264.931L382.905 231.668Z" fill="#FF6600"/>
<path d="M373.982 252.762C373.982 252.762 369.114 295.761 372.359 299.006C375.604 302.251 388.583 311.175 388.583 311.175V301.44L382.094 289.27L388.583 260.875L373.982 252.762Z" fill="#FFB9B9"/>
<path d="M457.942 251.545C457.942 251.545 455.103 295.761 455.103 297.383C455.103 299.006 447.802 304.685 445.368 304.685C442.935 304.685 441.312 300.628 441.312 300.628L446.991 294.138L442.935 260.875L457.942 251.545Z" fill="#FFB9B9"/>
<path d="M450.236 313.609C450.236 313.609 486.74 293.327 487.551 313.609C488.362 333.891 468.893 342.004 468.893 342.004C468.893 342.004 418.598 357.087 416.57 351.574C414.542 346.061 410.486 337.137 413.731 336.325C416.976 335.514 421.032 333.891 422.654 335.514C424.277 337.137 444.557 323.345 444.557 323.345L450.236 313.609Z" fill="#2F2E41"/>
<path opacity="0.2" d="M467.271 311.175C467.271 311.175 459.97 314.42 457.536 316.854C455.103 319.288 444.557 323.345 444.557 323.345" stroke="black" stroke-width="2" stroke-miterlimit="10"/>
<path d="M387.772 233.291L382.905 231.668C382.905 231.668 365.058 250.328 370.737 255.196C376.415 260.064 379.66 261.686 381.282 263.309C382.905 264.931 391.017 265.743 391.017 265.743L387.772 233.291Z" fill="#FF6600"/>
<path d="M446.991 237.347L454.292 238.97C454.292 238.97 459.97 251.139 461.592 252.762C463.215 254.385 459.159 253.573 456.725 256.818C454.292 260.064 451.858 265.743 446.991 265.743C442.123 265.743 435.634 257.63 435.634 257.63L446.991 237.347Z" fill="#FF6600"/>
<path d="M384.527 320.911C384.527 320.911 353.701 299.006 343.156 315.232C332.61 331.458 388.583 353.362 396.696 356.608C404.808 359.853 412.109 363.098 412.109 363.098C412.109 363.098 419.409 345.25 419.409 342.004C419.409 338.759 413.731 338.759 412.109 338.759C410.486 338.759 403.185 337.137 401.563 334.703C399.94 332.269 384.527 320.911 384.527 320.911Z" fill="#2F2E41"/>
<path opacity="0.2" d="M367.492 315.232C367.492 315.232 375.604 321.722 382.905 323.345C390.206 324.967 392.639 329.024 392.639 329.024" stroke="black" stroke-width="2" stroke-miterlimit="10"/>
<path d="M378.932 284.727L379.58 319.078C379.601 320.212 380.07 321.293 380.884 322.083C381.699 322.873 382.792 323.309 383.927 323.297L447.845 322.578C448.934 322.566 449.978 322.141 450.766 321.389C451.553 320.637 452.026 319.614 452.089 318.526L454.029 284.894C454.063 284.309 453.977 283.724 453.776 283.174C453.576 282.624 453.265 282.12 452.863 281.694C452.461 281.268 451.977 280.929 451.439 280.697C450.901 280.466 450.322 280.346 449.737 280.346H383.231C382.659 280.346 382.093 280.46 381.566 280.681C381.039 280.902 380.562 281.226 380.162 281.634C379.761 282.042 379.446 282.526 379.235 283.057C379.024 283.588 378.921 284.156 378.932 284.727Z" fill="#575A89"/>
<path d="M413.105 179.021C413.105 179.021 414.145 182.487 408.254 185.606C402.363 188.725 400.63 200.509 407.561 203.975C414.492 207.44 416.571 211.946 413.105 215.065C409.64 218.184 403.402 226.502 411.719 228.581C420.036 230.661 421.076 234.82 418.65 236.552C416.224 238.285 424.195 233.433 424.195 233.433C424.195 233.433 425.581 241.751 432.858 239.672C440.135 237.592 447.396 199.793 439.284 190.057C431.741 181.005 413.105 179.021 413.105 179.021Z" fill="#2F2E41"/>
<path d="M410.892 175.454C410.893 170.377 426.082 174.025 432.595 181.114C437.104 186.023 443.954 193.409 438.214 198.616C432.474 203.822 448.053 210.647 452.23 212.716C456.408 214.785 464.658 221.113 457.209 225.358C449.761 229.603 449.881 233.888 452.684 234.903C455.487 235.917 446.504 233.394 446.504 233.394C446.504 233.394 447.411 241.778 439.843 241.738C432.275 241.697 410.562 200.099 415.749 188.537C420.572 177.786 410.892 175.454 410.892 175.454Z" fill="#2F2E41"/>
<path d="M414.182 174.341C393.87 173.118 391.831 188.409 391.831 188.409C391.972 197.258 406.023 192.946 409.925 194.266C414.634 190.878 423.709 184.469 430.2 179.895C425.487 176.577 419.936 174.652 414.182 174.341Z" fill="#2F2E41"/>
<path d="M408.395 271.916C408.395 271.916 390.175 186.516 276.134 124.566" stroke="#3F3D56" stroke-width="2" stroke-miterlimit="10"/>
<path d="M280.833 122.703L281.061 123.64L276.448 124.759L277.901 129.278L276.984 129.573L275.215 124.067L280.833 122.703Z" fill="#3F3D56"/>
<path d="M32.9594 359.175C32.9594 369.991 26.5303 373.768 18.599 373.768C18.4152 373.768 18.2318 373.766 18.0486 373.762C17.6812 373.754 17.3172 373.736 16.9576 373.712C9.79967 373.205 4.23853 369.234 4.23853 359.175C4.23853 348.765 17.5403 335.629 18.5395 334.657L18.5412 334.655C18.5797 334.617 18.599 334.599 18.599 334.599C18.599 334.599 32.9594 348.359 32.9594 359.175Z" fill="url(#paint1_linear_221_350)"/>
<path d="M18.0758 372.113L23.328 364.773L18.0626 372.919L18.0486 373.762C17.6812 373.754 17.3172 373.736 16.9576 373.712L17.5237 362.89L17.5193 362.806L17.5289 362.791L17.5823 361.769L12.3037 353.603L17.5989 361.002L17.6112 361.219L18.039 353.043L13.5199 344.605L18.0941 351.608L18.5395 334.657L18.5412 334.599V334.655L18.4669 348.022L22.9658 342.723L18.4485 349.173L18.3295 356.494L22.5301 349.468L18.312 357.571L18.2455 361.641L24.3438 351.862L18.2227 363.061L18.0758 372.113Z" fill="#3F3D56"/>
<path d="M101.455 356.373L104.527 354.09C104.527 354.09 106.56 365.45 104.291 367.152C102.022 368.854 93.5135 371.69 93.5135 375.094C93.5135 378.498 74.2271 383.036 73.6598 377.93C73.0926 372.825 75.3616 369.988 75.3616 369.988C75.3616 369.988 84.4376 360.911 85.572 359.209C86.7065 357.507 89.5428 354.104 89.5428 354.104L101.455 356.373Z" fill="#2F2E41"/>
<path d="M56.0751 215.113C56.0751 215.113 56.1602 215.613 56.3077 216.526C56.4439 217.337 56.631 218.483 56.8579 219.896C59.2404 234.436 66.1892 277.239 65.7184 278.652C65.1511 280.354 61.1804 286.594 65.7184 288.296C66.1551 288.461 66.6259 288.994 67.1308 289.833C68.1052 291.642 68.9085 293.537 69.5302 295.495C72.236 303.347 75.1291 315.912 76.8024 324.615C77.5342 328.439 78.0333 331.513 78.1808 333.125C78.2321 333.497 78.2378 333.874 78.1978 334.248C77.6306 336.517 81.6013 344.459 83.303 346.729C85.0048 348.998 87.841 351.267 87.2738 353.536C86.7065 355.805 101.455 362.046 103.157 358.075C104.858 354.104 104.858 351.834 105.426 350.7C105.993 349.565 106.56 341.623 103.724 340.488C100.888 339.354 102.589 319.498 99.7532 315.527C98.806 314.205 97.3595 309.729 95.8449 304.345C95.2493 302.235 94.648 299.988 94.0581 297.736C91.6643 288.506 89.5428 279.219 89.5428 279.219L90.11 212.844L58.9114 208.873L58.1116 210.637L56.5176 214.138L56.0751 215.113Z" fill="#2F2E41"/>
<path d="M54.3734 324.036C54.3734 324.036 49.8354 319.498 47.5664 324.036C45.2974 328.575 43.0284 346.161 39.0577 350.132C35.087 354.103 29.9817 373.959 35.6542 375.094C41.3267 376.228 47.5664 373.392 48.1337 369.988C48.7009 366.584 60.6131 348.998 60.6131 347.296C60.6131 345.594 52.6716 339.354 52.6716 339.354L54.3734 324.036Z" fill="#2F2E41"/>
<path d="M124.145 183.912C124.145 183.912 116.771 250.286 115.069 256.527C113.367 262.767 104.291 286.594 101.455 290.565C98.6188 294.536 80.4668 326.873 78.1978 328.575C75.9288 330.277 71.3908 334.815 71.3908 334.815C71.3908 334.815 62.8821 343.325 61.7476 345.027C60.6131 346.729 50.9699 341.623 50.4026 338.219C49.8354 334.815 50.9699 329.142 51.5371 326.873C52.1044 324.604 50.4026 321.2 52.1044 319.498C53.8061 317.796 62.3149 309.286 62.3149 305.315C62.3149 301.344 77.0633 278.084 82.7358 272.979C88.4083 267.873 87.2738 259.363 87.2738 259.363V224.758L56.0751 215.114C56.0751 215.114 57.7769 187.883 61.7476 187.883C65.7184 187.883 117.905 178.806 124.145 183.912Z" fill="#2F2E41"/>
<path d="M78.1978 89.1715C88.5361 89.1715 96.917 80.7897 96.917 70.4504C96.917 60.111 88.5361 51.7292 78.1978 51.7292C67.8595 51.7292 59.4786 60.111 59.4786 70.4504C59.4786 80.7897 67.8595 89.1715 78.1978 89.1715Z" fill="#9F616A"/>
<path d="M84.4376 85.2003C84.4376 85.2003 86.7065 93.7099 89.5428 95.9791C92.379 98.2484 82.1686 107.893 82.1686 107.893L62.8821 109.027L59.4786 98.2484C59.4786 98.2484 65.7184 85.7676 64.0166 77.8253C62.3149 69.883 84.4376 85.2003 84.4376 85.2003Z" fill="#9F616A"/>
<path d="M92.379 94.8446C92.379 94.8446 87.2738 95.4119 86.1393 97.1138C85.0048 98.8158 77.0633 103.922 70.8236 102.787C64.5839 101.652 60.6131 99.9504 59.4786 100.518C58.3441 101.085 56.0751 112.998 56.0751 112.998L62.3149 131.152L61.1804 181.075L59.4786 194.69C59.4786 194.69 56.0751 190.152 69.6891 192.989C83.303 195.825 100.888 190.719 106.56 190.152C112.233 189.585 121.876 187.883 122.443 184.479C123.01 181.075 120.741 168.594 120.741 168.594L111.665 130.585L105.993 110.162L92.379 94.8446Z" fill="#6C63FF"/>
<path d="M87.0135 92.2841C87.0135 92.2841 91.8118 89.7388 93.5135 92.008C95.2153 94.2773 116.771 97.6811 116.771 99.383C116.771 101.085 121.309 147.037 120.174 151.008C119.04 154.979 122.443 159.518 122.443 159.518L126.414 176.537C126.414 176.537 137.192 208.873 132.654 210.008C128.116 211.142 124.145 210.008 122.443 210.008C120.741 210.008 121.309 188.45 116.771 182.777C112.233 177.104 105.993 162.921 104.859 160.085C103.724 157.248 89.5428 118.104 90.11 113.566C90.6773 109.027 87.0135 92.2841 87.0135 92.2841Z" fill="#D0CDE1"/>
<path d="M63.4494 94.8446C63.4494 94.8446 58.9114 94.8446 58.3441 95.9792C57.7769 97.1138 52.1044 104.489 49.8354 106.191C47.5664 107.893 39.6249 115.268 39.6249 116.97C39.6249 118.671 56.0751 131.152 56.0751 131.152C56.0751 131.152 62.8821 164.623 59.4786 175.969C56.0751 187.315 50.9699 214.546 53.2389 216.248C55.5079 217.95 60.6131 218.517 60.6131 216.248C60.6131 213.979 64.0166 189.585 66.8529 184.479C69.6891 179.373 78.1978 147.037 74.7943 137.96C71.3908 128.883 63.4494 94.8446 63.4494 94.8446Z" fill="#D0CDE1"/>
<path d="M138.326 151.008C138.326 151.008 138.893 168.594 132.654 177.671C126.414 186.748 122.443 196.96 122.443 196.96C122.443 196.96 112.233 194.123 110.531 190.719C108.829 187.316 98.0515 190.152 98.0515 189.017C98.0515 187.883 111.098 182.21 112.233 181.075C113.367 179.941 117.338 179.941 119.607 177.671C121.876 175.402 122.443 170.296 122.443 170.296L124.712 155.546L138.326 151.008Z" fill="#9F616A"/>
<path d="M91.0906 58.9073C92.5307 58.7765 94.0159 58.6325 95.2887 57.9461C98.1405 56.408 98.8967 52.0279 96.7258 49.6224C96.1272 49.0104 95.4577 48.472 94.7315 48.0187L90.4196 45.0835C88.5126 43.7854 86.5605 42.4659 84.3363 41.854C82.3245 41.3005 80.1998 41.3574 78.1173 41.4868C74.0746 41.7381 70.007 42.2572 66.2046 43.6531C62.4022 45.049 58.8553 47.3843 56.5524 50.7168C52.9016 55.9997 52.8514 63.1247 54.8622 69.2236C56.8729 75.3224 60.6924 80.6333 64.456 85.8365L66.4087 76.3074C66.5827 75.4586 66.8076 74.5284 67.5134 74.0261C69.2677 72.7776 71.4136 75.341 73.5667 75.3244C74.9501 75.3137 76.1116 74.1757 76.6359 72.8953C77.1602 71.6149 77.1947 70.1969 77.316 68.8187C77.5729 65.8994 78.5932 61.8374 81.3575 60.2274C83.9333 58.7272 88.1952 59.1703 91.0906 58.9073Z" fill="#2F2E41"/>
<path opacity="0.1" d="M90.0405 215.571C90.0405 215.571 88.1247 270.993 86.9902 272.695C85.8557 274.397 86.9902 215.397 86.9902 215.397L90.0405 215.571Z" fill="black"/>
<path d="M112.233 99.3831H116.771C116.771 99.3831 136.057 125.479 133.788 127.181C131.519 128.883 133.788 133.421 133.788 133.421L138.326 141.931C138.326 141.931 143.999 147.037 142.297 148.171C140.595 149.306 138.326 153.844 138.326 153.844C138.326 153.844 126.981 152.143 123.578 158.95L116.221 149.661L112.233 99.3831Z" fill="#D0CDE1"/>
<path d="M113.837 107.777L98.2649 114.208L110.248 143.229L125.82 136.798L113.837 107.777Z" fill="#2F2E41"/>
<path d="M112.012 124.798C113.732 124.088 114.597 122.231 113.944 120.651C113.292 119.07 111.369 118.365 109.649 119.076C107.929 119.786 107.063 121.643 107.716 123.223C108.368 124.803 110.292 125.508 112.012 124.798Z" fill="#6C63FF"/>
<path d="M100.888 144.767C100.888 144.767 60.0459 178.806 53.2389 168.027C46.4319 157.248 60.6131 148.171 60.6131 148.171C60.6131 148.171 73.0926 148.739 87.2738 139.662L101.455 133.421C101.455 133.421 114.401 114.936 118.813 121.975C123.225 129.014 111.282 141.265 100.888 144.767Z" fill="#9F616A"/>
<path d="M45.8647 114.7L39.6249 116.97V133.989L37.3559 137.393C37.3559 137.393 37.9232 144.2 39.6249 145.902C41.3267 147.604 44.7302 147.037 43.5957 151.008C42.9138 153.597 42.7215 156.291 43.0284 158.95C43.0284 158.95 53.2389 171.998 53.8061 170.296C54.3734 168.594 62.3149 147.604 63.4494 147.604C64.5839 147.604 52.1044 114.7 52.1044 114.7H45.8647Z" fill="#D0CDE1"/>
<path d="M120.458 200.647C120.458 200.647 126.323 194.974 123.39 194.69C120.458 194.407 110.247 188.734 108.546 191.57C106.844 194.407 120.458 200.647 120.458 200.647Z" fill="#2F2E41"/>
<path d="M232.009 92.4282C236.528 92.4282 240.192 90.4884 240.192 88.0956C240.192 85.7028 236.528 83.7631 232.009 83.7631C227.49 83.7631 223.826 85.7028 223.826 88.0956C223.826 90.4884 227.49 92.4282 232.009 92.4282Z" fill="#57B894"/>
<path d="M263.297 102.538C244.845 95.568 226.393 95.568 207.942 102.538V79.9119C225.991 74.4647 245.247 74.4647 263.297 79.9119V102.538Z" stroke="#3F3D56" stroke-width="2" stroke-miterlimit="10"/>
<path d="M255.595 97.8583C242.278 92.8282 228.961 92.8282 215.643 97.8583V81.5285C228.67 77.5971 242.568 77.5971 255.595 81.5285V97.8583Z" stroke="#3F3D56" stroke-width="2" stroke-miterlimit="10"/>
<path d="M234.897 90.5025C239.416 90.5025 243.08 88.5628 243.08 86.17C243.08 83.7772 239.416 81.8374 234.897 81.8374C230.378 81.8374 226.714 83.7772 226.714 86.17C226.714 88.5628 230.378 90.5025 234.897 90.5025Z" stroke="#3F3D56" stroke-width="2" stroke-miterlimit="10"/>
<path d="M238.026 119.561C242.454 118.657 245.656 116.024 245.177 113.68C244.699 111.335 240.721 110.167 236.293 111.071C231.865 111.975 228.664 114.608 229.142 116.953C229.62 119.297 233.598 120.465 238.026 119.561Z" fill="#57B894"/>
<path d="M270.703 123.209C251.23 120.071 233.151 123.761 216.466 134.28L211.942 112.111C228.538 103.164 247.405 99.3132 266.179 101.041L270.703 123.209Z" stroke="#3F3D56" stroke-width="2" stroke-miterlimit="10"/>
<path d="M262.221 120.165C248.167 117.9 235.119 120.563 223.076 128.155L219.811 112.155C231.789 105.698 245.406 102.918 258.956 104.165L262.221 120.165Z" stroke="#3F3D56" stroke-width="2" stroke-miterlimit="10"/>
<path d="M240.471 117.097C244.899 116.193 248.1 113.56 247.622 111.216C247.143 108.871 243.166 107.703 238.738 108.607C234.31 109.511 231.108 112.144 231.587 114.489C232.065 116.833 236.043 118.001 240.471 117.097Z" stroke="#3F3D56" stroke-width="2" stroke-miterlimit="10"/>
<path d="M243.626 142.813C243.792 140.426 240.272 138.237 235.763 137.923C231.255 137.609 227.466 139.29 227.299 141.677C227.133 144.064 230.653 146.254 235.162 146.567C239.67 146.881 243.46 145.2 243.626 142.813Z" fill="#57B894"/>
<path d="M265.672 158.825C247.749 150.591 229.342 149.31 210.451 154.981L212.021 132.41C230.406 128.23 249.615 129.566 267.243 136.253L265.672 158.825Z" stroke="#3F3D56" stroke-width="2" stroke-miterlimit="10"/>
<path d="M258.314 153.622C245.378 147.679 232.093 146.755 218.459 150.848L219.592 134.558C232.861 131.54 246.725 132.505 259.448 137.332L258.314 153.622Z" stroke="#3F3D56" stroke-width="2" stroke-miterlimit="10"/>
<path d="M246.641 141.093C246.807 138.706 243.287 136.517 238.778 136.203C234.27 135.889 230.48 137.57 230.314 139.957C230.148 142.344 233.668 144.533 238.177 144.847C242.685 145.161 246.474 143.48 246.641 141.093Z" stroke="#3F3D56" stroke-width="2" stroke-miterlimit="10"/>
<path d="M199.721 103.063C199.721 103.063 164.344 98.2224 139.08 113.029" stroke="#3F3D56" stroke-width="2" stroke-miterlimit="10"/>
<path d="M139.931 108.054L140.85 108.344L139.414 112.869L144.032 113.971L143.807 114.908L138.184 113.565L139.931 108.054Z" fill="#3F3D56"/>
<defs>
<linearGradient id="paint0_linear_221_350" x1="16.1825" y1="0.17135" x2="287.965" y2="342.402" gradientUnits="userSpaceOnUse">
<stop stop-color="#FF6600"/>
<stop offset="1" stop-color="#2042B8"/>
</linearGradient>
<linearGradient id="paint1_linear_221_350" x1="1.75989" y1="334.618" x2="32.0974" y2="362.632" gradientUnits="userSpaceOnUse">
<stop stop-color="#FF6600"/>
<stop offset="1" stop-color="#2042B8"/>
</linearGradient>
</defs>
</svg>
